<?xml version="1.0" encoding="UTF-8" ?>
<!DOCTYPE svg PUBLIC "-//W3C//DTD SVG 1.1//EN" "http://www.w3.org/Graphics/SVG/1.1/DTD/svg11.dtd">
<svg width="19pt" height="18pt" viewBox="0 0 19 18" version="1.1" xmlns="http://www.w3.org/2000/svg">
<g id="#068427e0">
<path fill="#068427" opacity="0.88" d=" M 0.00 0.00 L 0.93 0.00 C 3.32 0.96 5.63 2.39 6.19 5.11 C 10.22 5.16 14.26 5.14 18.30 5.17 C 17.86 8.18 17.00 11.10 15.94 13.94 C 12.33 14.18 8.70 14.19 5.10 13.95 C 4.56 10.50 4.11 7.04 3.64 3.59 C 2.42 2.91 1.20 2.24 0.00 1.52 L 0.00 0.00 M 5.81 7.02 C 5.94 7.39 6.21 8.12 6.34 8.49 C 9.42 8.66 12.51 8.68 15.59 8.48 C 15.75 8.12 16.07 7.39 16.23 7.02 C 12.76 6.99 9.28 7.00 5.81 7.02 M 5.66 10.94 C 8.57 12.45 11.95 11.60 15.08 11.81 C 15.00 11.44 14.84 10.71 14.76 10.34 C 11.73 10.24 8.56 9.87 5.66 10.94 Z" />
<path fill="#068427" opacity="0.88" d=" M 6.76 18.00 C 5.36 17.03 5.67 14.32 7.76 14.91 C 9.50 15.29 8.78 17.46 7.57 18.00 L 6.76 18.00 Z" />
<path fill="#068427" opacity="0.88" d=" M 12.93 18.00 C 11.36 17.16 11.79 14.27 13.86 14.92 C 15.62 15.32 14.81 17.34 13.73 18.00 L 12.93 18.00 Z" />
</g>
</svg>
