<?xml version="1.0" encoding="UTF-8" ?>
<!DOCTYPE svg PUBLIC "-//W3C//DTD SVG 1.1//EN" "http://www.w3.org/Graphics/SVG/1.1/DTD/svg11.dtd">
<svg width="417pt" height="242pt" viewBox="0 0 417 242" version="1.1" xmlns="http://www.w3.org/2000/svg">
<g id="#f4f4f4ff">
</g>
<g id="#0aab09ff">
<path fill="#0aab09" opacity="1.00" d=" M 9.64 68.99 C 12.80 69.00 16.00 68.97 19.08 68.17 C 18.84 69.15 18.65 70.13 18.50 71.13 C 18.99 70.97 19.96 70.64 20.45 70.48 C 20.67 69.98 21.11 68.97 21.33 68.46 C 22.21 68.58 23.95 68.82 24.82 68.94 C 24.91 70.38 24.99 71.82 25.07 73.27 C 20.49 73.32 16.51 76.29 11.84 75.60 C 11.84 73.64 12.16 71.64 11.73 69.70 C 10.34 71.20 11.00 73.64 10.48 75.50 C 12.67 76.03 14.89 76.39 17.12 76.70 C 14.73 78.20 12.02 77.09 9.52 76.64 L 9.07 76.56 C 9.23 76.28 9.54 75.73 9.69 75.45 C 9.06 73.31 8.88 71.11 9.64 68.99 M 13.33 70.54 C 12.59 71.35 12.56 73.50 13.91 73.66 C 15.35 73.16 15.13 69.76 13.33 70.54 Z" />
<path fill="#0aab09" opacity="1.00" d=" M 25.74 68.29 C 28.10 68.95 27.72 71.44 28.13 73.30 C 25.07 74.13 26.18 70.03 25.74 68.29 Z" />
<path fill="#0aab09" opacity="1.00" d=" M 38.08 104.83 C 38.41 104.93 39.08 105.12 39.42 105.21 L 39.92 105.65 C 39.90 106.81 38.59 108.18 37.41 107.93 C 37.07 106.78 37.29 105.75 38.08 104.83 Z" />
<path fill="#0aab09" opacity="1.00" d=" M 81.35 148.73 C 82.44 148.50 83.55 148.41 84.66 148.46 C 86.98 149.24 89.42 149.50 91.86 149.49 C 93.21 149.48 94.57 149.46 95.92 149.43 C 95.88 149.71 95.78 150.26 95.73 150.54 C 90.95 149.61 85.40 152.25 81.35 148.73 Z" />
</g>
<g id="#e7e7e9ff">
<path fill="#e7e7e9" opacity="1.00" d=" M 33.91 72.88 C 34.95 70.75 36.74 68.65 39.30 68.60 C 45.50 68.25 51.77 68.54 57.93 69.27 C 59.63 69.31 62.41 72.02 60.12 73.16 C 54.75 73.92 49.41 71.92 44.06 72.86 C 40.70 73.43 37.28 73.27 33.91 72.88 Z" />
</g>
<g id="#024b02ff">
<path fill="#024b02" opacity="1.00" d=" M 13.33 70.54 C 15.13 69.76 15.35 73.16 13.91 73.66 C 12.56 73.50 12.59 71.35 13.33 70.54 Z" />
</g>
<g id="#dcdddfff">
<path fill="#dcdddf" opacity="1.00" d=" M 27.00 76.17 C 30.31 76.84 33.57 77.98 36.98 77.87 C 45.71 77.73 54.47 77.53 63.15 78.57 C 68.61 79.09 75.22 78.08 79.18 82.80 C 80.63 84.25 78.85 85.85 78.31 87.28 C 73.79 87.24 69.26 87.33 64.77 87.84 C 50.77 88.51 36.76 87.97 22.75 88.26 C 20.88 87.97 19.01 87.64 17.14 87.30 C 17.49 84.02 16.87 78.98 20.85 77.77 C 23.99 76.06 27.26 79.82 30.23 77.72 C 29.42 77.33 27.81 76.55 27.00 76.17 Z" />
</g>
<g id="#d2d0d2ff">
<path fill="#d2d0d2" opacity="1.00" d=" M 7.04 83.28 C 7.16 80.89 7.41 78.44 9.07 76.56 L 9.52 76.64 C 10.87 78.40 12.71 79.62 14.65 80.62 C 14.22 82.51 13.78 84.40 13.47 86.31 C 11.30 85.36 9.17 84.32 7.04 83.28 Z" />
</g>
<g id="#ea5c82ff">
<path fill="#ea5c82" opacity="1.00" d=" M 5.40 87.85 C 5.80 86.33 5.45 84.17 7.04 83.28 C 9.17 84.32 11.30 85.36 13.47 86.31 C 12.12 97.84 12.58 109.46 11.74 121.02 C 12.34 127.52 12.73 134.04 12.44 140.58 C 12.82 138.56 13.14 136.53 13.39 134.49 C 14.05 140.77 14.50 147.12 13.88 153.42 C 11.51 147.70 11.04 141.48 10.73 135.37 C 9.84 135.38 8.96 135.40 8.08 135.42 C 7.57 128.25 6.76 121.10 6.54 113.91 C 5.61 123.58 6.79 133.31 5.64 142.98 C 5.32 143.75 4.67 145.29 4.34 146.06 C 3.55 133.71 4.13 121.34 4.01 108.98 C 3.86 101.91 4.79 94.88 5.40 87.85 Z" />
</g>
<g id="#e34265ff">
<path fill="#e34265" opacity="1.00" d=" M 14.22 118.50 C 14.83 108.09 14.91 97.51 17.14 87.30 C 19.01 87.64 20.88 87.97 22.75 88.26 C 25.47 88.75 28.23 89.09 31.00 88.97 C 39.68 88.70 48.39 88.49 57.04 89.38 C 45.40 90.92 33.66 89.63 21.98 90.20 C 22.84 93.22 24.86 96.01 28.07 96.77 C 33.43 97.74 38.84 96.34 44.23 96.46 C 48.19 96.57 52.13 97.09 56.06 97.54 C 48.04 98.24 39.99 97.62 31.96 97.90 C 30.27 97.79 28.95 98.89 27.63 99.77 C 28.15 99.98 29.17 100.41 29.68 100.62 C 30.13 100.54 31.03 100.37 31.48 100.29 C 31.81 100.26 32.46 100.19 32.79 100.16 C 32.02 101.73 31.30 103.38 31.36 105.17 C 31.33 112.77 30.47 120.34 30.67 127.94 C 30.66 131.62 30.98 135.31 30.58 138.98 C 30.68 140.22 29.40 140.60 28.61 141.22 C 26.69 135.85 25.39 130.30 24.54 124.67 C 21.46 122.60 20.64 118.80 18.43 116.01 C 16.13 122.61 16.36 129.61 15.34 136.43 C 14.19 130.50 15.34 124.43 14.22 118.50 Z" />
</g>
<g id="#f4b8ccff">
<path fill="#f4b8cc" opacity="1.00" d=" M 64.77 87.84 C 69.26 87.33 73.79 87.24 78.31 87.28 C 80.59 87.27 82.87 87.33 85.15 87.42 C 86.07 91.89 86.21 96.47 86.06 101.02 C 84.46 101.05 82.86 101.07 81.27 101.11 C 80.77 96.75 80.59 92.36 80.67 87.97 C 75.38 87.39 70.07 87.89 64.77 87.84 Z" />
</g>
<g id="#e8577bff">
<path fill="#e8577b" opacity="1.00" d=" M 22.75 88.26 C 36.76 87.97 50.77 88.51 64.77 87.84 C 70.07 87.89 75.38 87.39 80.67 87.97 C 80.59 92.36 80.77 96.75 81.27 101.11 C 79.10 101.23 76.87 101.11 74.76 101.69 C 73.16 102.93 71.92 104.57 70.26 105.74 C 69.75 104.17 71.35 103.05 72.12 101.90 C 71.03 101.72 69.94 101.54 68.86 101.35 C 70.40 100.98 71.88 100.38 73.29 99.66 C 58.83 99.01 44.33 99.23 29.86 99.37 C 30.27 99.60 31.08 100.06 31.48 100.29 C 31.03 100.37 30.13 100.54 29.68 100.62 C 29.17 100.41 28.15 99.98 27.63 99.77 C 28.95 98.89 30.27 97.79 31.96 97.90 C 39.99 97.62 48.04 98.24 56.06 97.54 C 52.13 97.09 48.19 96.57 44.23 96.46 C 38.84 96.34 33.43 97.74 28.07 96.77 C 24.86 96.01 22.84 93.22 21.98 90.20 C 33.66 89.63 45.40 90.92 57.04 89.38 C 48.39 88.49 39.68 88.70 31.00 88.97 C 28.23 89.09 25.47 88.75 22.75 88.26 Z" />
</g>
<g id="#a5283bff">
<path fill="#a5283b" opacity="1.00" d=" M 29.86 99.37 C 44.33 99.23 58.83 99.01 73.29 99.66 C 71.88 100.38 70.40 100.98 68.86 101.35 C 68.59 101.30 68.05 101.20 67.77 101.15 L 66.46 100.23 C 61.65 99.47 56.78 100.23 51.95 100.22 C 45.56 100.45 39.18 99.87 32.79 100.16 C 32.46 100.19 31.81 100.26 31.48 100.29 C 31.08 100.06 30.27 99.60 29.86 99.37 Z" />
<path fill="#a5283b" opacity="1.00" d=" M 6.22 156.47 C 10.75 155.53 13.79 159.56 17.49 161.32 C 20.55 162.03 23.88 161.54 26.71 163.19 C 20.55 163.44 14.05 164.23 8.37 161.22 C 7.65 159.63 6.91 158.06 6.22 156.47 Z" />
</g>
<g id="#de3555ff">
<path fill="#de3555" opacity="1.00" d=" M 32.79 100.16 C 39.18 99.87 45.56 100.45 51.95 100.22 C 56.78 100.23 61.65 99.47 66.46 100.23 L 67.77 101.15 C 66.87 101.08 65.08 100.93 64.18 100.85 C 62.69 100.91 61.21 100.98 59.73 101.07 C 59.40 102.31 59.05 103.56 58.75 104.82 C 58.84 104.31 59.03 103.31 59.12 102.81 L 59.36 101.70 C 50.58 101.69 41.79 101.84 33.00 101.81 C 33.07 116.44 32.85 131.08 32.81 145.72 L 33.41 146.06 L 34.64 146.77 C 33.08 146.87 31.51 146.98 29.94 147.11 C 29.68 147.55 29.15 148.44 28.89 148.88 C 35.86 149.11 42.84 148.70 49.80 148.35 C 49.69 153.32 49.70 158.33 50.77 163.21 C 42.75 162.97 34.73 163.59 26.71 163.19 C 23.88 161.54 20.55 162.03 17.49 161.32 C 13.79 159.56 10.75 155.53 6.22 156.47 C 6.06 156.03 5.74 155.15 5.58 154.71 C 5.66 154.33 5.82 153.56 5.90 153.18 C 9.07 153.43 12.24 153.98 15.03 155.59 C 14.76 149.20 14.69 142.79 15.34 136.43 C 16.36 129.61 16.13 122.61 18.43 116.01 C 20.64 118.80 21.46 122.60 24.54 124.67 C 25.39 130.30 26.69 135.85 28.61 141.22 C 29.40 140.60 30.68 140.22 30.58 138.98 C 30.98 135.31 30.66 131.62 30.67 127.94 C 30.47 120.34 31.33 112.77 31.36 105.17 C 31.30 103.38 32.02 101.73 32.79 100.16 Z" />
<path fill="#de3555" opacity="1.00" d=" M 82.69 135.02 L 82.88 134.81 C 82.81 135.72 82.69 136.62 82.50 137.51 C 82.24 137.46 81.73 137.37 81.47 137.32 C 77.99 136.88 74.48 137.18 70.99 136.93 L 69.77 136.82 C 73.32 134.89 77.72 135.86 81.56 136.29 C 81.84 135.97 82.40 135.34 82.69 135.02 Z" />
</g>
<g id="#9fd888ff">
<path fill="#9fd888" opacity="1.00" d=" M 59.73 101.07 C 61.21 100.98 62.69 100.91 64.18 100.85 L 64.19 101.24 C 64.22 102.21 64.29 104.16 64.32 105.13 C 65.88 105.17 67.44 105.20 69.01 105.27 C 69.09 105.68 69.26 106.50 69.35 106.91 C 65.84 107.77 62.21 107.34 58.65 107.14 C 58.61 106.95 58.52 106.57 58.48 106.38 C 58.55 105.99 58.68 105.21 58.75 104.82 C 59.05 103.56 59.40 102.31 59.73 101.07 M 61.20 102.38 C 60.31 103.62 60.52 104.36 61.83 104.60 C 62.71 103.36 62.50 102.62 61.20 102.38 Z" />
</g>
<g id="#eaf4f4ff">
<path fill="#eaf4f4" opacity="1.00" d=" M 33.00 101.81 C 41.79 101.84 50.58 101.69 59.36 101.70 L 59.12 102.81 C 54.08 103.26 50.69 107.13 48.28 111.23 C 44.54 108.03 39.42 109.73 34.97 109.10 C 34.98 109.60 34.98 110.60 34.98 111.10 C 37.37 111.27 39.78 111.26 42.08 110.48 C 44.00 111.10 45.99 111.49 48.01 111.66 C 47.34 112.63 46.66 113.59 45.98 114.55 C 47.88 113.84 49.87 113.32 50.42 115.88 C 49.88 115.92 48.80 116.00 48.26 116.05 C 47.69 116.07 46.55 116.11 45.97 116.13 C 45.52 116.09 44.61 116.00 44.15 115.95 C 41.04 116.04 37.93 116.00 34.82 115.99 L 34.92 117.01 C 34.96 117.65 35.04 118.94 35.09 119.58 C 39.89 119.31 44.70 119.46 49.49 119.01 C 49.53 120.44 49.61 121.89 49.49 123.32 C 47.27 124.45 44.46 123.81 42.02 124.25 C 41.72 123.73 41.13 122.69 40.83 122.17 C 38.89 122.10 36.95 122.03 35.01 121.97 C 35.03 124.82 35.03 127.67 35.02 130.52 C 36.86 129.86 38.89 129.15 39.55 131.68 C 41.06 131.42 42.57 131.14 44.09 130.94 C 45.68 130.90 47.26 130.93 48.85 130.96 C 48.93 131.69 49.09 133.14 49.17 133.87 C 47.94 134.08 46.72 134.28 45.49 134.48 C 45.43 134.90 45.31 135.74 45.25 136.16 C 45.21 136.83 45.13 138.18 45.09 138.85 C 45.09 139.31 45.10 140.23 45.10 140.69 C 45.11 141.08 45.14 141.87 45.15 142.27 C 46.38 142.34 47.62 142.40 48.86 142.43 C 49.30 142.63 50.18 143.01 50.62 143.21 C 50.58 144.08 50.54 144.96 50.49 145.84 C 44.79 145.79 39.10 146.01 33.41 146.06 L 32.81 145.72 C 32.85 131.08 33.07 116.44 33.00 101.81 M 35.58 104.33 C 34.42 104.96 35.06 108.01 36.39 106.40 C 37.24 105.70 37.03 102.83 35.58 104.33 M 38.08 104.83 C 37.29 105.75 37.07 106.78 37.41 107.93 C 38.59 108.18 39.90 106.81 39.92 105.65 C 41.04 106.66 42.66 106.29 44.03 106.45 C 45.57 106.30 47.84 107.21 48.29 105.04 C 45.33 104.90 42.37 105.01 39.42 105.21 C 39.08 105.12 38.41 104.93 38.08 104.83 M 40.07 114.55 L 39.97 113.00 C 38.20 112.99 36.43 112.97 34.66 112.98 C 34.87 113.41 35.29 114.28 35.50 114.71 C 37.94 114.74 40.38 114.62 42.81 114.47 C 42.88 114.10 43.01 113.37 43.08 113.01 C 41.51 111.58 40.87 113.46 40.07 114.55 M 34.78 133.32 C 37.38 134.92 40.50 134.30 43.26 133.52 C 40.49 132.78 37.60 132.90 34.78 133.32 M 34.70 136.63 C 35.88 137.74 37.57 137.29 39.03 137.35 C 40.45 137.14 42.27 137.63 43.27 136.28 C 40.41 136.24 37.54 136.37 34.70 136.63 M 35.66 140.71 C 37.87 140.92 40.09 141.03 42.30 141.11 C 42.28 140.56 42.22 139.46 42.20 138.91 C 39.96 139.19 37.20 138.63 35.66 140.71 M 36.05 142.31 C 34.35 145.20 39.37 142.65 36.05 142.31 M 39.18 142.08 C 37.86 142.81 37.87 143.48 39.20 144.07 C 40.52 143.34 40.51 142.67 39.18 142.08 Z" />
</g>
<g id="#6cbf69ff">
<path fill="#6cbf69" opacity="1.00" d=" M 61.20 102.38 C 62.50 102.62 62.71 103.36 61.83 104.60 C 60.52 104.36 60.31 103.62 61.20 102.38 Z" />
</g>
<g id="#249622ff">
<path fill="#249622" opacity="1.00" d=" M 64.19 101.24 C 65.76 101.42 67.33 101.61 68.90 101.82 C 68.93 102.68 68.98 104.41 69.01 105.27 C 67.44 105.20 65.88 105.17 64.32 105.13 C 64.29 104.16 64.22 102.21 64.19 101.24 Z" />
</g>
<g id="#c9c1c7ff">
<path fill="#c9c1c7" opacity="1.00" d=" M 48.28 111.23 C 50.69 107.13 54.08 103.26 59.12 102.81 C 59.03 103.31 58.84 104.31 58.75 104.82 C 58.68 105.21 58.55 105.99 58.48 106.38 L 58.03 104.86 C 56.92 105.91 55.84 106.98 54.77 108.08 L 56.49 108.12 C 55.38 109.30 54.31 110.53 53.26 111.76 C 53.89 114.39 53.58 117.08 52.91 119.67 C 52.62 120.69 52.32 121.70 52.02 122.72 C 50.61 124.99 49.32 127.34 48.12 129.74 C 48.73 129.42 49.93 128.78 50.53 128.45 C 50.88 130.16 51.23 131.86 51.58 133.56 C 50.86 134.31 50.14 135.05 49.43 135.81 C 48.19 136.79 48.90 138.65 50.06 139.36 C 49.79 139.75 49.24 140.55 48.96 140.94 C 47.67 140.84 46.39 140.76 45.10 140.69 C 45.10 140.23 45.09 139.31 45.09 138.85 C 47.66 140.04 47.81 135.35 45.25 136.16 C 45.31 135.74 45.43 134.90 45.49 134.48 C 46.72 134.28 47.94 134.08 49.17 133.87 C 49.09 133.14 48.93 131.69 48.85 130.96 C 47.26 130.93 45.68 130.90 44.09 130.94 C 43.75 130.08 43.40 129.23 43.06 128.37 C 41.88 128.49 40.71 128.61 39.53 128.71 C 40.38 127.59 41.64 126.96 42.88 126.38 C 41.93 126.13 40.98 125.87 40.03 125.61 C 40.68 125.15 41.35 124.69 42.02 124.25 C 44.46 123.81 47.27 124.45 49.49 123.32 C 49.61 121.89 49.53 120.44 49.49 119.01 L 50.08 118.90 C 50.16 118.15 50.33 116.63 50.42 115.88 C 49.87 113.32 47.88 113.84 45.98 114.55 C 46.66 113.59 47.34 112.63 48.01 111.66 L 48.28 111.23 Z" />
</g>
<g id="#d4d5d5ff">
<path fill="#d4d5d5" opacity="1.00" d=" M 75.46 103.47 C 81.83 102.29 88.41 103.17 94.85 103.33 C 97.53 104.90 97.01 108.56 96.96 111.20 C 94.57 109.90 93.27 107.50 91.68 105.42 C 89.83 104.95 87.91 105.00 86.02 104.98 C 84.54 105.00 83.05 105.05 81.56 105.12 C 80.10 105.33 78.52 105.35 77.21 106.11 C 75.19 107.21 76.56 109.53 76.62 111.27 C 75.54 111.92 74.54 112.93 73.18 112.85 C 71.93 111.86 70.93 110.60 69.89 109.40 C 72.11 107.78 73.70 105.55 75.46 103.47 Z" />
</g>
<g id="#2aab40ff">
<path fill="#2aab40" opacity="1.00" d=" M 35.58 104.33 C 37.03 102.83 37.24 105.70 36.39 106.40 C 35.06 108.01 34.42 104.96 35.58 104.33 Z" />
</g>
<g id="#3b3c40ff">
<path fill="#3b3c40" opacity="1.00" d=" M 39.42 105.21 C 42.37 105.01 45.33 104.90 48.29 105.04 C 47.84 107.21 45.57 106.30 44.03 106.45 C 42.66 106.29 41.04 106.66 39.92 105.65 L 39.42 105.21 Z" />
<path fill="#3b3c40" opacity="1.00" d=" M 56.49 108.12 C 56.91 107.95 57.74 107.62 58.16 107.46 C 56.51 110.40 54.95 113.43 54.09 116.71 C 53.15 120.72 53.66 124.86 53.67 128.94 C 53.83 134.58 53.46 140.23 53.83 145.87 C 53.47 145.86 52.76 145.86 52.40 145.85 C 53.07 143.64 53.27 141.32 53.30 139.03 C 53.36 132.57 53.56 126.11 52.91 119.67 C 53.58 117.08 53.89 114.39 53.26 111.76 C 54.31 110.53 55.38 109.30 56.49 108.12 Z" />
<path fill="#3b3c40" opacity="1.00" d=" M 34.97 109.10 C 39.42 109.73 44.54 108.03 48.28 111.23 L 48.01 111.66 C 45.99 111.49 44.00 111.10 42.08 110.48 C 39.78 111.26 37.37 111.27 34.98 111.10 C 34.98 110.60 34.98 109.60 34.97 109.10 Z" />
<path fill="#3b3c40" opacity="1.00" d=" M 40.07 114.55 C 40.87 113.46 41.51 111.58 43.08 113.01 C 43.01 113.37 42.88 114.10 42.81 114.47 C 40.38 114.62 37.94 114.74 35.50 114.71 C 35.29 114.28 34.87 113.41 34.66 112.98 C 36.43 112.97 38.20 112.99 39.97 113.00 L 40.07 114.55 Z" />
<path fill="#3b3c40" opacity="1.00" d=" M 87.28 128.94 C 89.34 126.76 92.45 126.61 95.22 126.14 C 95.15 127.54 93.76 129.51 95.54 130.38 C 95.59 130.90 95.71 131.95 95.77 132.47 C 95.23 134.53 94.72 136.60 94.31 138.69 C 93.93 138.96 93.17 139.49 92.79 139.76 L 91.96 140.03 C 91.49 140.04 90.54 140.07 90.07 140.09 C 90.46 139.37 91.25 137.94 91.64 137.22 C 90.39 137.78 89.11 138.26 87.83 138.71 C 87.70 137.27 87.58 135.84 87.45 134.40 C 88.61 134.04 89.77 133.69 90.93 133.34 C 90.80 134.15 90.54 135.75 90.41 136.55 C 91.43 135.66 92.24 134.59 92.79 133.35 C 89.93 132.93 86.69 132.63 86.19 129.09 C 87.89 129.55 89.58 130.13 91.29 130.56 C 91.56 130.30 92.09 129.77 92.35 129.51 C 92.48 129.16 92.75 128.45 92.88 128.09 C 91.49 127.85 90.41 128.36 89.65 129.59 C 89.06 129.43 87.87 129.11 87.28 128.94 M 93.05 136.15 C 91.82 136.89 91.86 137.61 93.17 138.31 C 94.38 137.57 94.34 136.85 93.05 136.15 Z" />
<path fill="#3b3c40" opacity="1.00" d=" M 70.72 129.96 C 74.48 130.53 78.31 130.00 82.08 130.57 C 78.27 131.07 74.40 130.28 70.65 131.24 L 70.72 129.96 Z" />
<path fill="#3b3c40" opacity="1.00" d=" M 73.14 133.14 C 76.72 132.84 80.33 132.98 83.86 133.70 C 83.61 133.97 83.12 134.53 82.88 134.81 L 82.69 135.02 L 82.74 133.82 C 79.53 133.92 76.32 133.80 73.11 133.74 L 73.14 133.14 Z" />
<path fill="#3b3c40" opacity="1.00" d=" M 45.10 140.69 C 46.39 140.76 47.67 140.84 48.96 140.94 C 49.61 141.00 50.90 141.13 51.55 141.19 C 50.66 141.62 49.76 142.04 48.86 142.43 C 47.62 142.40 46.38 142.34 45.15 142.27 C 45.14 141.87 45.11 141.08 45.10 140.69 Z" />
<path fill="#3b3c40" opacity="1.00" d=" M 8.37 161.22 C 14.05 164.23 20.55 163.44 26.71 163.19 C 34.73 163.59 42.75 162.97 50.77 163.21 C 51.57 163.24 53.15 163.29 53.94 163.32 C 56.43 165.44 59.36 166.98 62.55 167.75 C 74.42 169.47 86.55 167.14 98.43 168.90 C 88.70 168.90 78.95 168.52 69.24 169.27 C 65.28 169.03 61.36 168.41 57.51 167.46 C 51.91 164.20 45.25 165.21 39.07 165.16 C 31.76 165.53 24.49 164.44 17.18 164.67 C 14.52 164.50 11.85 164.44 9.18 164.45 C 8.41 163.42 6.56 162.29 8.37 161.22 Z" />
</g>
<g id="#dddfe0ff">
<path fill="#dddfe0" opacity="1.00" d=" M 54.77 108.08 C 55.84 106.98 56.92 105.91 58.03 104.86 L 58.48 106.38 C 58.52 106.57 58.61 106.95 58.65 107.14 C 59.70 110.98 59.79 114.98 60.28 118.91 C 58.21 118.20 56.15 117.46 54.09 116.71 C 54.95 113.43 56.51 110.40 58.16 107.46 C 57.74 107.62 56.91 107.95 56.49 108.12 L 54.77 108.08 Z" />
</g>
<g id="#e84e70ff">
<path fill="#e84e70" opacity="1.00" d=" M 77.21 106.11 C 78.52 105.35 80.10 105.33 81.56 105.12 C 81.57 107.04 81.59 108.95 81.61 110.87 C 79.94 110.97 78.28 111.10 76.62 111.27 C 76.56 109.53 75.19 107.21 77.21 106.11 Z" />
</g>
<g id="#f4b1c5ff">
<path fill="#f4b1c5" opacity="1.00" d=" M 81.56 105.12 C 83.05 105.05 84.54 105.00 86.02 104.98 C 86.04 107.11 86.06 109.24 86.07 111.37 C 84.58 111.21 83.10 111.04 81.61 110.87 C 81.59 108.95 81.57 107.04 81.56 105.12 Z" />
</g>
<g id="#e6476fff">
<path fill="#e6476f" opacity="1.00" d=" M 6.54 113.91 C 6.76 121.10 7.57 128.25 8.08 135.42 C 8.96 135.40 9.84 135.38 10.73 135.37 C 11.04 141.48 11.51 147.70 13.88 153.42 C 14.50 147.12 14.05 140.77 13.39 134.49 C 13.47 129.16 13.19 123.77 14.22 118.50 C 15.34 124.43 14.19 130.50 15.34 136.43 C 14.69 142.79 14.76 149.20 15.03 155.59 C 12.24 153.98 9.07 153.43 5.90 153.18 C 5.82 153.56 5.66 154.33 5.58 154.71 L 5.39 155.54 C 4.96 152.39 4.46 149.24 4.34 146.06 C 4.67 145.29 5.32 143.75 5.64 142.98 C 6.79 133.31 5.61 123.58 6.54 113.91 Z" />
</g>
<g id="#d04ba9ff">
<path fill="#d04ba9" opacity="1.00" d=" M 98.51 116.02 C 99.09 115.80 99.67 115.58 100.25 115.37 C 101.17 118.48 101.80 121.68 101.72 124.94 C 101.68 138.17 100.99 151.40 101.40 164.63 C 100.71 166.10 99.96 167.55 99.20 168.99 L 98.43 168.90 C 86.55 167.14 74.42 169.47 62.55 167.75 C 63.65 165.87 65.10 164.10 65.64 161.95 C 66.13 158.56 65.63 155.14 65.57 151.74 C 65.64 140.99 65.71 130.25 65.89 119.50 C 77.63 120.01 89.38 118.93 101.13 119.24 C 100.26 118.16 99.38 117.09 98.51 116.02 M 67.38 124.69 C 67.57 135.56 67.51 146.44 67.73 157.31 C 77.08 157.02 86.44 157.38 95.78 156.83 C 95.74 154.73 95.73 152.64 95.73 150.54 C 95.78 150.26 95.88 149.71 95.92 149.43 C 95.85 143.77 96.30 138.11 95.77 132.47 C 95.71 131.95 95.59 130.90 95.54 130.38 C 95.85 128.45 95.92 126.50 95.96 124.55 C 86.44 124.73 76.85 123.74 67.38 124.69 Z" />
</g>
<g id="#ed5a6eff">
<path fill="#ed5a6e" opacity="1.00" d=" M 34.82 115.99 C 37.93 116.00 41.04 116.04 44.15 115.95 C 44.46 117.48 45.07 117.54 45.97 116.13 C 46.55 116.11 47.69 116.07 48.26 116.05 C 47.91 116.52 47.22 117.47 46.87 117.95 C 42.90 117.76 38.59 118.93 34.92 117.01 L 34.82 115.99 Z" />
</g>
<g id="#e4233dff">
<path fill="#e4233d" opacity="1.00" d=" M 44.15 115.95 C 44.61 116.00 45.52 116.09 45.97 116.13 C 45.07 117.54 44.46 117.48 44.15 115.95 Z" />
</g>
<g id="#e2030fff">
<path fill="#e2030f" opacity="1.00" d=" M 48.26 116.05 C 48.80 116.00 49.88 115.92 50.42 115.88 C 50.33 116.63 50.16 118.15 50.08 118.90 L 49.49 119.01 C 44.70 119.46 39.89 119.31 35.09 119.58 C 35.04 118.94 34.96 117.65 34.92 117.01 C 38.59 118.93 42.90 117.76 46.87 117.95 C 47.22 117.47 47.91 116.52 48.26 116.05 Z" />
</g>
<g id="#d75faeff">
<path fill="#d75fae" opacity="1.00" d=" M 54.09 116.71 C 56.15 117.46 58.21 118.20 60.28 118.91 C 59.18 126.58 60.12 134.33 59.91 142.03 C 59.83 147.07 59.77 152.11 59.78 157.16 C 59.81 159.99 60.06 163.02 62.20 165.12 C 63.59 160.73 64.82 156.28 65.57 151.74 C 65.63 155.14 66.13 158.56 65.64 161.95 C 65.10 164.10 63.65 165.87 62.55 167.75 C 59.36 166.98 56.43 165.44 53.94 163.32 C 54.08 157.50 54.22 151.68 53.83 145.87 C 53.46 140.23 53.83 134.58 53.67 128.94 C 53.66 124.86 53.15 120.72 54.09 116.71 Z" />
</g>
<g id="#f4dcefff">
<path fill="#f4dcef" opacity="1.00" d=" M 60.28 118.91 C 60.65 119.92 61.03 120.92 61.43 121.91 C 61.71 120.97 61.99 120.03 62.27 119.10 C 63.08 119.18 63.89 119.27 64.71 119.37 C 62.97 127.01 63.01 134.96 61.66 142.70 C 61.22 142.53 60.35 142.20 59.91 142.03 C 60.12 134.33 59.18 126.58 60.28 118.91 Z" />
</g>
<g id="#83637aff">
<path fill="#83637a" opacity="1.00" d=" M 52.02 122.72 C 52.32 121.70 52.62 120.69 52.91 119.67 C 53.56 126.11 53.36 132.57 53.30 139.03 C 53.27 141.32 53.07 143.64 52.40 145.85 C 51.92 145.85 50.97 145.85 50.49 145.84 C 50.54 144.96 50.58 144.08 50.62 143.21 C 50.18 143.01 49.30 142.63 48.86 142.43 C 49.76 142.04 50.66 141.62 51.55 141.19 C 50.90 141.13 49.61 141.00 48.96 140.94 C 49.24 140.55 49.79 139.75 50.06 139.36 C 51.26 138.28 51.14 136.23 49.43 135.81 C 50.14 135.05 50.86 134.31 51.58 133.56 C 51.23 131.86 50.88 130.16 50.53 128.45 C 49.93 128.78 48.73 129.42 48.12 129.74 C 49.32 127.34 50.61 124.99 52.02 122.72 Z" />
<path fill="#83637a" opacity="1.00" d=" M 34.70 136.63 C 37.54 136.37 40.41 136.24 43.27 136.28 C 42.27 137.63 40.45 137.14 39.03 137.35 C 37.57 137.29 35.88 137.74 34.70 136.63 Z" />
<path fill="#83637a" opacity="1.00" d=" M 83.32 155.40 C 83.17 152.38 86.07 152.74 88.27 152.53 C 88.43 153.03 88.74 154.03 88.90 154.52 C 87.04 154.80 85.18 155.09 83.32 155.40 Z" />
</g>
<g id="#efb9d9ff">
<path fill="#efb9d9" opacity="1.00" d=" M 61.66 142.70 C 63.01 134.96 62.97 127.01 64.71 119.37 C 65.67 132.22 63.00 144.99 61.94 157.76 C 61.40 157.61 60.32 157.31 59.78 157.16 C 59.77 152.11 59.83 147.07 59.91 142.03 C 60.35 142.20 61.22 142.53 61.66 142.70 Z" />
</g>
<g id="#e38ac1ff">
<path fill="#e38ac1" opacity="1.00" d=" M 64.71 119.37 L 65.89 119.50 C 65.71 130.25 65.64 140.99 65.57 151.74 C 64.82 156.28 63.59 160.73 62.20 165.12 C 60.06 163.02 59.81 159.99 59.78 157.16 C 60.32 157.31 61.40 157.61 61.94 157.76 C 63.00 144.99 65.67 132.22 64.71 119.37 Z" />
</g>
<g id="#d0d1ccff">
<path fill="#d0d1cc" opacity="1.00" d=" M 35.01 121.97 C 36.95 122.03 38.89 122.10 40.83 122.17 C 41.13 122.69 41.72 123.73 42.02 124.25 C 41.35 124.69 40.68 125.15 40.03 125.61 C 40.98 125.87 41.93 126.13 42.88 126.38 C 41.64 126.96 40.38 127.59 39.53 128.71 C 40.71 128.61 41.88 128.49 43.06 128.37 C 43.40 129.23 43.75 130.08 44.09 130.94 C 42.57 131.14 41.06 131.42 39.55 131.68 C 38.89 129.15 36.86 129.86 35.02 130.52 C 35.03 127.67 35.03 124.82 35.01 121.97 Z" />
</g>
<g id="#e5e5e5ff">
<path fill="#e5e5e5" opacity="1.00" d=" M 67.38 124.69 C 76.85 123.74 86.44 124.73 95.96 124.55 C 95.92 126.50 95.85 128.45 95.54 130.38 C 93.76 129.51 95.15 127.54 95.22 126.14 C 92.45 126.61 89.34 126.76 87.28 128.94 C 85.87 128.85 84.46 128.80 83.05 128.79 C 84.08 129.79 85.21 130.69 86.41 131.48 C 84.80 133.69 84.26 136.39 83.77 139.03 C 86.46 139.54 89.22 141.18 91.96 140.03 L 92.79 139.76 C 93.77 140.60 94.75 141.44 95.73 142.28 C 94.15 142.89 92.57 143.50 90.99 144.11 C 88.67 142.32 85.74 141.99 82.90 141.96 C 83.14 143.06 83.38 144.17 83.63 145.28 C 84.37 144.60 85.12 143.92 85.87 143.24 C 86.03 144.02 86.20 144.79 86.36 145.56 C 85.79 146.53 85.22 147.49 84.66 148.46 C 83.55 148.41 82.44 148.50 81.35 148.73 C 85.40 152.25 90.95 149.61 95.73 150.54 C 95.73 152.64 95.74 154.73 95.78 156.83 C 86.44 157.38 77.08 157.02 67.73 157.31 C 67.51 146.44 67.57 135.56 67.38 124.69 M 69.92 127.84 C 71.30 127.89 72.68 127.94 74.06 127.97 C 75.55 127.98 77.04 127.97 78.53 127.94 C 77.95 125.59 75.36 126.35 73.59 126.06 C 72.04 125.22 70.11 126.02 69.92 127.84 M 70.72 129.96 L 70.65 131.24 C 74.40 130.28 78.27 131.07 82.08 130.57 C 78.31 130.00 74.48 130.53 70.72 129.96 M 70.37 133.03 C 70.31 136.33 73.49 131.69 70.37 133.03 M 73.14 133.14 L 73.11 133.74 C 76.32 133.80 79.53 133.92 82.74 133.82 L 82.69 135.02 C 82.40 135.34 81.84 135.97 81.56 136.29 C 77.72 135.86 73.32 134.89 69.77 136.82 L 70.99 136.93 L 70.90 137.99 C 74.42 137.84 78.07 138.49 81.47 137.32 C 81.73 137.37 82.24 137.46 82.50 137.51 C 82.69 136.62 82.81 135.72 82.88 134.81 C 83.12 134.53 83.61 133.97 83.86 133.70 C 80.33 132.98 76.72 132.84 73.14 133.14 M 77.28 149.19 L 77.47 150.34 C 77.48 150.42 77.50 150.58 77.51 150.66 C 77.52 151.21 77.55 152.32 77.56 152.87 C 78.62 152.84 79.68 152.80 80.74 152.77 C 80.63 151.71 80.51 150.65 80.40 149.59 C 79.36 149.46 78.32 149.33 77.28 149.19 M 83.32 155.40 C 85.18 155.09 87.04 154.80 88.90 154.52 C 88.74 154.03 88.43 153.03 88.27 152.53 C 86.07 152.74 83.17 152.38 83.32 155.40 M 77.47 154.32 C 77.34 155.73 79.81 155.76 80.56 154.95 C 80.71 153.52 78.21 153.51 77.47 154.32 Z" />
</g>
<g id="#a6d69cff">
<path fill="#a6d69c" opacity="1.00" d=" M 69.92 127.84 C 70.11 126.02 72.04 125.22 73.59 126.06 C 73.71 126.54 73.95 127.50 74.06 127.97 C 72.68 127.94 71.30 127.89 69.92 127.84 Z" />
</g>
<g id="#a9a7a7ff">
<path fill="#a9a7a7" opacity="1.00" d=" M 73.59 126.06 C 75.36 126.35 77.95 125.59 78.53 127.94 C 77.04 127.97 75.55 127.98 74.06 127.97 C 73.95 127.50 73.71 126.54 73.59 126.06 Z" />
</g>
<g id="#ab356aff">
<path fill="#ab356a" opacity="1.00" d=" M 89.65 129.59 C 90.41 128.36 91.49 127.85 92.88 128.09 C 92.75 128.45 92.48 129.16 92.35 129.51 C 91.47 129.97 90.57 130.00 89.65 129.59 Z" />
</g>
<g id="#dfd9ddff">
<path fill="#dfd9dd" opacity="1.00" d=" M 83.05 128.79 C 84.46 128.80 85.87 128.85 87.28 128.94 C 87.87 129.11 89.06 129.43 89.65 129.59 C 90.57 130.00 91.47 129.97 92.35 129.51 C 92.09 129.77 91.56 130.30 91.29 130.56 C 89.58 130.13 87.89 129.55 86.19 129.09 C 86.69 132.63 89.93 132.93 92.79 133.35 C 92.24 134.59 91.43 135.66 90.41 136.55 C 90.54 135.75 90.80 134.15 90.93 133.34 C 89.77 133.69 88.61 134.04 87.45 134.40 C 87.58 135.84 87.70 137.27 87.83 138.71 C 89.11 138.26 90.39 137.78 91.64 137.22 C 91.25 137.94 90.46 139.37 90.07 140.09 C 90.54 140.07 91.49 140.04 91.96 140.03 C 89.22 141.18 86.46 139.54 83.77 139.03 C 84.26 136.39 84.80 133.69 86.41 131.48 C 85.21 130.69 84.08 129.79 83.05 128.79 Z" />
</g>
<g id="#b7b7b9ff">
<path fill="#b7b7b9" opacity="1.00" d=" M 34.78 133.32 C 37.60 132.90 40.49 132.78 43.26 133.52 C 40.50 134.30 37.38 134.92 34.78 133.32 Z" />
</g>
<g id="#8d9392ff">
<path fill="#8d9392" opacity="1.00" d=" M 70.37 133.03 C 73.49 131.69 70.31 136.33 70.37 133.03 Z" />
</g>
<g id="#c9cac9ff">
<path fill="#c9cac9" opacity="1.00" d=" M 94.31 138.69 C 94.72 136.60 95.23 134.53 95.77 132.47 C 96.30 138.11 95.85 143.77 95.92 149.43 C 94.57 149.46 93.21 149.48 91.86 149.49 C 92.88 148.60 93.90 147.73 94.92 146.85 C 93.61 145.93 92.32 144.99 90.99 144.11 C 92.57 143.50 94.15 142.89 95.73 142.28 C 94.75 141.44 93.77 140.60 92.79 139.76 C 93.17 139.49 93.93 138.96 94.31 138.69 Z" />
</g>
<g id="#6d6b6cff">
<path fill="#6d6b6c" opacity="1.00" d=" M 45.25 136.16 C 47.81 135.35 47.66 140.04 45.09 138.85 C 45.13 138.18 45.21 136.83 45.25 136.16 Z" />
</g>
<g id="#624d5dff">
<path fill="#624d5d" opacity="1.00" d=" M 49.43 135.81 C 51.14 136.23 51.26 138.28 50.06 139.36 C 48.90 138.65 48.19 136.79 49.43 135.81 Z" />
</g>
<g id="#bbabbbff">
<path fill="#bbabbb" opacity="1.00" d=" M 93.05 136.15 C 94.34 136.85 94.38 137.57 93.17 138.31 C 91.86 137.61 91.82 136.89 93.05 136.15 Z" />
</g>
<g id="#eb51b4ff">
<path fill="#eb51b4" opacity="1.00" d=" M 70.99 136.93 C 74.48 137.18 77.99 136.88 81.47 137.32 C 78.07 138.49 74.42 137.84 70.90 137.99 L 70.99 136.93 Z" />
</g>
<g id="#c8c7c9ff">
<path fill="#c8c7c9" opacity="1.00" d=" M 35.66 140.71 C 37.20 138.63 39.96 139.19 42.20 138.91 C 42.22 139.46 42.28 140.56 42.30 141.11 C 40.09 141.03 37.87 140.92 35.66 140.71 Z" />
</g>
<g id="#c4c1bfff">
<path fill="#c4c1bf" opacity="1.00" d=" M 36.05 142.31 C 39.37 142.65 34.35 145.20 36.05 142.31 Z" />
</g>
<g id="#bdb9bbff">
<path fill="#bdb9bb" opacity="1.00" d=" M 39.18 142.08 C 40.51 142.67 40.52 143.34 39.20 144.07 C 37.87 143.48 37.86 142.81 39.18 142.08 Z" />
</g>
<g id="#e1dce0ff">
<path fill="#e1dce0" opacity="1.00" d=" M 82.90 141.96 C 85.74 141.99 88.67 142.32 90.99 144.11 C 92.32 144.99 93.61 145.93 94.92 146.85 C 93.90 147.73 92.88 148.60 91.86 149.49 C 89.42 149.50 86.98 149.24 84.66 148.46 C 85.22 147.49 85.79 146.53 86.36 145.56 C 86.20 144.79 86.03 144.02 85.87 143.24 C 85.12 143.92 84.37 144.60 83.63 145.28 C 83.38 144.17 83.14 143.06 82.90 141.96 Z" />
</g>
<g id="#901b47ff">
<path fill="#901b47" opacity="1.00" d=" M 33.41 146.06 C 39.10 146.01 44.79 145.79 50.49 145.84 C 50.97 145.85 51.92 145.85 52.40 145.85 C 52.76 145.86 53.47 145.86 53.83 145.87 C 54.22 151.68 54.08 157.50 53.94 163.32 C 53.15 163.29 51.57 163.24 50.77 163.21 C 49.70 158.33 49.69 153.32 49.80 148.35 L 49.77 147.12 C 44.76 146.36 39.69 146.78 34.64 146.77 L 33.41 146.06 Z" />
</g>
<g id="#e25571ff">
<path fill="#e25571" opacity="1.00" d=" M 29.94 147.11 C 31.51 146.98 33.08 146.87 34.64 146.77 C 39.69 146.78 44.76 146.36 49.77 147.12 L 49.80 148.35 C 42.84 148.70 35.86 149.11 28.89 148.88 C 29.15 148.44 29.68 147.55 29.94 147.11 Z" />
</g>
<g id="#d5d4d6ff">
<path fill="#d5d4d6" opacity="1.00" d=" M 77.28 149.19 C 78.32 149.33 79.36 149.46 80.40 149.59 C 80.51 150.65 80.63 151.71 80.74 152.77 C 79.68 152.80 78.62 152.84 77.56 152.87 C 77.55 152.32 77.52 151.21 77.51 150.66 C 77.50 150.58 77.48 150.42 77.47 150.34 L 77.28 149.19 Z" />
</g>
<g id="#7f7d7eff">
<path fill="#7f7d7e" opacity="1.00" d=" M 77.47 150.34 C 77.48 150.42 77.50 150.58 77.51 150.66 C 77.50 150.58 77.48 150.42 77.47 150.34 Z" />
</g>
<g id="#c6c8cbff">
<path fill="#c6c8cb" opacity="1.00" d=" M 77.47 154.32 C 78.21 153.51 80.71 153.52 80.56 154.95 C 79.81 155.76 77.34 155.73 77.47 154.32 Z" />
</g>
<g id="#c3aeb2ff">
<path fill="#c3aeb2" opacity="1.00" d=" M 5.39 155.54 L 5.58 154.71 C 5.74 155.15 6.06 156.03 6.22 156.47 C 6.91 158.06 7.65 159.63 8.37 161.22 C 6.56 162.29 8.41 163.42 9.18 164.45 C 11.85 164.44 14.52 164.50 17.18 164.67 C 17.68 165.13 18.68 166.04 19.18 166.50 C 27.42 167.31 35.72 166.64 43.98 166.54 C 48.51 166.55 52.97 167.53 57.51 167.46 C 61.36 168.41 65.28 169.03 69.24 169.27 C 64.60 170.70 59.62 171.08 54.89 169.84 C 48.91 168.20 42.64 168.13 36.51 168.84 C 25.30 168.46 13.67 169.09 3.00 165.00 C 2.99 162.87 2.99 160.75 3.00 158.63 C 3.52 158.19 4.55 157.31 5.06 156.87 C 5.15 156.54 5.31 155.88 5.39 155.54 Z" />
</g>
<g id="#f4e0e4ff">
<path fill="#f4e0e4" opacity="1.00" d=" M 3.00 165.00 C 13.67 169.09 25.30 168.46 36.51 168.84 C 31.35 170.27 26.02 170.99 20.82 172.27 C 14.89 172.99 8.96 171.25 3.00 171.83 C 3.00 169.55 3.03 167.27 3.00 165.00 Z" />
</g>
<g id="#998c91ff">
<path fill="#998c91" opacity="1.00" d=" M 17.18 164.67 C 24.49 164.44 31.76 165.53 39.07 165.16 C 45.25 165.21 51.91 164.20 57.51 167.46 C 52.97 167.53 48.51 166.55 43.98 166.54 C 35.72 166.64 27.42 167.31 19.18 166.50 C 18.68 166.04 17.68 165.13 17.18 164.67 Z" />
</g>
<g id="#cab5c4ff">
<path fill="#cab5c4" opacity="1.00" d=" M 101.40 164.63 C 102.97 164.80 104.54 164.98 106.12 165.16 C 106.24 169.03 102.25 169.77 99.20 168.99 C 99.96 167.55 100.71 166.10 101.40 164.63 Z" />
</g>
</svg>
