<?xml version="1.0" encoding="UTF-8" ?>
<!DOCTYPE svg PUBLIC "-//W3C//DTD SVG 1.1//EN" "http://www.w3.org/Graphics/SVG/1.1/DTD/svg11.dtd">
<svg width="417pt" height="242pt" viewBox="0 0 417 242" version="1.1" xmlns="http://www.w3.org/2000/svg">
<g id="#f4f4f4ff">
<path fill="#f4f4f4" opacity="1.00" d=" M 85.43 131.03 C 86.01 131.68 86.01 131.68 85.43 131.03 Z" />
<path fill="#f4f4f4" opacity="1.00" d=" M 87.38 160.46 L 88.08 161.15 L 88.71 161.76 C 87.03 163.74 85.44 165.80 83.91 167.91 C 83.03 167.90 81.27 167.88 80.40 167.87 C 82.89 165.56 85.11 162.99 87.38 160.46 Z" />
</g>
<g id="#078d0aff">
<path fill="#078d0a" opacity="1.00" d=" M 11.72 73.80 C 11.53 71.60 10.80 67.48 14.07 67.36 C 18.70 67.85 23.40 67.24 28.01 68.02 C 27.90 70.22 27.91 72.42 28.10 74.61 C 25.17 74.72 22.24 74.85 19.32 74.61 C 19.48 73.14 19.64 71.68 19.80 70.21 L 19.29 70.18 C 19.17 71.44 19.06 72.71 18.94 73.97 C 16.26 73.73 18.34 70.04 17.65 68.36 C 16.35 70.38 16.83 72.85 16.60 75.12 C 14.62 73.77 15.80 70.53 16.36 68.72 C 16.08 68.64 15.52 68.48 15.24 68.40 C 14.33 70.59 15.08 73.10 14.19 75.32 C 13.20 72.90 14.01 70.25 13.18 67.82 C 12.44 69.48 11.52 73.00 13.67 73.74 C 12.17 74.35 11.70 75.68 11.71 77.26 C 11.38 76.89 10.73 76.15 10.41 75.78 C 10.73 75.28 11.39 74.30 11.72 73.80 M 18.39 67.95 L 18.33 70.03 C 20.29 68.54 22.70 68.96 24.95 68.88 C 25.63 69.91 26.32 70.93 27.01 71.95 C 27.03 70.95 27.08 68.95 27.10 67.96 C 24.20 68.10 21.29 68.20 18.39 67.95 Z" />
<path fill="#078d0a" opacity="1.00" d=" M 27.87 111.00 C 29.67 107.16 34.07 106.57 37.79 107.54 C 35.62 107.79 33.38 107.59 31.25 108.13 C 31.34 108.54 31.50 109.34 31.59 109.75 L 33.02 109.28 C 34.02 111.36 32.28 112.90 30.67 113.74 C 29.74 112.82 28.81 111.91 27.87 111.00 M 29.70 110.46 C 30.05 112.25 30.70 112.58 31.65 111.45 C 31.41 110.14 30.76 109.81 29.70 110.46 Z" />
<path fill="#078d0a" opacity="1.00" d=" M 80.99 122.62 C 81.54 121.63 82.16 120.68 82.86 119.79 C 82.76 120.60 82.56 122.22 82.46 123.03 L 83.86 123.15 C 83.76 122.40 83.56 120.89 83.46 120.13 C 84.30 120.86 85.03 121.69 85.63 122.62 C 84.45 124.20 82.33 123.67 80.99 122.62 Z" />
<path fill="#078d0a" opacity="1.00" d=" M 59.32 148.28 C 61.15 148.80 60.35 150.40 59.73 151.62 C 59.30 151.76 58.44 152.05 58.02 152.19 C 57.98 152.75 57.90 153.88 57.86 154.45 C 55.80 153.60 57.59 150.14 59.47 150.65 C 59.43 150.06 59.36 148.88 59.32 148.28 Z" />
</g>
<g id="#74ca3dff">
<path fill="#74ca3d" opacity="1.00" d=" M 18.39 67.95 C 21.29 68.20 24.20 68.10 27.10 67.96 C 27.08 68.95 27.03 70.95 27.01 71.95 C 26.32 70.93 25.63 69.91 24.95 68.88 C 22.70 68.96 20.29 68.54 18.33 70.03 L 18.39 67.95 Z" />
<path fill="#74ca3d" opacity="1.00" d=" M 74.81 93.17 C 75.10 92.83 75.68 92.15 75.97 91.82 C 80.91 91.28 85.90 91.62 90.85 91.91 C 90.17 94.27 90.30 96.73 90.53 99.15 C 88.63 99.68 86.67 99.92 84.70 100.07 C 84.73 98.02 84.71 95.98 84.49 93.95 C 84.32 95.96 84.28 97.98 84.29 100.00 L 82.78 100.01 C 82.84 97.92 82.86 95.82 82.42 93.77 C 82.20 95.83 82.19 97.91 82.22 99.98 C 80.02 99.87 77.83 99.75 75.65 99.48 C 76.55 98.88 77.54 98.47 78.60 98.24 C 78.46 96.81 78.31 95.40 78.17 93.98 C 77.05 93.71 75.93 93.44 74.81 93.17 Z" />
</g>
<g id="#d7d7d7ff">
<path fill="#d7d7d7" opacity="1.00" d=" M 61.49 71.14 C 64.90 70.69 68.46 70.00 71.86 70.91 C 75.06 74.47 74.68 79.53 74.30 83.95 C 72.13 82.78 69.88 81.70 67.41 81.37 C 67.57 79.16 68.57 76.22 66.21 74.81 C 63.75 73.41 60.73 73.91 58.01 73.73 C 52.78 73.89 47.46 73.35 42.30 74.36 C 39.04 75.64 39.07 79.81 39.76 82.68 C 40.32 84.57 41.01 86.42 41.75 88.25 C 40.97 89.05 40.19 89.86 39.41 90.66 C 35.87 86.66 29.15 84.36 29.08 78.21 C 30.58 77.91 32.14 77.78 33.57 77.21 C 35.46 75.50 36.63 73.15 38.50 71.42 C 40.17 70.52 42.19 70.95 44.01 70.85 C 43.37 71.52 42.73 72.20 42.09 72.88 C 48.49 73.00 55.68 74.50 61.49 71.14 Z" />
</g>
<g id="#c4c4c4ff">
<path fill="#c4c4c4" opacity="1.00" d=" M 44.01 70.85 C 49.83 71.01 55.66 70.99 61.49 71.14 C 55.68 74.50 48.49 73.00 42.09 72.88 C 42.73 72.20 43.37 71.52 44.01 70.85 Z" />
</g>
<g id="#44b818ff">
<path fill="#44b818" opacity="1.00" d=" M 12.99 75.55 C 18.30 75.74 23.88 76.62 29.00 74.81 C 29.01 75.35 29.02 76.41 29.03 76.94 C 27.69 77.00 26.34 77.07 25.00 77.14 C 21.00 77.41 16.98 77.25 12.99 76.91 L 12.99 75.55 Z" />
</g>
<g id="#eaeaeaff">
<path fill="#eaeaea" opacity="1.00" d=" M 25.00 77.14 C 26.34 77.07 27.69 77.00 29.03 76.94 L 29.08 78.21 C 29.15 84.36 35.87 86.66 39.41 90.66 C 40.19 89.86 40.97 89.05 41.75 88.25 C 41.01 86.42 40.32 84.57 39.76 82.68 C 41.90 84.02 43.92 85.55 45.92 87.09 C 49.27 88.25 52.88 88.04 56.37 88.39 C 52.93 88.92 49.45 88.88 45.99 89.11 C 44.45 89.66 43.32 90.94 41.89 91.70 C 38.98 92.58 35.94 92.88 32.97 93.50 C 35.30 93.84 37.63 94.16 39.95 94.49 C 34.91 97.30 29.03 96.53 23.61 97.98 C 22.99 97.96 21.75 97.93 21.13 97.91 C 17.76 92.48 16.93 86.05 14.46 80.26 C 18.49 78.63 22.94 79.62 27.16 79.44 C 26.44 78.67 25.72 77.90 25.00 77.14 Z" />
</g>
<g id="#e0e0e0ff">
<path fill="#e0e0e0" opacity="1.00" d=" M 4.90 94.00 C 7.24 88.71 8.80 83.15 10.89 77.77 C 13.25 83.81 12.67 90.60 13.03 96.99 C 12.02 96.66 11.02 96.31 10.03 95.97 C 8.31 95.34 6.60 94.67 4.90 94.00 Z" />
</g>
<g id="#d8d8d8ff">
<path fill="#d8d8d8" opacity="1.00" d=" M 45.92 87.09 C 52.12 86.92 58.35 86.54 64.53 87.27 C 61.89 88.10 59.11 88.27 56.37 88.39 C 52.88 88.04 49.27 88.25 45.92 87.09 Z" />
</g>
<g id="#3ff4f4ff">
<path fill="#3ff4f4" opacity="1.00" d=" M 4.90 94.00 C 6.60 94.67 8.31 95.34 10.03 95.97 C 10.41 96.70 10.79 97.43 11.17 98.17 C 9.94 103.19 9.48 108.47 10.46 113.57 C 11.70 119.77 11.05 126.11 11.60 132.36 C 11.58 136.90 10.71 141.50 12.08 145.95 C 14.09 153.02 10.55 160.67 13.99 167.45 C 15.50 165.09 16.89 162.55 17.36 159.76 C 17.13 156.64 15.96 153.55 16.61 150.38 C 17.91 143.98 18.66 137.48 20.34 131.16 C 21.57 120.47 22.37 109.65 21.95 98.89 L 22.58 98.85 C 23.91 99.46 25.22 100.11 26.53 100.76 C 26.69 102.06 26.85 103.36 27.01 104.67 C 26.44 104.67 25.31 104.69 24.74 104.70 C 23.92 106.25 23.70 108.00 23.56 109.72 C 21.45 126.40 22.04 143.25 21.75 160.01 C 21.42 163.90 22.82 168.68 18.98 171.25 C 19.43 172.03 19.89 172.81 20.34 173.59 C 17.73 174.73 15.46 176.52 12.79 177.54 C 9.65 176.25 6.43 174.95 3.86 172.65 C 3.93 172.32 4.06 171.66 4.13 171.33 C 5.11 167.26 4.34 163.08 4.42 158.96 C 4.59 142.30 4.60 125.64 4.64 108.98 C 4.70 103.99 4.14 98.96 4.90 94.00 Z" />
</g>
<g id="#6ff4f4ff">
<path fill="#6ff4f4" opacity="1.00" d=" M 10.03 95.97 C 11.02 96.31 12.02 96.66 13.03 96.99 C 13.16 105.90 13.11 114.80 13.31 123.70 C 13.31 129.18 12.53 134.87 14.30 140.17 C 14.91 136.13 16.18 132.26 17.41 128.39 C 19.36 118.78 19.71 108.95 20.96 99.25 L 21.95 98.89 C 22.37 109.65 21.57 120.47 20.34 131.16 C 18.66 137.48 17.91 143.98 16.61 150.38 C 15.96 153.55 17.13 156.64 17.36 159.76 C 16.89 162.55 15.50 165.09 13.99 167.45 C 10.55 160.67 14.09 153.02 12.08 145.95 C 10.71 141.50 11.58 136.90 11.60 132.36 C 11.05 126.11 11.70 119.77 10.46 113.57 C 9.48 108.47 9.94 103.19 11.17 98.17 C 10.79 97.43 10.41 96.70 10.03 95.97 Z" />
<path fill="#6ff4f4" opacity="1.00" d=" M 59.52 120.34 C 61.57 120.30 63.64 120.33 65.65 120.76 C 61.98 121.21 58.32 121.72 54.64 121.99 C 54.92 121.82 55.49 121.49 55.77 121.32 C 57.01 120.95 58.26 120.63 59.52 120.34 Z" />
</g>
<g id="#d2f4f4ff">
<path fill="#d2f4f4" opacity="1.00" d=" M 13.03 96.99 C 14.64 97.19 16.24 97.40 17.85 97.58 C 16.25 98.05 16.19 99.72 16.20 101.10 C 16.59 111.43 14.37 121.62 14.55 131.96 C 14.23 129.19 13.76 126.45 13.31 123.70 C 13.11 114.80 13.16 105.90 13.03 96.99 Z" />
<path fill="#d2f4f4" opacity="1.00" d=" M 29.70 110.46 C 30.76 109.81 31.41 110.14 31.65 111.45 C 30.70 112.58 30.05 112.25 29.70 110.46 Z" />
<path fill="#d2f4f4" opacity="1.00" d=" M 81.39 130.99 C 84.48 129.38 81.56 134.24 81.39 130.99 Z" />
</g>
<g id="#aaf4f4ff">
<path fill="#aaf4f4" opacity="1.00" d=" M 16.20 101.10 C 16.19 99.72 16.25 98.05 17.85 97.58 C 18.67 97.67 20.31 97.83 21.13 97.91 C 21.75 97.93 22.99 97.96 23.61 97.98 C 28.48 98.37 33.36 98.49 38.24 98.43 C 33.02 98.89 27.79 98.59 22.58 98.85 L 21.95 98.89 L 20.96 99.25 C 19.71 108.95 19.36 118.78 17.41 128.39 C 16.18 132.26 14.91 136.13 14.30 140.17 C 12.53 134.87 13.31 129.18 13.31 123.70 C 13.76 126.45 14.23 129.19 14.55 131.96 C 14.37 121.62 16.59 111.43 16.20 101.10 Z" />
<path fill="#aaf4f4" opacity="1.00" d=" M 70.30 168.87 C 74.20 168.53 78.11 168.58 82.01 168.71 C 86.98 168.83 91.99 168.12 96.93 169.01 C 88.11 170.17 79.12 169.94 70.30 168.87 Z" />
</g>
<g id="#23f3e7ff">
<path fill="#23f3e7" opacity="1.00" d=" M 38.24 98.43 C 50.71 98.09 63.20 97.74 75.68 97.78 C 73.95 100.97 69.97 101.72 68.10 104.71 C 54.40 104.51 40.70 104.90 27.01 104.67 C 26.85 103.36 26.69 102.06 26.53 100.76 C 25.22 100.11 23.91 99.46 22.58 98.85 C 27.79 98.59 33.02 98.89 38.24 98.43 Z" />
</g>
<g id="#13f3e5ff">
<path fill="#13f3e5" opacity="1.00" d=" M 23.56 109.72 C 23.70 108.00 23.92 106.25 24.74 104.70 C 25.31 104.69 26.44 104.67 27.01 104.67 C 40.70 104.90 54.40 104.51 68.10 104.71 L 68.18 106.46 C 63.70 105.98 59.18 106.17 54.69 106.34 C 44.88 106.32 35.08 106.51 25.27 106.40 C 25.42 125.23 25.64 144.06 25.66 162.88 C 23.33 161.82 23.66 159.12 23.60 157.01 C 23.74 147.36 23.64 137.71 23.68 128.06 C 23.61 121.94 24.26 115.82 23.56 109.72 Z" />
</g>
<g id="#dcdddeff">
<path fill="#dcddde" opacity="1.00" d=" M 25.27 106.40 C 35.08 106.51 44.88 106.32 54.69 106.34 L 55.79 106.39 C 54.57 107.78 53.42 109.23 52.15 110.57 C 48.64 112.56 46.05 115.56 45.08 119.53 C 44.65 118.22 44.19 116.93 43.68 115.65 C 42.99 116.77 42.48 117.98 41.93 119.18 C 40.82 117.73 39.40 116.59 37.88 115.59 C 38.00 116.48 38.23 118.25 38.34 119.14 C 38.06 119.12 37.49 119.08 37.21 119.06 C 37.06 118.16 36.77 116.36 36.62 115.46 C 34.96 116.54 35.36 118.47 35.25 120.15 C 37.20 121.00 38.89 120.01 39.67 118.14 C 39.52 121.16 42.22 119.63 43.59 119.13 L 44.65 120.56 C 46.16 120.73 47.68 120.81 49.21 120.92 C 49.20 121.35 49.19 122.21 49.18 122.64 C 48.28 122.62 46.47 122.59 45.56 122.57 L 44.67 122.55 C 43.18 122.42 41.66 122.31 40.22 122.79 L 38.76 122.69 C 37.32 122.42 35.85 122.32 34.39 122.37 C 32.68 122.37 30.97 122.43 29.26 122.53 L 28.71 122.56 C 28.73 123.37 28.78 124.99 28.81 125.80 L 29.24 126.96 C 30.92 126.98 32.59 126.92 34.27 126.88 C 32.85 129.73 29.82 130.07 26.98 130.19 C 25.88 135.95 26.96 141.83 27.07 147.63 L 27.65 147.56 C 28.45 147.61 30.05 147.70 30.85 147.74 L 31.60 149.01 C 30.40 149.17 29.21 149.37 28.02 149.56 C 28.53 150.21 29.03 150.86 29.53 151.51 C 32.34 151.86 35.20 151.56 37.76 150.28 C 39.08 151.00 40.40 151.77 41.51 152.79 C 41.45 155.72 41.22 158.64 41.01 161.56 C 40.22 160.89 39.40 160.25 38.61 159.58 C 38.46 161.80 35.94 161.23 35.38 159.57 C 35.07 159.93 34.47 160.64 34.16 160.99 C 33.06 160.30 31.96 159.62 30.86 158.93 C 31.00 159.52 31.28 160.71 31.42 161.30 C 34.85 161.29 38.31 161.16 41.72 161.65 L 42.13 163.38 C 36.65 163.16 31.10 163.74 25.66 162.88 C 25.64 144.06 25.42 125.23 25.27 106.40 M 27.87 111.00 C 28.81 111.91 29.74 112.82 30.67 113.74 C 32.28 112.90 34.02 111.36 33.02 109.28 L 31.59 109.75 C 31.50 109.34 31.34 108.54 31.25 108.13 C 33.38 107.59 35.62 107.79 37.79 107.54 C 34.07 106.57 29.67 107.16 27.87 111.00 M 33.76 110.39 C 34.06 110.79 34.65 111.59 34.95 111.99 C 37.40 111.71 39.87 111.68 42.32 111.82 C 42.24 111.43 42.06 110.67 41.98 110.28 C 39.24 110.15 36.47 109.90 33.76 110.39 M 29.35 116.00 C 29.35 117.48 28.58 118.73 27.91 119.99 C 29.08 119.84 30.61 118.22 31.49 119.89 C 32.44 119.54 33.39 119.19 34.34 118.84 C 34.90 116.93 34.23 115.47 32.03 116.01 C 32.15 116.78 32.38 118.33 32.50 119.10 C 32.10 118.32 31.31 116.77 30.92 116.00 C 30.52 116.00 29.74 116.00 29.35 116.00 M 29.18 128.12 C 30.03 129.34 31.13 129.42 32.49 128.36 C 31.46 127.67 30.36 127.60 29.18 128.12 M 31.17 153.26 C 31.46 154.05 31.75 154.84 32.04 155.64 C 34.41 155.24 37.98 156.74 39.19 153.90 C 36.52 153.59 33.85 153.41 31.17 153.26 Z" />
</g>
<g id="#006b7aff">
<path fill="#006b7a" opacity="1.00" d=" M 55.79 106.39 L 56.56 106.42 C 55.53 111.34 55.84 116.34 55.77 121.32 C 55.49 121.49 54.92 121.82 54.64 121.99 L 53.75 122.16 C 53.51 120.97 53.35 119.78 53.26 118.58 C 53.60 115.84 53.11 113.14 52.15 110.57 C 53.42 109.23 54.57 107.78 55.79 106.39 M 53.98 110.29 C 51.97 112.17 56.47 112.07 54.82 110.22 L 53.98 110.29 Z" />
<path fill="#006b7a" opacity="1.00" d=" M 64.25 106.49 C 64.77 106.50 65.82 106.54 66.34 106.55 C 66.33 111.07 66.40 115.59 66.19 120.11 C 66.78 119.92 67.97 119.55 68.56 119.36 L 68.90 121.40 C 67.82 121.17 66.74 120.95 65.65 120.76 C 63.64 120.33 61.57 120.30 59.52 120.34 C 59.15 120.16 58.42 119.80 58.05 119.62 C 59.91 119.33 62.03 119.81 63.71 118.82 C 64.94 114.83 64.30 110.58 64.25 106.49 Z" />
<path fill="#006b7a" opacity="1.00" d=" M 84.80 154.79 C 85.13 154.86 85.79 155.00 86.12 155.08 C 87.07 156.25 88.33 156.87 89.90 156.92 C 89.09 158.22 87.81 159.47 88.08 161.15 L 87.38 160.46 C 85.11 162.99 82.89 165.56 80.40 167.87 C 81.27 167.88 83.03 167.90 83.91 167.91 C 85.44 165.80 87.03 163.74 88.71 161.76 L 88.08 161.15 C 89.09 160.55 90.10 159.94 91.10 159.32 C 91.39 160.31 91.69 161.31 91.98 162.30 C 91.57 161.73 90.76 160.58 90.35 160.00 C 88.58 162.64 86.86 165.31 85.29 168.08 C 86.05 167.97 87.58 167.76 88.34 167.66 C 88.67 166.55 89.00 165.44 89.36 164.34 C 89.35 165.26 89.34 167.10 89.34 168.01 C 91.29 168.00 93.25 167.96 95.20 168.01 L 95.95 168.44 L 96.93 169.01 C 91.99 168.12 86.98 168.83 82.01 168.71 C 78.11 168.58 74.20 168.53 70.30 168.87 L 71.13 168.29 C 73.92 167.86 76.79 168.21 79.56 167.63 C 81.81 165.55 83.80 163.19 86.03 161.08 C 86.22 160.89 86.60 160.52 86.79 160.33 C 87.21 159.89 88.03 159.01 88.45 158.57 C 87.26 157.28 86.03 156.04 84.80 154.79 Z" />
</g>
<g id="#139fa4ff">
<path fill="#139fa4" opacity="1.00" d=" M 56.56 106.42 C 59.12 106.50 61.68 106.43 64.25 106.49 C 64.30 110.58 64.94 114.83 63.71 118.82 C 62.03 119.81 59.91 119.33 58.05 119.62 C 58.42 119.80 59.15 120.16 59.52 120.34 C 58.26 120.63 57.01 120.95 55.77 121.32 C 55.84 116.34 55.53 111.34 56.56 106.42 Z" />
<path fill="#139fa4" opacity="1.00" d=" M 58.02 152.19 C 58.44 152.05 59.30 151.76 59.73 151.62 L 61.15 151.49 C 61.74 153.61 59.96 155.54 57.82 155.14 L 57.86 154.45 C 57.90 153.88 57.98 152.75 58.02 152.19 Z" />
</g>
<g id="#e9e7e9ff">
<path fill="#e9e7e9" opacity="1.00" d=" M 70.07 109.84 C 73.77 109.17 77.26 107.66 80.97 107.09 C 86.04 106.61 91.17 107.37 96.03 108.83 C 96.57 110.28 97.13 111.73 97.57 113.22 C 91.11 113.33 84.62 113.61 78.18 112.99 C 75.70 112.32 73.21 111.73 70.67 111.32 C 70.52 110.95 70.22 110.21 70.07 109.84 Z" />
</g>
<g id="#28f4e9ff">
<path fill="#28f4e9" opacity="1.00" d=" M 21.75 160.01 C 22.04 143.25 21.45 126.40 23.56 109.72 C 24.26 115.82 23.61 121.94 23.68 128.06 C 23.64 137.71 23.74 147.36 23.60 157.01 C 23.66 159.12 23.33 161.82 25.66 162.88 C 31.10 163.74 36.65 163.16 42.13 163.38 C 51.10 163.57 60.07 163.41 69.04 163.72 C 69.12 167.86 68.10 171.93 68.09 176.07 C 60.33 175.75 52.54 176.34 44.80 175.58 C 39.05 174.53 33.27 173.03 27.38 173.35 C 22.92 173.58 19.85 177.27 15.78 178.63 C 14.78 178.29 13.78 177.92 12.79 177.54 C 15.46 176.52 17.73 174.73 20.34 173.59 C 19.89 172.81 19.43 172.03 18.98 171.25 C 22.82 168.68 21.42 163.90 21.75 160.01 Z" />
</g>
<g id="#523528ff">
<path fill="#523528" opacity="1.00" d=" M 33.76 110.39 C 36.47 109.90 39.24 110.15 41.98 110.28 C 42.06 110.67 42.24 111.43 42.32 111.82 C 39.87 111.68 37.40 111.71 34.95 111.99 C 34.65 111.59 34.06 110.79 33.76 110.39 Z" />
<path fill="#523528" opacity="1.00" d=" M 29.35 116.00 C 29.74 116.00 30.52 116.00 30.92 116.00 C 31.31 116.77 32.10 118.32 32.50 119.10 C 32.38 118.33 32.15 116.78 32.03 116.01 C 34.23 115.47 34.90 116.93 34.34 118.84 C 33.39 119.19 32.44 119.54 31.49 119.89 C 30.61 118.22 29.08 119.84 27.91 119.99 C 28.58 118.73 29.35 117.48 29.35 116.00 Z" />
<path fill="#523528" opacity="1.00" d=" M 35.25 120.15 C 35.36 118.47 34.96 116.54 36.62 115.46 C 36.77 116.36 37.06 118.16 37.21 119.06 C 37.49 119.08 38.06 119.12 38.34 119.14 C 38.23 118.25 38.00 116.48 37.88 115.59 C 39.40 116.59 40.82 117.73 41.93 119.18 C 42.48 117.98 42.99 116.77 43.68 115.65 C 44.19 116.93 44.65 118.22 45.08 119.53 C 44.97 119.79 44.76 120.30 44.65 120.56 L 43.59 119.13 C 42.22 119.63 39.52 121.16 39.67 118.14 C 38.89 120.01 37.20 121.00 35.25 120.15 Z" />
<path fill="#523528" opacity="1.00" d=" M 54.64 121.99 C 58.32 121.72 61.98 121.21 65.65 120.76 C 66.74 120.95 67.82 121.17 68.90 121.40 C 68.98 122.99 68.96 124.59 68.97 126.19 C 66.35 126.48 63.74 126.80 61.12 127.02 C 62.01 127.86 62.93 128.71 63.37 129.89 C 59.40 128.43 56.06 125.70 53.75 122.16 L 54.64 121.99 Z" />
<path fill="#523528" opacity="1.00" d=" M 80.11 124.99 C 82.10 125.22 84.12 125.47 86.10 124.96 C 86.26 125.40 86.56 126.28 86.72 126.72 C 84.56 126.31 82.38 126.44 80.22 126.76 C 80.19 126.32 80.13 125.43 80.11 124.99 Z" />
<path fill="#523528" opacity="1.00" d=" M 63.37 129.89 C 64.88 128.45 67.13 129.15 68.99 128.93 C 68.99 129.41 69.00 130.35 69.00 130.82 C 67.11 130.64 65.19 130.48 63.37 129.89 Z" />
<path fill="#523528" opacity="1.00" d=" M 75.91 129.81 C 77.52 129.38 78.91 129.85 78.74 131.84 L 80.05 132.39 C 80.28 131.07 80.92 129.99 82.07 129.31 C 83.33 130.17 84.65 131.06 85.53 129.19 C 85.81 129.57 86.37 130.33 86.65 130.71 C 87.22 130.37 88.36 129.68 88.93 129.33 C 89.91 130.41 89.63 131.95 89.85 133.28 C 88.20 132.97 86.16 131.62 85.25 133.83 L 84.02 132.06 C 83.60 132.49 82.75 133.35 82.33 133.77 L 80.92 132.42 C 80.56 132.78 79.84 133.50 79.48 133.86 C 78.75 132.86 77.96 131.90 77.11 130.99 L 76.99 133.00 L 75.81 133.04 C 75.83 132.23 75.89 130.62 75.91 129.81 M 81.39 130.99 C 81.56 134.24 84.48 129.38 81.39 130.99 M 85.43 131.03 C 86.01 131.68 86.01 131.68 85.43 131.03 Z" />
<path fill="#523528" opacity="1.00" d=" M 75.27 134.39 C 77.46 134.60 80.35 135.71 82.04 133.77 C 81.82 135.19 82.21 136.40 83.23 137.39 C 84.48 135.42 86.76 134.95 88.83 134.33 C 88.78 135.48 88.75 136.62 88.71 137.77 C 88.21 137.46 87.21 136.83 86.71 136.52 C 85.40 138.02 83.07 137.99 81.52 136.88 C 81.37 138.13 79.48 138.07 79.03 137.09 C 78.13 137.26 77.22 137.44 76.33 137.64 C 76.00 136.54 75.66 135.46 75.27 134.39 Z" />
<path fill="#523528" opacity="1.00" d=" M 71.14 146.16 C 72.91 146.37 74.68 146.51 76.45 146.57 C 76.91 146.60 77.81 146.67 78.26 146.70 C 78.35 148.87 78.47 151.04 78.54 153.22 C 78.53 155.03 78.69 156.84 78.87 158.65 L 78.88 158.97 C 77.53 158.84 76.18 158.68 74.83 158.56 C 75.40 158.14 76.54 157.29 77.11 156.86 L 77.13 156.06 L 77.15 154.61 C 76.43 154.75 75.00 155.04 74.28 155.18 C 73.83 157.39 74.06 159.97 72.39 161.72 C 72.74 160.50 73.11 159.29 73.50 158.09 C 72.92 157.95 71.75 157.68 71.16 157.54 L 70.97 156.86 C 74.20 157.51 72.08 153.80 71.19 152.54 L 71.25 151.99 C 73.61 152.31 73.60 148.73 71.26 150.35 L 71.24 149.18 C 71.95 149.23 73.39 149.33 74.10 149.38 C 73.73 150.83 72.88 152.25 73.10 153.80 C 73.89 153.88 75.47 154.04 76.25 154.12 L 77.05 154.07 C 77.11 153.60 77.23 152.66 77.29 152.18 C 77.01 150.82 77.47 148.74 75.85 148.08 C 74.40 147.37 72.72 147.50 71.17 147.24 C 71.16 146.97 71.15 146.43 71.14 146.16 Z" />
<path fill="#523528" opacity="1.00" d=" M 44.21 160.13 C 42.16 157.77 49.38 157.85 48.19 160.01 C 46.88 160.34 45.55 160.38 44.21 160.13 Z" />
</g>
<g id="#f1eaeaff">
<path fill="#f1eaea" opacity="1.00" d=" M 53.98 110.29 L 54.82 110.22 C 56.47 112.07 51.97 112.17 53.98 110.29 Z" />
</g>
<g id="#bfc4c6ff">
<path fill="#bfc4c6" opacity="1.00" d=" M 45.08 119.53 C 46.05 115.56 48.64 112.56 52.15 110.57 C 53.11 113.14 53.60 115.84 53.26 118.58 C 51.80 120.92 50.14 123.15 49.09 125.71 C 49.11 124.95 49.16 123.41 49.18 122.64 C 49.19 122.21 49.20 121.35 49.21 120.92 C 47.68 120.81 46.16 120.73 44.65 120.56 C 44.76 120.30 44.97 119.79 45.08 119.53 Z" />
</g>
<g id="#2aa4e7ff">
<path fill="#2aa4e7" opacity="1.00" d=" M 67.41 113.44 C 70.93 112.51 74.59 112.69 78.18 112.99 C 84.62 113.61 91.11 113.33 97.57 113.22 C 97.76 114.85 97.73 116.49 97.55 118.12 L 95.94 118.26 L 95.35 118.30 L 94.45 118.13 C 91.14 116.62 87.46 117.05 83.93 116.98 C 79.76 117.03 75.43 116.23 71.45 117.87 L 71.00 117.85 L 69.70 117.70 C 69.33 117.65 68.59 117.55 68.22 117.50 L 67.44 117.40 C 67.43 116.41 67.42 114.43 67.41 113.44 Z" />
</g>
<g id="#ececedff">
<path fill="#ececed" opacity="1.00" d=" M 68.22 117.50 C 68.59 117.55 69.33 117.65 69.70 117.70 C 69.63 134.74 70.62 151.82 69.25 168.82 C 68.50 173.48 68.90 178.20 68.84 182.90 C 68.58 182.10 68.04 180.49 67.77 179.69 C 57.17 179.38 46.57 179.55 35.97 179.50 C 30.30 179.43 24.60 179.92 18.96 179.19 C 35.32 179.85 51.72 179.19 68.09 179.55 C 68.09 178.68 68.09 176.94 68.09 176.07 C 68.10 171.93 69.12 167.86 69.04 163.72 L 69.03 163.50 C 69.02 162.86 68.99 161.59 68.97 160.95 C 68.97 159.38 68.98 157.80 69.01 156.23 C 67.21 156.28 65.41 156.33 63.61 156.30 C 60.08 155.61 56.49 155.93 52.93 155.88 C 52.49 155.73 51.62 155.44 51.18 155.29 C 51.07 157.50 50.92 159.72 50.77 161.93 C 47.73 162.19 44.60 162.38 41.71 161.23 C 41.76 158.42 41.92 155.59 41.51 152.79 C 40.40 151.77 39.08 151.00 37.76 150.28 C 35.87 149.24 33.70 149.16 31.60 149.01 L 30.85 147.74 C 37.41 147.42 43.93 146.52 50.51 146.85 C 50.26 146.54 49.75 145.92 49.50 145.60 C 42.77 144.83 35.95 146.57 29.28 145.26 C 28.72 146.01 28.18 146.78 27.65 147.56 L 27.07 147.63 C 26.96 141.83 25.88 135.95 26.98 130.19 C 29.82 130.07 32.85 129.73 34.27 126.88 C 36.00 126.85 37.73 126.92 39.46 127.04 C 39.51 129.04 39.39 131.04 39.22 133.04 C 35.62 133.98 32.00 132.65 28.39 132.45 C 28.14 135.13 28.17 137.83 28.56 140.50 C 30.48 140.34 32.40 140.15 34.32 140.00 C 37.32 139.13 41.86 142.08 43.60 138.56 C 45.15 140.90 47.99 140.11 50.31 139.76 C 49.98 138.44 48.73 137.92 47.67 137.30 C 50.34 137.43 50.11 135.27 49.99 133.32 C 47.00 133.38 44.01 133.36 41.04 133.09 L 39.94 132.88 C 40.87 131.97 41.81 131.06 42.75 130.17 C 42.19 129.42 41.63 128.67 41.07 127.93 C 43.35 127.70 45.88 127.91 47.67 126.19 C 48.02 126.07 48.73 125.83 49.09 125.71 C 50.14 123.15 51.80 120.92 53.26 118.58 C 53.35 119.78 53.51 120.97 53.75 122.16 C 56.06 125.70 59.40 128.43 63.37 129.89 L 63.37 129.89 C 65.19 130.48 67.11 130.64 69.00 130.82 C 69.00 130.35 68.99 129.41 68.99 128.93 C 68.98 128.25 68.98 126.87 68.97 126.19 C 68.96 124.59 68.98 122.99 68.90 121.40 L 68.56 119.36 C 68.48 118.89 68.31 117.97 68.22 117.50 M 51.99 133.08 C 52.01 135.49 52.01 137.90 52.02 140.32 C 53.56 140.36 55.08 140.11 56.55 139.65 C 60.41 138.31 64.52 139.34 68.41 139.95 C 69.36 137.83 68.89 135.42 69.05 133.17 C 63.38 133.57 57.62 134.25 51.99 133.08 M 51.62 141.04 C 51.78 141.51 52.10 142.43 52.26 142.89 C 54.53 143.04 60.66 145.09 59.38 140.91 C 56.79 140.86 54.20 141.00 51.62 141.04 M 28.00 143.42 C 34.03 143.88 40.02 142.86 46.03 142.90 C 47.22 142.62 50.07 144.25 49.91 142.11 C 45.26 142.21 40.62 142.23 35.98 142.56 C 33.35 142.85 30.23 141.58 28.00 143.42 M 61.55 145.22 C 63.74 146.84 65.55 148.86 67.20 151.01 C 65.13 152.37 66.69 155.71 68.94 155.47 C 68.82 153.88 68.99 152.34 69.47 150.82 C 70.06 148.64 68.47 146.19 68.95 143.81 C 66.44 144.00 64.05 144.90 61.55 145.22 M 52.38 145.36 C 53.23 146.52 56.29 146.33 57.72 145.83 C 57.04 143.95 53.85 144.78 52.38 145.36 M 59.26 145.25 C 59.42 148.58 62.25 143.72 59.26 145.25 M 59.32 148.28 C 59.36 148.88 59.43 150.06 59.47 150.65 C 57.59 150.14 55.80 153.60 57.86 154.45 L 57.82 155.14 C 59.96 155.54 61.74 153.61 61.15 151.49 L 59.73 151.62 C 60.35 150.40 61.15 148.80 59.32 148.28 M 56.29 149.23 C 56.89 149.79 56.89 149.79 56.29 149.23 M 42.23 150.28 C 42.76 151.65 45.50 151.38 46.70 150.79 C 46.17 149.32 43.43 149.61 42.23 150.28 M 52.03 153.80 C 52.86 155.36 55.24 155.59 55.94 153.79 C 57.54 152.17 54.78 151.23 54.02 150.20 C 53.09 151.16 51.07 152.10 52.03 153.80 M 62.24 151.15 C 61.21 152.34 61.22 153.49 62.27 154.60 C 63.76 156.12 65.30 154.44 65.81 152.97 C 65.50 151.35 63.77 149.93 62.24 151.15 M 44.06 153.47 C 45.41 153.83 46.97 153.37 48.27 152.92 C 47.85 151.58 43.56 151.52 44.06 153.47 M 43.98 155.34 C 43.95 157.01 47.83 157.45 48.49 155.87 C 47.48 154.67 45.35 155.03 43.98 155.34 M 44.21 160.13 C 45.55 160.38 46.88 160.34 48.19 160.01 C 49.38 157.85 42.16 157.77 44.21 160.13 Z" />
</g>
<g id="#0295e1ff">
<path fill="#0295e1" opacity="1.00" d=" M 71.45 117.87 C 75.43 116.23 79.76 117.03 83.93 116.98 C 87.46 117.05 91.14 116.62 94.45 118.13 C 91.37 118.06 88.29 118.06 85.20 118.06 C 80.62 118.01 76.03 118.18 71.45 117.87 Z" />
</g>
<g id="#109ce9ff">
<path fill="#109ce9" opacity="1.00" d=" M 69.70 117.70 L 71.00 117.85 C 71.25 124.70 70.98 131.56 71.15 138.41 L 71.14 139.54 C 71.13 140.65 71.13 141.77 71.12 142.89 L 71.12 143.38 C 71.13 144.07 71.14 145.46 71.14 146.16 C 71.15 146.43 71.16 146.97 71.17 147.24 L 71.24 149.18 L 71.26 150.35 C 71.26 150.76 71.25 151.58 71.25 151.99 L 71.19 152.54 C 70.61 153.97 70.54 155.41 70.97 156.86 L 71.16 157.54 C 71.20 160.77 71.16 164.01 71.25 167.24 L 71.13 168.29 L 70.30 168.87 L 69.25 168.82 C 70.62 151.82 69.63 134.74 69.70 117.70 Z" />
</g>
<g id="#dad7d4ff">
<path fill="#dad7d4" opacity="1.00" d=" M 71.00 117.85 L 71.45 117.87 C 76.03 118.18 80.62 118.01 85.20 118.06 C 82.76 118.59 80.06 119.28 78.52 121.43 C 76.86 123.80 75.61 126.44 73.72 128.66 C 73.30 128.35 72.47 127.73 72.05 127.41 C 71.91 131.09 71.52 134.75 71.15 138.41 C 70.98 131.56 71.25 124.70 71.00 117.85 Z" />
</g>
<g id="#efedecff">
<path fill="#efedec" opacity="1.00" d=" M 85.20 118.06 C 88.29 118.06 91.37 118.06 94.45 118.13 L 95.35 118.30 C 95.28 118.99 95.13 120.36 95.06 121.05 C 92.41 122.91 88.24 123.53 87.45 127.16 C 89.67 128.19 92.45 130.77 94.75 128.46 C 94.84 134.42 95.74 140.38 95.03 146.34 C 88.83 147.02 82.57 145.36 76.45 146.57 C 74.68 146.51 72.91 146.37 71.14 146.16 C 71.14 145.46 71.13 144.07 71.12 143.38 C 74.45 143.05 78.05 146.81 80.56 143.24 C 82.22 143.21 83.88 143.12 85.54 143.07 C 87.24 143.04 88.95 143.03 90.66 143.02 C 90.67 141.85 90.67 140.68 90.68 139.52 C 84.17 139.57 77.65 139.30 71.14 139.54 L 71.15 138.41 C 71.52 134.75 71.91 131.09 72.05 127.41 C 72.47 127.73 73.30 128.35 73.72 128.66 C 75.61 126.44 76.86 123.80 78.52 121.43 C 80.06 119.28 82.76 118.59 85.20 118.06 M 80.99 122.62 C 82.33 123.67 84.45 124.20 85.63 122.62 C 85.03 121.69 84.30 120.86 83.46 120.13 C 83.56 120.89 83.76 122.40 83.86 123.15 L 82.46 123.03 C 82.56 122.22 82.76 120.60 82.86 119.79 C 82.16 120.68 81.54 121.63 80.99 122.62 M 80.11 124.99 C 80.13 125.43 80.19 126.32 80.22 126.76 C 82.38 126.44 84.56 126.31 86.72 126.72 C 86.56 126.28 86.26 125.40 86.10 124.96 C 84.12 125.47 82.10 125.22 80.11 124.99 M 75.91 129.81 C 75.89 130.62 75.83 132.23 75.81 133.04 L 76.99 133.00 L 77.11 130.99 C 77.96 131.90 78.75 132.86 79.48 133.86 C 79.84 133.50 80.56 132.78 80.92 132.42 L 82.33 133.77 C 82.75 133.35 83.60 132.49 84.02 132.06 L 85.25 133.83 C 86.16 131.62 88.20 132.97 89.85 133.28 C 89.63 131.95 89.91 130.41 88.93 129.33 C 88.36 129.68 87.22 130.37 86.65 130.71 C 86.37 130.33 85.81 129.57 85.53 129.19 C 84.65 131.06 83.33 130.17 82.07 129.31 C 80.92 129.99 80.28 131.07 80.05 132.39 L 78.74 131.84 C 78.91 129.85 77.52 129.38 75.91 129.81 M 75.27 134.39 C 75.66 135.46 76.00 136.54 76.33 137.64 C 77.22 137.44 78.13 137.26 79.03 137.09 C 79.48 138.07 81.37 138.13 81.52 136.88 C 83.07 137.99 85.40 138.02 86.71 136.52 C 87.21 136.83 88.21 137.46 88.71 137.77 C 88.75 136.62 88.78 135.48 88.83 134.33 C 86.76 134.95 84.48 135.42 83.23 137.39 C 82.21 136.40 81.82 135.19 82.04 133.77 C 80.35 135.71 77.46 134.60 75.27 134.39 M 83.52 134.52 C 83.76 134.76 83.76 134.76 83.52 134.52 Z" />
<path fill="#efedec" opacity="1.00" d=" M 83.67 157.77 C 84.11 154.79 84.46 151.79 84.94 148.82 C 85.71 150.78 85.36 152.83 84.80 154.79 C 86.03 156.04 87.26 157.28 88.45 158.57 C 88.03 159.01 87.21 159.89 86.79 160.33 C 85.75 159.47 84.71 158.62 83.67 157.77 Z" />
<path fill="#efedec" opacity="1.00" d=" M 71.19 152.54 C 72.08 153.80 74.20 157.51 70.97 156.86 C 70.54 155.41 70.61 153.97 71.19 152.54 Z" />
</g>
<g id="#d3d1d2ff">
<path fill="#d3d1d2" opacity="1.00" d=" M 95.35 118.30 L 95.94 118.26 C 95.15 127.96 95.95 137.72 95.44 147.43 L 94.85 148.62 C 94.90 148.05 94.99 146.91 95.03 146.34 C 95.74 140.38 94.84 134.42 94.75 128.46 C 92.45 130.77 89.67 128.19 87.45 127.16 C 88.24 123.53 92.41 122.91 95.06 121.05 C 95.13 120.36 95.28 118.99 95.35 118.30 Z" />
</g>
<g id="#1ca5efff">
<path fill="#1ca5ef" opacity="1.00" d=" M 95.94 118.26 L 97.55 118.12 C 96.72 135.02 96.92 152.00 97.81 168.90 L 96.93 169.01 L 95.95 168.44 C 96.00 164.74 96.19 161.01 95.42 157.37 C 95.71 154.06 95.44 150.74 95.44 147.43 C 95.95 137.72 95.15 127.96 95.94 118.26 Z" />
</g>
<g id="#0bb6bcff">
<path fill="#0bb6bc" opacity="1.00" d=" M 28.71 122.56 L 29.26 122.53 C 29.28 123.35 29.31 125.00 29.33 125.83 L 28.81 125.80 C 28.78 124.99 28.73 123.37 28.71 122.56 Z" />
</g>
<g id="#43c9d7ff">
<path fill="#43c9d7" opacity="1.00" d=" M 29.26 122.53 C 30.97 122.43 32.68 122.37 34.39 122.37 C 34.82 122.80 35.67 123.66 36.09 124.08 C 36.80 125.51 37.44 125.46 38.03 123.95 C 38.21 123.64 38.57 123.01 38.76 122.69 L 40.22 122.79 L 40.23 123.60 C 40.33 125.29 40.91 125.53 41.97 124.31 C 42.90 123.76 43.80 123.18 44.67 122.55 L 45.56 122.57 C 45.82 123.54 46.35 125.49 46.61 126.46 C 40.89 125.57 35.08 126.32 29.33 125.83 C 29.31 125.00 29.28 123.35 29.26 122.53 Z" />
</g>
<g id="#17b4c4ff">
<path fill="#17b4c4" opacity="1.00" d=" M 34.39 122.37 C 35.85 122.32 37.32 122.42 38.76 122.69 C 38.57 123.01 38.21 123.64 38.03 123.95 C 37.54 123.99 36.57 124.05 36.09 124.08 C 35.67 123.66 34.82 122.80 34.39 122.37 Z" />
</g>
<g id="#0fb7c4ff">
<path fill="#0fb7c4" opacity="1.00" d=" M 40.22 122.79 C 41.66 122.31 43.18 122.42 44.67 122.55 C 43.80 123.18 42.90 123.76 41.97 124.31 C 41.54 124.13 40.67 123.78 40.23 123.60 L 40.22 122.79 Z" />
</g>
<g id="#05acbbff">
<path fill="#05acbb" opacity="1.00" d=" M 45.56 122.57 C 46.47 122.59 48.28 122.62 49.18 122.64 C 49.16 123.41 49.11 124.95 49.09 125.71 C 48.73 125.83 48.02 126.07 47.67 126.19 L 46.61 126.46 C 46.35 125.49 45.82 123.54 45.56 122.57 Z" />
</g>
<g id="#8bdbebff">
<path fill="#8bdbeb" opacity="1.00" d=" M 36.09 124.08 C 36.57 124.05 37.54 123.99 38.03 123.95 C 37.44 125.46 36.80 125.51 36.09 124.08 Z" />
</g>
<g id="#89d4e0ff">
<path fill="#89d4e0" opacity="1.00" d=" M 40.23 123.60 C 40.67 123.78 41.54 124.13 41.97 124.31 C 40.91 125.53 40.33 125.29 40.23 123.60 Z" />
</g>
<g id="#9f9897ff">
<path fill="#9f9897" opacity="1.00" d=" M 28.81 125.80 L 29.33 125.83 C 35.08 126.32 40.89 125.57 46.61 126.46 C 44.31 127.30 41.86 127.28 39.46 127.04 C 37.73 126.92 36.00 126.85 34.27 126.88 C 32.59 126.92 30.92 126.98 29.24 126.96 L 28.81 125.80 Z" />
</g>
<g id="#c7c9c9ff">
<path fill="#c7c9c9" opacity="1.00" d=" M 46.61 126.46 L 47.67 126.19 C 45.88 127.91 43.35 127.70 41.07 127.93 C 41.63 128.67 42.19 129.42 42.75 130.17 C 41.81 131.06 40.87 131.97 39.94 132.88 L 41.04 133.09 C 40.28 133.43 39.52 133.79 38.78 134.15 C 39.36 137.34 36.40 138.44 34.32 140.00 C 32.40 140.15 30.48 140.34 28.56 140.50 C 28.17 137.83 28.14 135.13 28.39 132.45 C 32.00 132.65 35.62 133.98 39.22 133.04 C 39.39 131.04 39.51 129.04 39.46 127.04 C 41.86 127.28 44.31 127.30 46.61 126.46 Z" />
</g>
<g id="#8d6047ff">
<path fill="#8d6047" opacity="1.00" d=" M 61.12 127.02 C 63.74 126.80 66.35 126.48 68.97 126.19 C 68.98 126.87 68.98 128.25 68.99 128.93 C 67.13 129.15 64.88 128.45 63.37 129.89 L 63.37 129.89 C 62.93 128.71 62.01 127.86 61.12 127.02 Z" />
</g>
<g id="#b7b4b6ff">
<path fill="#b7b4b6" opacity="1.00" d=" M 29.18 128.12 C 30.36 127.60 31.46 127.67 32.49 128.36 C 31.13 129.42 30.03 129.34 29.18 128.12 Z" />
</g>
<g id="#c0c1c5ff">
<path fill="#c0c1c5" opacity="1.00" d=" M 41.04 133.09 C 44.01 133.36 47.00 133.38 49.99 133.32 C 50.11 135.27 50.34 137.43 47.67 137.30 C 48.73 137.92 49.98 138.44 50.31 139.76 C 47.99 140.11 45.15 140.90 43.60 138.56 C 41.86 142.08 37.32 139.13 34.32 140.00 C 36.40 138.44 39.36 137.34 38.78 134.15 C 39.52 133.79 40.28 133.43 41.04 133.09 Z" />
</g>
<g id="#ccccccff">
<path fill="#cccccc" opacity="1.00" d=" M 51.99 133.08 C 57.62 134.25 63.38 133.57 69.05 133.17 C 68.89 135.42 69.36 137.83 68.41 139.95 C 64.52 139.34 60.41 138.31 56.55 139.65 C 55.08 140.11 53.56 140.36 52.02 140.32 C 52.01 137.90 52.01 135.49 51.99 133.08 Z" />
</g>
<g id="#7f7b7cff">
<path fill="#7f7b7c" opacity="1.00" d=" M 83.52 134.52 C 83.76 134.76 83.76 134.76 83.52 134.52 Z" />
</g>
<g id="#0062f4ff">
<path fill="#0062f4" opacity="1.00" d=" M 71.14 139.54 C 77.65 139.30 84.17 139.57 90.68 139.52 C 90.67 140.68 90.67 141.85 90.66 143.02 C 88.95 143.03 87.24 143.04 85.54 143.07 C 85.33 142.62 84.92 141.71 84.72 141.25 C 81.86 140.62 78.89 140.42 75.98 140.76 C 75.86 141.33 75.61 142.49 75.49 143.06 C 74.03 143.00 72.58 142.94 71.12 142.89 C 71.13 141.77 71.13 140.65 71.14 139.54 Z" />
</g>
<g id="#b9babcff">
<path fill="#b9babc" opacity="1.00" d=" M 51.62 141.04 C 54.20 141.00 56.79 140.86 59.38 140.91 C 60.66 145.09 54.53 143.04 52.26 142.89 C 52.10 142.43 51.78 141.51 51.62 141.04 Z" />
</g>
<g id="#1a83f4ff">
<path fill="#1a83f4" opacity="1.00" d=" M 75.98 140.76 C 78.89 140.42 81.86 140.62 84.72 141.25 C 84.92 141.71 85.33 142.62 85.54 143.07 C 83.88 143.12 82.22 143.21 80.56 143.24 C 78.87 143.23 77.18 143.14 75.49 143.06 C 75.61 142.49 75.86 141.33 75.98 140.76 Z" />
</g>
<g id="#868b84ff">
<path fill="#868b84" opacity="1.00" d=" M 28.00 143.42 C 30.23 141.58 33.35 142.85 35.98 142.56 C 40.62 142.23 45.26 142.21 49.91 142.11 C 50.07 144.25 47.22 142.62 46.03 142.90 C 40.02 142.86 34.03 143.88 28.00 143.42 Z" />
<path fill="#868b84" opacity="1.00" d=" M 76.45 146.57 C 82.57 145.36 88.83 147.02 95.03 146.34 C 94.99 146.91 94.90 148.05 94.85 148.62 C 94.56 150.71 94.92 152.80 95.22 154.87 C 92.18 154.94 89.15 155.02 86.12 155.08 C 85.79 155.00 85.13 154.86 84.80 154.79 C 85.36 152.83 85.71 150.78 84.94 148.82 C 84.46 151.79 84.11 154.79 83.67 157.77 C 82.09 158.24 80.51 158.71 78.88 158.97 L 78.87 158.65 C 79.47 155.12 79.57 151.55 79.62 147.98 C 79.26 149.72 78.87 151.46 78.54 153.22 C 78.47 151.04 78.35 148.87 78.26 146.70 C 77.81 146.67 76.91 146.60 76.45 146.57 M 93.30 150.34 C 93.84 150.92 93.84 150.92 93.30 150.34 M 89.85 152.76 C 91.20 153.43 92.12 153.18 92.60 152.01 C 91.24 151.31 90.32 151.56 89.85 152.76 Z" />
</g>
<g id="#c6cbd0ff">
<path fill="#c6cbd0" opacity="1.00" d=" M 71.12 142.89 C 72.58 142.94 74.03 143.00 75.49 143.06 C 77.18 143.14 78.87 143.23 80.56 143.24 C 78.05 146.81 74.45 143.05 71.12 143.38 L 71.12 142.89 Z" />
</g>
<g id="#bbc0bdff">
<path fill="#bbc0bd" opacity="1.00" d=" M 61.55 145.22 C 64.05 144.90 66.44 144.00 68.95 143.81 C 68.47 146.19 70.06 148.64 69.47 150.82 C 68.90 150.87 67.76 150.96 67.20 151.01 C 65.55 148.86 63.74 146.84 61.55 145.22 Z" />
</g>
<g id="#afb3b8ff">
<path fill="#afb3b8" opacity="1.00" d=" M 29.28 145.26 C 35.95 146.57 42.77 144.83 49.50 145.60 C 49.75 145.92 50.26 146.54 50.51 146.85 C 43.93 146.52 37.41 147.42 30.85 147.74 C 30.05 147.70 28.45 147.61 27.65 147.56 C 28.18 146.78 28.72 146.01 29.28 145.26 Z" />
<path fill="#afb3b8" opacity="1.00" d=" M 52.93 155.88 C 56.49 155.93 60.08 155.61 63.61 156.30 C 64.54 156.98 65.46 157.68 66.37 158.38 C 66.07 158.84 65.77 159.30 65.47 159.76 C 66.64 160.14 67.81 160.53 68.97 160.95 C 68.99 161.59 69.02 162.86 69.03 163.50 C 66.93 162.43 64.87 161.21 62.63 160.47 C 59.39 160.00 56.16 160.96 52.96 161.35 C 52.95 159.52 52.93 157.70 52.93 155.88 Z" />
</g>
<g id="#b3b3b6ff">
<path fill="#b3b3b6" opacity="1.00" d=" M 52.38 145.36 C 53.85 144.78 57.04 143.95 57.72 145.83 C 56.29 146.33 53.23 146.52 52.38 145.36 Z" />
</g>
<g id="#b8b8b8ff">
<path fill="#b8b8b8" opacity="1.00" d=" M 59.26 145.25 C 62.25 143.72 59.42 148.58 59.26 145.25 Z" />
</g>
<g id="#c0c3b3ff">
<path fill="#c0c3b3" opacity="1.00" d=" M 71.17 147.24 C 72.72 147.50 74.40 147.37 75.85 148.08 C 77.47 148.74 77.01 150.82 77.29 152.18 C 77.03 152.67 76.51 153.64 76.25 154.12 C 75.47 154.04 73.89 153.88 73.10 153.80 C 72.88 152.25 73.73 150.83 74.10 149.38 C 73.39 149.33 71.95 149.23 71.24 149.18 L 71.17 147.24 Z" />
<path fill="#c0c3b3" opacity="1.00" d=" M 78.54 153.22 C 78.87 151.46 79.26 149.72 79.62 147.98 C 79.57 151.55 79.47 155.12 78.87 158.65 C 78.69 156.84 78.53 155.03 78.54 153.22 Z" />
<path fill="#c0c3b3" opacity="1.00" d=" M 74.28 155.18 C 75.00 155.04 76.43 154.75 77.15 154.61 L 77.13 156.06 C 74.99 154.66 74.95 158.23 77.11 156.86 C 76.54 157.29 75.40 158.14 74.83 158.56 C 76.18 158.68 77.53 158.84 78.88 158.97 C 80.51 158.71 82.09 158.24 83.67 157.77 C 84.71 158.62 85.75 159.47 86.79 160.33 C 86.60 160.52 86.22 160.89 86.03 161.08 C 83.67 161.23 81.33 161.49 79.01 161.94 C 77.57 161.55 75.08 161.89 75.69 163.97 C 74.20 165.05 72.69 166.10 71.25 167.24 C 71.16 164.01 71.20 160.77 71.16 157.54 C 71.75 157.68 72.92 157.95 73.50 158.09 C 73.11 159.29 72.74 160.50 72.39 161.72 C 74.06 159.97 73.83 157.39 74.28 155.18 Z" />
</g>
<g id="#d7d9d3ff">
<path fill="#d7d9d3" opacity="1.00" d=" M 94.85 148.62 L 95.44 147.43 C 95.44 150.74 95.71 154.06 95.42 157.37 C 94.48 160.85 95.05 164.47 95.20 168.01 C 93.25 167.96 91.29 168.00 89.34 168.01 C 89.34 167.10 89.35 165.26 89.36 164.34 C 89.00 165.44 88.67 166.55 88.34 167.66 C 87.58 167.76 86.05 167.97 85.29 168.08 C 86.86 165.31 88.58 162.64 90.35 160.00 C 90.76 160.58 91.57 161.73 91.98 162.30 C 91.69 161.31 91.39 160.31 91.10 159.32 C 90.10 159.94 89.09 160.55 88.08 161.15 C 87.81 159.47 89.09 158.22 89.90 156.92 C 88.33 156.87 87.07 156.25 86.12 155.08 C 89.15 155.02 92.18 154.94 95.22 154.87 C 94.92 152.80 94.56 150.71 94.85 148.62 M 92.99 157.25 C 91.56 160.43 96.24 157.13 92.99 157.25 M 90.13 163.25 C 90.67 163.86 90.67 163.86 90.13 163.25 Z" />
</g>
<g id="#c1c5c9ff">
<path fill="#c1c5c9" opacity="1.00" d=" M 28.02 149.56 C 29.21 149.37 30.40 149.17 31.60 149.01 C 33.70 149.16 35.87 149.24 37.76 150.28 C 35.20 151.56 32.34 151.86 29.53 151.51 C 29.03 150.86 28.53 150.21 28.02 149.56 Z" />
</g>
<g id="#95a799ff">
<path fill="#95a799" opacity="1.00" d=" M 56.29 149.23 C 56.89 149.79 56.89 149.79 56.29 149.23 Z" />
</g>
<g id="#c3c3c5ff">
<path fill="#c3c3c5" opacity="1.00" d=" M 42.23 150.28 C 43.43 149.61 46.17 149.32 46.70 150.79 C 45.50 151.38 42.76 151.65 42.23 150.28 Z" />
</g>
<g id="#a1a7b3ff">
<path fill="#a1a7b3" opacity="1.00" d=" M 71.26 150.35 C 73.60 148.73 73.61 152.31 71.25 151.99 C 71.25 151.58 71.26 150.76 71.26 150.35 Z" />
</g>
<g id="#5e5452ff">
<path fill="#5e5452" opacity="1.00" d=" M 93.30 150.34 C 93.84 150.92 93.84 150.92 93.30 150.34 Z" />
</g>
<g id="#19af43ff">
<path fill="#19af43" opacity="1.00" d=" M 52.03 153.80 C 51.07 152.10 53.09 151.16 54.02 150.20 C 54.78 151.23 57.54 152.17 55.94 153.79 C 55.24 155.59 52.86 155.36 52.03 153.80 Z" />
</g>
<g id="#0e9422ff">
<path fill="#0e9422" opacity="1.00" d=" M 62.24 151.15 C 63.77 149.93 65.50 151.35 65.81 152.97 C 65.30 154.44 63.76 156.12 62.27 154.60 C 61.22 153.49 61.21 152.34 62.24 151.15 M 63.12 152.09 C 61.62 155.24 66.27 152.34 63.12 152.09 Z" />
</g>
<g id="#138830ff">
<path fill="#138830" opacity="1.00" d=" M 67.20 151.01 C 67.76 150.96 68.90 150.87 69.47 150.82 C 68.99 152.34 68.82 153.88 68.94 155.47 C 66.69 155.71 65.13 152.37 67.20 151.01 Z" />
</g>
<g id="#707072ff">
<path fill="#707072" opacity="1.00" d=" M 44.06 153.47 C 43.56 151.52 47.85 151.58 48.27 152.92 C 46.97 153.37 45.41 153.83 44.06 153.47 Z" />
</g>
<g id="#5ec889ff">
<path fill="#5ec889" opacity="1.00" d=" M 63.12 152.09 C 66.27 152.34 61.62 155.24 63.12 152.09 Z" />
</g>
<g id="#dcd4d9ff">
<path fill="#dcd4d9" opacity="1.00" d=" M 76.25 154.12 C 76.51 153.64 77.03 152.67 77.29 152.18 C 77.23 152.66 77.11 153.60 77.05 154.07 L 76.25 154.12 Z" />
</g>
<g id="#dedbd7ff">
<path fill="#dedbd7" opacity="1.00" d=" M 89.85 152.76 C 90.32 151.56 91.24 151.31 92.60 152.01 C 92.12 153.18 91.20 153.43 89.85 152.76 Z" />
</g>
<g id="#b7babfff">
<path fill="#b7babf" opacity="1.00" d=" M 31.17 153.26 C 33.85 153.41 36.52 153.59 39.19 153.90 C 37.98 156.74 34.41 155.24 32.04 155.64 C 31.75 154.84 31.46 154.05 31.17 153.26 Z" />
</g>
<g id="#79999fff">
<path fill="#79999f" opacity="1.00" d=" M 41.01 161.56 C 41.22 158.64 41.45 155.72 41.51 152.79 C 41.92 155.59 41.76 158.42 41.71 161.23 L 41.72 161.65 C 38.31 161.16 34.85 161.29 31.42 161.30 C 31.28 160.71 31.00 159.52 30.86 158.93 C 31.96 159.62 33.06 160.30 34.16 160.99 C 34.47 160.64 35.07 159.93 35.38 159.57 C 35.94 161.23 38.46 161.80 38.61 159.58 C 39.40 160.25 40.22 160.89 41.01 161.56 Z" />
<path fill="#79999f" opacity="1.00" d=" M 98.18 180.75 C 101.32 179.78 105.18 180.05 107.19 182.97 C 104.44 184.77 101.12 184.29 98.02 184.21 L 98.08 182.91 C 98.10 182.37 98.15 181.29 98.18 180.75 Z" />
</g>
<g id="#707174ff">
<path fill="#707174" opacity="1.00" d=" M 43.98 155.34 C 45.35 155.03 47.48 154.67 48.49 155.87 C 47.83 157.45 43.95 157.01 43.98 155.34 Z" />
</g>
<g id="#cfcecfff">
<path fill="#cfcecf" opacity="1.00" d=" M 51.18 155.29 C 51.62 155.44 52.49 155.73 52.93 155.88 C 52.93 157.70 52.95 159.52 52.96 161.35 C 56.16 160.96 59.39 160.00 62.63 160.47 C 64.87 161.21 66.93 162.43 69.03 163.50 L 69.04 163.72 C 60.07 163.41 51.10 163.57 42.13 163.38 L 41.72 161.65 L 41.71 161.23 C 44.60 162.38 47.73 162.19 50.77 161.93 C 50.92 159.72 51.07 157.50 51.18 155.29 Z" />
</g>
<g id="#e1f4f4ff">
<path fill="#e1f4f4" opacity="1.00" d=" M 77.11 156.86 C 74.95 158.23 74.99 154.66 77.13 156.06 L 77.11 156.86 Z" />
</g>
<g id="#969c9dff">
<path fill="#969c9d" opacity="1.00" d=" M 63.61 156.30 C 65.41 156.33 67.21 156.28 69.01 156.23 C 68.98 157.80 68.97 159.38 68.97 160.95 C 67.81 160.53 66.64 160.14 65.47 159.76 C 65.77 159.30 66.07 158.84 66.37 158.38 C 65.46 157.68 64.54 156.98 63.61 156.30 Z" />
</g>
<g id="#749ec0ff">
<path fill="#749ec0" opacity="1.00" d=" M 92.99 157.25 C 96.24 157.13 91.56 160.43 92.99 157.25 Z" />
</g>
<g id="#6197a5ff">
<path fill="#6197a5" opacity="1.00" d=" M 95.42 157.37 C 96.19 161.01 96.00 164.74 95.95 168.44 L 95.20 168.01 C 95.05 164.47 94.48 160.85 95.42 157.37 Z" />
</g>
<g id="#d6d0c5ff">
<path fill="#d6d0c5" opacity="1.00" d=" M 79.01 161.94 C 81.33 161.49 83.67 161.23 86.03 161.08 C 83.80 163.19 81.81 165.55 79.56 167.63 C 76.79 168.21 73.92 167.86 71.13 168.29 L 71.25 167.24 C 72.69 166.10 74.20 165.05 75.69 163.97 C 77.19 164.56 79.11 163.73 79.01 161.94 Z" />
</g>
<g id="#4c729dff">
<path fill="#4c729d" opacity="1.00" d=" M 75.69 163.97 C 75.08 161.89 77.57 161.55 79.01 161.94 C 79.11 163.73 77.19 164.56 75.69 163.97 Z" />
</g>
<g id="#5c99daff">
<path fill="#5c99da" opacity="1.00" d=" M 90.13 163.25 C 90.67 163.86 90.67 163.86 90.13 163.25 Z" />
</g>
<g id="#2ca2e4ff">
<path fill="#2ca2e4" opacity="1.00" d=" M 69.25 168.82 L 70.30 168.87 C 79.12 169.94 88.11 170.17 96.93 169.01 L 97.81 168.90 C 98.34 172.17 98.46 175.48 98.29 178.79 C 98.26 179.28 98.21 180.26 98.18 180.75 C 98.15 181.29 98.10 182.37 98.08 182.91 C 88.89 182.98 79.70 183.10 70.51 183.36 C 70.09 183.25 69.26 183.01 68.84 182.90 C 68.90 178.20 68.50 173.48 69.25 168.82 Z" />
</g>
<g id="#d0f4f4ff">
<path fill="#d0f4f4" opacity="1.00" d=" M 3.13 170.73 L 4.13 171.33 C 4.06 171.66 3.93 172.32 3.86 172.65 C 3.75 173.29 3.51 174.57 3.39 175.22 C 6.63 177.45 10.35 178.83 14.01 180.21 C 22.06 182.91 30.65 181.48 38.95 181.77 C 48.00 181.73 57.04 181.78 66.09 181.75 C 67.58 182.82 69.06 183.89 70.53 184.99 C 68.08 185.76 65.63 186.73 63.02 186.70 C 47.68 186.84 32.34 186.57 17.01 186.64 C 12.03 186.79 7.79 183.65 3.00 182.76 C 3.05 178.74 2.96 174.73 3.13 170.73 Z" />
</g>
<g id="#678e8cff">
<path fill="#678e8c" opacity="1.00" d=" M 3.86 172.65 C 6.43 174.95 9.65 176.25 12.79 177.54 C 13.78 177.92 14.78 178.29 15.78 178.63 C 16.83 178.86 17.89 179.05 18.96 179.19 C 24.60 179.92 30.30 179.43 35.97 179.50 C 46.57 179.55 57.17 179.38 67.77 179.69 C 68.04 180.49 68.58 182.10 68.84 182.90 C 69.26 183.01 70.09 183.25 70.51 183.36 C 74.59 184.53 78.86 183.72 83.03 183.85 C 87.60 183.98 92.16 184.05 96.73 184.17 L 97.45 185.12 C 88.47 185.04 79.50 184.99 70.53 184.99 C 69.06 183.89 67.58 182.82 66.09 181.75 C 57.04 181.78 48.00 181.73 38.95 181.77 C 30.65 181.48 22.06 182.91 14.01 180.21 C 10.35 178.83 6.63 177.45 3.39 175.22 C 3.51 174.57 3.75 173.29 3.86 172.65 Z" />
</g>
<g id="#26e6dbff">
<path fill="#26e6db" opacity="1.00" d=" M 27.38 173.35 C 33.27 173.03 39.05 174.53 44.80 175.58 C 52.54 176.34 60.33 175.75 68.09 176.07 C 68.09 176.94 68.09 178.68 68.09 179.55 C 51.72 179.19 35.32 179.85 18.96 179.19 C 17.89 179.05 16.83 178.86 15.78 178.63 C 19.85 177.27 22.92 173.58 27.38 173.35 Z" />
</g>
<g id="#aecacaff">
<path fill="#aecaca" opacity="1.00" d=" M 98.29 178.79 C 103.98 178.10 110.07 178.65 114.93 181.95 C 114.21 183.17 113.32 184.55 111.72 184.57 C 107.02 185.40 102.21 185.38 97.45 185.12 L 96.73 184.17 L 98.02 184.21 C 101.12 184.29 104.44 184.77 107.19 182.97 C 105.18 180.05 101.32 179.78 98.18 180.75 C 98.21 180.26 98.26 179.28 98.29 178.79 Z" />
</g>
<g id="#3481abff">
<path fill="#3481ab" opacity="1.00" d=" M 70.51 183.36 C 79.70 183.10 88.89 182.98 98.08 182.91 L 98.02 184.21 L 96.73 184.17 C 92.16 184.05 87.60 183.98 83.03 183.85 C 78.86 183.72 74.59 184.53 70.51 183.36 Z" />
</g>
</svg>
