<?xml version="1.0" encoding="UTF-8" ?>
<!DOCTYPE svg PUBLIC "-//W3C//DTD SVG 1.1//EN" "http://www.w3.org/Graphics/SVG/1.1/DTD/svg11.dtd">
<svg width="417pt" height="242pt" viewBox="0 0 417 242" version="1.1" xmlns="http://www.w3.org/2000/svg">
<g id="#f4f4f4ff">
<path fill="#f4f4f4" opacity="1.00" d=" M 21.28 68.42 C 23.46 70.68 25.69 72.89 28.01 75.00 C 29.95 74.78 31.91 74.04 33.86 74.62 C 34.17 75.19 34.80 76.32 35.11 76.88 C 34.33 77.71 33.54 78.53 32.76 79.35 C 29.19 79.06 25.58 79.25 22.03 79.65 C 21.26 76.58 21.91 72.89 19.53 70.41 C 19.97 69.91 20.84 68.92 21.28 68.42 Z" />
<path fill="#f4f4f4" opacity="1.00" d=" M 15.53 81.64 C 16.42 81.71 18.20 81.83 19.09 81.89 C 19.75 85.17 20.42 88.84 23.04 91.18 C 23.98 91.90 24.97 92.57 25.94 93.26 C 22.62 93.02 19.10 91.93 16.09 93.99 C 17.38 94.83 18.77 95.52 20.29 95.87 C 20.48 96.13 20.86 96.65 21.06 96.91 L 20.42 98.45 C 19.44 98.22 17.47 97.76 16.49 97.53 C 16.47 98.82 16.41 100.12 16.31 101.41 C 16.32 99.85 16.33 98.30 16.32 96.74 C 16.10 96.10 15.65 94.82 15.43 94.18 C 15.28 92.51 14.92 90.86 14.76 89.20 C 14.82 86.66 15.16 84.15 15.53 81.64 Z" />
<path fill="#f4f4f4" opacity="1.00" d=" M 21.41 81.88 C 23.06 81.76 24.70 81.65 26.35 81.56 C 26.99 81.50 28.26 81.38 28.89 81.31 C 29.82 82.15 30.68 83.04 31.48 84.00 C 31.54 84.29 31.68 84.86 31.74 85.15 C 29.85 85.62 30.72 87.31 30.73 88.58 C 30.72 88.93 30.68 89.63 30.67 89.97 C 29.89 90.46 29.10 90.94 28.31 91.40 C 27.70 91.74 26.50 92.43 25.89 92.78 C 25.81 92.16 25.63 90.93 25.55 90.32 C 25.19 90.04 24.46 89.47 24.10 89.19 C 23.40 86.69 22.46 84.26 21.41 81.88 Z" />
<path fill="#f4f4f4" opacity="1.00" d=" M 53.73 158.21 C 53.94 158.22 54.38 158.24 54.59 158.25 C 54.67 159.05 54.83 160.64 54.91 161.43 C 53.43 161.18 52.03 160.58 50.66 160.01 C 51.43 159.56 52.96 158.66 53.73 158.21 Z" />
</g>
<g id="#a1a9c8ff">
<path fill="#a1a9c8" opacity="1.00" d=" M 51.26 57.89 L 51.70 58.66 C 52.12 59.97 53.50 60.64 54.79 60.08 C 55.17 61.47 55.42 63.14 54.47 64.38 C 52.83 66.20 52.24 68.50 52.25 70.91 C 52.65 71.41 53.45 72.41 53.85 72.90 C 53.40 73.81 52.94 74.72 52.49 75.62 L 51.46 76.11 C 51.69 70.03 51.90 63.95 51.26 57.89 Z" />
</g>
<g id="#677186ff">
<path fill="#677186" opacity="1.00" d=" M 51.70 58.66 C 52.64 57.31 55.52 58.44 54.79 60.08 C 53.50 60.64 52.12 59.97 51.70 58.66 Z" />
</g>
<g id="#2ece50ff">
<path fill="#2ece50" opacity="1.00" d=" M 17.25 69.12 C 20.08 64.48 26.28 64.70 31.04 64.72 C 35.56 65.17 40.48 64.80 44.51 67.25 C 36.97 66.65 29.25 65.86 21.84 67.77 C 21.70 67.93 21.42 68.26 21.28 68.42 C 20.84 68.92 19.97 69.91 19.53 70.41 C 18.78 70.83 18.12 71.38 17.43 71.89 C 17.20 72.81 17.01 73.73 16.85 74.67 L 16.39 75.21 C 16.37 73.15 15.94 70.89 17.25 69.12 Z" />
<path fill="#2ece50" opacity="1.00" d=" M 15.65 118.36 C 16.64 114.43 15.33 107.75 20.77 106.96 C 20.50 124.66 20.51 142.38 20.74 160.08 C 20.74 161.81 20.57 163.53 20.23 165.23 L 19.67 165.94 C 18.34 164.71 17.21 163.28 16.45 161.64 C 16.24 160.58 16.03 159.51 15.84 158.45 C 16.42 154.08 16.01 149.68 16.20 145.29 C 16.83 136.30 15.16 127.35 15.65 118.36 Z" />
</g>
<g id="#2d353aff">
<path fill="#2d353a" opacity="1.00" d=" M 52.25 70.91 C 52.24 68.50 52.83 66.20 54.47 64.38 C 56.57 66.89 55.47 70.08 55.44 73.01 C 55.67 74.52 56.72 76.14 55.62 77.56 C 54.61 77.55 53.61 77.56 52.60 77.59 C 52.57 77.10 52.52 76.11 52.49 75.62 C 52.94 74.72 53.40 73.81 53.85 72.90 C 53.45 72.41 52.65 71.41 52.25 70.91 Z" />
</g>
<g id="#202b28ff">
<path fill="#202b28" opacity="1.00" d=" M 21.84 67.77 C 29.25 65.86 36.97 66.65 44.51 67.25 C 45.86 68.33 46.92 69.72 48.16 70.92 C 47.16 70.81 45.16 70.57 44.16 70.45 C 43.37 71.32 42.60 72.21 41.85 73.12 C 40.70 73.01 39.54 72.90 38.39 72.78 C 38.38 72.38 38.36 71.56 38.36 71.15 C 34.66 70.45 29.41 70.56 27.43 74.29 C 29.29 73.96 31.15 73.66 33.00 73.27 C 33.21 73.61 33.64 74.28 33.86 74.62 C 31.91 74.04 29.95 74.78 28.01 75.00 C 25.69 72.89 23.46 70.68 21.28 68.42 C 21.42 68.26 21.70 67.93 21.84 67.77 Z" />
</g>
<g id="#0c171cff">
<path fill="#0c171c" opacity="1.00" d=" M 27.43 74.29 C 29.41 70.56 34.66 70.45 38.36 71.15 C 38.36 71.56 38.38 72.38 38.39 72.78 C 39.54 72.90 40.70 73.01 41.85 73.12 C 40.90 74.26 40.02 75.56 38.52 76.00 C 38.60 78.03 38.65 80.06 38.68 82.09 C 37.06 81.72 35.85 80.81 35.05 79.36 C 34.70 79.95 34.35 80.54 34.00 81.14 C 35.42 82.54 37.00 83.77 38.43 85.17 C 38.40 85.69 38.33 86.74 38.29 87.26 C 35.81 87.88 33.28 88.29 30.73 88.58 C 30.72 87.31 29.85 85.62 31.74 85.15 C 31.68 84.86 31.54 84.29 31.48 84.00 C 30.68 83.04 29.82 82.15 28.89 81.31 C 28.26 81.38 26.99 81.50 26.35 81.56 C 25.11 81.17 23.88 80.77 22.68 80.26 C 26.02 80.42 29.69 81.03 32.76 79.35 C 33.54 78.53 34.33 77.71 35.11 76.88 C 34.80 76.32 34.17 75.19 33.86 74.62 C 33.64 74.28 33.21 73.61 33.00 73.27 C 31.15 73.66 29.29 73.96 27.43 74.29 Z" />
<path fill="#0c171c" opacity="1.00" d=" M 12.07 105.26 C 12.46 103.29 13.08 101.38 13.79 99.50 C 13.77 102.48 13.70 105.46 13.23 108.40 L 12.22 108.45 C 12.18 107.66 12.11 106.06 12.07 105.26 Z" />
</g>
<g id="#1e7f2dff">
<path fill="#1e7f2d" opacity="1.00" d=" M 17.43 71.89 C 18.12 71.38 18.78 70.83 19.53 70.41 C 19.71 71.22 20.05 72.85 20.22 73.66 C 19.09 73.99 17.97 74.33 16.85 74.67 C 17.01 73.73 17.20 72.81 17.43 71.89 Z" />
</g>
<g id="#8a8382ff">
<path fill="#8a8382" opacity="1.00" d=" M 19.53 70.41 C 21.91 72.89 21.26 76.58 22.03 79.65 C 25.58 79.25 29.19 79.06 32.76 79.35 C 29.69 81.03 26.02 80.42 22.68 80.26 C 22.40 80.14 21.85 79.89 21.58 79.76 C 21.41 79.21 21.07 78.09 20.90 77.53 C 19.73 78.24 18.74 79.18 17.61 79.93 L 17.25 79.71 C 17.30 78.85 17.39 77.15 17.44 76.30 C 18.34 76.43 20.15 76.70 21.05 76.83 C 20.85 76.04 20.43 74.45 20.22 73.66 C 20.05 72.85 19.71 71.22 19.53 70.41 Z" />
</g>
<g id="#90e1f4ff">
<path fill="#90e1f4" opacity="1.00" d=" M 2.99 76.82 C 7.45 76.31 11.86 74.43 16.39 75.21 L 15.55 76.17 C 15.21 77.13 14.78 78.04 14.25 78.91 C 12.29 79.12 10.37 79.53 8.40 79.66 L 8.13 79.66 C 6.44 79.53 4.74 79.41 3.06 79.23 C 3.04 78.63 3.01 77.42 2.99 76.82 Z" />
</g>
<g id="#181f26ff">
<path fill="#181f26" opacity="1.00" d=" M 16.85 74.67 C 17.97 74.33 19.09 73.99 20.22 73.66 C 20.43 74.45 20.85 76.04 21.05 76.83 C 20.15 76.70 18.34 76.43 17.44 76.30 C 17.39 77.15 17.30 78.85 17.25 79.71 L 16.05 78.97 C 15.93 78.27 15.68 76.87 15.55 76.17 L 16.39 75.21 L 16.85 74.67 Z" />
</g>
<g id="#4895cbff">
<path fill="#4895cb" opacity="1.00" d=" M 14.25 78.91 C 14.78 78.04 15.21 77.13 15.55 76.17 C 15.68 76.87 15.93 78.27 16.05 78.97 C 15.67 79.84 15.28 80.72 14.90 81.60 C 12.64 81.28 10.56 80.32 8.40 79.66 C 10.37 79.53 12.29 79.12 14.25 78.91 Z" />
</g>
<g id="#787874ff">
<path fill="#787874" opacity="1.00" d=" M 17.61 79.93 C 18.74 79.18 19.73 78.24 20.90 77.53 C 21.07 78.09 21.41 79.21 21.58 79.76 C 21.85 79.89 22.40 80.14 22.68 80.26 C 23.88 80.77 25.11 81.17 26.35 81.56 C 24.70 81.65 23.06 81.76 21.41 81.88 C 20.83 81.89 19.67 81.89 19.09 81.89 C 18.20 81.83 16.42 81.71 15.53 81.64 L 14.90 81.60 C 15.28 80.72 15.67 79.84 16.05 78.97 L 17.25 79.71 L 17.61 79.93 Z" />
</g>
<g id="#1b5124ff">
<path fill="#1b5124" opacity="1.00" d=" M 40.17 77.35 C 42.67 77.47 45.15 76.92 47.58 76.40 C 47.57 76.94 47.55 78.03 47.54 78.57 C 45.02 78.48 42.50 78.25 40.04 77.69 L 40.17 77.35 Z" />
<path fill="#1b5124" opacity="1.00" d=" M 16.49 97.53 C 17.47 97.76 19.44 98.22 20.42 98.45 C 21.25 100.84 21.20 103.35 20.87 105.83 L 20.77 106.96 C 15.33 107.75 16.64 114.43 15.65 118.36 C 15.61 115.89 15.62 113.41 15.40 110.94 L 14.13 109.98 C 14.54 108.65 14.93 107.31 15.32 105.97 C 15.83 104.48 16.16 102.96 16.31 101.41 C 16.41 100.12 16.47 98.82 16.49 97.53 Z" />
<path fill="#1b5124" opacity="1.00" d=" M 37.93 107.87 C 40.29 113.03 38.79 118.62 38.60 124.01 C 38.74 135.71 38.21 147.42 38.82 159.12 C 38.72 159.95 38.58 160.78 38.39 161.60 L 38.25 161.04 C 38.05 160.44 37.64 159.23 37.44 158.63 C 38.13 146.47 38.02 134.21 38.19 122.01 C 38.18 119.21 38.52 116.22 37.01 113.69 C 36.71 114.51 36.12 116.16 35.83 116.98 C 34.80 116.58 33.78 116.20 32.75 115.82 C 33.09 114.83 33.43 113.84 33.77 112.85 C 34.24 112.83 35.17 112.77 35.64 112.75 C 36.14 112.72 37.14 112.68 37.64 112.66 C 37.74 111.06 37.87 109.47 37.93 107.87 Z" />
<path fill="#1b5124" opacity="1.00" d=" M 51.14 165.82 C 52.20 167.16 53.30 168.48 54.23 169.92 C 54.44 172.18 54.24 174.54 55.17 176.67 C 57.43 176.43 59.82 175.90 61.67 174.51 C 61.52 174.88 61.22 175.63 61.07 176.00 C 59.30 176.44 57.58 177.05 55.83 177.59 C 55.49 178.07 54.80 179.04 54.45 179.52 C 53.95 179.47 52.96 179.37 52.46 179.32 C 52.78 176.69 52.48 174.04 52.72 171.40 C 52.35 169.50 51.79 167.64 51.14 165.82 Z" />
</g>
<g id="#3273b6ff">
<path fill="#3273b6" opacity="1.00" d=" M 3.06 79.23 C 4.74 79.41 6.44 79.53 8.13 79.66 C 7.34 80.42 6.48 81.09 5.58 81.70 C 6.10 83.99 6.56 86.30 6.62 88.65 C 6.61 91.25 6.83 93.83 6.98 96.42 C 7.50 96.41 8.54 96.38 9.06 96.37 C 9.13 97.57 9.21 98.78 9.31 99.99 C 9.86 98.63 10.41 97.28 10.96 95.92 C 11.31 96.29 12.03 97.04 12.38 97.41 C 12.96 96.94 13.55 96.47 14.14 96.02 C 14.02 97.18 13.91 98.34 13.79 99.50 C 13.08 101.38 12.46 103.29 12.07 105.26 C 11.55 103.82 10.96 102.41 10.37 101.00 C 10.21 101.73 9.88 103.20 9.71 103.93 C 8.96 102.59 8.21 101.26 7.57 99.87 C 6.92 102.73 6.38 105.62 5.70 108.47 L 4.88 108.52 C 6.35 103.84 6.27 98.89 6.32 94.05 C 6.46 92.10 5.69 90.31 4.95 88.57 C 5.12 86.07 5.36 83.56 5.14 81.06 C 4.62 80.91 3.60 80.59 3.08 80.44 C 3.08 80.13 3.06 79.53 3.06 79.23 Z" />
</g>
<g id="#64c6f4ff">
<path fill="#64c6f4" opacity="1.00" d=" M 8.13 79.66 L 8.40 79.66 C 10.56 80.32 12.64 81.28 14.90 81.60 L 15.53 81.64 C 15.16 84.15 14.82 86.66 14.76 89.20 C 14.47 87.43 13.98 85.70 13.68 83.94 C 13.13 87.16 10.17 89.45 10.42 92.85 C 10.27 91.69 10.10 90.54 9.95 89.38 C 9.12 89.20 7.46 88.83 6.62 88.65 C 6.56 86.30 6.10 83.99 5.58 81.70 C 6.48 81.09 7.34 80.42 8.13 79.66 Z" />
<path fill="#64c6f4" opacity="1.00" d=" M 3.08 80.44 C 3.60 80.59 4.62 80.91 5.14 81.06 C 5.36 83.56 5.12 86.07 4.95 88.57 C 4.55 93.59 4.07 98.61 3.08 103.56 L 3.05 102.65 C 3.13 95.24 2.89 87.84 3.08 80.44 Z" />
</g>
<g id="#6d6c6eff">
<path fill="#6d6c6e" opacity="1.00" d=" M 39.05 80.21 C 39.46 76.68 42.49 79.42 43.92 80.42 L 45.02 80.43 C 44.57 81.22 44.15 82.02 43.76 82.84 L 43.56 81.88 C 42.08 81.27 40.31 81.27 39.05 80.21 Z" />
<path fill="#6d6c6e" opacity="1.00" d=" M 10.72 125.16 C 11.62 125.98 12.55 126.86 12.42 128.19 C 11.93 128.33 10.96 128.59 10.47 128.72 C 10.54 127.53 10.62 126.34 10.72 125.16 Z" />
<path fill="#6d6c6e" opacity="1.00" d=" M 64.10 161.00 C 66.27 161.13 68.43 161.54 70.62 161.39 C 72.39 161.38 74.16 161.28 75.93 161.07 C 76.01 161.84 76.19 163.38 76.27 164.15 C 74.46 164.16 72.65 164.18 70.85 164.15 C 68.80 164.10 66.74 164.14 64.70 164.34 C 64.55 163.51 64.25 161.83 64.10 161.00 M 74.23 162.29 C 74.76 162.80 74.76 162.80 74.23 162.29 Z" />
</g>
<g id="#089d25ff">
<path fill="#089d25" opacity="1.00" d=" M 45.02 80.43 C 45.54 80.36 46.59 80.22 47.11 80.15 C 46.43 83.11 45.35 85.96 44.75 88.94 C 43.86 89.22 42.92 89.31 42.04 89.63 C 42.28 87.29 42.81 85.00 43.76 82.84 C 44.15 82.02 44.57 81.22 45.02 80.43 Z" />
</g>
<g id="#008610ff">
<path fill="#008610" opacity="1.00" d=" M 19.09 81.89 C 19.67 81.89 20.83 81.89 21.41 81.88 C 22.46 84.26 23.40 86.69 24.10 89.19 C 23.83 89.69 23.30 90.68 23.04 91.18 C 20.42 88.84 19.75 85.17 19.09 81.89 Z" />
<path fill="#008610" opacity="1.00" d=" M 66.71 156.77 C 66.42 154.95 68.37 153.89 69.30 152.62 L 69.74 152.93 C 68.56 154.73 67.86 156.76 68.42 158.92 C 69.34 158.75 71.16 158.39 72.08 158.22 C 72.15 157.42 72.29 155.83 72.37 155.04 C 71.72 155.50 70.42 156.43 69.77 156.90 C 70.32 156.05 70.88 155.21 71.45 154.37 C 71.98 154.40 73.04 154.46 73.57 154.49 C 74.20 157.16 72.64 159.23 70.08 159.90 C 68.86 158.99 67.06 158.45 66.71 156.77 Z" />
</g>
<g id="#2288dfff">
<path fill="#2288df" opacity="1.00" d=" M 13.68 83.94 C 13.98 85.70 14.47 87.43 14.76 89.20 C 14.92 90.86 15.28 92.51 15.43 94.18 C 15.10 98.09 14.34 102.08 15.32 105.97 C 14.93 107.31 14.54 108.65 14.13 109.98 C 13.78 109.49 13.48 108.96 13.23 108.40 C 13.70 105.46 13.77 102.48 13.79 99.50 C 13.91 98.34 14.02 97.18 14.14 96.02 C 13.55 96.47 12.96 96.94 12.38 97.41 C 12.03 97.04 11.31 96.29 10.96 95.92 C 10.41 97.28 9.86 98.63 9.31 99.99 C 9.21 98.78 9.13 97.57 9.06 96.37 C 8.54 96.38 7.50 96.41 6.98 96.42 C 6.83 93.83 6.61 91.25 6.62 88.65 C 7.46 88.83 9.12 89.20 9.95 89.38 C 10.10 90.54 10.27 91.69 10.42 92.85 C 10.17 89.45 13.13 87.16 13.68 83.94 Z" />
<path fill="#2288df" opacity="1.00" d=" M 4.18 109.83 C 5.53 111.41 5.83 113.49 6.35 115.44 C 7.06 118.47 9.29 120.88 9.91 123.94 C 8.83 123.87 8.11 123.35 7.73 122.38 C 5.94 118.41 4.09 114.28 4.18 109.83 Z" />
</g>
<g id="#192020ff">
<path fill="#192020" opacity="1.00" d=" M 52.57 85.61 C 53.61 85.56 54.65 85.50 55.69 85.43 C 55.53 86.36 55.36 87.29 55.19 88.22 C 54.41 88.18 53.64 88.17 52.86 88.18 C 52.78 87.32 52.69 86.46 52.57 85.61 Z" />
<path fill="#192020" opacity="1.00" d=" M 44.30 125.54 C 51.80 127.66 60.00 126.93 67.35 124.47 C 66.98 126.45 66.90 128.46 67.04 130.47 C 64.10 132.10 60.56 131.16 57.37 130.99 L 56.14 130.80 C 55.51 130.71 54.25 130.53 53.62 130.44 C 52.53 130.42 51.45 130.40 50.37 130.39 C 49.50 130.43 47.76 130.49 46.90 130.53 C 44.55 130.95 42.71 129.61 42.35 127.27 C 42.83 126.84 43.81 125.97 44.30 125.54 Z" />
</g>
<g id="#5b8748ff">
<path fill="#5b8748" opacity="1.00" d=" M 30.73 88.58 C 33.28 88.29 35.81 87.88 38.29 87.26 C 38.15 87.64 37.88 88.38 37.74 88.76 C 37.26 88.91 36.30 89.20 35.82 89.35 C 33.23 89.65 30.62 90.12 28.31 91.40 C 29.10 90.94 29.89 90.46 30.67 89.97 C 30.68 89.63 30.72 88.93 30.73 88.58 Z" />
</g>
<g id="#215d95ff">
<path fill="#215d95" opacity="1.00" d=" M 3.08 103.56 C 4.07 98.61 4.55 93.59 4.95 88.57 C 5.69 90.31 6.46 92.10 6.32 94.05 C 6.27 98.89 6.35 103.84 4.88 108.52 L 3.44 108.63 C 3.34 106.93 3.14 105.25 3.08 103.56 Z" />
</g>
<g id="#0eda2bff">
<path fill="#0eda2b" opacity="1.00" d=" M 24.10 89.19 C 24.46 89.47 25.19 90.04 25.55 90.32 C 25.63 90.93 25.81 92.16 25.89 92.78 C 26.50 92.43 27.70 91.74 28.31 91.40 C 30.62 90.12 33.23 89.65 35.82 89.35 C 37.89 89.54 39.96 89.64 42.04 89.63 C 42.92 89.31 43.86 89.22 44.75 88.94 C 44.58 89.58 44.23 90.86 44.05 91.49 C 45.43 91.61 46.81 91.72 48.20 91.84 C 46.89 92.60 45.46 93.14 44.20 93.98 C 44.00 93.26 43.60 91.82 43.41 91.10 L 41.40 91.15 C 41.46 91.82 41.56 93.16 41.62 93.83 L 40.97 94.47 L 40.60 93.92 C 37.60 89.81 31.32 91.34 27.55 93.61 L 28.48 94.26 L 29.24 94.83 C 28.56 95.07 27.20 95.53 26.52 95.76 C 26.34 95.65 25.98 95.43 25.80 95.32 C 25.02 96.63 24.30 97.98 23.48 99.27 C 22.87 98.68 21.66 97.50 21.06 96.91 C 20.86 96.65 20.48 96.13 20.29 95.87 C 18.77 95.52 17.38 94.83 16.09 93.99 C 19.10 91.93 22.62 93.02 25.94 93.26 C 24.97 92.57 23.98 91.90 23.04 91.18 C 23.30 90.68 23.83 89.69 24.10 89.19 Z" />
<path fill="#0eda2b" opacity="1.00" d=" M 39.49 98.11 C 43.47 98.86 47.45 97.82 51.28 96.82 C 51.32 98.17 51.36 99.52 51.37 100.86 C 50.79 100.48 49.64 99.71 49.06 99.33 C 48.52 99.56 47.42 100.02 46.87 100.25 C 46.69 100.36 46.33 100.57 46.15 100.68 C 42.99 100.28 39.76 100.11 36.63 100.87 C 36.64 100.28 36.68 99.11 36.69 98.52 C 37.65 98.55 38.58 98.41 39.49 98.11 Z" />
</g>
<g id="#199932ff">
<path fill="#199932" opacity="1.00" d=" M 54.51 90.32 C 54.71 90.34 55.10 90.39 55.30 90.41 C 55.38 94.47 55.71 98.53 55.50 102.60 C 56.99 102.41 58.49 102.26 60.00 102.16 C 59.70 102.47 59.12 103.09 58.82 103.40 C 58.44 103.41 57.67 103.44 57.29 103.45 C 56.06 103.44 54.83 103.35 53.60 103.35 C 53.44 110.00 53.64 116.66 53.46 123.32 C 52.71 123.23 51.20 123.06 50.44 122.98 C 51.85 115.68 51.13 108.24 51.37 100.86 C 51.36 99.52 51.32 98.17 51.28 96.82 C 51.76 96.61 52.71 96.20 53.19 95.99 C 53.19 98.05 53.28 100.10 53.37 102.16 C 53.76 101.98 54.53 101.64 54.92 101.47 C 55.83 97.80 54.83 94.01 54.51 90.32 Z" />
<path fill="#199932" opacity="1.00" d=" M 29.83 98.29 C 31.19 99.02 32.71 99.39 34.19 99.79 C 34.35 100.22 34.65 101.06 34.80 101.48 C 35.41 101.27 36.02 101.07 36.63 100.87 C 39.76 100.11 42.99 100.28 46.15 100.68 C 44.08 101.92 41.67 102.19 39.30 102.20 C 40.66 106.26 41.34 110.53 40.71 114.80 C 40.89 128.53 39.96 142.24 40.12 155.98 C 40.32 159.35 40.82 162.74 40.18 166.10 C 37.51 166.83 34.73 166.24 32.13 165.51 C 32.05 152.67 32.14 139.83 32.14 126.99 C 32.17 123.27 31.70 119.45 32.75 115.82 C 33.78 116.20 34.80 116.58 35.83 116.98 C 36.11 130.96 35.27 144.98 36.08 158.94 L 35.11 159.72 L 35.15 160.36 C 35.30 161.82 35.51 163.27 35.66 164.74 C 36.10 164.74 36.98 164.73 37.42 164.73 C 37.66 163.95 38.15 162.38 38.39 161.60 C 38.58 160.78 38.72 159.95 38.82 159.12 C 38.21 147.42 38.74 135.71 38.60 124.01 C 38.79 118.62 40.29 113.03 37.93 107.87 C 37.83 107.57 37.63 106.96 37.53 106.65 C 37.06 106.64 36.12 106.62 35.65 106.60 C 35.72 108.65 35.63 110.70 35.64 112.75 C 35.17 112.77 34.24 112.83 33.77 112.85 C 33.73 109.84 32.40 107.01 32.39 103.98 C 32.59 101.96 30.84 100.77 29.69 99.40 L 29.83 98.29 Z" />
</g>
<g id="#34f35aff">
<path fill="#34f35a" opacity="1.00" d=" M 27.55 93.61 C 31.32 91.34 37.60 89.81 40.60 93.92 C 36.55 93.95 32.52 94.17 28.48 94.26 L 27.55 93.61 Z" />
</g>
<g id="#cdefc3ff">
<path fill="#cdefc3" opacity="1.00" d=" M 41.40 91.15 L 43.41 91.10 C 43.60 91.82 44.00 93.26 44.20 93.98 C 45.46 93.14 46.89 92.60 48.20 91.84 C 50.17 92.24 51.65 93.71 53.23 94.85 C 50.16 95.74 46.92 95.38 43.83 96.14 C 43.75 94.79 43.01 94.02 41.62 93.83 C 41.56 93.16 41.46 91.82 41.40 91.15 Z" />
</g>
<g id="#1b822dff">
<path fill="#1b822d" opacity="1.00" d=" M 28.48 94.26 C 32.52 94.17 36.55 93.95 40.60 93.92 L 40.97 94.47 C 41.06 94.93 41.24 95.84 41.33 96.30 C 39.94 96.05 38.54 95.98 37.14 96.09 C 35.25 96.22 33.35 96.34 31.46 96.49 C 30.91 96.08 29.80 95.25 29.24 94.83 L 28.48 94.26 Z" />
</g>
<g id="#877d95ff">
<path fill="#877d95" opacity="1.00" d=" M 15.43 94.18 C 15.65 94.82 16.10 96.10 16.32 96.74 C 16.33 98.30 16.32 99.85 16.31 101.41 C 16.16 102.96 15.83 104.48 15.32 105.97 C 14.34 102.08 15.10 98.09 15.43 94.18 Z" />
</g>
<g id="#f1f4f4ff">
<path fill="#f1f4f4" opacity="1.00" d=" M 25.80 95.32 C 25.98 95.43 26.34 95.65 26.52 95.76 C 26.85 95.93 27.53 96.28 27.86 96.45 C 29.06 96.53 30.26 96.53 31.46 96.49 C 33.35 96.34 35.25 96.22 37.14 96.09 C 35.96 96.55 34.79 97.05 33.62 97.53 C 32.36 97.47 31.12 97.58 29.89 97.84 L 29.83 98.29 L 29.69 99.40 C 28.28 101.04 25.88 100.53 24.12 99.88 C 23.96 99.73 23.64 99.42 23.48 99.27 C 24.30 97.98 25.02 96.63 25.80 95.32 Z" />
<path fill="#f1f4f4" opacity="1.00" d=" M 34.19 99.79 C 34.35 99.58 34.66 99.15 34.82 98.94 C 35.28 98.84 36.22 98.62 36.69 98.52 C 36.68 99.11 36.64 100.28 36.63 100.87 C 36.02 101.07 35.41 101.27 34.80 101.48 C 34.65 101.06 34.35 100.22 34.19 99.79 Z" />
</g>
<g id="#0e140bff">
<path fill="#0e140b" opacity="1.00" d=" M 26.52 95.76 C 27.20 95.53 28.56 95.07 29.24 94.83 C 29.80 95.25 30.91 96.08 31.46 96.49 C 30.26 96.53 29.06 96.53 27.86 96.45 C 27.53 96.28 26.85 95.93 26.52 95.76 Z" />
<path fill="#0e140b" opacity="1.00" d=" M 13.90 161.25 C 14.12 158.09 14.31 154.94 14.53 151.78 C 14.95 154.01 15.42 156.22 15.84 158.45 C 16.03 159.51 16.24 160.58 16.45 161.64 C 15.60 161.51 14.75 161.38 13.90 161.25 Z" />
<path fill="#0e140b" opacity="1.00" d=" M 61.22 152.13 L 61.71 152.08 C 61.67 154.54 61.48 157.00 61.75 159.45 C 60.11 159.11 59.10 160.02 58.50 161.48 C 57.30 161.44 56.10 161.48 54.91 161.43 C 54.83 160.64 54.67 159.05 54.59 158.25 C 54.38 158.24 53.94 158.22 53.73 158.21 C 53.00 158.02 51.55 157.62 50.82 157.43 C 52.51 157.49 54.21 157.54 55.88 157.78 C 56.42 158.09 57.49 158.71 58.03 159.02 C 58.76 157.79 59.79 156.92 61.13 156.40 C 61.17 154.98 61.19 153.55 61.22 152.13 Z" />
</g>
<g id="#8deba5ff">
<path fill="#8deba5" opacity="1.00" d=" M 43.83 96.14 C 46.92 95.38 50.16 95.74 53.23 94.85 L 53.19 95.99 C 52.71 96.20 51.76 96.61 51.28 96.82 C 47.45 97.82 43.47 98.86 39.49 98.11 C 40.67 97.54 41.87 97.03 43.06 96.48 L 43.83 96.14 Z" />
<path fill="#8deba5" opacity="1.00" d=" M 20.77 106.96 L 20.87 105.83 C 23.81 108.77 22.90 113.22 23.16 116.98 C 22.75 133.05 24.15 149.21 22.23 165.21 C 21.56 165.24 20.90 165.25 20.23 165.23 C 20.57 163.53 20.74 161.81 20.74 160.08 C 20.51 142.38 20.50 124.66 20.77 106.96 M 21.43 110.96 C 20.81 120.62 21.32 130.32 21.09 140.00 C 21.22 143.70 20.58 147.53 21.70 151.13 C 23.10 140.85 21.55 130.40 22.18 120.06 C 22.30 117.01 22.62 113.84 21.43 110.96 Z" />
</g>
<g id="#65e46fff">
<path fill="#65e46f" opacity="1.00" d=" M 37.14 96.09 C 38.54 95.98 39.94 96.05 41.33 96.30 C 41.76 96.35 42.63 96.44 43.06 96.48 C 41.87 97.03 40.67 97.54 39.49 98.11 C 38.58 98.41 37.65 98.55 36.69 98.52 C 36.22 98.62 35.28 98.84 34.82 98.94 C 34.52 98.59 33.92 97.88 33.62 97.53 C 34.79 97.05 35.96 96.55 37.14 96.09 Z" />
</g>
<g id="#22ae41ff">
<path fill="#22ae41" opacity="1.00" d=" M 20.42 98.45 L 21.06 96.91 C 21.66 97.50 22.87 98.68 23.48 99.27 C 23.64 99.42 23.96 99.73 24.12 99.88 C 25.04 101.77 25.61 103.82 25.65 105.92 C 25.97 111.97 27.32 117.94 27.17 124.02 C 27.14 139.53 27.41 155.06 26.89 170.57 C 24.78 169.60 22.77 168.42 20.76 167.26 C 18.78 170.81 19.52 174.97 19.54 178.85 C 21.26 177.89 23.16 177.52 25.11 177.59 C 23.72 177.96 22.33 178.36 20.95 178.77 C 20.27 179.44 19.60 180.11 18.93 180.79 C 18.37 180.61 17.25 180.24 16.68 180.06 C 17.72 175.37 16.17 169.78 19.67 165.94 L 20.23 165.23 C 20.90 165.25 21.56 165.24 22.23 165.21 C 24.15 149.21 22.75 133.05 23.16 116.98 C 22.90 113.22 23.81 108.77 20.87 105.83 C 21.20 103.35 21.25 100.84 20.42 98.45 Z" />
</g>
<g id="#23d13fff">
<path fill="#23d13f" opacity="1.00" d=" M 29.89 97.84 C 31.12 97.58 32.36 97.47 33.62 97.53 C 33.92 97.88 34.52 98.59 34.82 98.94 C 34.66 99.15 34.35 99.58 34.19 99.79 C 32.71 99.39 31.19 99.02 29.83 98.29 L 29.89 97.84 Z" />
</g>
<g id="#384c84ff">
<path fill="#384c84" opacity="1.00" d=" M 7.57 99.87 C 8.21 101.26 8.96 102.59 9.71 103.93 C 9.88 103.20 10.21 101.73 10.37 101.00 C 10.96 102.41 11.55 103.82 12.07 105.26 C 12.11 106.06 12.18 107.66 12.22 108.45 C 10.05 108.48 7.87 108.49 5.70 108.47 C 6.38 105.62 6.92 102.73 7.57 99.87 Z" />
</g>
<g id="#1d8a35ff">
<path fill="#1d8a35" opacity="1.00" d=" M 24.12 99.88 C 25.88 100.53 28.28 101.04 29.69 99.40 C 30.84 100.77 32.59 101.96 32.39 103.98 C 32.40 107.01 33.73 109.84 33.77 112.85 C 33.43 113.84 33.09 114.83 32.75 115.82 C 31.70 119.45 32.17 123.27 32.14 126.99 C 32.14 139.83 32.05 152.67 32.13 165.51 C 32.34 168.43 29.78 169.71 27.59 170.87 L 26.89 170.57 C 27.41 155.06 27.14 139.53 27.17 124.02 C 27.32 117.94 25.97 111.97 25.65 105.92 C 25.61 103.82 25.04 101.77 24.12 99.88 Z" />
</g>
<g id="#24a140ff">
<path fill="#24a140" opacity="1.00" d=" M 46.15 100.68 C 46.33 100.57 46.69 100.36 46.87 100.25 C 46.79 103.18 46.70 106.10 46.73 109.03 C 46.74 114.10 47.94 119.33 46.11 124.24 C 44.86 124.29 43.61 124.33 42.36 124.37 C 42.36 125.34 42.36 126.30 42.35 127.27 C 42.71 129.61 44.55 130.95 46.90 130.53 C 47.05 137.03 46.57 143.54 46.81 150.04 C 46.61 151.45 48.16 152.03 48.95 152.90 C 48.22 152.95 46.76 153.07 46.03 153.12 C 46.03 155.30 46.00 157.47 45.95 159.65 C 45.98 160.99 45.84 162.31 45.55 163.61 C 44.06 164.96 42.02 165.42 40.18 166.10 C 40.82 162.74 40.32 159.35 40.12 155.98 C 39.96 142.24 40.89 128.53 40.71 114.80 C 41.34 110.53 40.66 106.26 39.30 102.20 C 41.67 102.19 44.08 101.92 46.15 100.68 Z" />
</g>
<g id="#49b261ff">
<path fill="#49b261" opacity="1.00" d=" M 46.87 100.25 C 47.42 100.02 48.52 99.56 49.06 99.33 C 49.64 99.71 50.79 100.48 51.37 100.86 C 51.13 108.24 51.85 115.68 50.44 122.98 C 51.20 123.06 52.71 123.23 53.46 123.32 L 53.35 123.92 C 51.06 124.00 48.78 124.11 46.50 124.23 L 46.11 124.24 C 47.94 119.33 46.74 114.10 46.73 109.03 C 46.70 106.10 46.79 103.18 46.87 100.25 Z" />
</g>
<g id="#d6e4daff">
<path fill="#d6e4da" opacity="1.00" d=" M 53.60 103.35 C 54.83 103.35 56.06 103.44 57.29 103.45 C 57.04 109.75 57.54 116.06 57.13 122.35 C 60.16 123.23 63.60 122.52 66.44 123.88 C 63.59 123.29 60.76 124.08 57.93 124.37 C 54.13 124.86 50.30 124.53 46.50 124.23 C 48.78 124.11 51.06 124.00 53.35 123.92 L 53.46 123.32 C 53.64 116.66 53.44 110.00 53.60 103.35 Z" />
</g>
<g id="#d1d3d0ff">
<path fill="#d1d3d0" opacity="1.00" d=" M 35.65 106.60 C 36.12 106.62 37.06 106.64 37.53 106.65 C 37.63 106.96 37.83 107.57 37.93 107.87 C 37.87 109.47 37.74 111.06 37.64 112.66 C 37.14 112.68 36.14 112.72 35.64 112.75 C 35.63 110.70 35.72 108.65 35.65 106.60 Z" />
<path fill="#d1d3d0" opacity="1.00" d=" M 35.83 116.98 C 36.12 116.16 36.71 114.51 37.01 113.69 C 38.52 116.22 38.18 119.21 38.19 122.01 C 38.02 134.21 38.13 146.47 37.44 158.63 L 36.08 158.94 C 35.27 144.98 36.11 130.96 35.83 116.98 Z" />
<path fill="#d1d3d0" opacity="1.00" d=" M 79.00 175.35 C 83.07 174.75 86.97 173.38 91.00 172.56 C 93.05 172.18 95.86 173.67 95.48 176.04 C 93.76 179.08 90.15 179.90 86.94 180.24 C 88.55 178.93 89.86 177.32 90.08 175.19 C 86.38 175.24 82.69 175.51 79.05 176.24 L 79.00 175.35 Z" />
</g>
<g id="#a9f4bcff">
<path fill="#a9f4bc" opacity="1.00" d=" M 21.43 110.96 C 22.62 113.84 22.30 117.01 22.18 120.06 C 21.55 130.40 23.10 140.85 21.70 151.13 C 20.58 147.53 21.22 143.70 21.09 140.00 C 21.32 130.32 20.81 120.62 21.43 110.96 Z" />
</g>
<g id="#12191fff">
<path fill="#12191f" opacity="1.00" d=" M 69.57 116.64 C 70.93 116.59 72.29 116.54 73.65 116.48 C 74.06 119.43 72.77 122.12 71.58 124.73 C 70.14 125.06 68.71 125.43 67.23 125.53 C 67.39 126.76 67.56 128.00 67.73 129.24 L 67.04 130.47 C 66.90 128.46 66.98 126.45 67.35 124.47 C 69.60 125.94 70.71 122.98 71.25 121.31 C 70.27 121.39 68.30 121.55 67.31 121.63 C 67.41 120.59 67.49 119.55 67.57 118.51 C 68.24 117.89 68.91 117.27 69.57 116.64 Z" />
<path fill="#12191f" opacity="1.00" d=" M 35.11 159.72 L 36.08 158.94 L 37.44 158.63 C 37.64 159.23 38.05 160.44 38.25 161.04 C 37.16 161.10 36.12 160.87 35.15 160.36 L 35.11 159.72 Z" />
</g>
<g id="#515c5bff">
<path fill="#515c5b" opacity="1.00" d=" M 42.36 124.37 C 43.61 124.33 44.86 124.29 46.11 124.24 L 46.50 124.23 C 50.30 124.53 54.13 124.86 57.93 124.37 C 60.76 124.08 63.59 123.29 66.44 123.88 L 67.35 124.47 C 60.00 126.93 51.80 127.66 44.30 125.54 C 43.81 125.97 42.83 126.84 42.35 127.27 C 42.36 126.30 42.36 125.34 42.36 124.37 Z" />
</g>
<g id="#aa9868ff">
<path fill="#aa9868" opacity="1.00" d=" M 67.23 125.53 C 68.71 125.43 70.14 125.06 71.58 124.73 C 72.87 125.08 74.17 125.42 75.47 125.75 C 75.72 126.67 76.21 128.50 76.45 129.42 C 74.89 129.62 73.34 129.90 71.80 130.28 C 72.69 131.21 73.53 132.18 74.41 133.13 C 74.06 133.64 73.36 134.68 73.01 135.19 C 70.89 134.99 68.79 134.67 66.69 134.31 C 67.87 133.76 68.99 133.14 70.13 132.52 C 69.19 131.54 68.58 130.30 67.73 129.24 C 67.56 128.00 67.39 126.76 67.23 125.53 Z" />
</g>
<g id="#0e1817ff">
<path fill="#0e1817" opacity="1.00" d=" M 77.51 125.32 C 79.85 126.52 82.57 126.74 84.94 125.45 C 85.96 125.71 86.93 126.09 87.86 126.59 C 87.84 127.60 87.84 128.61 87.87 129.63 C 86.60 129.99 85.32 130.36 84.06 130.73 C 82.36 128.68 79.44 129.74 77.18 129.78 C 77.31 128.29 77.40 126.80 77.51 125.32 Z" />
</g>
<g id="#48b161ff">
<path fill="#48b161" opacity="1.00" d=" M 46.90 130.53 C 47.76 130.49 49.50 130.43 50.37 130.39 C 50.25 137.89 50.78 145.38 50.54 152.86 L 48.95 152.90 C 48.16 152.03 46.61 151.45 46.81 150.04 C 46.57 143.54 47.05 137.03 46.90 130.53 Z" />
</g>
<g id="#1aa63bff">
<path fill="#1aa63b" opacity="1.00" d=" M 50.37 130.39 C 51.45 130.40 52.53 130.42 53.62 130.44 C 53.68 138.05 53.68 145.66 53.78 153.27 C 53.78 153.72 53.79 154.61 53.80 155.06 C 54.44 156.01 55.14 156.91 55.88 157.78 C 54.21 157.54 52.51 157.49 50.82 157.43 C 51.55 157.62 53.00 158.02 53.73 158.21 C 52.96 158.66 51.43 159.56 50.66 160.01 C 52.03 160.58 53.43 161.18 54.91 161.43 C 56.10 161.48 57.30 161.44 58.50 161.48 C 59.26 161.51 60.78 161.57 61.54 161.60 L 61.38 163.07 C 58.25 163.32 55.11 163.34 51.98 163.09 C 51.72 163.65 51.21 164.76 50.95 165.31 C 50.36 163.69 49.94 162.02 49.50 160.36 C 50.77 158.31 49.14 156.12 48.00 154.41 C 48.94 154.91 49.89 155.39 50.84 155.86 C 50.78 154.86 50.67 153.86 50.54 152.86 C 50.78 145.38 50.25 137.89 50.37 130.39 Z" />
</g>
<g id="#e9eee9ff">
<path fill="#e9eee9" opacity="1.00" d=" M 53.62 130.44 C 54.25 130.53 55.51 130.71 56.14 130.80 C 55.64 137.71 56.81 144.69 55.55 151.55 C 55.10 151.98 54.22 152.84 53.78 153.27 C 53.68 145.66 53.68 138.05 53.62 130.44 Z" />
</g>
<g id="#95a595ff">
<path fill="#95a595" opacity="1.00" d=" M 56.14 130.80 L 57.37 130.99 C 57.65 136.34 57.69 141.71 57.73 147.07 C 57.56 149.18 57.32 151.28 57.21 153.39 C 55.03 152.87 55.80 156.20 57.38 154.36 C 57.65 154.37 58.18 154.40 58.45 154.41 C 58.68 153.90 59.15 152.88 59.39 152.37 C 59.85 152.31 60.76 152.19 61.22 152.13 C 61.19 153.55 61.17 154.98 61.13 156.40 C 59.79 156.92 58.76 157.79 58.03 159.02 C 57.49 158.71 56.42 158.09 55.88 157.78 C 55.14 156.91 54.44 156.01 53.80 155.06 C 53.79 154.61 53.78 153.72 53.78 153.27 C 54.22 152.84 55.10 151.98 55.55 151.55 C 56.81 144.69 55.64 137.71 56.14 130.80 Z" />
</g>
<g id="#e1e8e7ff">
<path fill="#e1e8e7" opacity="1.00" d=" M 63.28 145.47 C 68.15 145.22 70.41 140.40 72.82 136.83 C 73.74 138.70 74.26 140.74 75.24 142.58 C 73.79 142.84 71.90 142.36 70.89 143.76 C 69.24 145.60 69.19 148.24 68.53 150.51 C 69.15 150.64 70.40 150.90 71.02 151.03 C 70.41 151.52 69.84 152.05 69.30 152.62 C 68.37 153.89 66.42 154.95 66.71 156.77 C 67.06 158.45 68.86 158.99 70.08 159.90 L 70.62 161.39 C 68.43 161.54 66.27 161.13 64.10 161.00 C 62.90 159.98 63.11 158.37 63.06 156.96 C 63.04 153.13 63.10 149.30 63.28 145.47 Z" />
</g>
<g id="#c1c4c1ff">
<path fill="#c1c4c1" opacity="1.00" d=" M 72.82 136.83 C 73.89 137.58 75.13 138.14 75.99 139.18 C 77.35 141.08 78.40 143.21 78.95 145.49 C 76.62 151.09 77.23 157.48 77.32 163.42 C 76.41 168.94 76.24 174.60 77.09 180.13 C 76.28 181.72 74.97 182.93 73.35 183.69 C 70.90 178.42 71.96 172.58 72.48 167.03 C 73.70 166.35 74.96 165.73 76.31 165.32 C 74.49 164.89 72.69 164.43 70.85 164.15 C 72.65 164.18 74.46 164.16 76.27 164.15 C 76.19 163.38 76.01 161.84 75.93 161.07 C 74.16 161.28 72.39 161.38 70.62 161.39 L 70.08 159.90 C 72.64 159.23 74.20 157.16 73.57 154.49 C 73.04 154.46 71.98 154.40 71.45 154.37 C 70.88 155.21 70.32 156.05 69.77 156.90 C 70.42 156.43 71.72 155.50 72.37 155.04 C 72.29 155.83 72.15 157.42 72.08 158.22 C 71.16 158.39 69.34 158.75 68.42 158.92 C 67.86 156.76 68.56 154.73 69.74 152.93 L 69.30 152.62 C 69.84 152.05 70.41 151.52 71.02 151.03 C 70.40 150.90 69.15 150.64 68.53 150.51 C 69.19 148.24 69.24 145.60 70.89 143.76 C 71.90 142.36 73.79 142.84 75.24 142.58 C 74.26 140.74 73.74 138.70 72.82 136.83 Z" />
</g>
<g id="#d4dbd3ff">
<path fill="#d4dbd3" opacity="1.00" d=" M 75.99 139.18 C 79.94 139.74 83.70 141.12 87.34 142.72 C 89.11 145.81 90.87 149.30 90.02 152.97 C 89.05 156.24 86.88 159.26 83.68 160.64 C 81.24 161.61 79.87 163.82 78.93 166.16 C 79.04 159.27 80.10 152.34 78.95 145.49 C 78.40 143.21 77.35 141.08 75.99 139.18 Z" />
</g>
<g id="#465e68ff">
<path fill="#465e68" opacity="1.00" d=" M 14.12 147.60 C 14.09 146.27 14.96 145.51 16.20 145.29 C 16.01 149.68 16.42 154.08 15.84 158.45 C 15.42 156.22 14.95 154.01 14.53 151.78 C 14.31 154.94 14.12 158.09 13.90 161.25 C 13.84 156.70 13.51 152.12 14.12 147.60 Z" />
</g>
<g id="#c1cbbcff">
<path fill="#c1cbbc" opacity="1.00" d=" M 57.85 145.46 C 59.07 145.89 60.15 146.61 61.30 147.18 C 61.48 148.81 61.65 150.44 61.71 152.08 L 61.22 152.13 C 60.76 152.19 59.85 152.31 59.39 152.37 C 59.15 152.88 58.68 153.90 58.45 154.41 C 58.18 154.40 57.65 154.37 57.38 154.36 L 57.21 153.39 C 57.32 151.28 57.56 149.18 57.73 147.07 C 57.76 146.67 57.82 145.86 57.85 145.46 Z" />
</g>
<g id="#a1a59fff">
<path fill="#a1a59f" opacity="1.00" d=" M 77.32 163.42 C 77.23 157.48 76.62 151.09 78.95 145.49 C 80.10 152.34 79.04 159.27 78.93 166.16 C 78.90 167.68 78.82 169.20 78.64 170.71 C 78.41 172.80 78.13 174.87 77.85 176.96 C 80.46 176.89 83.37 176.09 85.69 177.72 C 84.82 178.97 83.95 180.22 83.03 181.43 C 81.78 182.37 80.19 182.51 78.71 182.81 C 80.17 181.53 81.49 180.12 82.90 178.79 C 80.81 176.83 78.00 177.42 77.09 180.13 C 76.24 174.60 76.41 168.94 77.32 163.42 Z" />
</g>
<g id="#318944ff">
<path fill="#318944" opacity="1.00" d=" M 46.03 153.12 C 46.76 153.07 48.22 152.95 48.95 152.90 L 50.54 152.86 C 50.67 153.86 50.78 154.86 50.84 155.86 C 49.89 155.39 48.94 154.91 48.00 154.41 C 49.14 156.12 50.77 158.31 49.50 160.36 C 48.95 160.25 47.85 160.03 47.31 159.92 L 45.95 159.65 C 46.00 157.47 46.03 155.30 46.03 153.12 Z" />
</g>
<g id="#5b715aff">
<path fill="#5b715a" opacity="1.00" d=" M 57.38 154.36 C 55.80 156.20 55.03 152.87 57.21 153.39 L 57.38 154.36 Z" />
</g>
<g id="#b6b8b4ff">
<path fill="#b6b8b4" opacity="1.00" d=" M 35.15 160.36 C 36.12 160.87 37.16 161.10 38.25 161.04 L 38.39 161.60 C 38.15 162.38 37.66 163.95 37.42 164.73 C 36.98 164.73 36.10 164.74 35.66 164.74 C 35.51 163.27 35.30 161.82 35.15 160.36 Z" />
<path fill="#b6b8b4" opacity="1.00" d=" M 77.85 176.96 C 78.13 174.87 78.41 172.80 78.64 170.71 C 78.77 172.26 78.89 173.80 79.00 175.35 L 79.05 176.24 C 82.69 175.51 86.38 175.24 90.08 175.19 C 89.86 177.32 88.55 178.93 86.94 180.24 C 85.72 180.87 84.34 181.06 83.03 181.43 C 83.95 180.22 84.82 178.97 85.69 177.72 C 83.37 176.09 80.46 176.89 77.85 176.96 Z" />
</g>
<g id="#25b040ff">
<path fill="#25b040" opacity="1.00" d=" M 45.95 159.65 L 47.31 159.92 C 47.49 163.33 48.42 167.79 45.10 170.06 C 39.70 172.26 33.70 171.60 28.05 171.07 L 27.59 170.87 C 29.78 169.71 32.34 168.43 32.13 165.51 C 34.73 166.24 37.51 166.83 40.18 166.10 C 42.02 165.42 44.06 164.96 45.55 163.61 C 45.84 162.31 45.98 160.99 45.95 159.65 Z" />
</g>
<g id="#6b946eff">
<path fill="#6b946e" opacity="1.00" d=" M 47.31 159.92 C 47.85 160.03 48.95 160.25 49.50 160.36 C 49.94 162.02 50.36 163.69 50.95 165.31 L 51.14 165.82 C 51.79 167.64 52.35 169.50 52.72 171.40 C 46.44 173.76 39.68 174.31 33.03 173.79 C 31.04 173.66 29.67 172.03 28.05 171.07 C 33.70 171.60 39.70 172.26 45.10 170.06 C 48.42 167.79 47.49 163.33 47.31 159.92 Z" />
</g>
<g id="#acd0aeff">
<path fill="#acd0ae" opacity="1.00" d=" M 58.50 161.48 C 59.10 160.02 60.11 159.11 61.75 159.45 C 62.12 163.07 62.24 166.96 60.26 170.18 C 58.67 170.34 57.08 170.50 55.50 170.65 C 55.51 172.66 55.39 174.67 55.17 176.67 C 54.24 174.54 54.44 172.18 54.23 169.92 C 56.99 168.10 61.90 167.28 61.38 163.07 L 61.54 161.60 C 60.78 161.57 59.26 161.51 58.50 161.48 Z" />
</g>
<g id="#30352bff">
<path fill="#30352b" opacity="1.00" d=" M 74.23 162.29 C 74.76 162.80 74.76 162.80 74.23 162.29 Z" />
</g>
<g id="#788673ff">
<path fill="#788673" opacity="1.00" d=" M 51.98 163.09 C 55.11 163.34 58.25 163.32 61.38 163.07 C 61.90 167.28 56.99 168.10 54.23 169.92 C 53.30 168.48 52.20 167.16 51.14 165.82 L 50.95 165.31 C 51.21 164.76 51.72 163.65 51.98 163.09 Z" />
</g>
<g id="#d1d9dbff">
<path fill="#d1d9db" opacity="1.00" d=" M 64.70 164.34 C 66.74 164.14 68.80 164.10 70.85 164.15 C 72.69 164.43 74.49 164.89 76.31 165.32 C 74.96 165.73 73.70 166.35 72.48 167.03 C 71.96 172.58 70.90 178.42 73.35 183.69 C 74.02 183.92 75.36 184.37 76.03 184.60 C 72.39 185.92 68.00 186.31 64.50 184.46 C 62.66 182.59 64.99 180.32 64.65 178.17 C 64.20 174.25 63.91 170.31 64.11 166.37 C 66.11 166.06 68.35 166.37 70.08 165.16 C 68.01 164.99 65.94 164.81 63.87 164.58 L 64.70 164.34 Z" />
</g>
<g id="#666864ff">
<path fill="#666864" opacity="1.00" d=" M 77.09 180.13 C 78.00 177.42 80.81 176.83 82.90 178.79 C 81.49 180.12 80.17 181.53 78.71 182.81 C 77.85 183.45 76.96 184.05 76.03 184.60 C 75.36 184.37 74.02 183.92 73.35 183.69 C 74.97 182.93 76.28 181.72 77.09 180.13 Z" />
</g>
</svg>
