<?xml version="1.0" encoding="UTF-8" ?>
<!DOCTYPE svg PUBLIC "-//W3C//DTD SVG 1.1//EN" "http://www.w3.org/Graphics/SVG/1.1/DTD/svg11.dtd">
<svg width="417pt" height="242pt" viewBox="0 0 417 242" version="1.1" xmlns="http://www.w3.org/2000/svg">
<g id="#f4f4f4ff">
<path fill="#f4f4f4" opacity="1.00" d=" M 48.95 87.83 C 52.05 86.49 55.43 85.89 58.80 86.21 C 57.85 87.03 56.90 87.84 55.89 88.59 C 50.02 91.54 46.77 98.60 48.24 104.98 C 48.91 108.23 51.49 111.36 54.96 111.64 C 58.17 111.79 61.15 110.03 63.47 107.96 C 64.00 104.04 62.52 100.11 62.44 96.16 C 60.50 97.11 58.58 98.10 56.63 99.02 C 56.60 99.86 56.55 101.54 56.52 102.38 C 57.37 102.54 59.08 102.84 59.93 102.99 C 59.66 105.04 58.17 106.62 55.97 106.43 C 52.86 105.50 52.97 101.63 53.42 99.05 C 54.97 94.11 60.25 92.49 64.29 90.16 C 69.72 95.46 71.61 105.15 65.97 111.00 C 59.75 117.67 47.84 114.98 43.70 107.29 C 39.76 100.72 42.31 91.58 48.95 87.83 Z" />
<path fill="#f4f4f4" opacity="1.00" d=" M 73.32 122.87 C 74.37 121.57 75.09 119.48 77.04 119.40 C 78.27 119.46 78.78 120.80 79.61 121.50 L 78.21 121.82 C 77.51 121.97 76.11 122.27 75.41 122.42 C 77.37 124.50 81.92 126.03 80.50 129.60 C 79.14 132.51 75.35 132.38 73.72 129.72 C 75.43 129.35 77.14 128.98 78.85 128.62 C 77.46 127.36 76.01 126.16 74.58 124.95 C 74.16 124.26 73.74 123.56 73.32 122.87 Z" />
<path fill="#f4f4f4" opacity="1.00" d=" M 68.44 120.06 C 70.19 119.66 71.71 120.27 72.91 121.56 C 71.78 121.75 69.53 122.13 68.40 122.32 C 68.89 123.62 69.58 124.79 71.02 125.16 L 71.77 125.52 C 72.55 126.10 73.31 126.71 74.05 127.35 C 73.62 129.19 73.20 131.65 70.99 132.09 C 69.08 132.82 67.14 131.91 67.08 129.73 C 68.15 129.75 70.31 129.78 71.38 129.80 C 71.11 126.43 66.30 126.35 65.44 122.98 C 66.42 121.99 67.38 120.96 68.44 120.06 Z" />
<path fill="#f4f4f4" opacity="1.00" d=" M 58.35 121.17 C 59.00 121.10 60.32 120.96 60.98 120.89 C 63.91 124.10 64.74 128.68 66.59 132.53 C 64.07 133.35 63.08 131.22 62.08 129.41 C 58.75 128.85 59.69 133.66 56.58 133.55 C 57.03 129.40 57.45 125.24 58.35 121.17 M 59.97 125.35 C 58.84 126.30 60.13 128.74 61.52 127.74 C 62.65 126.80 61.30 124.42 59.97 125.35 Z" />
<path fill="#f4f4f4" opacity="1.00" d=" M 45.64 122.76 C 48.42 122.23 52.28 120.94 54.01 124.05 C 55.48 125.36 53.49 126.89 52.98 128.13 C 53.91 129.88 54.84 131.61 55.84 133.32 C 55.14 133.46 53.75 133.75 53.05 133.89 C 52.19 132.16 51.96 129.08 49.42 129.21 C 48.43 131.24 51.14 135.26 47.14 134.52 C 47.13 130.53 45.78 126.73 45.64 122.76 M 47.73 125.90 C 48.10 126.41 48.85 127.42 49.23 127.93 C 50.33 127.32 51.43 126.70 52.52 126.06 C 51.63 125.16 50.73 124.27 49.83 123.38 C 49.13 124.21 48.43 125.05 47.73 125.90 Z" />
<path fill="#f4f4f4" opacity="1.00" d=" M 34.49 131.36 C 32.65 126.61 38.43 121.85 42.79 123.34 C 44.60 125.15 41.29 125.86 39.99 125.86 C 36.63 125.94 35.74 130.88 38.39 132.56 C 39.52 133.98 43.44 133.70 42.10 131.24 C 41.51 130.86 40.32 130.11 39.72 129.73 C 40.44 128.20 42.22 128.24 43.62 127.86 C 43.87 129.96 45.37 132.23 44.35 134.30 C 41.09 136.54 35.40 135.75 34.49 131.36 Z" />
</g>
<g id="#79d097ff">
<path fill="#79d097" opacity="1.00" d=" M 33.46 58.53 C 34.94 57.88 36.26 56.46 37.99 56.68 C 40.27 56.58 41.78 58.44 43.37 59.77 C 43.80 59.81 44.66 59.90 45.10 59.94 C 47.41 62.28 50.81 64.13 53.99 62.19 C 65.40 66.88 77.63 70.51 87.40 78.32 C 89.76 83.19 94.91 86.97 94.73 92.83 C 94.74 100.31 96.91 107.55 97.67 114.95 C 98.21 119.88 99.31 124.83 102.00 129.07 C 102.61 128.12 103.21 127.18 103.81 126.23 C 104.21 126.30 105.00 126.45 105.39 126.52 C 105.77 127.75 106.14 128.98 106.52 130.21 C 95.19 134.58 83.08 136.08 71.05 136.88 C 65.57 138.16 59.57 137.02 54.45 139.63 C 58.60 140.31 62.84 140.23 67.01 139.73 C 75.72 138.69 84.60 138.73 93.10 136.35 C 97.31 135.19 101.61 134.39 105.94 133.86 C 108.38 139.96 110.15 146.35 113.20 152.19 C 113.65 152.23 114.55 152.32 115.00 152.36 L 115.22 152.40 C 117.06 158.30 121.11 164.32 118.95 170.69 C 118.23 170.99 117.52 171.28 116.80 171.56 C 110.08 169.94 103.11 171.37 96.31 170.39 C 85.89 168.80 75.34 170.04 65.02 171.69 C 61.55 172.38 58.03 172.70 54.50 172.80 C 53.54 168.92 54.32 164.77 52.62 161.05 C 54.06 161.60 55.51 162.13 56.96 162.65 C 56.69 158.87 54.13 155.96 50.91 154.22 L 50.55 154.43 L 50.20 155.05 C 49.73 156.55 48.60 157.56 47.03 157.78 C 47.98 155.21 49.05 152.68 50.17 150.18 C 48.95 151.62 48.13 154.18 45.79 153.73 C 41.83 154.27 40.25 150.34 38.07 147.93 C 35.76 147.65 33.41 147.58 31.12 147.14 C 28.17 146.21 24.57 149.45 22.44 146.07 C 22.58 145.67 22.87 144.88 23.01 144.49 C 31.28 143.91 39.63 143.47 47.71 141.44 C 48.34 141.07 49.61 140.35 50.25 139.98 C 48.61 139.26 45.57 140.19 45.27 137.80 C 51.51 139.76 56.98 134.80 63.15 135.10 C 68.20 135.61 73.05 133.68 78.09 133.89 C 80.91 134.29 82.39 131.25 83.09 129.02 C 83.14 125.83 80.56 123.55 78.21 121.82 L 79.61 121.50 C 78.78 120.80 78.27 119.46 77.04 119.40 C 75.09 119.48 74.37 121.57 73.32 122.87 C 73.74 123.56 74.16 124.26 74.58 124.95 C 74.45 125.55 74.18 126.75 74.05 127.35 C 73.31 126.71 72.55 126.10 71.77 125.52 C 73.38 124.94 73.04 122.39 71.15 122.82 C 70.02 123.33 69.97 124.11 71.02 125.16 C 69.58 124.79 68.89 123.62 68.40 122.32 C 69.53 122.13 71.78 121.75 72.91 121.56 C 71.71 120.27 70.19 119.66 68.44 120.06 C 69.79 119.43 71.18 118.88 72.55 118.30 C 71.69 117.72 70.82 117.18 69.93 116.67 C 68.00 117.42 66.30 118.65 64.39 119.44 C 63.02 118.88 61.75 118.10 60.46 117.38 C 64.66 115.45 68.82 112.69 70.58 108.21 C 73.49 102.43 71.39 95.31 67.58 90.48 C 64.72 86.69 59.76 89.95 55.89 88.59 C 56.90 87.84 57.85 87.03 58.80 86.21 C 55.43 85.89 52.05 86.49 48.95 87.83 C 52.07 85.58 56.75 86.49 59.26 83.49 C 56.36 83.27 53.46 83.33 50.56 83.54 C 52.04 80.90 54.35 79.11 57.40 78.64 C 56.50 73.70 50.89 72.42 47.26 69.96 C 48.43 71.46 49.60 72.96 50.77 74.46 C 46.20 76.43 41.20 76.90 36.47 78.34 C 33.07 79.21 31.24 82.68 27.97 83.81 C 25.18 84.80 22.24 85.26 19.35 85.87 C 19.39 86.33 19.49 87.24 19.54 87.69 C 17.78 86.00 15.49 86.70 13.41 87.21 C 11.96 86.53 10.65 85.36 8.99 85.28 C 6.02 85.78 3.96 88.32 3.02 91.03 C 3.09 85.20 3.02 79.37 3.05 73.54 C 6.80 69.48 10.24 64.49 15.99 63.22 C 20.96 66.46 26.83 62.43 31.68 60.75 C 34.89 65.06 40.60 64.37 45.22 63.41 C 44.84 62.86 44.06 61.75 43.67 61.20 C 40.22 60.50 36.60 60.31 33.46 58.53 Z" />
<path fill="#79d097" opacity="1.00" d=" M 47.73 125.90 C 48.43 125.05 49.13 124.21 49.83 123.38 C 50.73 124.27 51.63 125.16 52.52 126.06 C 51.43 126.70 50.33 127.32 49.23 127.93 C 48.85 127.42 48.10 126.41 47.73 125.90 M 49.18 125.11 C 48.64 126.73 49.19 127.29 50.82 126.78 C 51.36 125.15 50.81 124.59 49.18 125.11 Z" />
</g>
<g id="#69b57bff">
<path fill="#69b57b" opacity="1.00" d=" M 15.99 63.22 C 21.22 59.82 27.38 58.97 33.46 58.53 C 36.60 60.31 40.22 60.50 43.67 61.20 C 44.06 61.75 44.84 62.86 45.22 63.41 C 40.60 64.37 34.89 65.06 31.68 60.75 C 26.83 62.43 20.96 66.46 15.99 63.22 Z" />
<path fill="#69b57b" opacity="1.00" d=" M 45.10 59.94 C 48.20 60.03 51.20 60.88 53.99 62.19 C 50.81 64.13 47.41 62.28 45.10 59.94 Z" />
<path fill="#69b57b" opacity="1.00" d=" M 47.26 69.96 C 50.89 72.42 56.50 73.70 57.40 78.64 C 54.35 79.11 52.04 80.90 50.56 83.54 C 53.46 83.33 56.36 83.27 59.26 83.49 C 56.75 86.49 52.07 85.58 48.95 87.83 C 42.31 91.58 39.76 100.72 43.70 107.29 C 47.84 114.98 59.75 117.67 65.97 111.00 C 71.61 105.15 69.72 95.46 64.29 90.16 C 60.25 92.49 54.97 94.11 53.42 99.05 C 52.97 101.63 52.86 105.50 55.97 106.43 C 58.17 106.62 59.66 105.04 59.93 102.99 C 59.08 102.84 57.37 102.54 56.52 102.38 C 56.55 101.54 56.60 99.86 56.63 99.02 C 58.58 98.10 60.50 97.11 62.44 96.16 C 62.52 100.11 64.00 104.04 63.47 107.96 C 61.15 110.03 58.17 111.79 54.96 111.64 C 51.49 111.36 48.91 108.23 48.24 104.98 C 46.77 98.60 50.02 91.54 55.89 88.59 C 59.76 89.95 64.72 86.69 67.58 90.48 C 71.39 95.31 73.49 102.43 70.58 108.21 C 68.82 112.69 64.66 115.45 60.46 117.38 C 61.75 118.10 63.02 118.88 64.39 119.44 C 66.30 118.65 68.00 117.42 69.93 116.67 C 70.82 117.18 71.69 117.72 72.55 118.30 C 71.18 118.88 69.79 119.43 68.44 120.06 C 67.38 120.96 66.42 121.99 65.44 122.98 C 66.30 126.35 71.11 126.43 71.38 129.80 C 70.31 129.78 68.15 129.75 67.08 129.73 C 67.14 131.91 69.08 132.82 70.99 132.09 C 73.20 131.65 73.62 129.19 74.05 127.35 C 74.18 126.75 74.45 125.55 74.58 124.95 C 76.01 126.16 77.46 127.36 78.85 128.62 C 77.14 128.98 75.43 129.35 73.72 129.72 C 75.35 132.38 79.14 132.51 80.50 129.60 C 81.92 126.03 77.37 124.50 75.41 122.42 C 76.11 122.27 77.51 121.97 78.21 121.82 C 80.56 123.55 83.14 125.83 83.09 129.02 C 82.39 131.25 80.91 134.29 78.09 133.89 C 73.05 133.68 68.20 135.61 63.15 135.10 C 56.98 134.80 51.51 139.76 45.27 137.80 C 45.57 140.19 48.61 139.26 50.25 139.98 C 49.61 140.35 48.34 141.07 47.71 141.44 C 39.63 143.47 31.28 143.91 23.01 144.49 C 22.87 144.88 22.58 145.67 22.44 146.07 C 24.57 149.45 28.17 146.21 31.12 147.14 C 33.41 147.58 35.76 147.65 38.07 147.93 C 40.25 150.34 41.83 154.27 45.79 153.73 C 48.13 154.18 48.95 151.62 50.17 150.18 C 49.05 152.68 47.98 155.21 47.03 157.78 C 48.60 157.56 49.73 156.55 50.20 155.05 L 50.55 154.43 L 50.91 154.22 C 54.13 155.96 56.69 158.87 56.96 162.65 C 55.51 162.13 54.06 161.60 52.62 161.05 C 54.32 164.77 53.54 168.92 54.50 172.80 C 58.03 172.70 61.55 172.38 65.02 171.69 C 75.34 170.04 85.89 168.80 96.31 170.39 C 103.11 171.37 110.08 169.94 116.80 171.56 C 113.30 172.63 109.62 172.53 106.01 172.44 C 93.44 172.10 80.72 170.75 68.29 173.39 C 57.58 175.05 47.11 177.99 36.59 180.55 C 30.90 181.48 25.09 182.63 19.31 181.78 C 12.31 180.62 6.75 175.41 3.03 169.63 C 2.97 143.43 3.07 117.23 3.02 91.03 C 3.96 88.32 6.02 85.78 8.99 85.28 C 10.65 85.36 11.96 86.53 13.41 87.21 C 15.49 86.70 17.78 86.00 19.54 87.69 C 19.49 87.24 19.39 86.33 19.35 85.87 C 22.24 85.26 25.18 84.80 27.97 83.81 C 31.24 82.68 33.07 79.21 36.47 78.34 C 41.20 76.90 46.20 76.43 50.77 74.46 C 49.60 72.96 48.43 71.46 47.26 69.96 M 58.35 121.17 C 57.45 125.24 57.03 129.40 56.58 133.55 C 59.69 133.66 58.75 128.85 62.08 129.41 C 63.08 131.22 64.07 133.35 66.59 132.53 C 64.74 128.68 63.91 124.10 60.98 120.89 C 60.32 120.96 59.00 121.10 58.35 121.17 M 45.64 122.76 C 45.78 126.73 47.13 130.53 47.14 134.52 C 51.14 135.26 48.43 131.24 49.42 129.21 C 51.96 129.08 52.19 132.16 53.05 133.89 C 53.75 133.75 55.14 133.46 55.84 133.32 C 54.84 131.61 53.91 129.88 52.98 128.13 C 53.49 126.89 55.48 125.36 54.01 124.05 C 52.28 120.94 48.42 122.23 45.64 122.76 M 34.49 131.36 C 35.40 135.75 41.09 136.54 44.35 134.30 C 45.37 132.23 43.87 129.96 43.62 127.86 C 42.22 128.24 40.44 128.20 39.72 129.73 C 40.32 130.11 41.51 130.86 42.10 131.24 C 43.44 133.70 39.52 133.98 38.39 132.56 C 35.74 130.88 36.63 125.94 39.99 125.86 C 41.29 125.86 44.60 125.15 42.79 123.34 C 38.43 121.85 32.65 126.61 34.49 131.36 Z" />
<path fill="#69b57b" opacity="1.00" d=" M 94.73 92.83 C 94.91 86.97 89.76 83.19 87.40 78.32 C 92.17 81.96 95.70 87.17 97.00 93.05 C 98.76 101.42 101.35 109.57 103.45 117.86 C 104.27 121.30 106.91 123.87 108.16 127.12 C 108.73 128.77 107.57 130.32 107.12 131.86 C 109.90 138.63 112.26 145.57 115.00 152.36 C 114.55 152.32 113.65 152.23 113.20 152.19 C 110.15 146.35 108.38 139.96 105.94 133.86 C 101.61 134.39 97.31 135.19 93.10 136.35 C 84.60 138.73 75.72 138.69 67.01 139.73 C 62.84 140.23 58.60 140.31 54.45 139.63 C 59.57 137.02 65.57 138.16 71.05 136.88 C 83.08 136.08 95.19 134.58 106.52 130.21 C 106.14 128.98 105.77 127.75 105.39 126.52 C 105.00 126.45 104.21 126.30 103.81 126.23 C 103.21 127.18 102.61 128.12 102.00 129.07 C 99.31 124.83 98.21 119.88 97.67 114.95 C 96.91 107.55 94.74 100.31 94.73 92.83 Z" />
<path fill="#69b57b" opacity="1.00" d=" M 71.02 125.16 C 69.97 124.11 70.02 123.33 71.15 122.82 C 73.04 122.39 73.38 124.94 71.77 125.52 L 71.02 125.16 Z" />
<path fill="#69b57b" opacity="1.00" d=" M 49.18 125.11 C 50.81 124.59 51.36 125.15 50.82 126.78 C 49.19 127.29 48.64 126.73 49.18 125.11 Z" />
<path fill="#69b57b" opacity="1.00" d=" M 59.97 125.35 C 61.30 124.42 62.65 126.80 61.52 127.74 C 60.13 128.74 58.84 126.30 59.97 125.35 Z" />
</g>
</svg>
