<?xml version="1.0" encoding="UTF-8" ?>
<!DOCTYPE svg PUBLIC "-//W3C//DTD SVG 1.1//EN" "http://www.w3.org/Graphics/SVG/1.1/DTD/svg11.dtd">
<svg width="417pt" height="242pt" viewBox="0 0 417 242" version="1.1" xmlns="http://www.w3.org/2000/svg">
<g id="#f4f4f4ff">
<path fill="#f4f4f4" opacity="1.00" d=" M 28.58 57.69 C 34.70 57.10 40.81 56.35 46.95 56.04 C 50.98 55.56 51.62 60.42 52.85 63.15 C 54.01 67.31 57.06 71.29 56.22 75.76 L 55.11 74.31 C 54.90 75.68 54.78 77.13 53.85 78.24 C 54.04 77.44 54.43 75.84 54.62 75.03 C 48.11 76.15 41.51 77.56 34.90 77.55 C 34.13 72.47 32.45 67.32 29.47 63.13 C 29.57 62.71 29.77 61.88 29.88 61.46 L 28.36 61.80 C 28.42 60.78 28.53 58.72 28.58 57.69 Z" />
<path fill="#f4f4f4" opacity="1.00" d=" M 55.26 100.49 C 57.84 99.89 60.44 99.33 63.05 98.85 C 63.41 100.24 63.76 101.64 64.10 103.04 C 61.70 103.42 59.36 104.09 57.00 104.63 C 56.41 103.25 55.83 101.87 55.26 100.49 Z" />
<path fill="#f4f4f4" opacity="1.00" d=" M 51.76 101.37 C 54.61 99.77 55.12 102.93 56.22 104.75 C 55.58 104.84 54.31 105.02 53.67 105.11 C 53.04 103.86 52.41 102.61 51.76 101.37 Z" />
<path fill="#f4f4f4" opacity="1.00" d=" M 42.15 103.81 C 43.18 103.34 44.22 102.88 45.27 102.43 C 45.62 103.64 45.97 104.85 46.31 106.07 L 44.84 105.69 C 44.58 105.62 44.05 105.48 43.79 105.41 C 43.38 105.01 42.56 104.21 42.15 103.81 Z" />
<path fill="#f4f4f4" opacity="1.00" d=" M 46.70 106.97 C 47.08 105.21 45.74 102.07 48.60 101.91 C 49.15 101.79 50.26 101.54 50.81 101.41 C 51.29 102.84 51.78 104.27 52.26 105.70 C 50.40 106.11 48.54 106.52 46.70 106.97 Z" />
<path fill="#f4f4f4" opacity="1.00" d=" M 43.33 106.66 C 43.38 106.53 43.48 106.26 43.53 106.13 C 43.48 106.26 43.38 106.53 43.33 106.66 Z" />
<path fill="#f4f4f4" opacity="1.00" d=" M 97.61 118.35 C 97.70 117.90 97.88 117.01 97.97 116.56 C 100.48 116.14 99.58 120.33 97.61 118.35 Z" />
<path fill="#f4f4f4" opacity="1.00" d=" M 92.26 126.79 C 91.87 125.48 93.45 123.42 94.82 123.85 C 95.08 125.13 93.64 127.19 92.26 126.79 Z" />
<path fill="#f4f4f4" opacity="1.00" d=" M 2.89 130.32 C 12.37 132.73 22.31 133.34 31.52 136.71 C 21.90 136.28 12.65 133.13 3.14 131.77 C 3.08 131.41 2.96 130.68 2.89 130.32 Z" />
<path fill="#f4f4f4" opacity="1.00" d=" M 125.20 142.37 C 125.66 141.98 126.59 141.21 127.06 140.82 C 128.93 142.03 126.98 144.99 127.39 146.82 C 126.49 146.64 124.70 146.29 123.81 146.11 C 122.30 145.78 120.78 145.46 119.26 145.17 C 120.65 144.44 122.02 143.68 123.45 143.04 C 123.89 142.87 124.76 142.54 125.20 142.37 Z" />
<path fill="#f4f4f4" opacity="1.00" d=" M 62.82 153.29 C 59.76 154.36 63.07 149.88 62.82 153.29 Z" />
<path fill="#f4f4f4" opacity="1.00" d=" M 62.82 153.29 C 63.43 153.40 63.43 153.40 62.82 153.29 Z" />
<path fill="#f4f4f4" opacity="1.00" d=" M 128.10 160.62 C 130.48 158.56 132.87 156.50 135.30 154.50 C 135.79 154.59 136.77 154.77 137.26 154.86 C 139.40 157.75 141.49 160.68 143.49 163.66 C 142.50 163.62 140.50 163.53 139.51 163.49 C 136.30 160.87 131.93 161.47 128.09 161.39 L 128.10 160.62 Z" />
</g>
<g id="#25252aff">
<path fill="#25252a" opacity="1.00" d=" M 42.83 53.94 C 46.05 53.80 49.89 52.83 52.47 55.38 C 60.17 70.04 62.56 86.64 67.13 102.38 L 67.28 103.10 C 66.49 103.09 64.89 103.06 64.10 103.04 C 63.76 101.64 63.41 100.24 63.05 98.85 C 60.44 99.33 57.84 99.89 55.26 100.49 C 55.83 101.87 56.41 103.25 57.00 104.63 C 56.80 104.66 56.41 104.72 56.22 104.75 C 55.12 102.93 54.61 99.77 51.76 101.37 C 50.37 101.22 49.35 100.30 48.30 99.48 C 48.38 100.09 48.53 101.31 48.60 101.91 C 45.74 102.07 47.08 105.21 46.70 106.97 C 46.30 107.09 45.49 107.31 45.09 107.43 L 44.84 105.69 L 46.31 106.07 C 45.97 104.85 45.62 103.64 45.27 102.43 C 44.22 102.88 43.18 103.34 42.15 103.81 C 42.56 104.21 43.38 105.01 43.79 105.41 L 43.53 106.13 C 43.48 106.26 43.38 106.53 43.33 106.66 C 43.11 107.19 42.69 108.24 42.47 108.77 C 41.88 108.95 40.70 109.32 40.10 109.50 C 39.52 106.71 38.81 103.96 38.21 101.18 C 35.91 101.76 33.61 102.35 31.32 102.94 C 29.84 97.05 28.48 91.13 26.91 85.27 C 29.17 84.36 31.43 83.44 33.68 82.51 C 31.91 75.34 29.18 68.47 26.60 61.57 C 25.51 59.29 26.47 56.08 29.06 55.40 C 33.55 54.26 38.25 54.52 42.83 53.94 M 28.58 57.69 C 28.53 58.72 28.42 60.78 28.36 61.80 L 29.88 61.46 C 29.77 61.88 29.57 62.71 29.47 63.13 C 32.45 67.32 34.13 72.47 34.90 77.55 C 41.51 77.56 48.11 76.15 54.62 75.03 C 54.43 75.84 54.04 77.44 53.85 78.24 C 54.78 77.13 54.90 75.68 55.11 74.31 L 56.22 75.76 C 57.06 71.29 54.01 67.31 52.85 63.15 C 51.62 60.42 50.98 55.56 46.95 56.04 C 40.81 56.35 34.70 57.10 28.58 57.69 M 43.20 78.21 C 43.70 78.77 43.70 78.77 43.20 78.21 M 59.27 97.27 C 59.77 97.85 59.77 97.85 59.27 97.27 Z" />
<path fill="#25252a" opacity="1.00" d=" M 100.88 122.49 C 102.49 122.02 104.03 124.16 103.72 125.62 C 102.40 125.75 100.14 123.89 100.88 122.49 Z" />
<path fill="#25252a" opacity="1.00" d=" M 89.71 125.18 C 92.03 123.18 95.00 122.45 97.89 123.62 C 96.25 126.45 94.06 128.88 91.71 131.12 C 92.05 131.25 92.73 131.53 93.07 131.67 L 91.14 132.26 C 91.79 133.38 92.47 134.50 93.24 135.56 C 91.27 135.68 91.89 139.21 93.74 137.92 C 93.78 137.48 93.87 136.59 93.92 136.15 L 94.60 136.77 C 94.41 137.99 94.16 139.20 93.85 140.39 C 93.35 140.57 92.35 140.94 91.85 141.12 C 90.93 142.24 90.11 143.43 89.34 144.65 C 89.47 142.07 89.43 139.48 89.46 136.90 C 88.85 137.83 88.24 138.76 87.66 139.71 C 87.21 139.22 86.75 138.74 86.29 138.26 C 87.14 137.54 87.98 136.81 88.80 136.06 C 87.56 135.72 86.31 135.39 85.06 135.06 C 85.60 133.50 86.10 131.94 86.50 130.34 C 86.56 130.11 86.68 129.66 86.75 129.43 C 87.62 127.94 88.63 126.53 89.71 125.18 M 92.26 126.79 C 93.64 127.19 95.08 125.13 94.82 123.85 C 93.45 123.42 91.87 125.48 92.26 126.79 Z" />
<path fill="#25252a" opacity="1.00" d=" M 57.16 124.02 C 58.76 123.51 59.34 124.08 58.90 125.74 C 57.31 126.23 56.73 125.66 57.16 124.02 Z" />
<path fill="#25252a" opacity="1.00" d=" M 53.14 125.80 C 53.57 125.78 54.43 125.74 54.87 125.72 C 55.29 126.01 56.14 126.58 56.57 126.87 C 57.19 126.91 58.43 127.01 59.05 127.05 C 58.66 140.96 59.57 154.92 58.55 168.80 C 57.22 168.64 55.89 168.49 54.57 168.34 C 54.20 168.71 53.46 169.46 53.10 169.84 C 48.95 173.61 44.01 176.37 39.83 180.12 C 39.60 179.54 39.14 178.40 38.91 177.83 C 44.60 172.82 51.46 169.19 56.94 164.04 C 57.29 155.65 56.51 147.24 57.00 138.85 C 57.08 136.30 57.13 133.75 57.17 131.20 C 51.67 133.66 46.30 136.47 40.62 138.51 C 40.09 138.67 39.04 138.97 38.51 139.13 C 38.78 138.46 39.32 137.12 39.59 136.45 C 44.62 133.66 50.22 132.03 55.26 129.21 C 55.38 128.79 55.62 127.95 55.75 127.53 C 55.09 127.09 53.79 126.23 53.14 125.80 Z" />
<path fill="#25252a" opacity="1.00" d=" M 73.22 126.22 C 74.83 125.78 75.38 126.38 74.87 128.01 C 73.25 128.44 72.70 127.84 73.22 126.22 Z" />
<path fill="#25252a" opacity="1.00" d=" M 124.95 129.35 C 125.20 129.01 125.72 128.34 125.97 128.00 C 126.67 128.35 128.08 129.04 128.78 129.38 L 128.90 129.81 C 128.97 132.84 128.61 135.86 127.47 138.69 C 127.43 138.95 127.35 139.46 127.31 139.72 C 127.73 140.05 128.58 140.73 129.01 141.07 C 128.63 147.31 127.68 153.55 128.09 159.82 L 128.07 161.17 C 126.17 161.10 124.30 160.68 122.53 159.99 C 123.57 159.97 125.64 159.93 126.68 159.90 C 126.68 156.95 126.82 153.99 126.89 151.04 C 126.89 149.80 126.88 148.57 126.86 147.33 C 125.85 146.91 124.83 146.51 123.81 146.11 C 124.70 146.29 126.49 146.64 127.39 146.82 C 126.98 144.99 128.93 142.03 127.06 140.82 C 126.59 141.21 125.66 141.98 125.20 142.37 C 124.76 142.54 123.89 142.87 123.45 143.04 C 122.94 142.07 122.42 141.11 121.91 140.14 C 120.89 139.75 119.87 139.35 118.86 138.96 C 118.87 141.08 118.88 143.20 118.93 145.32 C 118.94 145.91 118.97 147.09 118.99 147.68 C 118.19 147.42 116.60 146.88 115.80 146.61 L 114.70 147.38 L 113.95 147.91 C 113.97 147.49 114.02 146.65 114.04 146.23 C 115.08 143.67 111.18 143.15 112.17 146.00 L 112.07 145.55 C 111.84 144.06 111.85 142.55 111.87 141.05 C 113.46 141.49 114.26 140.84 114.27 139.08 C 115.74 138.39 117.23 137.71 118.72 137.05 C 118.10 136.53 117.49 136.02 116.88 135.52 C 118.89 135.57 120.91 135.58 122.93 135.49 C 122.58 137.42 122.84 139.37 123.29 141.27 C 124.24 137.36 124.56 133.34 124.95 129.35 M 115.00 140.50 C 114.42 142.14 114.94 142.68 116.58 142.10 C 117.16 140.45 116.63 139.91 115.00 140.50 Z" />
<path fill="#25252a" opacity="1.00" d=" M 34.17 135.79 C 35.49 135.80 36.81 135.82 38.13 135.83 C 37.79 152.07 37.59 168.35 38.14 184.58 C 38.73 183.29 39.29 181.99 39.82 180.68 C 40.00 182.57 39.43 184.31 38.10 185.68 C 36.51 185.20 34.92 184.72 33.30 184.32 C 33.87 183.27 34.44 182.23 35.01 181.18 C 32.40 181.28 29.75 181.63 27.17 181.04 C 19.10 178.84 11.04 176.57 2.87 174.73 C 2.91 174.06 2.97 172.72 3.01 172.05 C 13.51 174.87 24.20 177.02 34.57 180.29 C 34.79 165.45 34.32 150.62 34.17 135.79 Z" />
<path fill="#25252a" opacity="1.00" d=" M 64.95 143.13 C 66.74 143.35 68.54 143.55 70.33 143.75 C 71.44 144.47 72.55 145.18 73.67 145.88 C 74.37 148.99 75.66 151.92 77.09 154.75 C 76.43 155.70 75.75 156.63 75.13 157.61 C 74.56 159.16 74.12 160.76 73.58 162.33 C 72.76 163.88 72.16 165.75 70.68 166.80 C 68.46 167.50 66.09 167.32 63.80 167.34 C 62.51 166.83 61.24 166.27 59.97 165.73 C 59.99 165.11 60.01 163.87 60.03 163.25 C 62.29 163.90 64.62 164.16 66.97 164.08 L 65.05 162.61 C 65.75 161.59 66.48 160.58 67.23 159.59 C 67.31 157.95 67.38 156.31 67.46 154.67 C 66.09 153.24 64.70 151.83 63.31 150.42 C 62.48 150.60 60.83 150.97 60.00 151.16 C 60.55 150.75 61.65 149.93 62.20 149.53 C 61.65 149.12 60.55 148.30 60.00 147.89 C 60.19 146.76 60.43 145.65 60.70 144.55 C 64.09 144.02 67.22 146.35 69.05 149.02 C 70.65 151.75 71.64 154.79 73.26 157.51 C 74.46 151.43 70.55 145.35 64.95 143.13 Z" />
<path fill="#25252a" opacity="1.00" d=" M 113.51 161.13 C 112.45 157.67 111.41 153.85 113.11 150.40 C 114.47 153.07 115.76 155.79 117.40 158.30 L 117.84 158.40 C 119.27 158.63 120.69 158.84 122.12 159.04 C 121.75 159.45 121.00 160.25 120.62 160.65 C 119.16 160.64 117.70 160.63 116.25 160.70 C 116.19 161.01 116.09 161.64 116.03 161.96 C 115.40 161.75 114.14 161.33 113.51 161.13 Z" />
<path fill="#25252a" opacity="1.00" d=" M 139.19 153.23 C 139.71 153.69 140.76 154.60 141.29 155.05 C 140.34 155.66 137.94 154.26 139.19 153.23 Z" />
<path fill="#25252a" opacity="1.00" d=" M 92.32 157.38 C 99.15 159.83 106.49 160.28 113.30 162.77 C 116.77 166.52 121.33 169.07 124.87 172.80 C 123.63 169.95 121.49 167.71 119.51 165.38 L 118.67 164.34 C 124.61 168.80 128.33 175.39 132.05 181.66 C 130.68 181.78 129.32 181.87 127.95 181.92 C 127.20 180.62 126.47 179.29 125.39 178.23 C 122.57 173.82 119.79 168.90 114.86 166.55 C 107.11 165.05 99.43 163.20 91.78 161.24 C 91.96 159.95 92.14 158.66 92.32 157.38 Z" />
<path fill="#25252a" opacity="1.00" d=" M 23.41 162.24 C 25.23 162.64 27.06 163.05 28.89 163.45 C 27.97 164.35 27.07 165.26 26.17 166.18 C 24.34 166.84 22.52 167.54 20.72 168.28 C 20.50 167.72 20.07 166.60 19.85 166.04 C 22.07 167.36 24.09 165.97 26.04 164.93 C 25.38 164.26 24.06 162.91 23.41 162.24 Z" />
</g>
<g id="#868581ff">
<path fill="#868581" opacity="1.00" d=" M 43.20 78.21 C 43.70 78.77 43.70 78.77 43.20 78.21 Z" />
<path fill="#868581" opacity="1.00" d=" M 59.27 97.27 C 59.77 97.85 59.77 97.85 59.27 97.27 Z" />
<path fill="#868581" opacity="1.00" d=" M 48.30 99.48 C 49.35 100.30 50.37 101.22 51.76 101.37 C 52.41 102.61 53.04 103.86 53.67 105.11 C 54.31 105.02 55.58 104.84 56.22 104.75 C 56.41 104.72 56.80 104.66 57.00 104.63 C 59.36 104.09 61.70 103.42 64.10 103.04 C 64.89 103.06 66.49 103.09 67.28 103.10 C 67.07 105.66 66.60 108.18 66.17 110.71 C 59.25 109.68 52.21 109.76 45.35 108.39 C 45.00 108.60 44.30 109.01 43.95 109.21 C 58.96 110.60 73.91 112.60 88.93 113.82 C 88.84 115.33 88.77 116.85 88.71 118.38 C 86.91 118.03 85.11 117.67 83.31 117.31 C 81.06 122.94 83.27 129.16 82.91 135.05 C 81.85 136.14 80.68 137.18 79.13 137.49 C 78.67 137.53 77.73 137.62 77.27 137.66 C 77.20 139.55 77.32 141.45 77.92 143.26 C 77.87 145.67 81.16 143.46 78.68 142.81 C 80.18 141.91 81.70 141.06 83.21 140.19 C 83.20 141.98 83.18 143.78 83.18 145.57 C 85.22 144.25 87.15 142.77 88.89 141.08 L 87.66 139.71 C 88.24 138.76 88.85 137.83 89.46 136.90 C 89.43 139.48 89.47 142.07 89.34 144.65 C 89.30 144.93 89.23 145.51 89.19 145.79 C 88.67 145.22 87.62 144.08 87.09 143.51 C 87.23 144.29 87.50 145.87 87.63 146.65 C 85.83 146.54 84.03 146.43 82.23 146.34 C 83.72 149.32 87.33 147.10 89.83 147.05 C 90.04 149.93 90.17 152.81 90.19 155.70 C 89.70 157.43 89.12 159.13 88.56 160.83 C 87.78 160.48 86.21 159.78 85.43 159.43 C 85.78 158.70 86.48 157.22 86.83 156.48 C 85.57 157.40 84.47 158.61 83.00 159.19 C 81.23 159.03 79.50 158.60 77.77 158.21 C 78.23 158.01 79.17 157.61 79.64 157.41 C 79.75 153.18 77.85 149.33 75.73 145.80 C 77.00 143.16 72.81 143.44 73.67 145.88 C 72.55 145.18 71.44 144.47 70.33 143.75 C 68.54 143.55 66.74 143.35 64.95 143.13 C 70.55 145.35 74.46 151.43 73.26 157.51 C 71.64 154.79 70.65 151.75 69.05 149.02 C 67.22 146.35 64.09 144.02 60.70 144.55 C 60.43 145.65 60.19 146.76 60.00 147.89 C 60.55 148.30 61.65 149.12 62.20 149.53 C 61.65 149.93 60.55 150.75 60.00 151.16 C 59.99 152.33 60.01 153.50 60.04 154.67 C 61.32 155.21 62.62 155.72 63.83 156.43 C 64.95 158.10 63.93 160.03 63.65 161.79 C 64.12 162.05 64.58 162.33 65.05 162.61 L 66.97 164.08 C 64.62 164.16 62.29 163.90 60.03 163.25 C 60.01 163.87 59.99 165.11 59.97 165.73 C 59.94 166.18 59.87 167.10 59.84 167.56 C 59.23 168.36 58.60 169.16 57.97 169.96 C 56.34 169.91 54.72 169.87 53.10 169.84 C 53.46 169.46 54.20 168.71 54.57 168.34 C 55.89 168.49 57.22 168.64 58.55 168.80 C 59.57 154.92 58.66 140.96 59.05 127.05 C 58.43 127.01 57.19 126.91 56.57 126.87 C 56.14 126.58 55.29 126.01 54.87 125.72 C 54.43 125.74 53.57 125.78 53.14 125.80 C 50.11 125.99 47.06 125.87 44.04 125.58 C 43.19 121.80 42.71 117.92 41.36 114.28 C 43.07 113.30 42.14 110.26 40.10 110.79 C 40.10 110.47 40.10 109.82 40.10 109.50 C 40.70 109.32 41.88 108.95 42.47 108.77 C 42.69 108.24 43.11 107.19 43.33 106.66 C 43.38 106.53 43.48 106.26 43.53 106.13 L 43.79 105.41 C 44.05 105.48 44.58 105.62 44.84 105.69 L 45.09 107.43 C 45.49 107.31 46.30 107.09 46.70 106.97 C 48.54 106.52 50.40 106.11 52.26 105.70 C 51.78 104.27 51.29 102.84 50.81 101.41 C 50.26 101.54 49.15 101.79 48.60 101.91 C 48.53 101.31 48.38 100.09 48.30 99.48 M 57.16 124.02 C 56.73 125.66 57.31 126.23 58.90 125.74 C 59.34 124.08 58.76 123.51 57.16 124.02 M 73.22 126.22 C 72.70 127.84 73.25 128.44 74.87 128.01 C 75.38 126.38 74.83 125.78 73.22 126.22 M 77.14 129.13 C 76.71 130.77 77.29 131.35 78.89 130.87 C 79.32 129.22 78.73 128.64 77.14 129.13 M 73.40 130.44 C 72.22 131.43 73.80 133.62 75.10 132.71 C 76.30 131.71 74.69 129.53 73.40 130.44 M 77.31 133.36 C 76.12 134.36 77.75 136.49 79.04 135.60 C 80.24 134.60 78.59 132.43 77.31 133.36 M 73.93 135.26 C 73.52 136.66 74.00 137.19 75.40 136.85 C 75.81 135.46 75.32 134.93 73.93 135.26 M 74.04 139.34 C 72.82 140.33 74.48 142.48 75.76 141.57 C 77.00 140.57 75.32 138.45 74.04 139.34 Z" />
<path fill="#868581" opacity="1.00" d=" M 120.34 113.01 C 123.59 112.44 126.58 113.99 128.45 116.60 C 125.85 119.86 120.21 120.10 118.46 115.87 C 121.23 115.31 122.84 119.63 125.49 117.60 C 125.65 117.22 125.96 116.47 126.11 116.09 C 124.25 114.95 122.25 114.06 120.34 113.01 Z" />
<path fill="#868581" opacity="1.00" d=" M 123.24 116.30 C 123.75 116.82 123.75 116.82 123.24 116.30 Z" />
<path fill="#868581" opacity="1.00" d=" M 124.13 130.50 L 124.95 129.35 C 124.56 133.34 124.24 137.36 123.29 141.27 C 122.84 139.37 122.58 137.42 122.93 135.49 C 123.25 133.80 123.61 132.13 124.13 130.50 Z" />
<path fill="#868581" opacity="1.00" d=" M 40.62 138.51 C 46.30 136.47 51.67 133.66 57.17 131.20 C 57.13 133.75 57.08 136.30 57.00 138.85 C 56.00 140.08 54.99 141.32 53.99 142.55 C 50.81 141.22 47.41 140.60 43.99 141.24 C 41.91 142.08 41.45 139.82 40.62 138.51 Z" />
<path fill="#868581" opacity="1.00" d=" M 93.74 137.92 C 91.89 139.21 91.27 135.68 93.24 135.56 L 93.92 136.15 C 93.87 136.59 93.78 137.48 93.74 137.92 Z" />
<path fill="#868581" opacity="1.00" d=" M 105.21 138.13 C 106.81 137.59 107.37 138.14 106.89 139.79 C 105.29 140.33 104.73 139.78 105.21 138.13 Z" />
<path fill="#868581" opacity="1.00" d=" M 106.96 144.73 C 104.43 146.76 104.42 141.04 106.96 143.10 C 106.96 143.51 106.96 144.32 106.96 144.73 Z" />
<path fill="#868581" opacity="1.00" d=" M 117.84 158.40 C 121.03 156.16 124.11 153.77 126.89 151.04 C 126.82 153.99 126.68 156.95 126.68 159.90 C 125.64 159.93 123.57 159.97 122.53 159.99 C 124.30 160.68 126.17 161.10 128.07 161.17 L 128.09 159.82 L 128.10 160.62 L 128.09 161.39 C 131.93 161.47 136.30 160.87 139.51 163.49 C 137.90 163.70 136.31 163.95 134.70 164.11 C 128.88 163.66 122.97 159.27 117.30 162.77 C 117.65 163.16 118.33 163.94 118.67 164.34 L 119.51 165.38 C 121.49 167.71 123.63 169.95 124.87 172.80 C 121.33 169.07 116.77 166.52 113.30 162.77 C 114.73 163.29 116.17 163.81 117.60 164.34 C 117.21 163.74 116.42 162.55 116.03 161.96 C 116.09 161.64 116.19 161.01 116.25 160.70 C 117.70 160.63 119.16 160.64 120.62 160.65 C 121.00 160.25 121.75 159.45 122.12 159.04 C 120.69 158.84 119.27 158.63 117.84 158.40 Z" />
<path fill="#868581" opacity="1.00" d=" M 70.68 166.80 C 72.16 165.75 72.76 163.88 73.58 162.33 C 74.90 163.10 76.21 163.87 77.52 164.64 C 77.61 165.72 77.70 166.81 77.80 167.89 C 73.58 169.44 69.09 168.75 64.83 167.77 C 64.57 167.67 64.05 167.45 63.80 167.34 C 66.09 167.32 68.46 167.50 70.68 166.80 Z" />
<path fill="#868581" opacity="1.00" d=" M 125.39 178.23 C 126.47 179.29 127.20 180.62 127.95 181.92 C 126.02 181.68 124.10 181.36 122.18 181.07 C 120.95 180.46 119.74 179.79 118.55 179.12 C 119.19 178.99 120.49 178.75 121.14 178.62 C 122.49 178.75 123.84 178.75 125.20 178.62 L 125.39 178.23 Z" />
</g>
<g id="#b7b6b6ff">
<path fill="#b7b6b6" opacity="1.00" d=" M 67.13 102.38 C 82.15 103.51 97.23 104.08 112.19 105.84 C 106.51 108.83 100.60 112.33 93.93 111.70 C 84.70 113.34 75.40 111.56 66.17 110.71 C 66.60 108.18 67.07 105.66 67.28 103.10 L 67.13 102.38 Z" />
<path fill="#b7b6b6" opacity="1.00" d=" M 100.91 111.73 C 105.28 110.03 109.47 107.84 113.98 106.49 C 120.67 108.47 126.79 112.17 132.96 115.42 C 129.70 117.61 126.34 119.65 122.78 121.31 C 123.49 121.99 124.19 122.68 124.90 123.36 C 128.51 121.13 132.25 119.14 135.82 116.85 C 138.29 117.93 140.77 119.07 142.88 120.78 C 138.29 123.82 133.57 126.67 128.78 129.38 C 128.08 129.04 126.67 128.35 125.97 128.00 L 126.37 127.82 C 126.94 127.61 128.08 127.17 128.65 126.95 C 125.52 125.19 121.75 125.19 118.68 123.34 C 113.35 120.22 107.76 117.59 102.34 114.64 C 101.86 113.67 101.38 112.70 100.91 111.73 M 120.34 113.01 C 122.25 114.06 124.25 114.95 126.11 116.09 C 125.96 116.47 125.65 117.22 125.49 117.60 C 122.84 119.63 121.23 115.31 118.46 115.87 C 120.21 120.10 125.85 119.86 128.45 116.60 C 126.58 113.99 123.59 112.44 120.34 113.01 M 123.24 116.30 C 123.75 116.82 123.75 116.82 123.24 116.30 Z" />
<path fill="#b7b6b6" opacity="1.00" d=" M 99.40 120.30 C 101.73 119.61 104.04 118.82 106.08 117.45 C 106.30 119.31 106.54 121.17 106.76 123.03 C 105.46 122.19 104.17 121.35 102.88 120.50 C 104.09 121.88 105.51 123.13 106.38 124.78 C 106.04 125.84 105.68 126.90 105.30 127.95 C 103.40 127.71 101.49 127.55 99.58 127.45 C 99.36 125.07 99.40 122.68 99.40 120.30 M 100.88 122.49 C 100.14 123.89 102.40 125.75 103.72 125.62 C 104.03 124.16 102.49 122.02 100.88 122.49 Z" />
<path fill="#b7b6b6" opacity="1.00" d=" M 3.00 119.21 C 16.69 121.25 30.28 124.05 44.04 125.58 C 47.06 125.87 50.11 125.99 53.14 125.80 C 53.79 126.23 55.09 127.09 55.75 127.53 C 55.62 127.95 55.38 128.79 55.26 129.21 C 50.22 132.03 44.62 133.66 39.59 136.45 C 39.32 137.12 38.78 138.46 38.51 139.13 C 39.04 138.97 40.09 138.67 40.62 138.51 C 41.45 139.82 41.91 142.08 43.99 141.24 C 47.41 140.60 50.81 141.22 53.99 142.55 C 54.99 141.32 56.00 140.08 57.00 138.85 C 56.51 147.24 57.29 155.65 56.94 164.04 C 51.46 169.19 44.60 172.82 38.91 177.83 C 39.14 178.40 39.60 179.54 39.83 180.12 L 39.82 180.68 C 39.29 181.99 38.73 183.29 38.14 184.58 C 37.59 168.35 37.79 152.07 38.13 135.83 C 36.81 135.82 35.49 135.80 34.17 135.79 C 34.32 150.62 34.79 165.45 34.57 180.29 C 24.20 177.02 13.51 174.87 3.01 172.05 C 3.08 158.62 2.82 145.19 3.14 131.77 C 12.65 133.13 21.90 136.28 31.52 136.71 C 22.31 133.34 12.37 132.73 2.89 130.32 C 3.07 126.62 2.98 122.91 3.00 119.21 M 20.90 157.34 C 22.77 158.06 24.62 158.82 26.47 159.58 C 26.63 158.34 26.78 157.10 26.93 155.86 C 26.21 154.19 23.90 156.77 24.09 157.96 L 23.00 156.76 C 23.18 156.28 23.54 155.32 23.73 154.84 C 21.88 154.46 21.00 155.65 20.90 157.34 M 22.24 163.05 C 22.79 163.59 22.79 163.59 22.24 163.05 M 23.41 162.24 C 24.06 162.91 25.38 164.26 26.04 164.93 C 24.09 165.97 22.07 167.36 19.85 166.04 C 20.07 166.60 20.50 167.72 20.72 168.28 C 22.52 167.54 24.34 166.84 26.17 166.18 C 27.07 165.26 27.97 164.35 28.89 163.45 C 27.06 163.05 25.23 162.64 23.41 162.24 Z" />
<path fill="#b7b6b6" opacity="1.00" d=" M 106.64 119.93 C 107.13 119.44 107.63 118.96 108.14 118.49 C 109.23 120.83 109.71 123.36 109.31 125.91 C 108.52 123.88 108.26 121.50 106.64 119.93 Z" />
<path fill="#b7b6b6" opacity="1.00" d=" M 128.90 129.81 C 129.96 132.69 129.59 135.77 129.14 138.72 C 128.72 138.72 127.89 138.70 127.47 138.69 C 128.61 135.86 128.97 132.84 128.90 129.81 Z" />
<path fill="#b7b6b6" opacity="1.00" d=" M 103.12 131.03 C 103.68 131.56 103.68 131.56 103.12 131.03 Z" />
<path fill="#b7b6b6" opacity="1.00" d=" M 105.50 133.62 C 105.88 133.69 106.66 133.85 107.05 133.93 C 107.68 136.63 104.49 135.93 105.50 133.62 Z" />
<path fill="#b7b6b6" opacity="1.00" d=" M 82.91 135.05 L 85.20 133.69 C 84.56 137.41 81.39 139.45 78.02 140.33 C 78.30 139.62 78.86 138.20 79.13 137.49 C 80.68 137.18 81.85 136.14 82.91 135.05 Z" />
<path fill="#b7b6b6" opacity="1.00" d=" M 96.08 137.36 C 99.42 137.55 94.50 140.30 96.08 137.36 Z" />
<path fill="#b7b6b6" opacity="1.00" d=" M 98.97 137.32 C 102.28 137.64 97.29 140.23 98.97 137.32 Z" />
<path fill="#b7b6b6" opacity="1.00" d=" M 111.87 141.05 C 111.88 139.54 112.67 138.89 114.27 139.08 C 114.26 140.84 113.46 141.49 111.87 141.05 Z" />
<path fill="#b7b6b6" opacity="1.00" d=" M 99.07 142.11 C 102.36 142.34 97.52 145.09 99.07 142.11 Z" />
<path fill="#b7b6b6" opacity="1.00" d=" M 112.17 146.00 C 111.18 143.15 115.08 143.67 114.04 146.23 C 113.57 146.17 112.64 146.06 112.17 146.00 Z" />
<path fill="#b7b6b6" opacity="1.00" d=" M 93.74 146.10 C 94.56 143.88 97.11 146.77 94.85 147.36 C 94.58 147.04 94.02 146.41 93.74 146.10 Z" />
<path fill="#b7b6b6" opacity="1.00" d=" M 60.00 151.16 C 60.83 150.97 62.48 150.60 63.31 150.42 C 64.70 151.83 66.09 153.24 67.46 154.67 C 67.38 156.31 67.31 157.95 67.23 159.59 C 66.48 160.58 65.75 161.59 65.05 162.61 C 64.58 162.33 64.12 162.05 63.65 161.79 C 63.93 160.03 64.95 158.10 63.83 156.43 C 62.62 155.72 61.32 155.21 60.04 154.67 C 60.01 153.50 59.99 152.33 60.00 151.16 M 62.82 153.29 C 63.43 153.40 63.43 153.40 62.82 153.29 C 63.07 149.88 59.76 154.36 62.82 153.29 Z" />
<path fill="#b7b6b6" opacity="1.00" d=" M 88.56 160.83 C 89.12 159.13 89.70 157.43 90.19 155.70 C 90.29 157.42 90.43 159.14 90.63 160.86 L 91.78 161.24 C 99.43 163.20 107.11 165.05 114.86 166.55 C 109.35 166.50 107.13 172.20 103.14 174.89 C 96.19 174.57 89.94 170.75 82.98 170.45 C 79.63 170.20 76.34 171.00 73.02 171.19 C 69.92 171.24 67.39 169.23 64.83 167.77 C 69.09 168.75 73.58 169.44 77.80 167.89 C 77.70 166.81 77.61 165.72 77.52 164.64 C 76.21 163.87 74.90 163.10 73.58 162.33 C 74.12 160.76 74.56 159.16 75.13 157.61 C 75.79 157.76 77.11 158.06 77.77 158.21 C 79.50 158.60 81.23 159.03 83.00 159.19 C 84.47 158.61 85.57 157.40 86.83 156.48 C 86.48 157.22 85.78 158.70 85.43 159.43 C 86.21 159.78 87.78 160.48 88.56 160.83 Z" />
<path fill="#b7b6b6" opacity="1.00" d=" M 2.87 174.73 C 11.04 176.57 19.10 178.84 27.17 181.04 C 29.75 181.63 32.40 181.28 35.01 181.18 C 34.44 182.23 33.87 183.27 33.30 184.32 C 29.84 183.75 26.38 183.04 23.16 181.62 C 16.73 178.94 9.80 178.00 3.10 176.26 C 3.04 175.88 2.93 175.11 2.87 174.73 Z" />
<path fill="#b7b6b6" opacity="1.00" d=" M 109.59 177.74 C 113.45 176.98 117.43 177.28 121.14 178.62 C 120.49 178.75 119.19 178.99 118.55 179.12 C 119.74 179.79 120.95 180.46 122.18 181.07 C 117.82 180.72 113.53 179.65 109.59 177.74 Z" />
</g>
<g id="#52504dff">
<path fill="#52504d" opacity="1.00" d=" M 40.10 110.79 C 42.14 110.26 43.07 113.30 41.36 114.28 C 40.51 113.25 40.09 112.08 40.10 110.79 Z" />
<path fill="#52504d" opacity="1.00" d=" M 122.78 121.31 C 126.34 119.65 129.70 117.61 132.96 115.42 C 133.67 115.78 135.10 116.50 135.82 116.85 C 132.25 119.14 128.51 121.13 124.90 123.36 C 124.19 122.68 123.49 121.99 122.78 121.31 Z" />
<path fill="#52504d" opacity="1.00" d=" M 142.88 120.78 C 142.67 127.87 142.14 134.94 141.94 142.02 C 141.70 145.43 142.53 149.65 139.02 151.69 C 138.79 152.35 138.33 153.69 138.09 154.35 C 137.14 154.22 136.21 154.27 135.30 154.50 C 132.87 156.50 130.48 158.56 128.10 160.62 L 128.09 159.82 C 127.68 153.55 128.63 147.31 129.01 141.07 C 128.58 140.73 127.73 140.05 127.31 139.72 C 127.35 139.46 127.43 138.95 127.47 138.69 C 127.89 138.70 128.72 138.72 129.14 138.72 C 129.59 135.77 129.96 132.69 128.90 129.81 L 128.78 129.38 C 133.57 126.67 138.29 123.82 142.88 120.78 Z" />
<path fill="#52504d" opacity="1.00" d=" M 99.58 127.45 C 101.49 127.55 103.40 127.71 105.30 127.95 C 104.63 129.56 105.07 131.30 105.18 132.97 C 105.83 133.06 107.14 133.25 107.79 133.35 C 107.60 133.49 107.23 133.78 107.05 133.93 C 106.66 133.85 105.88 133.69 105.50 133.62 C 104.79 133.40 103.36 132.98 102.65 132.76 C 102.43 133.62 101.99 135.35 101.77 136.21 C 101.46 136.07 100.83 135.80 100.52 135.67 C 100.61 134.97 100.72 134.27 100.83 133.57 C 100.55 133.33 99.99 132.85 99.72 132.61 C 100.68 131.87 101.64 131.13 102.60 130.39 C 101.58 129.42 100.57 128.44 99.58 127.45 M 103.12 131.03 C 103.68 131.56 103.68 131.56 103.12 131.03 Z" />
<path fill="#52504d" opacity="1.00" d=" M 108.65 127.23 C 111.35 126.39 108.86 129.94 107.50 129.90 C 104.80 130.48 107.42 127.34 108.65 127.23 Z" />
<path fill="#52504d" opacity="1.00" d=" M 82.91 135.05 C 84.06 133.45 85.30 131.91 86.50 130.34 C 86.10 131.94 85.60 133.50 85.06 135.06 C 86.31 135.39 87.56 135.72 88.80 136.06 C 87.98 136.81 87.14 137.54 86.29 138.26 C 85.29 138.94 84.26 139.58 83.21 140.19 C 81.70 141.06 80.18 141.91 78.68 142.81 L 77.92 143.26 C 77.32 141.45 77.20 139.55 77.27 137.66 C 77.73 137.62 78.67 137.53 79.13 137.49 C 78.86 138.20 78.30 139.62 78.02 140.33 C 81.39 139.45 84.56 137.41 85.20 133.69 L 82.91 135.05 Z" />
<path fill="#52504d" opacity="1.00" d=" M 106.96 143.10 C 108.55 143.68 108.55 144.22 106.96 144.73 C 106.96 144.32 106.96 143.51 106.96 143.10 Z" />
<path fill="#52504d" opacity="1.00" d=" M 118.93 145.32 L 119.26 145.17 C 120.78 145.46 122.30 145.78 123.81 146.11 C 124.83 146.51 125.85 146.91 126.86 147.33 C 126.88 148.57 126.89 149.80 126.89 151.04 C 124.11 153.77 121.03 156.16 117.84 158.40 L 117.40 158.30 C 115.76 155.79 114.47 153.07 113.11 150.40 C 113.60 149.37 114.14 148.37 114.70 147.38 L 115.80 146.61 C 116.60 146.88 118.19 147.42 118.99 147.68 C 118.97 147.09 118.94 145.91 118.93 145.32 Z" />
<path fill="#52504d" opacity="1.00" d=" M 73.67 145.88 C 74.18 145.86 75.22 145.82 75.73 145.80 C 77.85 149.33 79.75 153.18 79.64 157.41 C 79.17 157.61 78.23 158.01 77.77 158.21 C 77.11 158.06 75.79 157.76 75.13 157.61 C 75.75 156.63 76.43 155.70 77.09 154.75 C 75.66 151.92 74.37 148.99 73.67 145.88 Z" />
<path fill="#52504d" opacity="1.00" d=" M 22.24 163.05 C 22.79 163.59 22.79 163.59 22.24 163.05 Z" />
</g>
<g id="#0e0e12ff">
<path fill="#0e0e12" opacity="1.00" d=" M 88.93 113.82 C 92.91 111.10 98.47 112.17 102.34 114.64 C 107.76 117.59 113.35 120.22 118.68 123.34 C 121.75 125.19 125.52 125.19 128.65 126.95 C 128.08 127.17 126.94 127.61 126.37 127.82 L 125.97 128.00 C 125.72 128.34 125.20 129.01 124.95 129.35 L 124.13 130.50 C 123.61 132.13 123.25 133.80 122.93 135.49 C 120.91 135.58 118.89 135.57 116.88 135.52 C 118.31 133.17 120.22 131.17 122.24 129.32 C 118.98 131.24 115.83 133.58 112.02 134.27 C 113.71 132.15 115.79 130.42 117.60 128.41 C 115.81 129.32 114.07 130.32 112.33 131.32 C 110.72 131.76 109.05 132.18 107.79 133.35 C 107.14 133.25 105.83 133.06 105.18 132.97 C 105.07 131.30 104.63 129.56 105.30 127.95 C 105.68 126.90 106.04 125.84 106.38 124.78 C 105.51 123.13 104.09 121.88 102.88 120.50 C 104.17 121.35 105.46 122.19 106.76 123.03 C 106.54 121.17 106.30 119.31 106.08 117.45 C 104.04 118.82 101.73 119.61 99.40 120.30 C 99.40 122.68 99.36 125.07 99.58 127.45 C 100.57 128.44 101.58 129.42 102.60 130.39 C 101.64 131.13 100.68 131.87 99.72 132.61 C 99.37 131.94 98.67 130.60 98.32 129.92 C 96.57 130.49 94.85 131.18 93.07 131.67 C 92.73 131.53 92.05 131.25 91.71 131.12 C 94.06 128.88 96.25 126.45 97.89 123.62 C 95.00 122.45 92.03 123.18 89.71 125.18 C 89.67 124.37 89.57 122.74 89.52 121.93 C 88.56 122.18 87.60 122.43 86.64 122.68 C 86.66 124.93 86.72 127.18 86.75 129.43 C 86.68 129.66 86.56 130.11 86.50 130.34 C 85.30 131.91 84.06 133.45 82.91 135.05 C 83.27 129.16 81.06 122.94 83.31 117.31 C 85.11 117.67 86.91 118.03 88.71 118.38 C 88.77 116.85 88.84 115.33 88.93 113.82 M 97.61 118.35 C 99.58 120.33 100.48 116.14 97.97 116.56 C 97.88 117.01 97.70 117.90 97.61 118.35 M 106.64 119.93 C 108.26 121.50 108.52 123.88 109.31 125.91 C 109.71 123.36 109.23 120.83 108.14 118.49 C 107.63 118.96 107.13 119.44 106.64 119.93 M 108.65 127.23 C 107.42 127.34 104.80 130.48 107.50 129.90 C 108.86 129.94 111.35 126.39 108.65 127.23 Z" />
<path fill="#0e0e12" opacity="1.00" d=" M 77.14 129.13 C 78.73 128.64 79.32 129.22 78.89 130.87 C 77.29 131.35 76.71 130.77 77.14 129.13 Z" />
<path fill="#0e0e12" opacity="1.00" d=" M 73.40 130.44 C 74.69 129.53 76.30 131.71 75.10 132.71 C 73.80 133.62 72.22 131.43 73.40 130.44 Z" />
<path fill="#0e0e12" opacity="1.00" d=" M 77.31 133.36 C 78.59 132.43 80.24 134.60 79.04 135.60 C 77.75 136.49 76.12 134.36 77.31 133.36 Z" />
<path fill="#0e0e12" opacity="1.00" d=" M 73.93 135.26 C 75.32 134.93 75.81 135.46 75.40 136.85 C 74.00 137.19 73.52 136.66 73.93 135.26 Z" />
<path fill="#0e0e12" opacity="1.00" d=" M 86.29 138.26 C 86.75 138.74 87.21 139.22 87.66 139.71 L 88.89 141.08 C 87.15 142.77 85.22 144.25 83.18 145.57 C 83.18 143.78 83.20 141.98 83.21 140.19 C 84.26 139.58 85.29 138.94 86.29 138.26 Z" />
<path fill="#0e0e12" opacity="1.00" d=" M 74.04 139.34 C 75.32 138.45 77.00 140.57 75.76 141.57 C 74.48 142.48 72.82 140.33 74.04 139.34 Z" />
<path fill="#0e0e12" opacity="1.00" d=" M 118.86 138.96 C 119.87 139.35 120.89 139.75 121.91 140.14 C 122.42 141.11 122.94 142.07 123.45 143.04 C 122.02 143.68 120.65 144.44 119.26 145.17 L 118.93 145.32 C 118.88 143.20 118.87 141.08 118.86 138.96 Z" />
<path fill="#0e0e12" opacity="1.00" d=" M 89.34 144.65 C 90.11 143.43 90.93 142.24 91.85 141.12 C 92.48 142.77 93.08 144.45 93.74 146.10 C 94.02 146.41 94.58 147.04 94.85 147.36 C 95.34 147.63 96.32 148.17 96.80 148.45 C 97.35 147.86 98.43 146.67 98.97 146.08 C 100.52 148.26 103.11 150.54 105.58 147.95 C 105.01 147.49 103.88 146.55 103.31 146.09 C 105.63 147.66 107.86 149.38 110.10 151.08 C 111.24 149.56 113.39 148.16 112.17 146.00 C 112.64 146.06 113.57 146.17 114.04 146.23 C 114.02 146.65 113.97 147.49 113.95 147.91 L 114.70 147.38 C 114.14 148.37 113.60 149.37 113.11 150.40 C 111.41 153.85 112.45 157.67 113.51 161.13 C 114.14 161.33 115.40 161.75 116.03 161.96 C 116.42 162.55 117.21 163.74 117.60 164.34 C 116.17 163.81 114.73 163.29 113.30 162.77 C 106.49 160.28 99.15 159.83 92.32 157.38 C 92.14 158.66 91.96 159.95 91.78 161.24 L 90.63 160.86 C 90.43 159.14 90.29 157.42 90.19 155.70 C 90.17 152.81 90.04 149.93 89.83 147.05 C 87.33 147.10 83.72 149.32 82.23 146.34 C 84.03 146.43 85.83 146.54 87.63 146.65 C 87.50 145.87 87.23 144.29 87.09 143.51 C 87.62 144.08 88.67 145.22 89.19 145.79 C 89.23 145.51 89.30 144.93 89.34 144.65 Z" />
<path fill="#0e0e12" opacity="1.00" d=" M 77.92 143.26 L 78.68 142.81 C 81.16 143.46 77.87 145.67 77.92 143.26 Z" />
<path fill="#0e0e12" opacity="1.00" d=" M 73.67 145.88 C 72.81 143.44 77.00 143.16 75.73 145.80 C 75.22 145.82 74.18 145.86 73.67 145.88 Z" />
<path fill="#0e0e12" opacity="1.00" d=" M 135.30 154.50 C 136.21 154.27 137.14 154.22 138.09 154.35 C 139.31 155.20 140.53 156.08 141.94 156.61 L 141.46 158.47 C 141.91 157.78 142.35 157.08 142.80 156.39 C 144.27 159.42 146.28 162.13 148.01 165.01 C 143.57 164.85 139.13 164.50 134.70 164.11 C 136.31 163.95 137.90 163.70 139.51 163.49 C 140.50 163.53 142.50 163.62 143.49 163.66 C 141.49 160.68 139.40 157.75 137.26 154.86 C 136.77 154.77 135.79 154.59 135.30 154.50 Z" />
<path fill="#0e0e12" opacity="1.00" d=" M 20.90 157.34 C 21.00 155.65 21.88 154.46 23.73 154.84 C 23.54 155.32 23.18 156.28 23.00 156.76 L 24.09 157.96 C 24.28 158.16 24.65 158.55 24.84 158.75 C 25.65 157.87 26.34 156.91 26.93 155.86 C 26.78 157.10 26.63 158.34 26.47 159.58 C 24.62 158.82 22.77 158.06 20.90 157.34 Z" />
</g>
<g id="#a48848ff">
<path fill="#a48848" opacity="1.00" d=" M 86.64 122.68 C 87.60 122.43 88.56 122.18 89.52 121.93 C 89.57 122.74 89.67 124.37 89.71 125.18 C 88.63 126.53 87.62 127.94 86.75 129.43 C 86.72 127.18 86.66 124.93 86.64 122.68 Z" />
<path fill="#a48848" opacity="1.00" d=" M 112.33 131.32 C 114.07 130.32 115.81 129.32 117.60 128.41 C 115.79 130.42 113.71 132.15 112.02 134.27 C 115.83 133.58 118.98 131.24 122.24 129.32 C 120.22 131.17 118.31 133.17 116.88 135.52 C 117.49 136.02 118.10 136.53 118.72 137.05 C 117.23 137.71 115.74 138.39 114.27 139.08 C 112.67 138.89 111.88 139.54 111.87 141.05 C 111.85 142.55 111.84 144.06 112.07 145.55 L 112.17 146.00 C 113.39 148.16 111.24 149.56 110.10 151.08 C 107.86 149.38 105.63 147.66 103.31 146.09 C 103.88 146.55 105.01 147.49 105.58 147.95 C 103.11 150.54 100.52 148.26 98.97 146.08 C 98.43 146.67 97.35 147.86 96.80 148.45 C 96.32 148.17 95.34 147.63 94.85 147.36 C 97.11 146.77 94.56 143.88 93.74 146.10 C 93.08 144.45 92.48 142.77 91.85 141.12 C 92.35 140.94 93.35 140.57 93.85 140.39 C 94.16 139.20 94.41 137.99 94.60 136.77 L 93.92 136.15 L 93.24 135.56 C 92.47 134.50 91.79 133.38 91.14 132.26 L 93.07 131.67 C 94.85 131.18 96.57 130.49 98.32 129.92 C 98.67 130.60 99.37 131.94 99.72 132.61 C 99.99 132.85 100.55 133.33 100.83 133.57 C 100.72 134.27 100.61 134.97 100.52 135.67 C 100.83 135.80 101.46 136.07 101.77 136.21 C 101.99 135.35 102.43 133.62 102.65 132.76 C 103.36 132.98 104.79 133.40 105.50 133.62 C 104.49 135.93 107.68 136.63 107.05 133.93 C 107.23 133.78 107.60 133.49 107.79 133.35 C 109.05 132.18 110.72 131.76 112.33 131.32 M 96.08 137.36 C 94.50 140.30 99.42 137.55 96.08 137.36 M 98.97 137.32 C 97.29 140.23 102.28 137.64 98.97 137.32 M 105.21 138.13 C 104.73 139.78 105.29 140.33 106.89 139.79 C 107.37 138.14 106.81 137.59 105.21 138.13 M 99.07 142.11 C 97.52 145.09 102.36 142.34 99.07 142.11 M 106.96 144.73 C 108.55 144.22 108.55 143.68 106.96 143.10 C 104.42 141.04 104.43 146.76 106.96 144.73 Z" />
<path fill="#a48848" opacity="1.00" d=" M 115.00 140.50 C 116.63 139.91 117.16 140.45 116.58 142.10 C 114.94 142.68 114.42 142.14 115.00 140.50 Z" />
<path fill="#a48848" opacity="1.00" d=" M 24.09 157.96 C 23.90 156.77 26.21 154.19 26.93 155.86 C 26.34 156.91 25.65 157.87 24.84 158.75 C 24.65 158.55 24.28 158.16 24.09 157.96 Z" />
</g>
</svg>
