<?xml version="1.0" encoding="UTF-8" ?>
<!DOCTYPE svg PUBLIC "-//W3C//DTD SVG 1.1//EN" "http://www.w3.org/Graphics/SVG/1.1/DTD/svg11.dtd">
<svg width="417pt" height="242pt" viewBox="0 0 417 242" version="1.1" xmlns="http://www.w3.org/2000/svg">
<g id="#f4f4f4ff">
<path fill="#f4f4f4" opacity="1.00" d=" M 2.98 63.72 C 6.62 61.61 10.79 60.62 14.99 60.77 C 42.34 60.84 69.69 60.71 97.04 60.84 C 106.40 60.46 114.89 68.59 114.81 77.97 C 114.89 106.33 114.83 134.70 114.83 163.06 C 115.23 172.29 107.30 180.80 98.03 180.79 C 70.00 180.91 41.97 180.77 13.94 180.86 C 10.10 181.02 6.41 179.82 3.00 178.16 C 2.99 140.02 3.03 101.87 2.98 63.72 M 25.28 79.42 C 25.26 79.76 25.21 80.45 25.18 80.80 C 28.73 85.27 33.63 88.54 36.85 93.28 C 38.17 96.23 35.21 98.53 33.46 100.46 C 31.53 102.46 28.62 105.43 25.72 103.27 C 21.34 99.71 17.96 95.09 13.70 91.40 C 8.70 101.80 16.16 115.40 27.32 117.60 C 30.47 118.48 34.42 117.43 36.80 120.18 C 49.28 132.70 61.78 145.21 74.17 157.83 C 76.79 160.58 79.98 163.27 83.99 163.35 C 91.09 164.06 97.57 156.99 96.20 149.97 C 95.56 144.85 91.00 141.77 87.75 138.26 C 76.62 126.73 65.13 115.55 53.83 104.18 C 50.88 101.82 52.11 97.79 51.43 94.55 C 49.75 82.86 36.25 75.24 25.28 79.42 M 75.41 85.42 C 69.81 91.33 63.66 96.73 58.34 102.91 C 59.27 104.04 60.20 105.17 61.12 106.30 C 69.46 98.96 76.71 90.44 84.95 82.99 C 86.56 83.98 85.68 85.60 84.60 86.60 C 77.58 93.81 70.20 100.67 63.39 108.08 C 64.47 109.36 65.57 110.63 66.73 111.84 C 72.74 106.16 78.43 100.14 84.31 94.31 C 86.48 92.30 88.24 89.45 91.33 88.81 C 91.26 89.31 91.11 90.32 91.04 90.82 C 83.97 98.60 76.14 105.70 68.89 113.33 C 69.61 114.71 70.66 115.86 71.80 116.91 C 78.53 110.96 84.50 104.20 90.95 97.95 C 93.62 95.25 97.02 92.26 96.67 88.08 C 96.58 82.59 91.56 77.92 86.07 78.29 C 81.42 78.42 78.47 82.48 75.41 85.42 M 29.00 141.02 C 26.35 143.24 22.04 142.92 20.28 146.24 C 17.39 150.77 14.06 155.07 11.75 159.94 C 13.07 161.14 14.46 162.26 15.94 163.26 C 20.52 160.43 24.95 157.38 29.44 154.41 C 32.29 152.78 31.75 148.94 33.59 146.55 C 37.18 142.23 41.95 138.96 45.08 134.25 C 43.59 132.81 42.12 131.36 40.68 129.88 C 36.08 132.78 33.15 137.58 29.00 141.02 Z" />
<path fill="#f4f4f4" opacity="1.00" d=" M 83.38 146.38 C 87.30 145.08 91.49 148.81 90.80 152.84 C 90.49 157.52 83.92 159.63 80.83 156.17 C 77.59 153.27 79.19 147.36 83.38 146.38 Z" />
</g>
<g id="#69a842ff">
<path fill="#69a842" opacity="1.00" d=" M 3.00 58.99 C 6.86 57.72 10.88 56.90 14.97 57.01 C 42.00 57.06 69.03 57.02 96.06 57.03 C 101.42 56.92 106.97 58.35 111.08 61.94 C 116.09 66.05 118.80 72.52 118.66 78.96 C 118.65 104.64 118.63 130.32 118.67 156.00 C 118.61 161.10 119.14 166.42 117.20 171.27 C 114.25 179.05 106.35 184.66 97.99 184.63 C 69.98 184.69 41.96 184.60 13.94 184.67 C 10.21 184.75 6.56 183.86 3.00 182.81 C 3.00 181.26 3.00 179.71 3.00 178.16 C 6.41 179.82 10.10 181.02 13.94 180.86 C 41.97 180.77 70.00 180.91 98.03 180.79 C 107.30 180.80 115.23 172.29 114.83 163.06 C 114.83 134.70 114.89 106.33 114.81 77.97 C 114.89 68.59 106.40 60.46 97.04 60.84 C 69.69 60.71 42.34 60.84 14.99 60.77 C 10.79 60.62 6.62 61.61 2.98 63.72 C 2.99 62.15 3.00 60.57 3.00 58.99 Z" />
<path fill="#69a842" opacity="1.00" d=" M 25.28 79.42 C 36.25 75.24 49.75 82.86 51.43 94.55 C 52.11 97.79 50.88 101.82 53.83 104.18 C 65.13 115.55 76.62 126.73 87.75 138.26 C 91.00 141.77 95.56 144.85 96.20 149.97 C 97.57 156.99 91.09 164.06 83.99 163.35 C 79.98 163.27 76.79 160.58 74.17 157.83 C 61.78 145.21 49.28 132.70 36.80 120.18 C 34.42 117.43 30.47 118.48 27.32 117.60 C 16.16 115.40 8.70 101.80 13.70 91.40 C 17.96 95.09 21.34 99.71 25.72 103.27 C 28.62 105.43 31.53 102.46 33.46 100.46 C 35.21 98.53 38.17 96.23 36.85 93.28 C 33.63 88.54 28.73 85.27 25.18 80.80 C 25.21 80.45 25.26 79.76 25.28 79.42 M 83.38 146.38 C 79.19 147.36 77.59 153.27 80.83 156.17 C 83.92 159.63 90.49 157.52 90.80 152.84 C 91.49 148.81 87.30 145.08 83.38 146.38 Z" />
<path fill="#69a842" opacity="1.00" d=" M 75.41 85.42 C 78.47 82.48 81.42 78.42 86.07 78.29 C 91.56 77.92 96.58 82.59 96.67 88.08 C 97.02 92.26 93.62 95.25 90.95 97.95 C 84.50 104.20 78.53 110.96 71.80 116.91 C 70.66 115.86 69.61 114.71 68.89 113.33 C 76.14 105.70 83.97 98.60 91.04 90.82 C 91.11 90.32 91.26 89.31 91.33 88.81 C 88.24 89.45 86.48 92.30 84.31 94.31 C 78.43 100.14 72.74 106.16 66.73 111.84 C 65.57 110.63 64.47 109.36 63.39 108.08 C 70.20 100.67 77.58 93.81 84.60 86.60 C 85.68 85.60 86.56 83.98 84.95 82.99 C 76.71 90.44 69.46 98.96 61.12 106.30 C 60.20 105.17 59.27 104.04 58.34 102.91 C 63.66 96.73 69.81 91.33 75.41 85.42 Z" />
<path fill="#69a842" opacity="1.00" d=" M 29.00 141.02 C 33.15 137.58 36.08 132.78 40.68 129.88 C 42.12 131.36 43.59 132.81 45.08 134.25 C 41.95 138.96 37.18 142.23 33.59 146.55 C 31.75 148.94 32.29 152.78 29.44 154.41 C 24.95 157.38 20.52 160.43 15.94 163.26 C 14.46 162.26 13.07 161.14 11.75 159.94 C 14.06 155.07 17.39 150.77 20.28 146.24 C 22.04 142.92 26.35 143.24 29.00 141.02 Z" />
</g>
</svg>
