<?xml version="1.0" encoding="UTF-8" ?>
<!DOCTYPE svg PUBLIC "-//W3C//DTD SVG 1.1//EN" "http://www.w3.org/Graphics/SVG/1.1/DTD/svg11.dtd">
<svg width="417pt" height="242pt" viewBox="0 0 417 242" version="1.1" xmlns="http://www.w3.org/2000/svg">
<g id="#f4f4f4ff">
<path fill="#f4f4f4" opacity="1.00" d=" M 18.31 113.11 C 19.01 113.07 20.39 112.98 21.08 112.94 C 21.03 119.29 21.81 125.68 20.77 132.00 C 19.84 137.78 21.14 143.72 19.84 149.44 C 19.38 144.96 19.96 140.43 19.26 135.97 C 17.90 128.42 19.04 120.72 18.31 113.11 Z" />
<path fill="#f4f4f4" opacity="1.00" d=" M 60.37 127.60 C 63.50 126.91 66.72 127.21 69.90 127.08 C 71.29 127.39 72.70 127.59 74.12 127.70 L 74.15 127.71 C 75.31 128.11 76.46 128.53 77.61 128.98 C 78.38 129.72 79.12 130.49 79.83 131.30 C 80.15 131.71 80.81 132.55 81.14 132.97 C 80.93 133.26 80.53 133.85 80.33 134.14 C 79.61 133.14 78.88 132.15 78.15 131.17 C 78.03 131.03 77.78 130.73 77.66 130.59 C 75.36 129.37 72.84 128.61 70.25 128.37 C 66.97 127.96 63.64 128.07 60.37 127.60 Z" />
</g>
<g id="#232124ff">
<path fill="#232124" opacity="1.00" d=" M 32.92 52.37 C 38.02 50.54 43.38 52.04 48.27 53.77 C 52.78 54.28 56.00 57.94 60.41 58.77 C 61.66 59.87 62.88 61.00 64.08 62.16 C 63.76 62.63 63.12 63.58 62.80 64.05 C 63.68 64.41 64.56 64.78 65.44 65.15 C 65.42 66.69 65.75 68.21 66.68 69.48 C 69.66 74.16 72.22 79.09 75.24 83.75 C 79.94 92.40 85.12 100.79 89.39 109.67 C 89.70 110.08 90.02 110.48 90.35 110.88 C 99.04 126.26 108.07 141.45 116.84 156.79 L 117.39 154.89 C 117.49 155.92 117.52 156.96 117.55 158.01 C 118.04 158.17 119.01 158.48 119.50 158.64 C 120.14 160.61 120.74 162.63 120.83 164.72 C 120.77 165.13 120.64 165.95 120.58 166.35 C 122.96 166.47 125.30 167.01 127.57 167.74 C 127.00 167.93 125.87 168.33 125.30 168.53 C 123.28 168.40 121.27 168.16 119.26 167.91 C 119.03 167.49 118.57 166.65 118.34 166.23 C 115.69 158.13 110.56 151.22 106.56 143.78 C 105.51 141.91 104.46 140.04 103.45 138.15 C 102.87 137.09 102.30 136.02 101.69 134.98 C 101.31 134.40 100.55 133.25 100.17 132.67 C 99.02 130.98 97.93 129.25 96.77 127.58 C 95.87 126.78 94.92 126.04 93.92 125.38 L 95.95 125.89 C 93.75 122.30 91.64 118.64 89.58 114.96 C 89.52 114.85 89.40 114.61 89.34 114.50 C 88.33 112.39 87.30 110.29 85.98 108.37 L 85.85 108.19 C 85.61 107.92 85.15 107.40 84.91 107.13 C 84.31 106.82 83.71 106.53 83.11 106.24 C 83.41 105.64 83.71 105.03 84.01 104.43 C 83.25 103.23 82.50 102.03 81.77 100.81 C 80.80 99.21 79.87 97.58 78.92 95.96 L 79.15 96.26 L 78.70 95.50 C 73.34 86.42 68.11 77.26 62.70 68.21 C 58.80 63.39 53.09 60.58 48.35 56.72 C 42.77 52.98 35.09 52.80 29.35 56.30 C 22.14 60.72 17.58 68.21 14.05 75.68 C 13.31 75.61 12.56 75.55 11.82 75.50 C 16.05 65.90 22.40 55.77 32.92 52.37 M 59.28 62.19 C 59.80 62.69 59.80 62.69 59.28 62.19 Z" />
</g>
<g id="#555066ff">
<path fill="#555066" opacity="1.00" d=" M 59.28 62.19 C 59.80 62.69 59.80 62.69 59.28 62.19 Z" />
</g>
<g id="#7edb7bff">
<path fill="#7edb7b" opacity="1.00" d=" M 3.13 70.37 C 4.12 71.92 5.04 73.52 6.03 75.08 C 6.48 75.12 7.40 75.21 7.86 75.25 C 8.26 76.17 8.65 77.08 9.05 78.00 L 7.81 78.68 C 7.34 78.32 6.40 77.61 5.93 77.25 C 7.01 78.40 7.89 79.68 7.13 81.32 L 6.00 81.67 C 5.28 79.80 4.42 77.98 3.12 76.44 C 3.17 74.42 3.24 72.39 3.13 70.37 Z" />
<path fill="#7edb7b" opacity="1.00" d=" M 60.62 98.66 C 63.19 97.20 65.97 98.00 68.28 99.48 L 66.53 100.01 C 68.75 101.43 71.05 102.72 73.25 104.19 C 72.87 104.54 72.10 105.25 71.72 105.61 C 66.41 105.89 61.08 106.23 55.76 105.72 C 57.63 103.74 60.04 102.45 62.55 101.47 C 61.91 100.62 61.30 99.76 60.70 98.88 L 60.62 98.66 Z" />
</g>
<g id="#48a741ff">
<path fill="#48a741" opacity="1.00" d=" M 7.86 75.25 C 9.18 75.34 10.50 75.43 11.82 75.50 C 12.56 75.55 13.31 75.61 14.05 75.68 C 16.74 75.96 19.43 76.41 22.00 77.27 C 20.02 77.89 17.95 78.04 15.89 78.07 C 14.46 75.37 10.96 76.54 9.05 78.00 C 8.65 77.08 8.26 76.17 7.86 75.25 Z" />
<path fill="#48a741" opacity="1.00" d=" M 29.17 98.49 C 31.77 98.11 34.37 97.70 36.94 97.13 C 37.10 98.95 37.26 100.77 37.44 102.59 C 33.25 104.11 28.85 104.86 24.41 105.06 C 23.33 104.65 22.24 104.25 21.15 103.87 C 20.72 102.36 20.28 100.85 19.83 99.35 C 22.95 99.34 26.19 99.65 29.17 98.49 Z" />
</g>
<g id="#27262bff">
<path fill="#27262b" opacity="1.00" d=" M 3.12 76.44 C 4.42 77.98 5.28 79.80 6.00 81.67 L 7.13 81.32 C 7.90 81.11 9.44 80.67 10.21 80.46 C 11.93 80.73 13.64 81.15 15.34 81.56 C 15.67 84.92 16.29 88.23 16.90 91.55 C 15.91 89.44 14.84 87.36 13.81 85.27 C 12.49 85.33 11.18 85.38 9.86 85.41 C 7.56 85.13 5.26 84.85 2.96 84.59 C 3.01 84.24 3.11 83.54 3.17 83.19 C 5.55 83.87 8.04 84.03 10.51 83.94 C 8.28 82.32 5.55 81.88 2.89 81.49 C 2.98 79.81 3.04 78.12 3.12 76.44 Z" />
<path fill="#27262b" opacity="1.00" d=" M 40.91 130.31 C 42.16 129.69 43.12 129.96 43.80 131.12 C 43.09 131.09 41.65 131.03 40.93 131.00 L 40.91 130.31 Z" />
</g>
<g id="#13a210ff">
<path fill="#13a210" opacity="1.00" d=" M 5.93 77.25 C 6.40 77.61 7.34 78.32 7.81 78.68 L 9.05 78.00 C 10.96 76.54 14.46 75.37 15.89 78.07 L 16.57 79.06 C 17.28 79.49 18.02 79.88 18.77 80.24 C 18.21 80.28 17.09 80.35 16.53 80.39 C 15.69 79.97 14.84 79.55 13.99 79.14 C 13.59 77.60 11.51 77.32 11.33 79.13 C 11.05 79.46 10.49 80.12 10.21 80.46 C 9.44 80.67 7.90 81.11 7.13 81.32 C 7.89 79.68 7.01 78.40 5.93 77.25 Z" />
<path fill="#13a210" opacity="1.00" d=" M 66.53 100.01 L 68.28 99.48 C 71.74 101.27 75.18 103.09 78.59 104.99 C 79.46 105.78 80.31 106.59 81.16 107.41 C 81.44 108.61 81.71 109.81 81.99 111.01 C 82.45 110.57 83.37 109.69 83.83 109.25 C 84.21 110.07 84.60 110.88 84.98 111.71 C 82.96 111.63 80.95 111.53 78.93 111.37 C 77.17 109.39 74.51 110.04 72.18 110.13 C 62.07 110.05 51.93 109.55 41.89 108.31 L 42.93 109.63 C 48.83 111.44 55.12 111.83 61.24 112.45 L 60.62 112.50 C 53.59 112.54 46.57 111.64 39.76 109.90 C 40.09 109.57 40.75 108.91 41.08 108.58 L 41.56 108.26 C 41.77 106.82 41.58 105.36 41.52 103.92 C 43.75 104.48 46.02 104.84 48.28 105.25 C 57.18 107.40 66.42 106.85 75.47 106.14 C 74.74 105.47 74.00 104.82 73.25 104.19 C 71.05 102.72 68.75 101.43 66.53 100.01 Z" />
</g>
<g id="#84dc88ff">
<path fill="#84dc88" opacity="1.00" d=" M 22.00 77.27 C 24.07 77.86 26.17 78.36 28.27 78.84 L 27.01 78.76 C 24.39 78.45 21.88 79.39 19.44 80.20 L 18.77 80.24 C 18.02 79.88 17.28 79.49 16.57 79.06 L 15.89 78.07 C 17.95 78.04 20.02 77.89 22.00 77.27 Z" />
<path fill="#84dc88" opacity="1.00" d=" M 75.61 101.37 C 77.66 101.17 79.71 100.99 81.77 100.81 C 82.50 102.03 83.25 103.23 84.01 104.43 C 83.71 105.03 83.41 105.64 83.11 106.24 C 83.71 106.53 84.31 106.82 84.91 107.13 C 85.15 107.40 85.61 107.92 85.85 108.19 C 84.29 107.88 82.73 107.64 81.16 107.41 C 80.31 106.59 79.46 105.78 78.59 104.99 L 80.01 104.80 C 78.59 103.60 77.14 102.42 75.61 101.37 Z" />
</g>
<g id="#020e02ff">
<path fill="#020e02" opacity="1.00" d=" M 11.33 79.13 C 11.51 77.32 13.59 77.60 13.99 79.14 C 13.32 79.14 11.99 79.13 11.33 79.13 Z" />
</g>
<g id="#3b303eff">
<path fill="#3b303e" opacity="1.00" d=" M 28.27 78.84 C 29.74 79.06 31.22 79.25 32.70 79.42 C 33.14 80.36 33.58 81.31 34.02 82.25 C 35.65 82.73 37.28 83.23 38.90 83.74 C 38.75 86.70 38.80 89.67 38.93 92.63 C 38.17 92.49 36.63 92.19 35.86 92.05 C 36.98 91.28 37.80 90.19 38.47 89.03 C 36.97 89.49 35.49 90.01 34.00 90.51 C 32.38 89.93 30.76 89.35 29.30 88.43 C 30.88 88.23 32.45 88.05 34.02 87.82 L 34.16 86.39 C 33.83 85.01 33.40 83.65 32.89 82.31 L 32.28 81.98 C 30.90 81.29 29.50 80.61 28.13 79.89 L 27.01 78.76 L 28.27 78.84 Z" />
</g>
<g id="#8f949aff">
<path fill="#8f949a" opacity="1.00" d=" M 11.33 79.13 C 11.99 79.13 13.32 79.14 13.99 79.14 C 14.84 79.55 15.69 79.97 16.53 80.39 C 16.97 84.15 17.71 87.87 17.91 91.65 C 23.28 91.53 28.75 91.90 34.00 90.51 C 35.49 90.01 36.97 89.49 38.47 89.03 C 37.80 90.19 36.98 91.28 35.86 92.05 L 35.37 92.41 C 33.80 91.58 32.76 91.98 32.27 93.61 C 31.01 93.91 29.74 94.17 28.45 94.28 C 22.38 92.85 15.96 94.22 9.97 92.07 C 9.66 91.11 9.35 90.15 9.04 89.20 C 11.08 91.63 13.93 92.90 17.13 92.56 L 16.90 91.55 C 16.29 88.23 15.67 84.92 15.34 81.56 C 13.64 81.15 11.93 80.73 10.21 80.46 C 10.49 80.12 11.05 79.46 11.33 79.13 Z" />
<path fill="#8f949a" opacity="1.00" d=" M 2.96 84.59 C 5.26 84.85 7.56 85.13 9.86 85.41 C 10.59 85.76 11.31 86.12 12.03 86.49 C 9.04 86.73 6.04 86.86 3.04 86.94 C 3.02 86.35 2.98 85.18 2.96 84.59 Z" />
</g>
<g id="#4ca741ff">
<path fill="#4ca741" opacity="1.00" d=" M 19.44 80.20 C 21.88 79.39 24.39 78.45 27.01 78.76 L 28.13 79.89 C 25.23 79.94 22.34 80.08 19.44 80.20 Z" />
</g>
<g id="#43454dff">
<path fill="#43454d" opacity="1.00" d=" M 18.77 80.24 L 19.44 80.20 C 22.34 80.08 25.23 79.94 28.13 79.89 C 29.50 80.61 30.90 81.29 32.28 81.98 C 31.79 82.28 30.80 82.87 30.31 83.16 C 29.74 82.93 28.61 82.46 28.04 82.23 C 28.45 84.30 28.85 86.37 29.30 88.43 C 30.76 89.35 32.38 89.93 34.00 90.51 C 28.75 91.90 23.28 91.53 17.91 91.65 C 17.71 87.87 16.97 84.15 16.53 80.39 C 17.09 80.35 18.21 80.28 18.77 80.24 Z" />
</g>
<g id="#696f74ff">
<path fill="#696f74" opacity="1.00" d=" M 2.89 81.49 C 5.55 81.88 8.28 82.32 10.51 83.94 C 8.04 84.03 5.55 83.87 3.17 83.19 L 2.89 81.49 Z" />
</g>
<g id="#151d1dff">
<path fill="#151d1d" opacity="1.00" d=" M 28.04 82.23 C 28.61 82.46 29.74 82.93 30.31 83.16 C 30.37 84.33 30.43 85.49 30.49 86.66 C 31.71 86.57 32.94 86.48 34.16 86.39 L 34.02 87.82 C 32.45 88.05 30.88 88.23 29.30 88.43 C 28.85 86.37 28.45 84.30 28.04 82.23 Z" />
</g>
<g id="#c07597ff">
<path fill="#c07597" opacity="1.00" d=" M 30.31 83.16 C 30.80 82.87 31.79 82.28 32.28 81.98 L 32.89 82.31 C 33.40 83.65 33.83 85.01 34.16 86.39 C 32.94 86.48 31.71 86.57 30.49 86.66 C 30.43 85.49 30.37 84.33 30.31 83.16 Z" />
</g>
<g id="#373942ff">
<path fill="#373942" opacity="1.00" d=" M 9.86 85.41 C 11.18 85.38 12.49 85.33 13.81 85.27 C 14.84 87.36 15.91 89.44 16.90 91.55 L 17.13 92.56 C 13.93 92.90 11.08 91.63 9.04 89.20 C 9.35 90.15 9.66 91.11 9.97 92.07 C 9.74 92.57 9.26 93.56 9.03 94.06 C 9.74 95.01 10.46 95.97 11.17 96.92 C 8.44 96.93 5.70 96.91 2.97 96.83 C 3.01 93.53 3.02 90.23 3.04 86.94 C 6.04 86.86 9.04 86.73 12.03 86.49 C 11.31 86.12 10.59 85.76 9.86 85.41 Z" />
</g>
<g id="#40414aff">
<path fill="#40414a" opacity="1.00" d=" M 9.97 92.07 C 15.96 94.22 22.38 92.85 28.45 94.28 C 31.65 95.34 34.87 94.22 37.88 93.13 C 37.69 96.34 34.45 96.05 32.10 96.19 C 25.12 96.26 18.18 97.43 11.17 96.92 C 10.46 95.97 9.74 95.01 9.03 94.06 C 9.26 93.56 9.74 92.57 9.97 92.07 Z" />
</g>
<g id="#4d4d52ff">
<path fill="#4d4d52" opacity="1.00" d=" M 32.27 93.61 C 32.76 91.98 33.80 91.58 35.37 92.41 C 34.49 93.19 33.46 93.59 32.27 93.61 Z" />
</g>
<g id="#8ec38aff">
<path fill="#8ec38a" opacity="1.00" d=" M 37.88 93.13 C 37.97 93.10 38.16 93.04 38.25 93.01 C 38.39 94.75 38.53 96.50 38.67 98.25 C 38.70 98.69 38.76 99.56 38.79 100.00 C 38.81 100.53 38.85 101.60 38.87 102.13 C 38.51 102.25 37.80 102.47 37.44 102.59 C 37.26 100.77 37.10 98.95 36.94 97.13 C 34.37 97.70 31.77 98.11 29.17 98.49 L 29.54 96.30 C 30.39 96.27 31.25 96.23 32.10 96.19 C 34.45 96.05 37.69 96.34 37.88 93.13 Z" />
</g>
<g id="#d1d4c9ff">
<path fill="#d1d4c9" opacity="1.00" d=" M 52.76 94.45 C 54.73 94.20 56.71 93.99 58.70 93.96 C 59.47 95.83 61.57 96.21 63.12 97.14 C 67.45 97.99 71.64 99.45 75.61 101.37 C 77.14 102.42 78.59 103.60 80.01 104.80 L 78.59 104.99 C 75.18 103.09 71.74 101.27 68.28 99.48 C 65.97 98.00 63.19 97.20 60.62 98.66 C 59.78 95.21 56.08 93.56 52.76 94.45 Z" />
<path fill="#d1d4c9" opacity="1.00" d=" M 39.98 102.92 C 40.37 103.17 41.13 103.67 41.52 103.92 C 41.58 105.36 41.77 106.82 41.56 108.26 L 41.08 108.58 L 40.79 108.23 C 37.20 108.00 33.77 110.23 30.07 110.19 C 31.89 109.27 33.70 108.34 35.56 107.51 C 36.53 107.25 37.51 106.98 38.48 106.71 C 38.98 105.44 39.47 104.18 39.98 102.92 Z" />
<path fill="#d1d4c9" opacity="1.00" d=" M 46.48 140.65 C 48.91 143.21 49.70 146.85 48.69 150.22 C 48.64 148.45 48.57 146.68 48.49 144.92 C 46.00 146.85 43.40 148.77 40.36 149.76 C 38.92 149.68 37.49 149.59 36.06 149.49 C 37.45 149.12 38.85 148.76 40.24 148.36 C 42.10 147.65 44.10 146.95 45.43 145.41 C 45.95 143.86 46.16 142.24 46.48 140.65 Z" />
</g>
<g id="#60d056ff">
<path fill="#60d056" opacity="1.00" d=" M 58.70 93.96 C 65.42 93.78 72.00 95.48 78.70 95.50 L 79.15 96.26 L 78.92 95.96 C 79.87 97.58 80.80 99.21 81.77 100.81 C 79.71 100.99 77.66 101.17 75.61 101.37 C 71.64 99.45 67.45 97.99 63.12 97.14 C 61.57 96.21 59.47 95.83 58.70 93.96 Z" />
</g>
<g id="#62d658ff">
<path fill="#62d658" opacity="1.00" d=" M 38.67 98.25 C 43.10 96.16 47.89 94.96 52.76 94.45 C 56.08 93.56 59.78 95.21 60.62 98.66 L 60.70 98.88 C 61.30 99.76 61.91 100.62 62.55 101.47 C 60.04 102.45 57.63 103.74 55.76 105.72 C 61.08 106.23 66.41 105.89 71.72 105.61 C 72.10 105.25 72.87 104.54 73.25 104.19 C 74.00 104.82 74.74 105.47 75.47 106.14 C 66.42 106.85 57.18 107.40 48.28 105.25 C 47.26 104.65 46.27 104.03 45.27 103.41 C 46.65 103.00 48.03 102.60 49.41 102.18 C 48.26 101.41 47.10 100.63 45.94 99.87 C 43.61 100.54 41.15 100.58 38.79 100.00 C 38.76 99.56 38.70 98.69 38.67 98.25 Z" />
</g>
<g id="#57b553ff">
<path fill="#57b553" opacity="1.00" d=" M 3.00 97.08 C 11.85 97.17 20.73 97.38 29.54 96.30 L 29.17 98.49 C 26.19 99.65 22.95 99.34 19.83 99.35 C 19.19 99.34 17.91 99.33 17.27 99.32 C 12.51 99.34 7.74 99.21 2.98 98.97 C 2.98 98.50 2.99 97.55 3.00 97.08 Z" />
</g>
<g id="#21a81eff">
<path fill="#21a81e" opacity="1.00" d=" M 83.93 97.84 C 86.53 98.42 88.71 99.92 90.36 101.97 C 93.55 103.39 95.89 106.52 95.01 110.15 C 94.46 109.23 93.93 108.31 93.35 107.41 C 92.66 106.53 91.94 105.69 91.19 104.88 C 90.64 104.59 89.55 104.00 89.01 103.71 C 88.58 103.56 87.73 103.26 87.31 103.10 C 87.35 102.66 87.42 101.78 87.46 101.33 C 86.26 100.19 85.08 99.03 83.93 97.84 Z" />
<path fill="#21a81e" opacity="1.00" d=" M 81.16 107.41 C 82.73 107.64 84.29 107.88 85.85 108.19 L 85.98 108.37 C 85.80 109.97 85.62 111.58 85.44 113.19 C 82.95 112.82 80.44 112.65 77.92 112.59 C 72.16 112.82 66.38 113.01 60.62 112.50 L 61.24 112.45 C 62.28 112.33 63.32 112.19 64.35 112.03 C 69.22 112.16 74.09 111.93 78.93 111.37 C 80.95 111.53 82.96 111.63 84.98 111.71 C 84.60 110.88 84.21 110.07 83.83 109.25 C 83.37 109.69 82.45 110.57 81.99 111.01 C 81.71 109.81 81.44 108.61 81.16 107.41 Z" />
<path fill="#21a81e" opacity="1.00" d=" M 65.05 145.04 C 66.26 143.90 67.73 143.10 69.15 142.25 C 71.08 144.57 72.68 147.27 72.59 150.40 C 69.15 150.69 66.64 147.70 65.05 145.04 Z" />
</g>
<g id="#4baa44ff">
<path fill="#4baa44" opacity="1.00" d=" M 2.98 98.97 C 7.74 99.21 12.51 99.34 17.27 99.32 C 16.91 100.84 16.54 102.35 16.18 103.87 C 12.10 104.14 7.93 103.62 3.94 104.65 C 1.98 103.97 3.35 100.66 2.98 98.97 Z" />
</g>
<g id="#50ae5eff">
<path fill="#50ae5e" opacity="1.00" d=" M 17.27 99.32 C 17.91 99.33 19.19 99.34 19.83 99.35 C 20.28 100.85 20.72 102.36 21.15 103.87 C 19.49 103.80 17.83 103.83 16.18 103.87 C 16.54 102.35 16.91 100.84 17.27 99.32 Z" />
</g>
<g id="#53d446ff">
<path fill="#53d446" opacity="1.00" d=" M 38.79 100.00 C 41.15 100.58 43.61 100.54 45.94 99.87 C 47.10 100.63 48.26 101.41 49.41 102.18 C 48.03 102.60 46.65 103.00 45.27 103.41 C 46.27 104.03 47.26 104.65 48.28 105.25 C 46.02 104.84 43.75 104.48 41.52 103.92 C 41.13 103.67 40.37 103.17 39.98 102.92 C 39.70 102.72 39.15 102.33 38.87 102.13 C 38.85 101.60 38.81 100.53 38.79 100.00 Z" />
</g>
<g id="#33283aff">
<path fill="#33283a" opacity="1.00" d=" M 37.44 102.59 C 37.80 102.47 38.51 102.25 38.87 102.13 C 39.15 102.33 39.70 102.72 39.98 102.92 C 39.47 104.18 38.98 105.44 38.48 106.71 C 37.51 106.98 36.53 107.25 35.56 107.51 C 30.75 107.24 25.97 108.89 21.21 107.75 C 17.73 107.08 14.17 107.10 10.65 107.35 C 7.87 107.47 5.09 107.54 2.31 107.41 C 3.06 106.24 4.32 105.65 5.68 105.53 C 11.57 105.22 17.56 106.56 23.36 105.20 L 24.41 105.06 C 28.85 104.86 33.25 104.11 37.44 102.59 Z" />
</g>
<g id="#5ee45cff">
<path fill="#5ee45c" opacity="1.00" d=" M 3.94 104.65 C 7.93 103.62 12.10 104.14 16.18 103.87 C 17.83 103.83 19.49 103.80 21.15 103.87 C 22.24 104.25 23.33 104.65 24.41 105.06 L 23.36 105.20 C 17.23 105.11 11.08 105.74 4.95 105.25 C 4.69 105.10 4.19 104.80 3.94 104.65 Z" />
</g>
<g id="#273a24ff">
<path fill="#273a24" opacity="1.00" d=" M 91.19 104.88 C 89.83 107.03 85.55 105.01 89.01 103.71 C 89.55 104.00 90.64 104.59 91.19 104.88 Z" />
</g>
<g id="#2d3036ff">
<path fill="#2d3036" opacity="1.00" d=" M 2.31 107.41 C 5.09 107.54 7.87 107.47 10.65 107.35 C 12.93 107.59 15.18 108.06 17.41 108.57 C 12.70 109.00 7.96 109.27 3.24 108.86 L 2.31 107.41 Z" />
</g>
<g id="#565a66ff">
<path fill="#565a66" opacity="1.00" d=" M 10.65 107.35 C 14.17 107.10 17.73 107.08 21.21 107.75 C 25.97 108.89 30.75 107.24 35.56 107.51 C 33.70 108.34 31.89 109.27 30.07 110.19 C 28.10 109.71 26.07 109.49 24.05 109.81 C 17.07 110.78 10.02 110.23 3.02 109.91 L 3.24 108.86 C 7.96 109.27 12.70 109.00 17.41 108.57 C 15.18 108.06 12.93 107.59 10.65 107.35 Z" />
<path fill="#565a66" opacity="1.00" d=" M 40.18 136.29 C 47.01 138.32 54.00 140.05 61.18 139.85 C 61.62 142.63 60.83 145.37 60.37 148.09 C 57.13 147.93 53.90 147.27 50.66 147.43 C 50.37 147.76 49.78 148.43 49.48 148.77 C 51.30 149.30 53.12 149.80 54.95 150.28 C 53.73 150.56 52.51 150.83 51.30 151.16 C 51.05 153.17 50.97 155.22 50.35 157.17 C 50.23 156.60 49.98 155.46 49.86 154.88 C 49.80 154.18 49.68 152.76 49.62 152.05 C 49.38 151.64 48.90 150.82 48.66 150.41 L 48.69 150.22 C 49.70 146.85 48.91 143.21 46.48 140.65 C 44.32 139.49 42.04 138.57 39.77 137.67 L 40.18 136.29 Z" />
</g>
<g id="#60605eff">
<path fill="#60605e" opacity="1.00" d=" M 91.17 107.36 C 91.90 107.38 92.63 107.39 93.35 107.41 C 93.93 108.31 94.46 109.23 95.01 110.15 C 94.46 111.20 93.87 112.23 93.28 113.27 C 92.41 112.35 91.43 111.55 90.35 110.88 C 90.02 110.48 89.70 110.08 89.39 109.67 C 89.98 108.90 90.58 108.13 91.17 107.36 Z" />
<path fill="#60605e" opacity="1.00" d=" M 30.75 112.92 C 32.39 110.71 35.58 111.14 37.99 110.53 C 37.89 112.84 37.79 115.15 37.66 117.47 L 37.44 117.35 L 37.25 117.24 C 34.93 117.06 32.60 117.00 30.27 116.96 C 30.38 115.61 30.44 114.25 30.75 112.92 Z" />
</g>
<g id="#25242aff">
<path fill="#25242a" opacity="1.00" d=" M 30.07 110.19 C 33.77 110.23 37.20 108.00 40.79 108.23 L 41.08 108.58 C 40.75 108.91 40.09 109.57 39.76 109.90 L 39.29 110.43 C 39.09 113.08 39.17 115.74 39.22 118.40 C 38.83 118.17 38.05 117.70 37.66 117.47 C 37.79 115.15 37.89 112.84 37.99 110.53 C 35.58 111.14 32.39 110.71 30.75 112.92 C 30.44 114.25 30.38 115.61 30.27 116.96 C 32.60 117.00 34.93 117.06 37.25 117.24 L 37.44 117.35 C 37.06 118.67 36.62 119.97 36.18 121.28 C 37.41 120.63 38.63 119.98 39.86 119.33 C 39.74 123.24 40.48 127.16 39.98 131.05 C 39.00 131.41 38.00 131.73 36.98 131.99 C 33.39 132.74 29.78 133.90 26.08 133.25 C 24.47 129.40 24.48 125.22 25.47 121.21 C 28.75 121.70 32.13 121.36 35.06 119.75 C 34.34 119.20 33.62 118.66 32.90 118.12 C 30.88 118.21 28.86 118.40 26.88 118.78 C 27.29 118.60 28.11 118.24 28.52 118.06 C 28.50 117.13 28.49 116.19 28.47 115.26 C 28.59 114.27 28.72 113.27 28.86 112.29 C 26.45 112.14 24.04 111.95 21.64 111.68 C 24.43 111.07 27.25 110.61 30.07 110.19 M 32.64 128.66 C 35.10 131.19 39.10 129.38 39.09 125.89 L 38.43 126.60 C 39.03 124.70 39.01 121.08 36.04 121.80 C 32.68 122.04 32.23 126.04 32.64 128.66 Z" />
</g>
<g id="#303440ff">
<path fill="#303440" opacity="1.00" d=" M 24.05 109.81 C 26.07 109.49 28.10 109.71 30.07 110.19 C 27.25 110.61 24.43 111.07 21.64 111.68 C 24.04 111.95 26.45 112.14 28.86 112.29 C 28.72 113.27 28.59 114.27 28.47 115.26 C 28.41 114.58 28.29 113.22 28.23 112.54 C 26.76 112.56 25.29 112.63 23.81 112.73 C 23.13 112.78 21.77 112.89 21.08 112.94 C 20.39 112.98 19.01 113.07 18.31 113.11 C 17.80 113.13 16.76 113.17 16.24 113.19 C 15.45 113.19 13.88 113.17 13.10 113.16 C 9.74 113.10 6.39 113.04 3.03 112.94 C 3.03 112.19 3.02 110.67 3.02 109.91 C 10.02 110.23 17.07 110.78 24.05 109.81 Z" />
</g>
<g id="#5be651ff">
<path fill="#5be651" opacity="1.00" d=" M 41.89 108.31 C 51.93 109.55 62.07 110.05 72.18 110.13 C 69.49 110.36 66.89 111.13 64.35 112.03 C 63.32 112.19 62.28 112.33 61.24 112.45 C 55.12 111.83 48.83 111.44 42.93 109.63 L 41.89 108.31 Z" />
</g>
<g id="#4f5158ff">
<path fill="#4f5158" opacity="1.00" d=" M 85.98 108.37 C 87.30 110.29 88.33 112.39 89.34 114.50 C 88.04 114.04 86.75 113.60 85.44 113.19 C 85.62 111.58 85.80 109.97 85.98 108.37 Z" />
</g>
<g id="#b5b4b9ff">
<path fill="#b5b4b9" opacity="1.00" d=" M 39.29 110.43 L 39.76 109.90 C 39.75 111.63 39.74 113.36 39.81 115.10 C 40.60 120.13 41.02 125.21 40.91 130.31 L 40.93 131.00 C 41.65 131.03 43.09 131.09 43.80 131.12 C 44.41 130.96 45.62 130.65 46.22 130.49 C 46.68 130.34 47.59 130.04 48.05 129.88 C 48.37 129.76 49.01 129.51 49.33 129.38 C 49.77 129.29 50.65 129.09 51.09 128.99 C 53.59 128.64 56.89 126.51 58.94 128.14 L 59.32 128.65 C 52.70 129.53 46.53 132.30 39.88 133.03 C 39.95 133.66 40.09 134.92 40.16 135.54 C 46.31 137.79 52.87 138.09 59.33 138.51 C 59.64 138.62 60.26 138.85 60.57 138.96 L 61.18 139.85 C 54.00 140.05 47.01 138.32 40.18 136.29 L 39.77 137.67 C 39.47 138.80 39.23 139.95 39.04 141.11 L 38.36 140.71 C 38.19 140.61 37.87 140.42 37.71 140.33 C 38.78 137.90 38.93 135.25 38.79 132.63 C 38.33 132.47 37.43 132.15 36.98 131.99 C 38.00 131.73 39.00 131.41 39.98 131.05 C 40.48 127.16 39.74 123.24 39.86 119.33 C 38.63 119.98 37.41 120.63 36.18 121.28 C 36.62 119.97 37.06 118.67 37.44 117.35 L 37.66 117.47 C 38.05 117.70 38.83 118.17 39.22 118.40 C 39.17 115.74 39.09 113.08 39.29 110.43 Z" />
<path fill="#b5b4b9" opacity="1.00" d=" M 13.10 113.16 C 13.88 113.17 15.45 113.19 16.24 113.19 L 15.72 113.46 C 15.35 113.69 14.61 114.17 14.24 114.40 C 13.77 119.54 13.57 124.80 14.40 129.90 C 14.78 130.41 15.53 131.42 15.91 131.92 C 16.06 137.88 15.18 143.86 16.21 149.78 C 15.73 149.74 14.76 149.65 14.28 149.60 C 12.43 137.56 14.07 125.28 13.10 113.16 Z" />
</g>
<g id="#33353cff">
<path fill="#33353c" opacity="1.00" d=" M 39.76 109.90 C 46.57 111.64 53.59 112.54 60.62 112.50 C 66.38 113.01 72.16 112.82 77.92 112.59 C 78.51 113.77 79.10 114.95 79.69 116.14 C 79.41 118.33 79.11 120.51 78.72 122.69 C 78.05 121.02 77.55 119.30 77.18 117.54 C 69.74 117.09 62.50 114.56 54.99 115.36 C 49.94 115.89 44.80 116.41 39.81 115.10 C 39.74 113.36 39.75 111.63 39.76 109.90 Z" />
<path fill="#33353c" opacity="1.00" d=" M 102.04 127.65 L 102.82 127.13 L 103.75 126.47 C 103.84 127.79 103.96 129.12 104.09 130.44 C 105.48 132.18 106.63 134.09 107.33 136.21 C 107.07 135.90 106.54 135.29 106.28 134.99 C 104.50 132.77 103.24 130.21 102.04 127.65 Z" />
</g>
<g id="#86ed80ff">
<path fill="#86ed80" opacity="1.00" d=" M 72.18 110.13 C 74.51 110.04 77.17 109.39 78.93 111.37 C 74.09 111.93 69.22 112.16 64.35 112.03 C 66.89 111.13 69.49 110.36 72.18 110.13 Z" />
</g>
<g id="#b4b4b4ff">
<path fill="#b4b4b4" opacity="1.00" d=" M 90.35 110.88 C 91.43 111.55 92.41 112.35 93.28 113.27 C 95.09 116.51 96.80 119.83 98.89 122.91 C 99.46 123.68 100.06 124.44 100.67 125.20 C 101.01 125.81 101.70 127.04 102.04 127.65 C 103.24 130.21 104.50 132.77 106.28 134.99 C 106.54 135.29 107.07 135.90 107.33 136.21 C 109.10 141.18 111.52 145.94 114.84 150.06 C 115.93 151.50 117.33 152.96 117.39 154.89 L 116.84 156.79 C 108.07 141.45 99.04 126.26 90.35 110.88 Z" />
<path fill="#b4b4b4" opacity="1.00" d=" M 38.43 126.60 L 39.09 125.89 C 39.10 129.38 35.10 131.19 32.64 128.66 C 34.89 129.00 37.21 128.79 38.43 126.60 Z" />
<path fill="#b4b4b4" opacity="1.00" d=" M 75.99 164.37 C 80.12 164.31 84.26 164.22 88.38 163.89 C 95.59 164.64 102.87 164.55 110.02 165.76 C 112.77 166.25 115.56 166.27 118.34 166.23 C 118.57 166.65 119.03 167.49 119.26 167.91 C 118.50 167.82 116.97 167.62 116.21 167.52 C 114.67 168.22 113.13 168.89 111.55 169.47 C 110.52 168.64 109.33 167.99 107.98 167.93 C 102.77 167.24 97.49 167.26 92.27 166.58 C 86.89 165.48 81.33 165.69 75.99 164.37 Z" />
</g>
<g id="#7a7979ff">
<path fill="#7a7979" opacity="1.00" d=" M 3.03 112.94 C 6.39 113.04 9.74 113.10 13.10 113.16 C 14.07 125.28 12.43 137.56 14.28 149.60 L 13.04 149.41 C 10.49 146.58 6.42 147.46 3.03 147.13 C 2.99 135.74 3.03 124.34 3.03 112.94 Z" />
<path fill="#7a7979" opacity="1.00" d=" M 32.90 118.12 C 33.62 118.66 34.34 119.20 35.06 119.75 C 32.13 121.36 28.75 121.70 25.47 121.21 C 27.86 119.96 31.24 120.54 32.90 118.12 Z" />
</g>
<g id="#8c8c91ff">
<path fill="#8c8c91" opacity="1.00" d=" M 16.24 113.19 C 16.76 113.17 17.80 113.13 18.31 113.11 C 19.04 120.72 17.90 128.42 19.26 135.97 C 19.96 140.43 19.38 144.96 19.84 149.44 C 21.14 143.72 19.84 137.78 20.77 132.00 C 21.81 125.68 21.03 119.29 21.08 112.94 C 21.77 112.89 23.13 112.78 23.81 112.73 C 23.34 115.18 23.58 117.67 23.97 120.11 C 23.75 120.45 23.31 121.12 23.09 121.46 C 22.85 125.25 22.32 129.29 23.81 132.90 C 23.98 138.60 24.80 144.34 23.44 149.98 C 21.03 149.88 18.62 149.86 16.21 149.78 C 15.18 143.86 16.06 137.88 15.91 131.92 C 15.99 125.77 16.14 119.61 15.72 113.46 L 16.24 113.19 Z" />
<path fill="#8c8c91" opacity="1.00" d=" M 10.19 158.61 C 10.42 158.66 10.89 158.77 11.12 158.82 C 11.51 159.38 12.29 160.51 12.69 161.07 C 11.85 162.69 11.02 164.33 10.20 165.96 C 9.98 165.23 9.75 164.49 9.53 163.76 C 8.67 163.17 7.82 162.59 6.95 162.02 C 8.64 161.64 10.32 161.26 12.00 160.86 C 11.55 160.30 10.64 159.17 10.19 158.61 Z" />
</g>
<g id="#747174ff">
<path fill="#747174" opacity="1.00" d=" M 23.81 112.73 C 25.29 112.63 26.76 112.56 28.23 112.54 C 28.29 113.22 28.41 114.58 28.47 115.26 C 28.49 116.19 28.50 117.13 28.52 118.06 C 28.11 118.24 27.29 118.60 26.88 118.78 C 25.90 119.20 24.93 119.64 23.97 120.11 C 23.58 117.67 23.34 115.18 23.81 112.73 Z" />
</g>
<g id="#201b2fff">
<path fill="#201b2f" opacity="1.00" d=" M 77.92 112.59 C 80.44 112.65 82.95 112.82 85.44 113.19 C 86.75 113.60 88.04 114.04 89.34 114.50 C 89.40 114.61 89.52 114.85 89.58 114.96 C 89.40 115.41 89.06 116.29 88.88 116.74 C 88.80 117.03 88.62 117.62 88.53 117.91 C 88.04 117.85 87.07 117.74 86.58 117.68 C 86.77 116.85 86.97 116.01 87.17 115.18 C 84.70 115.69 82.20 116.00 79.69 116.14 C 79.10 114.95 78.51 113.77 77.92 112.59 Z" />
<path fill="#201b2f" opacity="1.00" d=" M 49.33 129.38 C 49.74 127.72 50.33 127.59 51.09 128.99 C 50.65 129.09 49.77 129.29 49.33 129.38 Z" />
<path fill="#201b2f" opacity="1.00" d=" M 46.22 130.49 C 43.90 129.10 47.42 127.94 48.05 129.88 C 47.59 130.04 46.68 130.34 46.22 130.49 Z" />
</g>
<g id="#d3d2d7ff">
<path fill="#d3d2d7" opacity="1.00" d=" M 14.24 114.40 C 14.61 114.17 15.35 113.69 15.72 113.46 C 16.14 119.61 15.99 125.77 15.91 131.92 C 15.53 131.42 14.78 130.41 14.40 129.90 C 13.57 124.80 13.77 119.54 14.24 114.40 Z" />
</g>
<g id="#4b4e58ff">
<path fill="#4b4e58" opacity="1.00" d=" M 39.81 115.10 C 44.80 116.41 49.94 115.89 54.99 115.36 C 62.50 114.56 69.74 117.09 77.18 117.54 C 77.55 119.30 78.05 121.02 78.72 122.69 C 79.11 120.51 79.41 118.33 79.69 116.14 C 82.20 116.00 84.70 115.69 87.17 115.18 C 86.97 116.01 86.77 116.85 86.58 117.68 C 87.07 117.74 88.04 117.85 88.53 117.91 C 88.44 120.30 88.46 122.70 88.47 125.10 C 90.29 125.14 92.14 124.96 93.92 125.38 C 94.92 126.04 95.87 126.78 96.77 127.58 C 94.87 127.93 92.96 128.33 91.03 128.35 C 91.52 128.02 92.50 127.35 92.99 127.02 C 91.68 126.65 90.37 126.65 89.04 127.03 C 88.44 126.92 87.23 126.71 86.63 126.60 C 86.63 127.29 86.63 128.68 86.63 129.38 C 84.78 128.98 82.92 128.46 81.01 128.58 C 80.56 129.46 80.20 130.38 79.83 131.30 C 79.12 130.49 78.38 129.72 77.61 128.98 C 80.42 127.91 83.55 127.66 86.21 126.21 C 88.07 125.14 86.98 122.89 86.94 121.23 C 86.59 121.04 85.89 120.67 85.54 120.48 C 84.80 119.46 84.11 118.41 83.38 117.38 C 82.91 117.29 81.99 117.10 81.53 117.01 C 81.23 117.02 80.63 117.03 80.33 117.04 C 79.56 118.52 79.31 120.67 80.54 121.98 C 81.28 122.70 82.05 123.41 82.81 124.12 C 79.83 125.08 76.99 126.39 74.15 127.71 L 74.12 127.70 C 74.00 125.04 70.92 124.80 69.90 127.08 C 66.72 127.21 63.50 126.91 60.37 127.60 C 63.64 128.07 66.97 127.96 70.25 128.37 C 66.61 128.50 62.95 129.29 59.32 128.65 L 58.94 128.14 C 56.89 126.51 53.59 128.64 51.09 128.99 C 50.33 127.59 49.74 127.72 49.33 129.38 C 49.01 129.51 48.37 129.76 48.05 129.88 C 47.42 127.94 43.90 129.10 46.22 130.49 C 45.62 130.65 44.41 130.96 43.80 131.12 C 43.12 129.96 42.16 129.69 40.91 130.31 C 41.02 125.21 40.60 120.13 39.81 115.10 Z" />
</g>
<g id="#9d9fa4ff">
<path fill="#9d9fa4" opacity="1.00" d=" M 80.33 117.04 C 80.63 117.03 81.23 117.02 81.53 117.01 C 81.42 118.70 81.04 120.36 80.54 121.98 C 79.31 120.67 79.56 118.52 80.33 117.04 Z" />
</g>
<g id="#6e7778ff">
<path fill="#6e7778" opacity="1.00" d=" M 81.53 117.01 C 81.99 117.10 82.91 117.29 83.38 117.38 C 84.11 118.41 84.80 119.46 85.54 120.48 C 83.87 120.97 82.21 121.48 80.54 121.98 C 81.04 120.36 81.42 118.70 81.53 117.01 Z" />
</g>
<g id="#0a090bff">
<path fill="#0a090b" opacity="1.00" d=" M 26.88 118.78 C 28.86 118.40 30.88 118.21 32.90 118.12 C 31.24 120.54 27.86 119.96 25.47 121.21 C 24.48 125.22 24.47 129.40 26.08 133.25 C 25.51 133.16 24.38 132.99 23.81 132.90 C 22.32 129.29 22.85 125.25 23.09 121.46 C 23.31 121.12 23.75 120.45 23.97 120.11 C 24.93 119.64 25.90 119.20 26.88 118.78 Z" />
</g>
<g id="#2e2c34ff">
<path fill="#2e2c34" opacity="1.00" d=" M 80.54 121.98 C 82.21 121.48 83.87 120.97 85.54 120.48 C 85.89 120.67 86.59 121.04 86.94 121.23 C 86.98 122.89 88.07 125.14 86.21 126.21 C 83.55 127.66 80.42 127.91 77.61 128.98 C 76.46 128.53 75.31 128.11 74.15 127.71 C 76.99 126.39 79.83 125.08 82.81 124.12 C 82.05 123.41 81.28 122.70 80.54 121.98 Z" />
</g>
<g id="#08080aff">
<path fill="#08080a" opacity="1.00" d=" M 32.64 128.66 C 32.23 126.04 32.68 122.04 36.04 121.80 C 39.01 121.08 39.03 124.70 38.43 126.60 C 37.21 128.79 34.89 129.00 32.64 128.66 Z" />
<path fill="#08080a" opacity="1.00" d=" M 69.90 127.08 C 70.92 124.80 74.00 125.04 74.12 127.70 C 72.70 127.59 71.29 127.39 69.90 127.08 Z" />
<path fill="#08080a" opacity="1.00" d=" M 78.15 131.17 C 78.88 132.15 79.61 133.14 80.33 134.14 C 80.53 133.85 80.93 133.26 81.14 132.97 C 81.66 133.05 82.72 133.20 83.24 133.28 C 82.59 134.54 81.92 135.79 81.25 137.04 C 79.48 135.51 78.25 133.56 78.15 131.17 Z" />
<path fill="#08080a" opacity="1.00" d=" M 81.53 153.27 C 88.99 151.52 96.33 149.37 103.56 146.81 L 102.62 147.74 C 97.65 151.18 91.62 152.44 85.89 154.02 C 81.59 155.14 77.31 156.39 72.91 156.99 C 72.76 156.60 72.48 155.84 72.34 155.46 C 73.34 154.78 74.34 154.11 75.35 153.44 C 77.38 154.40 79.51 154.00 81.53 153.27 Z" />
<path fill="#08080a" opacity="1.00" d=" M 48.66 150.41 C 48.90 150.82 49.38 151.64 49.62 152.05 C 48.01 152.36 48.48 154.59 49.86 154.88 C 49.98 155.46 50.23 156.60 50.35 157.17 C 50.19 157.68 49.88 158.68 49.72 159.19 C 48.68 158.92 47.76 158.40 46.98 157.63 C 45.98 158.27 44.97 158.87 43.93 159.45 C 44.12 158.97 44.49 158.01 44.68 157.52 C 47.63 156.35 48.05 153.14 48.66 150.41 Z" />
</g>
<g id="#73db7dff">
<path fill="#73db7d" opacity="1.00" d=" M 98.89 122.91 C 100.67 123.12 102.44 123.44 104.17 123.92 C 104.07 124.55 103.85 125.83 103.75 126.47 L 102.82 127.13 C 103.17 125.45 102.45 124.80 100.67 125.20 C 100.06 124.44 99.46 123.68 98.89 122.91 Z" />
</g>
<g id="#1fa720ff">
<path fill="#1fa720" opacity="1.00" d=" M 100.67 125.20 C 102.45 124.80 103.17 125.45 102.82 127.13 L 102.04 127.65 C 101.70 127.04 101.01 125.81 100.67 125.20 Z" />
</g>
<g id="#79808cff">
<path fill="#79808c" opacity="1.00" d=" M 86.63 126.60 C 87.23 126.71 88.44 126.92 89.04 127.03 C 89.53 127.36 90.53 128.02 91.03 128.35 C 92.96 128.33 94.87 127.93 96.77 127.58 C 97.93 129.25 99.02 130.98 100.17 132.67 C 94.79 132.84 89.09 131.42 84.05 134.01 C 83.58 135.32 83.10 136.63 82.62 137.94 C 77.03 137.78 72.41 133.96 66.85 133.77 C 70.12 131.80 73.91 131.01 77.66 130.59 C 77.78 130.73 78.03 131.03 78.15 131.17 C 78.25 133.56 79.48 135.51 81.25 137.04 C 81.92 135.79 82.59 134.54 83.24 133.28 C 82.72 133.20 81.66 133.05 81.14 132.97 C 80.81 132.55 80.15 131.71 79.83 131.30 C 80.20 130.38 80.56 129.46 81.01 128.58 C 82.92 128.46 84.78 128.98 86.63 129.38 C 86.63 128.68 86.63 127.29 86.63 126.60 Z" />
</g>
<g id="#babdc4ff">
<path fill="#babdc4" opacity="1.00" d=" M 89.04 127.03 C 90.37 126.65 91.68 126.65 92.99 127.02 C 92.50 127.35 91.52 128.02 91.03 128.35 C 90.53 128.02 89.53 127.36 89.04 127.03 Z" />
</g>
<g id="#313031ff">
<path fill="#313031" opacity="1.00" d=" M 70.25 128.37 C 72.84 128.61 75.36 129.37 77.66 130.59 C 73.91 131.01 70.12 131.80 66.85 133.77 C 65.38 134.91 64.26 136.40 63.13 137.84 C 64.11 139.41 62.61 140.43 61.56 141.36 C 62.62 141.16 63.68 140.97 64.73 140.77 C 60.18 145.27 63.14 153.69 69.05 155.02 C 72.79 154.43 73.50 149.88 75.78 147.44 C 75.35 142.17 70.92 137.33 65.44 137.44 L 65.32 139.16 C 67.26 139.51 69.34 139.77 70.79 141.27 C 68.80 141.06 66.81 140.88 64.82 140.81 C 64.85 139.27 64.87 137.73 64.89 136.19 C 67.08 136.24 69.33 136.04 71.46 136.64 C 74.32 138.26 76.45 141.11 76.99 144.39 L 77.12 144.89 C 77.15 147.58 77.04 150.26 76.94 152.95 C 78.48 152.93 80.02 152.97 81.53 153.27 C 79.51 154.00 77.38 154.40 75.35 153.44 C 74.34 154.11 73.34 154.78 72.34 155.46 C 72.48 155.84 72.76 156.60 72.91 156.99 C 65.17 157.40 58.57 152.85 51.30 151.16 C 52.51 150.83 53.73 150.56 54.95 150.28 C 53.12 149.80 51.30 149.30 49.48 148.77 C 49.78 148.43 50.37 147.76 50.66 147.43 C 53.90 147.27 57.13 147.93 60.37 148.09 C 60.83 145.37 61.62 142.63 61.18 139.85 L 60.57 138.96 C 61.95 136.40 63.88 134.23 65.70 131.99 C 65.89 130.01 63.40 130.22 62.08 130.07 C 55.31 129.84 49.01 132.80 42.63 134.66 C 45.40 135.40 48.23 135.82 51.08 136.02 C 53.83 136.86 56.61 137.59 59.33 138.51 C 52.87 138.09 46.31 137.79 40.16 135.54 C 40.09 134.92 39.95 133.66 39.88 133.03 C 46.53 132.30 52.70 129.53 59.32 128.65 C 62.95 129.29 66.61 128.50 70.25 128.37 Z" />
</g>
<g id="#50525eff">
<path fill="#50525e" opacity="1.00" d=" M 42.63 134.66 C 49.01 132.80 55.31 129.84 62.08 130.07 C 63.40 130.22 65.89 130.01 65.70 131.99 C 63.88 134.23 61.95 136.40 60.57 138.96 C 60.26 138.85 59.64 138.62 59.33 138.51 C 56.61 137.59 53.83 136.86 51.08 136.02 C 48.23 135.82 45.40 135.40 42.63 134.66 Z" />
</g>
<g id="#6f6e6dff">
<path fill="#6f6e6d" opacity="1.00" d=" M 26.08 133.25 C 29.78 133.90 33.39 132.74 36.98 131.99 C 37.43 132.15 38.33 132.47 38.79 132.63 C 38.93 135.25 38.78 137.90 37.71 140.33 C 37.87 140.42 38.19 140.61 38.36 140.71 C 37.08 141.30 36.65 142.76 36.34 144.01 C 35.78 144.28 34.65 144.83 34.09 145.11 C 31.16 146.26 28.12 147.07 25.11 147.97 C 24.79 148.39 24.16 149.23 23.85 149.65 L 23.44 149.98 C 24.80 144.34 23.98 138.60 23.81 132.90 C 24.38 132.99 25.51 133.16 26.08 133.25 Z" />
</g>
<g id="#a5a9b2ff">
<path fill="#a5a9b2" opacity="1.00" d=" M 84.05 134.01 C 89.09 131.42 94.79 132.84 100.17 132.67 C 100.55 133.25 101.31 134.40 101.69 134.98 C 93.43 134.25 85.92 138.17 79.03 142.20 C 80.40 142.69 81.77 143.18 83.14 143.68 C 81.21 144.63 79.06 144.45 76.99 144.39 C 76.45 141.11 74.32 138.26 71.46 136.64 C 69.33 136.04 67.08 136.24 64.89 136.19 C 64.87 137.73 64.85 139.27 64.82 140.81 C 66.81 140.88 68.80 141.06 70.79 141.27 L 70.55 141.84 L 71.05 142.17 L 71.31 142.76 L 71.94 142.63 C 71.78 144.02 71.90 146.82 73.76 146.79 C 74.59 145.15 72.94 143.72 71.94 142.63 L 71.60 142.10 L 71.05 142.17 C 70.99 141.94 70.86 141.50 70.79 141.27 C 69.34 139.77 67.26 139.51 65.32 139.16 L 65.44 137.44 C 70.92 137.33 75.35 142.17 75.78 147.44 C 73.50 149.88 72.79 154.43 69.05 155.02 C 63.14 153.69 60.18 145.27 64.73 140.77 C 63.68 140.97 62.62 141.16 61.56 141.36 C 62.61 140.43 64.11 139.41 63.13 137.84 C 64.26 136.40 65.38 134.91 66.85 133.77 C 72.41 133.96 77.03 137.78 82.62 137.94 C 83.10 136.63 83.58 135.32 84.05 134.01 M 65.06 143.10 C 62.21 146.72 65.10 152.11 68.94 153.71 C 69.41 153.51 70.37 153.11 70.84 152.91 C 71.42 152.07 72.00 151.23 72.59 150.40 C 72.68 147.27 71.08 144.57 69.15 142.25 C 67.71 142.17 65.96 141.56 65.06 143.10 Z" />
</g>
<g id="#cecfd3ff">
<path fill="#cecfd3" opacity="1.00" d=" M 79.03 142.20 C 85.92 138.17 93.43 134.25 101.69 134.98 C 97.27 140.80 88.98 140.03 83.14 143.68 C 81.77 143.18 80.40 142.69 79.03 142.20 Z" />
</g>
<g id="#797b83ff">
<path fill="#797b83" opacity="1.00" d=" M 101.69 134.98 C 102.30 136.02 102.87 137.09 103.45 138.15 C 102.49 139.56 101.79 141.29 100.24 142.18 C 93.58 146.24 85.41 146.20 78.52 149.64 C 78.04 148.06 77.56 146.48 77.12 144.89 L 76.99 144.39 C 79.06 144.45 81.21 144.63 83.14 143.68 C 88.98 140.03 97.27 140.80 101.69 134.98 Z" />
</g>
<g id="#7bb37cff">
<path fill="#7bb37c" opacity="1.00" d=" M 39.77 137.67 C 42.04 138.57 44.32 139.49 46.48 140.65 C 46.16 142.24 45.95 143.86 45.43 145.41 C 44.10 146.95 42.10 147.65 40.24 148.36 C 40.22 146.75 40.20 145.15 40.18 143.55 C 39.18 144.45 38.19 145.38 37.18 146.27 C 36.41 145.98 34.86 145.40 34.09 145.11 C 34.65 144.83 35.78 144.28 36.34 144.01 C 37.32 143.55 38.28 143.05 39.22 142.49 L 39.44 142.36 C 39.41 142.27 39.35 142.07 39.32 141.98 L 39.04 141.11 C 39.23 139.95 39.47 138.80 39.77 137.67 Z" />
</g>
<g id="#4b4d55ff">
<path fill="#4b4d55" opacity="1.00" d=" M 103.45 138.15 C 104.46 140.04 105.51 141.91 106.56 143.78 C 105.56 144.79 104.57 145.81 103.56 146.81 C 96.33 149.37 88.99 151.52 81.53 153.27 C 80.02 152.97 78.48 152.93 76.94 152.95 C 77.04 150.26 77.15 147.58 77.12 144.89 C 77.56 146.48 78.04 148.06 78.52 149.64 C 85.41 146.20 93.58 146.24 100.24 142.18 C 101.79 141.29 102.49 139.56 103.45 138.15 Z" />
</g>
<g id="#458b3aff">
<path fill="#458b3a" opacity="1.00" d=" M 38.36 140.71 L 39.04 141.11 L 39.32 141.98 L 39.22 142.49 C 38.28 143.05 37.32 143.55 36.34 144.01 C 36.65 142.76 37.08 141.30 38.36 140.71 Z" />
</g>
<g id="#121f25ff">
<path fill="#121f25" opacity="1.00" d=" M 70.79 141.27 C 70.86 141.50 70.99 141.94 71.05 142.17 L 70.55 141.84 L 70.79 141.27 Z" />
</g>
<g id="#c1e3c2ff">
<path fill="#c1e3c2" opacity="1.00" d=" M 39.32 141.98 C 39.35 142.07 39.41 142.27 39.44 142.36 L 39.22 142.49 L 39.32 141.98 Z" />
</g>
<g id="#1f941bff">
<path fill="#1f941b" opacity="1.00" d=" M 65.06 143.10 C 65.96 141.56 67.71 142.17 69.15 142.25 C 67.73 143.10 66.26 143.90 65.05 145.04 C 66.64 147.70 69.15 150.69 72.59 150.40 C 72.00 151.23 71.42 152.07 70.84 152.91 C 70.37 153.11 69.41 153.51 68.94 153.71 C 65.10 152.11 62.21 146.72 65.06 143.10 Z" />
</g>
<g id="#212322ff">
<path fill="#212322" opacity="1.00" d=" M 71.05 142.17 L 71.60 142.10 L 71.94 142.63 L 71.31 142.76 L 71.05 142.17 Z" />
</g>
<g id="#4a4f5eff">
<path fill="#4a4f5e" opacity="1.00" d=" M 71.94 142.63 C 72.94 143.72 74.59 145.15 73.76 146.79 C 71.90 146.82 71.78 144.02 71.94 142.63 Z" />
</g>
<g id="#5cac53ff">
<path fill="#5cac53" opacity="1.00" d=" M 37.18 146.27 C 38.19 145.38 39.18 144.45 40.18 143.55 C 40.20 145.15 40.22 146.75 40.24 148.36 C 38.85 148.76 37.45 149.12 36.06 149.49 C 37.49 149.59 38.92 149.68 40.36 149.76 C 36.40 151.14 32.15 151.23 28.08 152.16 C 24.32 152.99 20.54 153.79 16.70 154.16 C 17.90 153.58 19.09 152.96 20.24 152.29 C 21.37 151.62 22.41 150.80 23.44 149.98 L 23.85 149.65 C 28.36 149.25 33.81 150.00 37.18 146.27 Z" />
</g>
<g id="#347a31ff">
<path fill="#347a31" opacity="1.00" d=" M 25.11 147.97 C 28.12 147.07 31.16 146.26 34.09 145.11 C 34.86 145.40 36.41 145.98 37.18 146.27 C 33.81 150.00 28.36 149.25 23.85 149.65 C 24.16 149.23 24.79 148.39 25.11 147.97 Z" />
</g>
<g id="#43993fff">
<path fill="#43993f" opacity="1.00" d=" M 40.36 149.76 C 43.40 148.77 46.00 146.85 48.49 144.92 C 48.57 146.68 48.64 148.45 48.69 150.22 L 48.66 150.41 C 48.05 153.14 47.63 156.35 44.68 157.52 C 43.19 158.04 41.70 158.54 40.21 159.06 C 34.89 160.33 29.34 161.01 24.41 163.53 C 24.14 163.58 23.61 163.66 23.34 163.71 C 20.33 163.42 19.07 160.43 16.94 158.74 C 15.00 158.56 13.06 158.77 11.12 158.82 C 10.89 158.77 10.42 158.66 10.19 158.61 C 7.70 157.61 5.26 158.86 2.98 159.81 C 3.00 157.57 3.00 155.33 3.00 153.09 C 7.51 153.91 12.11 154.73 16.70 154.16 C 20.54 153.79 24.32 152.99 28.08 152.16 C 32.15 151.23 36.40 151.14 40.36 149.76 Z" />
</g>
<g id="#407e39ff">
<path fill="#407e39" opacity="1.00" d=" M 3.03 147.13 C 6.42 147.46 10.49 146.58 13.04 149.41 C 9.75 150.22 6.35 150.21 2.99 149.98 C 3.00 149.27 3.02 147.84 3.03 147.13 Z" />
</g>
<g id="#64ae5fff">
<path fill="#64ae5f" opacity="1.00" d=" M 2.99 149.98 C 6.35 150.21 9.75 150.22 13.04 149.41 C 12.40 153.74 17.66 151.94 20.24 152.29 C 19.09 152.96 17.90 153.58 16.70 154.16 C 12.11 154.73 7.51 153.91 3.00 153.09 C 3.00 152.31 2.99 150.76 2.99 149.98 Z" />
</g>
<g id="#91c091ff">
<path fill="#91c091" opacity="1.00" d=" M 13.04 149.41 L 14.28 149.60 C 14.76 149.65 15.73 149.74 16.21 149.78 C 18.62 149.86 21.03 149.88 23.44 149.98 C 22.41 150.80 21.37 151.62 20.24 152.29 C 17.66 151.94 12.40 153.74 13.04 149.41 Z" />
</g>
<g id="#acadb2ff">
<path fill="#acadb2" opacity="1.00" d=" M 49.86 154.88 C 48.48 154.59 48.01 152.36 49.62 152.05 C 49.68 152.76 49.80 154.18 49.86 154.88 Z" />
</g>
<g id="#959694ff">
<path fill="#959694" opacity="1.00" d=" M 40.21 159.06 C 41.70 158.54 43.19 158.04 44.68 157.52 C 44.49 158.01 44.12 158.97 43.93 159.45 C 40.32 161.11 36.55 162.42 32.77 163.66 C 26.62 165.04 20.34 165.77 14.04 165.82 L 14.53 164.57 C 17.46 164.28 20.43 164.23 23.34 163.71 C 23.61 163.66 24.14 163.58 24.41 163.53 C 29.93 163.12 35.24 161.43 40.21 159.06 Z" />
</g>
<g id="#1d1e21ff">
<path fill="#1d1e21" opacity="1.00" d=" M 2.98 159.81 C 5.26 158.86 7.70 157.61 10.19 158.61 C 10.64 159.17 11.55 160.30 12.00 160.86 C 10.32 161.26 8.64 161.64 6.95 162.02 C 7.82 162.59 8.67 163.17 9.53 163.76 C 9.75 164.49 9.98 165.23 10.20 165.96 C 11.02 164.33 11.85 162.69 12.69 161.07 C 12.29 160.51 11.51 159.38 11.12 158.82 C 13.06 158.77 15.00 158.56 16.94 158.74 C 19.07 160.43 20.33 163.42 23.34 163.71 C 20.43 164.23 17.46 164.28 14.53 164.57 L 14.04 165.82 C 13.52 167.49 12.65 169.01 11.31 170.17 C 8.68 169.06 5.84 168.73 3.03 168.44 C 2.98 165.56 3.00 162.69 2.98 159.81 Z" />
</g>
<g id="#d3d3d3ff">
</g>
<g id="#313131ff">
<path fill="#313131" opacity="1.00" d=" M 24.41 163.53 C 29.34 161.01 34.89 160.33 40.21 159.06 C 35.24 161.43 29.93 163.12 24.41 163.53 Z" />
<path fill="#313131" opacity="1.00" d=" M 111.55 169.47 C 113.13 168.89 114.67 168.22 116.21 167.52 C 116.97 167.62 118.50 167.82 119.26 167.91 C 121.27 168.16 123.28 168.40 125.30 168.53 C 121.51 169.97 117.75 171.50 113.97 172.98 C 112.91 172.34 111.86 171.70 110.82 171.05 L 109.81 170.28 L 109.86 170.10 L 111.55 169.47 Z" />
</g>
<g id="#292929ff">
<path fill="#292929" opacity="1.00" d=" M 130.36 163.63 C 134.29 163.47 138.54 161.42 142.13 163.91 C 143.97 164.26 143.89 166.14 144.04 167.60 C 141.31 168.36 138.66 169.37 135.93 170.14 C 134.99 169.78 134.06 169.41 133.14 169.02 C 131.98 170.08 130.49 170.18 128.99 170.11 C 129.14 170.68 129.42 171.83 129.56 172.40 C 128.39 171.83 127.24 171.21 126.09 170.62 C 126.54 171.54 126.91 172.50 127.20 173.49 C 125.89 173.17 124.63 172.72 123.42 172.13 L 123.45 172.44 C 123.74 172.80 124.34 173.52 124.64 173.88 C 122.04 176.15 121.00 172.46 120.69 170.68 C 126.69 170.15 132.16 167.00 137.69 164.75 C 138.91 164.70 140.12 164.62 141.34 164.53 C 140.50 164.24 138.82 163.67 137.98 163.38 C 135.08 164.65 132.12 165.75 129.18 166.93 C 129.45 165.88 128.69 163.68 130.36 163.63 M 138.16 167.29 C 138.68 167.85 138.68 167.85 138.16 167.29 M 135.27 168.28 C 135.82 168.79 135.82 168.79 135.27 168.28 Z" />
</g>
<g id="#545454ff">
<path fill="#545454" opacity="1.00" d=" M 121.25 161.99 C 122.51 164.71 125.01 164.71 127.48 164.49 C 127.63 165.55 127.79 166.62 127.95 167.69 L 127.57 167.74 C 125.30 167.01 122.96 166.47 120.58 166.35 C 120.64 165.95 120.77 165.13 120.83 164.72 C 120.94 164.04 121.15 162.67 121.25 161.99 Z" />
</g>
<g id="#979797ff">
<path fill="#979797" opacity="1.00" d=" M 138.16 167.29 C 138.68 167.85 138.68 167.85 138.16 167.29 Z" />
</g>
<g id="#7d7d7dff">
<path fill="#7d7d7d" opacity="1.00" d=" M 135.27 168.28 C 135.82 168.79 135.82 168.79 135.27 168.28 Z" />
</g>
<g id="#6e6e6eff">
<path fill="#6e6e6e" opacity="1.00" d=" M 128.99 170.11 C 130.49 170.18 131.98 170.08 133.14 169.02 C 134.06 169.41 134.99 169.78 135.93 170.14 C 133.85 171.00 131.70 171.69 129.56 172.40 C 129.42 171.83 129.14 170.68 128.99 170.11 Z" />
</g>
<g id="#b5b5b5ff">
<path fill="#b5b5b5" opacity="1.00" d=" M 106.35 172.88 C 106.75 171.25 108.53 170.73 109.86 170.10 L 109.81 170.28 C 109.36 171.67 108.90 173.06 108.44 174.46 C 107.92 174.06 106.88 173.28 106.35 172.88 Z" />
</g>
<g id="#131313ff">
<path fill="#131313" opacity="1.00" d=" M 108.44 174.46 C 108.90 173.06 109.36 171.67 109.81 170.28 L 110.82 171.05 C 111.91 171.91 113.01 172.77 114.11 173.63 C 115.63 173.09 117.15 172.56 118.69 172.07 C 119.73 173.13 120.75 174.20 121.76 175.29 C 120.10 174.90 118.44 174.47 116.80 174.02 C 117.32 174.42 118.38 175.23 118.90 175.63 C 117.28 176.06 115.66 176.52 114.06 177.01 C 112.17 176.20 110.27 175.40 108.44 174.46 Z" />
</g>
</svg>
