<?xml version="1.0" encoding="UTF-8" ?>
<!DOCTYPE svg PUBLIC "-//W3C//DTD SVG 1.1//EN" "http://www.w3.org/Graphics/SVG/1.1/DTD/svg11.dtd">
<svg width="417pt" height="242pt" viewBox="0 0 417 242" version="1.1" xmlns="http://www.w3.org/2000/svg">
<g id="#f4f4f4ff">
<path fill="#f4f4f4" opacity="1.00" d=" M 63.01 64.93 C 85.08 69.87 107.04 75.35 129.11 80.32 C 128.60 85.05 127.38 89.66 126.24 94.27 C 119.76 122.20 112.94 150.05 106.56 178.00 C 103.77 177.73 100.97 177.40 98.24 176.72 C 78.85 171.94 59.32 167.73 39.97 162.80 C 41.78 152.42 44.85 142.31 47.05 132.00 C 52.43 109.66 57.38 87.20 63.01 64.93 M 90.38 81.23 C 85.97 83.26 86.74 90.61 91.33 91.88 C 95.50 93.35 100.30 88.85 98.55 84.63 C 97.53 81.20 93.52 79.75 90.38 81.23 M 74.16 91.33 C 72.68 94.34 77.50 91.39 74.16 91.33 M 78.07 91.30 C 76.34 91.69 76.95 94.65 78.74 94.02 C 80.47 93.62 79.86 90.68 78.07 91.30 M 81.16 92.53 C 79.87 93.48 81.43 95.75 82.73 94.67 C 84.03 93.72 82.46 91.45 81.16 92.53 M 85.06 93.39 C 83.88 94.23 85.23 96.34 86.39 95.22 C 87.57 94.38 86.22 92.28 85.06 93.39 M 88.09 94.53 C 87.14 95.67 87.39 96.30 88.85 96.44 C 89.79 95.30 89.54 94.67 88.09 94.53 M 90.18 94.58 C 89.23 95.71 89.49 96.34 90.94 96.47 C 91.89 95.34 91.63 94.70 90.18 94.58 M 93.15 95.54 C 92.20 96.67 92.45 97.30 93.91 97.44 C 94.86 96.30 94.60 95.67 93.15 95.54 M 76.59 96.00 C 79.63 97.68 83.08 98.24 86.52 98.09 C 83.46 96.46 80.03 95.91 76.59 96.00 M 88.60 98.34 C 92.72 100.99 97.72 101.31 102.31 102.69 C 105.52 103.45 108.86 104.89 112.16 103.78 C 104.41 101.60 96.54 99.69 88.60 98.34 M 106.20 98.31 C 104.72 98.78 105.15 101.57 106.84 100.71 C 108.32 100.24 107.88 97.44 106.20 98.31 M 74.77 100.28 C 77.92 101.66 81.25 102.57 84.63 103.20 C 91.90 104.53 98.84 107.53 106.29 107.84 C 101.58 105.81 96.48 104.98 91.54 103.71 C 85.98 102.43 80.46 100.88 74.77 100.28 M 69.43 103.12 C 68.81 104.25 68.19 105.37 67.57 106.50 C 65.59 106.37 63.60 106.26 61.62 106.18 C 64.63 108.47 68.39 108.99 72.04 109.39 C 71.60 108.81 70.72 107.65 70.28 107.07 C 72.58 106.67 74.90 106.39 77.24 106.19 C 75.75 106.51 74.26 106.81 72.76 107.12 C 72.82 107.80 72.94 109.16 73.00 109.84 C 78.08 111.82 83.72 111.32 88.77 113.34 C 91.42 114.37 94.19 115.00 97.00 115.43 C 96.48 114.49 95.95 113.57 95.43 112.64 C 100.80 117.51 108.26 118.81 115.26 119.10 C 113.22 116.94 110.19 116.99 107.46 116.70 C 107.55 116.45 107.72 115.95 107.80 115.70 C 108.22 114.41 108.83 113.20 109.51 112.03 C 105.96 111.70 102.48 110.96 99.07 109.95 C 98.44 110.46 97.82 110.97 97.19 111.49 C 95.61 109.92 93.71 108.66 91.50 108.22 C 84.19 106.34 76.83 104.60 69.43 103.12 M 78.38 119.56 C 77.51 121.41 81.44 122.37 81.52 120.33 C 81.22 119.04 79.23 118.54 78.38 119.56 M 82.31 120.47 C 85.30 123.20 89.47 123.49 93.31 123.74 C 90.07 121.50 86.13 120.91 82.31 120.47 M 51.88 128.82 C 55.57 129.21 59.31 127.76 62.92 129.12 C 62.45 129.62 61.51 130.64 61.05 131.14 C 61.57 131.33 62.61 131.70 63.14 131.88 C 63.72 130.93 64.31 129.98 64.89 129.03 C 62.74 128.17 60.61 127.14 58.29 126.88 C 55.99 126.73 53.92 127.97 51.88 128.82 M 85.66 144.78 C 84.78 147.26 86.64 149.54 87.57 151.72 C 86.38 151.96 85.19 152.20 84.01 152.46 C 90.96 155.14 98.41 156.04 105.64 157.69 C 102.70 152.48 94.54 156.88 91.64 151.87 C 96.15 152.01 100.38 153.89 104.86 154.15 C 106.39 153.26 107.25 151.64 108.32 150.29 C 106.65 150.46 104.99 150.64 103.34 150.84 C 103.78 150.28 104.22 149.72 104.66 149.17 C 102.59 148.72 100.52 148.27 98.45 147.82 C 97.18 145.70 96.20 143.27 94.24 141.68 C 91.27 140.18 86.65 141.31 85.66 144.78 M 54.12 147.35 C 48.82 147.82 45.04 154.28 47.83 159.01 C 50.24 165.52 61.01 165.58 62.94 158.69 C 65.43 153.05 60.11 146.38 54.12 147.35 M 77.81 155.25 C 83.13 156.93 88.66 158.40 92.98 162.14 C 89.19 161.84 85.40 161.47 81.60 161.42 C 85.69 163.96 90.62 163.84 95.13 165.12 C 98.84 166.16 102.56 167.22 106.37 167.86 C 107.29 165.54 108.28 163.24 109.27 160.95 C 103.77 159.02 98.00 158.09 92.39 156.52 C 87.65 155.19 82.70 155.06 77.81 155.25 M 75.63 165.84 C 77.82 168.22 80.89 168.60 83.95 168.28 C 84.00 167.43 84.10 165.72 84.15 164.87 C 82.74 164.18 81.36 163.39 79.84 162.97 C 77.80 162.48 76.89 164.71 75.63 165.84 M 85.01 166.03 C 85.46 167.58 85.92 169.13 86.37 170.68 C 87.62 170.78 88.88 170.88 90.13 170.98 C 89.34 169.05 88.57 167.11 87.82 165.16 C 86.88 165.45 85.94 165.74 85.01 166.03 M 92.64 171.07 C 95.83 172.60 99.28 173.49 102.80 173.80 C 103.47 172.14 104.14 170.48 104.82 168.83 C 101.97 167.94 99.11 166.70 96.07 166.80 C 94.21 167.45 93.68 169.61 92.64 171.07 Z" />
<path fill="#f4f4f4" opacity="1.00" d=" M 50.22 157.05 C 48.30 153.74 51.28 150.54 54.29 149.38 C 57.93 148.94 61.47 152.29 61.60 155.88 C 61.10 157.38 60.20 158.70 59.41 160.06 C 59.09 156.82 58.56 153.58 57.12 150.62 C 55.75 151.03 54.36 151.39 53.04 151.95 C 51.75 153.43 51.12 155.33 50.22 157.05 Z" />
</g>
<g id="#aca9aeff">
<path fill="#aca9ae" opacity="1.00" d=" M 40.64 63.78 C 43.33 60.11 47.56 58.25 51.49 56.25 C 52.27 58.15 53.07 60.05 53.87 61.94 C 49.57 63.16 45.13 63.91 40.64 63.78 Z" />
<path fill="#aca9ae" opacity="1.00" d=" M 70.80 61.40 C 78.19 60.29 85.59 59.18 93.01 58.24 C 93.76 61.14 94.17 64.11 94.28 67.10 C 86.44 65.26 78.44 63.97 70.80 61.40 Z" />
<path fill="#aca9ae" opacity="1.00" d=" M 61.13 62.12 C 78.96 66.00 96.64 70.54 114.43 74.60 C 120.40 76.06 126.36 77.62 132.47 78.41 C 126.00 102.75 120.84 127.44 114.84 151.90 C 112.51 161.59 110.12 171.25 107.90 180.96 C 84.15 176.23 60.76 169.83 37.07 164.76 C 44.98 130.52 53.09 96.33 61.13 62.12 M 63.01 64.93 C 57.38 87.20 52.43 109.66 47.05 132.00 C 44.85 142.31 41.78 152.42 39.97 162.80 C 59.32 167.73 78.85 171.94 98.24 176.72 C 100.97 177.40 103.77 177.73 106.56 178.00 C 112.94 150.05 119.76 122.20 126.24 94.27 C 127.38 89.66 128.60 85.05 129.11 80.32 C 107.04 75.35 85.08 69.87 63.01 64.93 Z" />
<path fill="#aca9ae" opacity="1.00" d=" M 20.07 69.14 C 32.61 66.78 45.30 65.27 57.92 63.33 C 57.18 65.84 56.44 68.34 55.68 70.84 C 55.37 70.58 54.75 70.06 54.44 69.81 C 54.86 68.51 55.24 67.21 55.65 65.92 C 52.28 66.60 48.86 67.25 45.73 68.74 C 42.07 70.42 38.74 73.05 34.62 73.51 C 32.35 74.06 29.70 73.75 27.72 75.12 C 27.72 76.71 27.91 78.30 28.12 79.88 C 31.09 99.33 33.63 118.84 36.78 138.26 C 39.10 146.36 36.37 154.45 34.32 162.27 C 33.21 159.19 32.61 155.97 32.29 152.73 C 28.33 124.85 23.84 97.04 20.07 69.14 Z" />
<path fill="#aca9ae" opacity="1.00" d=" M 3.05 83.15 C 5.85 82.11 8.52 80.70 10.79 78.72 C 12.25 78.81 13.71 78.91 15.17 79.00 C 11.66 82.22 8.52 87.34 3.02 86.46 C 3.02 85.64 3.04 83.98 3.05 83.15 Z" />
<path fill="#aca9ae" opacity="1.00" d=" M 90.38 81.23 C 93.52 79.75 97.53 81.20 98.55 84.63 C 100.30 88.85 95.50 93.35 91.33 91.88 C 86.74 90.61 85.97 83.26 90.38 81.23 Z" />
<path fill="#aca9ae" opacity="1.00" d=" M 48.26 88.66 C 49.59 89.72 50.49 91.16 51.19 92.70 C 50.34 92.75 48.65 92.86 47.80 92.91 C 47.94 91.49 48.09 90.08 48.26 88.66 Z" />
<path fill="#aca9ae" opacity="1.00" d=" M 40.99 92.02 C 41.78 91.26 42.59 90.50 43.38 89.74 C 43.42 91.24 43.45 92.74 43.48 94.24 C 42.65 93.50 41.82 92.76 40.99 92.02 Z" />
<path fill="#aca9ae" opacity="1.00" d=" M 45.20 90.36 C 46.67 89.17 48.29 91.73 46.80 92.72 C 45.33 93.91 43.72 91.34 45.20 90.36 Z" />
<path fill="#aca9ae" opacity="1.00" d=" M 74.16 91.33 C 77.50 91.39 72.68 94.34 74.16 91.33 Z" />
<path fill="#aca9ae" opacity="1.00" d=" M 78.07 91.30 C 79.86 90.68 80.47 93.62 78.74 94.02 C 76.95 94.65 76.34 91.69 78.07 91.30 Z" />
<path fill="#aca9ae" opacity="1.00" d=" M 81.16 92.53 C 82.46 91.45 84.03 93.72 82.73 94.67 C 81.43 95.75 79.87 93.48 81.16 92.53 Z" />
<path fill="#aca9ae" opacity="1.00" d=" M 85.06 93.39 C 86.22 92.28 87.57 94.38 86.39 95.22 C 85.23 96.34 83.88 94.23 85.06 93.39 Z" />
<path fill="#aca9ae" opacity="1.00" d=" M 88.09 94.53 C 89.54 94.67 89.79 95.30 88.85 96.44 C 87.39 96.30 87.14 95.67 88.09 94.53 Z" />
<path fill="#aca9ae" opacity="1.00" d=" M 90.18 94.58 C 91.63 94.70 91.89 95.34 90.94 96.47 C 89.49 96.34 89.23 95.71 90.18 94.58 Z" />
<path fill="#aca9ae" opacity="1.00" d=" M 93.15 95.54 C 94.60 95.67 94.86 96.30 93.91 97.44 C 92.45 97.30 92.20 96.67 93.15 95.54 Z" />
<path fill="#aca9ae" opacity="1.00" d=" M 76.59 96.00 C 80.03 95.91 83.46 96.46 86.52 98.09 C 83.08 98.24 79.63 97.68 76.59 96.00 Z" />
<path fill="#aca9ae" opacity="1.00" d=" M 88.60 98.34 C 96.54 99.69 104.41 101.60 112.16 103.78 C 108.86 104.89 105.52 103.45 102.31 102.69 C 97.72 101.31 92.72 100.99 88.60 98.34 Z" />
<path fill="#aca9ae" opacity="1.00" d=" M 106.20 98.31 C 107.88 97.44 108.32 100.24 106.84 100.71 C 105.15 101.57 104.72 98.78 106.20 98.31 Z" />
<path fill="#aca9ae" opacity="1.00" d=" M 74.77 100.28 C 80.46 100.88 85.98 102.43 91.54 103.71 C 96.48 104.98 101.58 105.81 106.29 107.84 C 98.84 107.53 91.90 104.53 84.63 103.20 C 81.25 102.57 77.92 101.66 74.77 100.28 Z" />
<path fill="#aca9ae" opacity="1.00" d=" M 3.17 106.81 C 5.81 112.55 9.81 117.62 11.64 123.74 C 13.08 128.70 17.29 132.20 18.79 137.14 C 20.26 142.24 24.76 145.71 26.15 150.85 C 27.00 154.05 28.73 156.92 31.28 159.06 C 31.75 161.92 32.19 164.78 32.53 167.65 C 28.18 163.13 26.26 157.03 22.86 151.87 C 19.07 144.31 14.16 137.36 10.88 129.54 C 8.89 125.18 5.87 121.44 3.24 117.47 C 2.62 113.95 3.04 110.35 3.17 106.81 Z" />
<path fill="#aca9ae" opacity="1.00" d=" M 13.81 124.07 C 17.26 121.49 21.00 119.31 24.81 117.30 C 24.89 117.88 25.06 119.04 25.14 119.63 C 21.47 121.36 17.71 122.93 13.81 124.07 Z" />
<path fill="#aca9ae" opacity="1.00" d=" M 78.38 119.56 C 79.23 118.54 81.22 119.04 81.52 120.33 C 81.44 122.37 77.51 121.41 78.38 119.56 Z" />
<path fill="#aca9ae" opacity="1.00" d=" M 82.31 120.47 C 86.13 120.91 90.07 121.50 93.31 123.74 C 89.47 123.49 85.30 123.20 82.31 120.47 Z" />
<path fill="#aca9ae" opacity="1.00" d=" M 16.64 128.87 C 19.53 126.72 22.59 124.82 25.74 123.10 C 26.17 125.41 26.61 127.71 27.00 130.03 C 24.85 130.57 22.70 131.46 20.45 131.32 C 19.08 130.67 17.88 129.72 16.64 128.87 Z" />
<path fill="#aca9ae" opacity="1.00" d=" M 51.88 128.82 C 53.92 127.97 55.99 126.73 58.29 126.88 C 60.61 127.14 62.74 128.17 64.89 129.03 C 64.31 129.98 63.72 130.93 63.14 131.88 C 62.61 131.70 61.57 131.33 61.05 131.14 C 61.51 130.64 62.45 129.62 62.92 129.12 C 59.31 127.76 55.57 129.21 51.88 128.82 Z" />
<path fill="#aca9ae" opacity="1.00" d=" M 54.12 147.35 C 60.11 146.38 65.43 153.05 62.94 158.69 C 61.01 165.58 50.24 165.52 47.83 159.01 C 45.04 154.28 48.82 147.82 54.12 147.35 M 50.22 157.05 C 51.12 155.33 51.75 153.43 53.04 151.95 C 54.36 151.39 55.75 151.03 57.12 150.62 C 58.56 153.58 59.09 156.82 59.41 160.06 C 60.20 158.70 61.10 157.38 61.60 155.88 C 61.47 152.29 57.93 148.94 54.29 149.38 C 51.28 150.54 48.30 153.74 50.22 157.05 Z" />
<path fill="#aca9ae" opacity="1.00" d=" M 87.07 148.85 C 88.35 148.26 89.50 147.15 90.97 147.05 C 93.01 147.47 94.65 148.88 96.38 149.96 C 93.24 151.63 89.48 151.91 87.07 148.85 Z" />
<path fill="#aca9ae" opacity="1.00" d=" M 75.63 165.84 C 76.89 164.71 77.80 162.48 79.84 162.97 C 81.36 163.39 82.74 164.18 84.15 164.87 C 84.10 165.72 84.00 167.43 83.95 168.28 C 80.89 168.60 77.82 168.22 75.63 165.84 Z" />
<path fill="#aca9ae" opacity="1.00" d=" M 85.01 166.03 C 85.94 165.74 86.88 165.45 87.82 165.16 C 88.57 167.11 89.34 169.05 90.13 170.98 C 88.88 170.88 87.62 170.78 86.37 170.68 C 85.92 169.13 85.46 167.58 85.01 166.03 Z" />
<path fill="#aca9ae" opacity="1.00" d=" M 34.36 166.00 C 41.38 167.59 48.71 168.42 55.32 171.44 C 48.68 172.55 42.05 173.84 35.31 174.06 C 34.99 171.37 34.67 168.68 34.36 166.00 Z" />
<path fill="#aca9ae" opacity="1.00" d=" M 35.91 176.23 C 40.08 175.19 44.36 173.92 48.70 174.71 C 45.72 177.25 42.25 179.10 38.76 180.83 C 37.85 179.28 36.89 177.74 35.91 176.23 Z" />
</g>
<g id="#e3decaff">
<path fill="#e3deca" opacity="1.00" d=" M 10.79 78.72 C 13.15 76.65 15.95 75.19 18.87 74.10 C 21.17 88.45 23.43 102.82 24.81 117.30 C 21.00 119.31 17.26 121.49 13.81 124.07 C 17.71 122.93 21.47 121.36 25.14 119.63 C 25.33 120.78 25.53 121.94 25.74 123.10 C 22.59 124.82 19.53 126.72 16.64 128.87 C 17.88 129.72 19.08 130.67 20.45 131.32 C 22.70 131.46 24.85 130.57 27.00 130.03 C 28.51 139.70 29.99 149.37 31.28 159.06 C 28.73 156.92 27.00 154.05 26.15 150.85 C 24.76 145.71 20.26 142.24 18.79 137.14 C 17.29 132.20 13.08 128.70 11.64 123.74 C 9.81 117.62 5.81 112.55 3.17 106.81 C 2.67 100.04 3.30 93.24 3.02 86.46 C 8.52 87.34 11.66 82.22 15.17 79.00 C 13.71 78.91 12.25 78.81 10.79 78.72 Z" />
<path fill="#e3deca" opacity="1.00" d=" M 51.22 75.93 C 52.45 75.93 53.68 75.93 54.91 75.93 C 54.53 76.94 54.14 77.94 53.76 78.95 C 48.50 79.79 43.24 80.73 37.93 81.20 C 35.69 81.53 33.59 80.56 31.55 79.81 C 34.12 78.42 37.00 77.86 39.90 78.22 C 44.16 78.67 48.33 77.33 52.58 77.68 C 52.12 77.09 51.67 76.51 51.22 75.93 Z" />
<path fill="#e3deca" opacity="1.00" d=" M 34.48 84.00 C 40.22 81.19 46.87 81.60 53.07 80.78 C 53.10 81.47 53.14 82.84 53.17 83.52 C 46.91 82.65 40.73 84.56 34.48 84.00 Z" />
<path fill="#e3deca" opacity="1.00" d=" M 34.02 105.01 C 38.72 103.95 43.50 103.29 48.30 102.94 C 47.90 104.98 47.67 107.09 46.71 108.97 C 44.61 109.23 42.61 108.24 40.62 107.71 C 42.42 108.56 44.20 109.45 45.98 110.34 C 46.03 111.55 46.09 112.76 46.14 113.98 C 43.33 114.69 40.33 115.75 37.44 114.78 C 35.70 114.36 35.01 112.53 34.08 111.21 C 35.40 109.96 36.73 108.70 38.05 107.44 C 36.63 107.60 35.21 107.73 33.79 107.89 C 33.85 107.17 33.96 105.73 34.02 105.01 Z" />
<path fill="#e3deca" opacity="1.00" d=" M 69.43 103.12 C 76.83 104.60 84.19 106.34 91.50 108.22 C 93.71 108.66 95.61 109.92 97.19 111.49 C 97.82 110.97 98.44 110.46 99.07 109.95 C 102.48 110.96 105.96 111.70 109.51 112.03 C 108.83 113.20 108.22 114.41 107.80 115.70 C 107.72 115.95 107.55 116.45 107.46 116.70 C 110.19 116.99 113.22 116.94 115.26 119.10 C 108.26 118.81 100.80 117.51 95.43 112.64 C 95.95 113.57 96.48 114.49 97.00 115.43 C 94.19 115.00 91.42 114.37 88.77 113.34 C 83.72 111.32 78.08 111.82 73.00 109.84 C 72.94 109.16 72.82 107.80 72.76 107.12 C 74.26 106.81 75.75 106.51 77.24 106.19 C 74.90 106.39 72.58 106.67 70.28 107.07 C 70.72 107.65 71.60 108.81 72.04 109.39 C 68.39 108.99 64.63 108.47 61.62 106.18 C 63.60 106.26 65.59 106.37 67.57 106.50 C 68.19 105.37 68.81 104.25 69.43 103.12 Z" />
<path fill="#e3deca" opacity="1.00" d=" M 37.53 120.04 C 38.16 116.57 43.66 115.37 45.52 118.40 C 44.28 118.37 43.04 118.33 41.80 118.27 C 41.76 118.75 41.66 119.71 41.61 120.19 C 40.25 120.15 38.89 120.10 37.53 120.04 Z" />
<path fill="#e3deca" opacity="1.00" d=" M 36.26 121.85 C 38.87 121.49 41.49 121.18 44.11 120.92 C 43.15 121.44 42.18 121.97 41.22 122.49 C 42.06 122.75 42.91 123.02 43.76 123.28 C 43.15 124.74 43.20 126.89 41.42 127.48 C 39.90 127.96 38.31 128.15 36.74 128.42 C 36.56 126.76 36.57 125.07 37.00 123.44 C 36.75 122.91 36.50 122.38 36.26 121.85 Z" />
<path fill="#e3deca" opacity="1.00" d=" M 85.66 144.78 C 86.65 141.31 91.27 140.18 94.24 141.68 C 96.20 143.27 97.18 145.70 98.45 147.82 C 100.52 148.27 102.59 148.72 104.66 149.17 C 104.22 149.72 103.78 150.28 103.34 150.84 C 104.99 150.64 106.65 150.46 108.32 150.29 C 107.25 151.64 106.39 153.26 104.86 154.15 C 100.38 153.89 96.15 152.01 91.64 151.87 C 94.54 156.88 102.70 152.48 105.64 157.69 C 98.41 156.04 90.96 155.14 84.01 152.46 C 85.19 152.20 86.38 151.96 87.57 151.72 C 86.64 149.54 84.78 147.26 85.66 144.78 M 87.07 148.85 C 89.48 151.91 93.24 151.63 96.38 149.96 C 94.65 148.88 93.01 147.47 90.97 147.05 C 89.50 147.15 88.35 148.26 87.07 148.85 Z" />
<path fill="#e3deca" opacity="1.00" d=" M 77.81 155.25 C 82.70 155.06 87.65 155.19 92.39 156.52 C 98.00 158.09 103.77 159.02 109.27 160.95 C 108.28 163.24 107.29 165.54 106.37 167.86 C 102.56 167.22 98.84 166.16 95.13 165.12 C 90.62 163.84 85.69 163.96 81.60 161.42 C 85.40 161.47 89.19 161.84 92.98 162.14 C 88.66 158.40 83.13 156.93 77.81 155.25 Z" />
<path fill="#e3deca" opacity="1.00" d=" M 92.64 171.07 C 93.68 169.61 94.21 167.45 96.07 166.80 C 99.11 166.70 101.97 167.94 104.82 168.83 C 104.14 170.48 103.47 172.14 102.80 173.80 C 99.28 173.49 95.83 172.60 92.64 171.07 Z" />
</g>
</svg>
