<?xml version="1.0" encoding="UTF-8" ?>
<!DOCTYPE svg PUBLIC "-//W3C//DTD SVG 1.1//EN" "http://www.w3.org/Graphics/SVG/1.1/DTD/svg11.dtd">
<svg width="417pt" height="242pt" viewBox="0 0 417 242" version="1.1" xmlns="http://www.w3.org/2000/svg">
<g id="#f4f4f4ff">
<path fill="#f4f4f4" opacity="1.00" d=" M 49.39 50.00 C 54.13 49.67 58.55 51.70 63.20 52.24 C 63.46 54.11 63.64 55.99 63.73 57.88 C 59.58 56.30 55.20 55.49 51.05 53.96 C 50.91 53.48 50.63 52.52 50.49 52.04 L 49.96 53.43 C 49.40 53.51 48.28 53.67 47.72 53.75 C 48.26 52.49 48.81 51.24 49.39 50.00 Z" />
<path fill="#f4f4f4" opacity="1.00" d=" M 63.68 52.84 C 65.59 52.67 66.81 53.97 67.93 55.30 C 70.04 60.05 67.35 64.95 68.21 69.80 C 66.77 68.70 65.20 67.79 63.61 66.92 C 63.23 67.10 62.48 67.44 62.10 67.62 C 62.03 67.10 61.89 66.06 61.83 65.54 C 62.25 65.51 63.09 65.46 63.51 65.44 C 63.45 63.19 63.40 60.94 63.29 58.70 C 65.01 58.58 65.29 57.99 64.11 56.93 C 64.26 55.55 63.96 54.19 63.68 52.84 Z" />
<path fill="#f4f4f4" opacity="1.00" d=" M 62.37 58.84 L 62.72 58.82 C 63.25 60.73 63.40 63.01 62.73 64.90 C 61.28 63.75 61.90 60.57 62.37 58.84 Z" />
<path fill="#f4f4f4" opacity="1.00" d=" M 39.07 95.11 L 40.02 94.50 C 39.77 96.48 40.83 98.22 41.52 99.99 L 40.21 100.07 C 36.92 104.10 34.40 109.27 35.48 114.60 C 35.15 114.41 34.51 114.03 34.19 113.84 C 34.41 112.08 34.60 110.31 34.86 108.56 C 33.47 107.73 32.01 107.02 30.72 106.04 C 29.98 103.80 29.36 101.37 27.13 100.13 C 27.37 99.83 27.87 99.25 28.11 98.96 C 28.44 98.70 29.10 98.16 29.43 97.89 L 29.51 97.97 C 29.36 100.13 29.76 102.28 31.20 103.97 C 32.08 105.33 33.56 106.20 35.03 106.81 C 36.52 104.19 37.84 101.48 38.88 98.64 C 38.92 97.46 38.99 96.28 39.07 95.11 Z" />
<path fill="#f4f4f4" opacity="1.00" d=" M 52.26 101.84 C 53.04 103.46 53.81 105.07 54.60 106.68 C 54.72 107.45 54.96 108.99 55.08 109.76 C 54.58 109.35 53.59 108.52 53.09 108.11 C 53.39 108.96 53.68 109.81 53.98 110.67 C 51.00 116.51 48.04 122.42 45.74 128.57 C 45.62 128.93 45.37 129.67 45.24 130.04 C 44.79 129.85 43.90 129.46 43.45 129.26 C 46.24 123.43 48.95 117.55 51.80 111.74 C 50.65 108.67 51.90 105.41 52.02 102.28 L 52.26 101.84 Z" />
<path fill="#f4f4f4" opacity="1.00" d=" M 25.04 110.19 L 25.51 110.01 C 26.73 110.76 27.93 111.56 29.14 112.33 C 30.77 113.48 32.36 114.67 33.91 115.91 C 33.88 116.35 33.81 117.24 33.78 117.68 C 33.17 116.15 31.78 115.27 30.24 114.91 C 29.05 113.59 27.67 112.43 26.01 111.75 C 25.76 111.36 25.28 110.58 25.04 110.19 Z" />
<path fill="#f4f4f4" opacity="1.00" d=" M 20.31 120.68 L 21.10 120.67 C 21.33 123.94 21.38 127.21 21.27 130.49 L 20.91 130.55 C 20.74 127.26 20.55 123.97 20.31 120.68 Z" />
<path fill="#f4f4f4" opacity="1.00" d=" M 35.94 120.59 C 39.24 121.17 38.85 125.18 39.51 127.68 C 40.38 127.49 42.12 127.12 42.99 126.93 L 42.80 127.87 C 41.73 128.56 40.64 129.19 39.55 129.84 L 39.32 129.97 C 39.17 131.66 38.93 133.34 38.85 135.03 C 38.27 136.38 37.68 137.79 37.79 139.30 L 36.90 139.53 C 37.03 138.01 37.17 136.48 37.32 134.97 C 37.43 133.98 37.51 133.00 37.58 132.01 C 37.67 130.30 37.73 128.60 37.79 126.89 C 37.79 126.58 37.78 125.97 37.77 125.66 C 37.22 123.95 36.57 122.27 35.94 120.59 Z" />
<path fill="#f4f4f4" opacity="1.00" d=" M 18.38 132.77 C 23.57 131.96 28.72 130.99 33.92 130.24 L 34.40 130.91 C 30.80 131.60 26.70 131.31 23.58 133.44 L 23.45 133.19 L 23.47 132.49 C 18.01 133.58 12.27 135.89 6.79 133.58 L 6.46 133.41 L 6.06 133.21 C 5.59 133.11 4.66 132.91 4.19 132.81 C 3.93 132.48 3.41 131.80 3.15 131.46 L 2.90 131.13 L 3.89 130.90 C 4.36 130.92 5.31 130.94 5.78 130.95 C 5.89 131.13 6.12 131.49 6.24 131.67 C 9.38 133.39 13.05 133.65 16.54 133.06 C 17.00 132.99 17.92 132.84 18.38 132.77 Z" />
<path fill="#f4f4f4" opacity="1.00" d=" M 42.42 130.99 C 42.75 131.20 43.42 131.63 43.75 131.84 L 43.24 134.17 C 42.85 134.41 42.08 134.89 41.70 135.12 L 41.71 135.97 L 41.70 136.88 C 40.65 137.95 40.08 139.36 39.81 140.82 L 39.56 141.32 C 39.50 141.46 39.36 141.75 39.29 141.89 L 38.91 142.68 C 37.51 143.50 37.35 144.32 38.45 145.15 C 39.57 146.14 40.87 145.92 42.10 145.33 C 42.68 144.85 43.86 143.89 44.45 143.40 C 44.46 143.74 44.49 144.40 44.51 144.73 C 44.15 145.05 43.44 145.68 43.08 145.99 C 43.22 147.11 43.35 148.23 43.48 149.35 C 42.73 148.40 41.98 147.45 41.21 146.52 C 40.73 146.51 39.76 146.48 39.28 146.46 C 36.40 147.14 33.60 148.16 30.95 149.47 C 30.60 150.18 30.25 150.90 29.92 151.62 C 28.94 151.05 27.92 150.55 26.89 150.10 C 29.19 149.53 31.40 148.61 33.53 147.56 C 35.78 146.58 36.30 143.99 37.47 142.08 C 37.71 141.54 38.17 140.47 38.41 139.93 C 39.37 138.78 40.09 137.43 40.22 135.91 C 40.35 135.60 40.62 134.97 40.76 134.65 C 41.14 133.72 41.92 131.85 42.31 130.92 L 42.42 130.99 Z" />
<path fill="#f4f4f4" opacity="1.00" d=" M 93.28 136.01 C 93.45 136.13 93.79 136.37 93.97 136.49 C 94.03 140.31 93.98 144.13 94.00 147.95 C 94.11 153.34 93.90 158.73 93.18 164.07 C 93.12 165.60 92.55 167.39 93.67 168.68 L 93.12 169.02 C 92.85 170.59 92.65 172.17 92.43 173.76 C 92.44 169.70 92.18 165.64 92.17 161.59 C 93.22 153.10 92.76 144.53 93.28 136.01 Z" />
<path fill="#f4f4f4" opacity="1.00" d=" M 57.99 140.20 C 60.17 139.49 60.50 143.50 58.18 141.90 C 58.13 141.47 58.03 140.63 57.99 140.20 Z" />
<path fill="#f4f4f4" opacity="1.00" d=" M 54.01 143.92 C 55.49 143.94 56.98 143.91 58.47 143.83 C 59.79 144.96 61.17 146.00 62.54 147.08 C 62.42 147.82 62.18 149.30 62.06 150.05 C 62.69 149.28 63.32 148.52 63.95 147.76 C 63.94 148.71 63.92 150.60 63.91 151.54 C 62.72 151.29 61.54 151.00 60.36 150.68 C 60.81 149.06 60.67 147.58 59.21 146.51 L 59.22 148.89 C 58.70 148.52 57.66 147.79 57.14 147.42 C 59.53 146.79 57.26 143.97 56.17 146.18 L 55.63 144.96 C 55.23 144.70 54.41 144.18 54.01 143.92 Z" />
<path fill="#f4f4f4" opacity="1.00" d=" M 45.08 159.08 C 46.76 159.95 48.39 160.93 49.75 162.26 C 51.92 164.90 54.19 167.54 57.25 169.18 C 57.30 167.12 57.34 165.07 57.37 163.01 C 57.88 163.09 58.92 163.26 59.43 163.34 C 59.45 163.72 59.48 164.49 59.50 164.87 C 59.52 166.43 59.50 167.99 59.49 169.55 C 58.84 169.71 57.54 170.01 56.88 170.17 C 52.44 167.06 48.68 163.10 45.08 159.08 Z" />
<path fill="#f4f4f4" opacity="1.00" d=" M 10.19 172.18 C 11.83 170.61 14.28 174.34 12.18 175.09 C 10.93 174.97 9.38 173.45 10.19 172.18 Z" />
</g>
<g id="#565d5dff">
<path fill="#565d5d" opacity="1.00" d=" M 50.63 48.25 C 51.00 47.83 51.74 46.98 52.11 46.55 C 51.97 47.14 51.67 48.31 51.53 48.90 C 55.90 48.70 60.16 49.76 64.26 51.17 C 64.61 50.96 65.31 50.55 65.66 50.34 C 67.74 52.93 70.40 55.53 69.78 59.19 C 70.27 62.50 70.25 65.86 69.99 69.20 C 73.94 69.97 77.91 70.88 81.46 72.84 C 85.55 74.01 90.16 74.39 93.67 76.96 C 87.98 77.51 82.58 75.29 77.01 74.62 C 77.60 74.32 78.78 73.72 79.37 73.42 C 76.66 72.49 73.93 71.61 71.16 70.88 C 70.63 71.32 69.56 72.20 69.03 72.64 C 66.70 71.58 64.33 70.61 61.92 69.76 C 61.85 70.33 61.72 71.46 61.65 72.02 C 61.31 71.16 60.97 70.29 60.64 69.43 C 59.15 69.12 57.66 68.82 56.16 68.55 C 56.11 69.09 56.02 70.17 55.97 70.70 C 55.66 70.66 55.04 70.56 54.73 70.52 C 55.82 68.23 53.51 67.10 52.41 65.61 C 52.84 62.12 53.98 58.38 52.53 54.98 C 52.20 55.06 51.53 55.21 51.20 55.28 C 49.76 58.76 50.94 62.78 50.41 66.48 C 50.75 66.79 51.43 67.43 51.76 67.75 C 50.32 67.93 48.88 68.14 47.45 68.36 C 49.17 69.77 51.39 70.15 53.55 70.39 C 53.57 70.98 53.58 71.56 53.58 72.15 C 51.42 71.58 49.24 71.04 47.06 70.56 C 45.27 77.11 41.47 82.89 38.47 88.93 C 39.27 89.70 40.07 90.47 40.87 91.24 C 41.32 93.80 41.89 96.34 42.20 98.92 C 43.21 98.42 44.22 97.91 45.25 97.44 C 45.11 98.05 44.84 99.27 44.71 99.88 C 43.64 99.90 42.58 99.94 41.52 99.99 C 40.83 98.22 39.77 96.48 40.02 94.50 C 41.14 90.44 36.16 90.67 33.52 89.99 C 34.89 89.56 36.25 89.15 37.62 88.74 C 39.73 83.64 42.33 78.78 44.98 73.95 C 45.03 73.70 45.14 73.20 45.19 72.94 C 45.67 70.62 46.02 68.28 46.31 65.93 L 44.35 65.94 C 44.35 65.73 44.36 65.33 44.36 65.12 C 44.97 65.11 46.18 65.08 46.78 65.07 C 46.54 64.51 46.06 63.39 45.83 62.83 L 45.89 62.05 C 46.05 60.68 46.05 59.30 45.91 57.92 L 45.85 57.05 C 46.33 55.96 46.81 54.87 47.27 53.76 C 43.77 54.30 40.22 54.44 36.70 54.74 C 36.62 59.90 36.93 65.08 36.44 70.22 C 36.20 64.94 36.37 59.64 36.28 54.36 C 39.73 53.85 43.20 53.55 46.68 53.36 C 47.12 51.89 47.58 50.43 48.04 48.97 C 48.90 48.73 49.76 48.49 50.63 48.25 M 49.39 50.00 C 48.81 51.24 48.26 52.49 47.72 53.75 C 48.28 53.67 49.40 53.51 49.96 53.43 L 50.49 52.04 C 50.63 52.52 50.91 53.48 51.05 53.96 C 55.20 55.49 59.58 56.30 63.73 57.88 C 63.64 55.99 63.46 54.11 63.20 52.24 C 58.55 51.70 54.13 49.67 49.39 50.00 M 63.68 52.84 C 63.96 54.19 64.26 55.55 64.11 56.93 C 65.29 57.99 65.01 58.58 63.29 58.70 C 63.40 60.94 63.45 63.19 63.51 65.44 C 63.09 65.46 62.25 65.51 61.83 65.54 C 61.89 66.06 62.03 67.10 62.10 67.62 C 62.48 67.44 63.23 67.10 63.61 66.92 C 65.20 67.79 66.77 68.70 68.21 69.80 C 67.35 64.95 70.04 60.05 67.93 55.30 C 66.81 53.97 65.59 52.67 63.68 52.84 M 48.39 54.23 C 47.52 55.33 47.49 57.67 49.04 58.17 C 50.71 57.71 50.32 53.35 48.39 54.23 M 53.53 55.19 C 53.77 57.80 53.63 60.42 53.62 63.04 L 54.79 63.33 C 54.37 63.74 53.52 64.54 53.10 64.95 C 53.93 65.31 55.58 66.03 56.40 66.39 C 56.26 64.06 56.05 61.73 55.79 59.41 C 56.04 58.28 56.25 57.15 56.41 56.00 C 55.69 55.80 54.25 55.39 53.53 55.19 M 56.85 56.66 C 56.39 59.86 56.73 63.11 56.86 66.33 C 60.28 64.70 56.21 59.08 59.85 57.40 C 59.38 57.17 58.43 56.70 57.96 56.47 L 56.85 56.66 M 58.72 66.95 C 59.40 66.99 60.76 67.07 61.45 67.11 C 61.25 63.92 61.78 60.65 61.09 57.52 C 57.18 58.32 59.40 63.99 58.72 66.95 M 48.19 58.35 C 48.04 60.32 47.94 62.29 47.81 64.26 C 48.55 64.97 49.29 65.66 50.05 66.36 C 49.73 63.72 51.14 59.88 48.19 58.35 M 62.37 58.84 C 61.90 60.57 61.28 63.75 62.73 64.90 C 63.40 63.01 63.25 60.73 62.72 58.82 L 62.37 58.84 Z" />
</g>
<g id="#f3f3f3ff">
<path fill="#f3f3f3" opacity="1.00" d=" M 48.39 54.23 C 50.32 53.35 50.71 57.71 49.04 58.17 C 47.49 57.67 47.52 55.33 48.39 54.23 Z" />
</g>
<g id="#eaeaeaff">
<path fill="#eaeaea" opacity="1.00" d=" M 51.20 55.28 C 51.53 55.21 52.20 55.06 52.53 54.98 C 53.98 58.38 52.84 62.12 52.41 65.61 C 53.51 67.10 55.82 68.23 54.73 70.52 C 54.43 70.48 53.84 70.42 53.55 70.39 C 51.39 70.15 49.17 69.77 47.45 68.36 C 48.88 68.14 50.32 67.93 51.76 67.75 C 51.43 67.43 50.75 66.79 50.41 66.48 C 50.94 62.78 49.76 58.76 51.20 55.28 Z" />
</g>
<g id="#bfbfbfff">
<path fill="#bfbfbf" opacity="1.00" d=" M 38.05 55.89 C 38.56 55.89 39.57 55.89 40.08 55.90 C 40.60 60.98 38.11 66.55 40.76 71.25 C 41.15 66.13 40.92 60.99 40.97 55.86 L 42.16 55.99 C 42.29 60.82 41.57 65.72 42.63 70.48 C 43.29 65.96 42.95 61.38 42.88 56.83 C 43.62 56.89 45.10 57.00 45.85 57.05 L 45.91 57.92 C 43.28 57.53 43.28 62.43 45.89 62.05 L 45.83 62.83 C 44.88 63.36 44.40 64.12 44.36 65.12 C 44.36 65.33 44.35 65.73 44.35 65.94 C 44.01 68.33 43.62 70.85 45.19 72.94 C 45.14 73.20 45.03 73.70 44.98 73.95 C 42.60 73.16 40.22 72.39 37.82 71.66 C 37.97 66.40 38.07 61.15 38.05 55.89 Z" />
</g>
<g id="#efefefff">
<path fill="#efefef" opacity="1.00" d=" M 53.53 55.19 C 54.25 55.39 55.69 55.80 56.41 56.00 C 56.25 57.15 56.04 58.28 55.79 59.41 C 56.05 61.73 56.26 64.06 56.40 66.39 C 55.58 66.03 53.93 65.31 53.10 64.95 C 53.52 64.54 54.37 63.74 54.79 63.33 L 53.62 63.04 C 53.63 60.42 53.77 57.80 53.53 55.19 Z" />
<path fill="#efefef" opacity="1.00" d=" M 56.85 56.66 L 57.96 56.47 C 58.43 56.70 59.38 57.17 59.85 57.40 C 56.21 59.08 60.28 64.70 56.86 66.33 C 56.73 63.11 56.39 59.86 56.85 56.66 Z" />
</g>
<g id="#edededff">
<path fill="#ededed" opacity="1.00" d=" M 45.89 62.05 C 43.28 62.43 43.28 57.53 45.91 57.92 C 46.05 59.30 46.05 60.68 45.89 62.05 Z" />
</g>
<g id="#eeeeeeff">
<path fill="#eeeeee" opacity="1.00" d=" M 58.72 66.95 C 59.40 63.99 57.18 58.32 61.09 57.52 C 61.78 60.65 61.25 63.92 61.45 67.11 C 60.76 67.07 59.40 66.99 58.72 66.95 Z" />
</g>
<g id="#e4e4e5ff">
<path fill="#e4e4e5" opacity="1.00" d=" M 48.19 58.35 C 51.14 59.88 49.73 63.72 50.05 66.36 C 49.29 65.66 48.55 64.97 47.81 64.26 C 47.94 62.29 48.04 60.32 48.19 58.35 Z" />
</g>
<g id="#ebecedff">
<path fill="#ebeced" opacity="1.00" d=" M 44.36 65.12 C 44.40 64.12 44.88 63.36 45.83 62.83 C 46.06 63.39 46.54 64.51 46.78 65.07 C 46.18 65.08 44.97 65.11 44.36 65.12 Z" />
</g>
<g id="#ededeeff">
<path fill="#ededee" opacity="1.00" d=" M 44.35 65.94 L 46.31 65.93 C 46.02 68.28 45.67 70.62 45.19 72.94 C 43.62 70.85 44.01 68.33 44.35 65.94 Z" />
</g>
<g id="#323169ff">
<path fill="#323169" opacity="1.00" d=" M 20.14 67.41 C 20.85 67.39 22.28 67.34 22.99 67.32 C 23.07 72.53 22.97 77.75 22.96 82.97 C 22.81 85.03 23.67 86.92 24.53 88.73 L 22.77 89.06 C 19.28 82.37 21.18 74.60 20.14 67.41 Z" />
</g>
<g id="#8f8f91ff">
<path fill="#8f8f91" opacity="1.00" d=" M 48.34 72.26 C 48.90 72.79 48.90 72.79 48.34 72.26 Z" />
</g>
<g id="#3e3e40ff">
<path fill="#3e3e40" opacity="1.00" d=" M 55.39 72.68 C 56.04 70.11 60.72 72.79 57.06 73.35 C 56.65 73.18 55.81 72.85 55.39 72.68 Z" />
</g>
<g id="#121216ff">
<path fill="#121216" opacity="1.00" d=" M 71.25 71.94 C 72.69 71.18 74.24 72.82 75.51 73.42 C 75.00 74.94 70.80 73.62 71.25 71.94 Z" />
<path fill="#121216" opacity="1.00" d=" M 59.95 72.98 C 62.75 73.28 65.42 74.19 67.89 75.50 C 68.00 74.77 68.23 73.29 68.35 72.55 C 70.16 73.52 69.93 75.34 69.51 77.11 C 71.17 75.51 72.52 76.31 73.59 77.94 C 72.23 78.22 70.85 78.20 69.50 77.97 C 68.66 79.72 67.82 81.48 66.93 83.21 C 65.72 85.63 64.51 88.05 63.33 90.48 C 62.48 92.28 61.66 94.09 60.80 95.88 C 59.23 98.46 58.21 101.30 57.45 104.22 C 57.49 102.73 57.56 101.24 57.65 99.76 C 58.60 98.56 59.42 97.28 60.12 95.93 C 60.73 94.51 61.37 93.10 62.00 91.70 C 64.31 87.12 66.80 82.62 68.93 77.95 C 65.92 76.27 62.56 75.31 59.65 73.41 L 59.95 72.98 Z" />
<path fill="#121216" opacity="1.00" d=" M 45.86 97.17 C 46.40 96.94 47.49 96.48 48.03 96.25 C 49.02 96.17 50.64 97.48 49.11 98.15 C 47.91 98.32 46.83 97.99 45.86 97.17 Z" />
<path fill="#121216" opacity="1.00" d=" M 54.65 100.37 C 53.05 100.62 52.14 98.35 53.86 97.79 C 54.06 98.44 54.45 99.72 54.65 100.37 Z" />
<path fill="#121216" opacity="1.00" d=" M 25.88 101.59 C 26.19 101.22 26.82 100.49 27.13 100.13 C 29.36 101.37 29.98 103.80 30.72 106.04 C 32.01 107.02 33.47 107.73 34.86 108.56 C 34.60 110.31 34.41 112.08 34.19 113.84 L 33.91 115.91 C 32.36 114.67 30.77 113.48 29.14 112.33 C 30.53 112.45 31.92 112.56 33.31 112.64 C 32.66 112.00 32.01 111.35 31.36 110.71 C 31.97 110.08 32.58 109.46 33.18 108.84 C 31.71 108.76 30.23 108.68 28.76 108.60 C 28.74 108.17 28.69 107.31 28.67 106.88 L 28.69 106.52 C 28.12 106.16 26.98 105.46 26.41 105.11 C 27.12 105.07 28.54 105.01 29.25 104.97 C 29.16 104.28 28.98 102.91 28.89 102.22 C 28.14 102.06 26.63 101.75 25.88 101.59 Z" />
<path fill="#121216" opacity="1.00" d=" M 52.65 101.63 C 53.16 101.37 54.20 100.85 54.72 100.59 C 55.02 101.57 55.33 102.56 55.65 103.55 C 55.30 104.59 54.95 105.63 54.60 106.68 C 53.81 105.07 53.04 103.46 52.26 101.84 L 52.65 101.63 Z" />
<path fill="#121216" opacity="1.00" d=" M 48.54 115.53 C 51.02 111.45 49.09 106.15 52.02 102.28 C 51.90 105.41 50.65 108.67 51.80 111.74 C 48.95 117.55 46.24 123.43 43.45 129.26 C 43.90 129.46 44.79 129.85 45.24 130.04 C 44.81 131.52 44.03 132.86 43.24 134.17 L 43.75 131.84 C 43.42 131.63 42.75 131.20 42.42 130.99 L 42.42 130.93 C 42.52 130.16 42.71 128.64 42.80 127.87 L 42.99 126.93 C 42.12 127.12 40.38 127.49 39.51 127.68 C 38.85 125.18 39.24 121.17 35.94 120.59 C 36.57 122.27 37.22 123.95 37.77 125.66 C 36.91 125.39 35.19 124.85 34.33 124.57 C 34.80 122.81 35.33 121.06 35.95 119.34 L 36.69 118.79 C 37.20 119.17 38.21 119.94 38.72 120.32 C 39.67 122.54 39.99 125.25 41.89 126.92 C 45.50 124.22 46.29 119.28 48.54 115.53 Z" />
<path fill="#121216" opacity="1.00" d=" M 22.08 106.19 C 23.20 107.68 25.34 110.23 23.25 111.80 C 22.12 110.15 21.57 108.16 22.08 106.19 Z" />
<path fill="#121216" opacity="1.00" d=" M 25.17 114.79 C 27.87 115.54 30.77 117.07 31.85 119.82 C 29.07 120.85 26.93 117.13 24.99 115.50 L 25.17 114.79 Z" />
<path fill="#121216" opacity="1.00" d=" M 30.24 114.91 C 31.78 115.27 33.17 116.15 33.78 117.68 L 33.73 118.25 C 32.25 117.96 30.29 117.26 30.23 115.46 L 30.24 114.91 Z" />
<path fill="#121216" opacity="1.00" d=" M 37.79 139.30 C 37.68 137.79 38.27 136.38 38.85 135.03 C 39.19 135.25 39.88 135.69 40.22 135.91 C 40.09 137.43 39.37 138.78 38.41 139.93 L 37.79 139.30 Z" />
<path fill="#121216" opacity="1.00" d=" M 78.98 140.70 C 79.11 140.31 79.38 139.53 79.51 139.13 L 80.00 139.31 C 82.24 140.13 84.51 140.89 86.84 141.43 C 88.67 142.07 91.15 142.00 92.05 144.07 C 87.62 143.26 83.37 141.71 78.98 140.70 Z" />
<path fill="#121216" opacity="1.00" d=" M 34.11 140.30 L 34.34 139.28 C 34.48 140.34 34.76 142.47 34.91 143.53 C 35.55 143.17 36.83 142.44 37.47 142.08 C 36.30 143.99 35.78 146.58 33.53 147.56 L 33.14 146.11 C 34.38 144.66 34.33 142.72 33.97 140.96 L 34.11 140.30 Z" />
<path fill="#121216" opacity="1.00" d=" M 79.60 143.35 C 83.24 142.55 86.58 144.81 90.14 145.18 C 89.90 145.49 89.42 146.11 89.18 146.42 C 86.00 145.35 82.78 144.43 79.60 143.35 Z" />
<path fill="#121216" opacity="1.00" d=" M 81.89 146.04 C 83.67 146.41 86.70 146.27 86.94 148.66 C 85.13 148.05 83.25 147.46 81.89 146.04 Z" />
<path fill="#121216" opacity="1.00" d=" M 39.28 146.46 C 39.76 146.48 40.73 146.51 41.21 146.52 C 41.98 147.45 42.73 148.40 43.48 149.35 L 43.51 149.84 C 43.59 151.52 43.62 153.20 43.66 154.88 C 43.30 154.77 42.58 154.56 42.21 154.45 C 42.57 152.58 43.12 150.62 42.19 148.81 C 41.49 150.25 40.84 151.71 40.21 153.18 L 40.07 153.49 C 38.42 153.62 36.76 153.68 35.11 153.78 C 34.60 153.63 33.58 153.33 33.06 153.18 C 32.63 153.12 31.77 153.01 31.34 152.95 C 30.99 152.62 30.28 151.95 29.92 151.62 C 30.25 150.90 30.60 150.18 30.95 149.47 C 31.12 151.89 33.07 152.48 35.12 152.83 C 35.40 152.25 35.98 151.10 36.27 150.53 C 36.67 150.70 37.47 151.05 37.87 151.23 C 38.40 150.92 39.45 150.30 39.98 150.00 C 39.75 148.82 39.52 147.64 39.28 146.46 Z" />
<path fill="#121216" opacity="1.00" d=" M 67.32 156.25 C 67.50 154.98 67.69 153.72 67.88 152.46 C 68.62 152.87 70.11 153.69 70.86 154.09 C 70.34 155.16 69.83 156.23 69.31 157.30 C 66.35 158.42 63.36 159.98 60.09 159.46 C 56.98 158.96 53.25 159.62 50.83 157.19 L 50.59 157.01 C 52.18 157.15 53.79 157.30 55.38 157.50 C 59.40 158.24 63.55 157.85 67.32 156.25 Z" />
<path fill="#121216" opacity="1.00" d=" M 8.25 158.45 C 11.18 158.61 12.66 155.39 14.98 154.05 L 16.41 154.26 C 13.79 156.08 9.96 158.12 10.57 161.92 L 9.62 162.06 C 8.77 163.60 9.80 165.38 9.90 166.99 C 8.78 168.42 7.66 169.83 6.45 171.18 C 6.95 169.04 8.55 167.25 8.44 164.96 C 8.43 162.87 9.20 160.91 9.85 158.96 C 8.99 159.62 7.28 160.95 6.42 161.62 C 6.66 161.17 7.15 160.29 7.39 159.84 C 7.61 159.49 8.03 158.80 8.25 158.45 Z" />
<path fill="#121216" opacity="1.00" d=" M 42.54 160.07 L 43.81 160.97 C 44.04 161.16 44.49 161.54 44.72 161.73 C 44.90 166.62 45.36 171.49 45.66 176.38 C 45.54 176.58 45.30 176.98 45.17 177.18 C 45.70 178.27 46.28 179.34 46.89 180.38 C 42.86 178.71 38.62 177.64 34.42 176.47 C 33.90 176.03 32.86 175.17 32.34 174.74 C 34.98 175.68 37.61 176.62 40.27 177.50 C 40.52 176.88 41.00 175.63 41.25 175.00 C 41.36 175.86 41.60 177.59 41.71 178.45 C 42.09 177.89 42.84 176.76 43.22 176.19 C 43.54 170.82 43.05 165.42 42.54 160.07 Z" />
<path fill="#121216" opacity="1.00" d=" M 74.62 161.92 C 74.98 161.78 75.68 161.52 76.03 161.38 C 77.46 162.07 78.89 162.78 80.30 163.53 C 78.21 163.80 76.22 163.32 74.62 161.92 Z" />
<path fill="#121216" opacity="1.00" d=" M 81.86 162.81 C 82.17 163.38 82.78 164.53 83.09 165.10 C 84.33 165.23 85.57 165.38 86.81 165.55 C 87.84 165.94 88.86 166.38 89.87 166.85 C 89.41 167.09 88.51 167.56 88.05 167.80 C 85.86 166.78 83.55 165.98 81.44 164.79 C 81.55 164.29 81.76 163.30 81.86 162.81 Z" />
<path fill="#121216" opacity="1.00" d=" M 103.85 170.04 C 103.76 170.83 103.69 171.62 103.62 172.42 C 103.27 172.49 102.56 172.65 102.21 172.72 C 100.75 172.73 99.30 172.71 97.85 172.68 L 98.72 172.06 C 99.82 172.01 100.93 171.93 102.03 171.84 C 102.49 171.39 103.39 170.49 103.85 170.04 Z" />
<path fill="#121216" opacity="1.00" d=" M 47.85 179.81 C 50.75 180.72 53.61 181.76 56.25 183.28 C 53.29 182.65 50.36 181.84 47.57 180.67 L 47.85 179.81 Z" />
</g>
<g id="#a9a9a9ff">
<path fill="#a9a9a9" opacity="1.00" d=" M 50.00 72.28 C 50.31 72.95 50.94 74.29 51.25 74.96 C 52.44 73.23 53.79 74.85 54.58 75.94 C 52.10 76.10 49.58 75.81 47.49 74.35 C 48.08 74.26 49.26 74.07 49.85 73.98 L 50.00 72.28 Z" />
</g>
<g id="#9c9c9cff">
<path fill="#9c9c9c" opacity="1.00" d=" M 55.31 74.35 C 55.88 74.85 55.88 74.85 55.31 74.35 Z" />
</g>
<g id="#484c5bff">
<path fill="#484c5b" opacity="1.00" d=" M 22.77 89.06 L 24.53 88.73 C 25.24 90.18 25.88 91.66 26.52 93.15 C 28.79 91.97 31.04 90.70 33.52 89.99 C 36.16 90.67 41.14 90.44 40.02 94.50 L 39.07 95.11 C 36.55 95.90 37.06 98.73 36.68 100.81 C 35.42 100.70 34.15 100.60 32.89 100.50 C 31.75 99.66 30.61 98.83 29.51 97.97 L 29.43 97.89 C 29.10 97.73 28.44 97.40 28.11 97.23 C 28.11 97.66 28.11 98.53 28.11 98.96 C 27.87 99.25 27.37 99.83 27.13 100.13 C 26.82 100.49 26.19 101.22 25.88 101.59 C 26.63 101.75 28.14 102.06 28.89 102.22 C 28.98 102.91 29.16 104.28 29.25 104.97 C 28.54 105.01 27.12 105.07 26.41 105.11 C 26.98 105.46 28.12 106.16 28.69 106.52 L 28.67 106.88 C 28.50 107.38 28.17 108.39 28.00 108.89 C 27.38 109.17 26.13 109.73 25.51 110.01 L 25.04 110.19 C 25.28 110.58 25.76 111.36 26.01 111.75 C 25.85 112.11 25.54 112.84 25.38 113.20 C 25.33 113.60 25.22 114.40 25.17 114.79 L 24.99 115.50 C 24.68 116.33 24.73 117.15 25.14 117.96 C 24.77 118.17 24.02 118.57 23.64 118.77 L 23.06 119.00 C 22.64 117.86 22.12 116.64 21.00 116.02 C 21.27 115.42 21.80 114.22 22.06 113.62 L 22.19 113.48 C 22.21 113.41 22.25 113.27 22.27 113.20 C 22.51 112.85 23.01 112.15 23.25 111.80 C 25.34 110.23 23.20 107.68 22.08 106.19 C 22.63 102.85 22.53 99.30 24.16 96.24 C 25.80 93.84 23.54 91.33 22.77 89.06 M 26.32 97.10 C 26.87 97.60 26.87 97.60 26.32 97.10 M 25.38 99.07 C 25.87 99.61 25.87 99.61 25.38 99.07 Z" />
</g>
<g id="#2f3037ff">
<path fill="#2f3037" opacity="1.00" d=" M 36.68 100.81 C 37.06 98.73 36.55 95.90 39.07 95.11 C 38.99 96.28 38.92 97.46 38.88 98.64 C 37.84 101.48 36.52 104.19 35.03 106.81 C 34.54 105.28 33.13 102.69 31.20 103.97 C 29.76 102.28 29.36 100.13 29.51 97.97 C 30.61 98.83 31.75 99.66 32.89 100.50 C 34.15 100.60 35.42 100.70 36.68 100.81 Z" />
</g>
<g id="#595d6bff">
<path fill="#595d6b" opacity="1.00" d=" M 48.03 96.25 C 49.91 95.81 51.87 95.88 53.43 97.14 L 53.86 97.79 C 52.14 98.35 53.05 100.62 54.65 100.37 L 54.72 100.59 C 54.20 100.85 53.16 101.37 52.65 101.63 L 52.26 101.84 L 52.02 102.28 C 49.09 106.15 51.02 111.45 48.54 115.53 C 46.29 119.28 45.50 124.22 41.89 126.92 C 39.99 125.25 39.67 122.54 38.72 120.32 C 38.21 119.94 37.20 119.17 36.69 118.79 C 36.26 118.55 35.40 118.08 34.96 117.85 L 33.73 118.25 L 33.78 117.68 C 33.81 117.24 33.88 116.35 33.91 115.91 L 34.19 113.84 C 34.51 114.03 35.15 114.41 35.48 114.60 C 34.40 109.27 36.92 104.10 40.21 100.07 L 41.52 99.99 C 42.58 99.94 43.64 99.90 44.71 99.88 C 44.84 99.27 45.11 98.05 45.25 97.44 L 45.86 97.17 C 46.83 97.99 47.91 98.32 49.11 98.15 C 50.64 97.48 49.02 96.17 48.03 96.25 M 41.17 117.99 C 44.50 111.77 48.43 105.77 50.76 99.07 C 47.60 105.39 43.36 111.24 41.17 117.99 Z" />
</g>
<g id="#7c82c5ff">
<path fill="#7c82c5" opacity="1.00" d=" M 26.32 97.10 C 26.87 97.60 26.87 97.60 26.32 97.10 Z" />
</g>
<g id="#131710ff">
<path fill="#131710" opacity="1.00" d=" M 28.11 97.23 C 28.44 97.40 29.10 97.73 29.43 97.89 C 29.10 98.16 28.44 98.70 28.11 98.96 C 28.11 98.53 28.11 97.66 28.11 97.23 Z" />
</g>
<g id="#151a2eff">
<path fill="#151a2e" opacity="1.00" d=" M 25.38 99.07 C 25.87 99.61 25.87 99.61 25.38 99.07 Z" />
</g>
<g id="#afbdcaff">
<path fill="#afbdca" opacity="1.00" d=" M 41.17 117.99 C 43.36 111.24 47.60 105.39 50.76 99.07 C 48.43 105.77 44.50 111.77 41.17 117.99 Z" />
<path fill="#afbdca" opacity="1.00" d=" M 3.32 156.41 C 4.17 157.71 5.04 159.00 5.92 160.28 L 6.08 158.71 L 7.39 159.84 C 7.15 160.29 6.66 161.17 6.42 161.62 C 6.34 161.75 6.17 162.02 6.09 162.15 C 5.06 161.57 4.04 160.99 3.01 160.41 C 3.10 159.07 3.20 157.74 3.32 156.41 Z" />
<path fill="#afbdca" opacity="1.00" d=" M 14.59 162.66 C 16.48 162.25 18.39 161.97 20.29 161.62 C 20.29 163.78 20.13 166.48 22.53 167.48 C 25.36 169.49 28.48 167.29 31.07 166.02 C 31.10 166.67 31.14 167.98 31.16 168.63 L 31.18 169.27 C 27.24 171.85 23.04 174.06 18.65 175.77 C 18.95 175.43 19.55 174.76 19.85 174.42 C 18.62 174.47 17.38 174.53 16.15 174.61 C 16.30 173.17 16.65 171.72 16.48 170.27 C 15.60 169.06 14.48 168.06 13.60 166.86 C 13.11 165.41 14.09 163.97 14.59 162.66 Z" />
</g>
<g id="#949493ff">
<path fill="#949493" opacity="1.00" d=" M 56.24 105.14 C 56.78 105.68 56.78 105.68 56.24 105.14 Z" />
</g>
<g id="#1a1a1eff">
<path fill="#1a1a1e" opacity="1.00" d=" M 28.00 108.89 C 28.17 108.39 28.50 107.38 28.67 106.88 C 28.69 107.31 28.74 108.17 28.76 108.60 C 30.23 108.68 31.71 108.76 33.18 108.84 C 32.58 109.46 31.97 110.08 31.36 110.71 C 32.01 111.35 32.66 112.00 33.31 112.64 C 31.92 112.56 30.53 112.45 29.14 112.33 C 27.93 111.56 26.73 110.76 25.51 110.01 C 26.13 109.73 27.38 109.17 28.00 108.89 Z" />
</g>
<g id="#4e4e5bff">
<path fill="#4e4e5b" opacity="1.00" d=" M 54.60 106.68 C 56.59 108.03 56.90 110.45 57.31 112.62 C 59.16 113.66 60.50 115.27 57.35 116.17 C 57.12 115.46 56.66 114.04 56.43 113.33 C 56.16 113.58 55.63 114.08 55.36 114.33 C 51.47 117.11 50.50 121.99 48.68 126.11 L 47.34 126.86 C 48.61 126.93 49.88 126.98 51.16 127.01 C 50.61 127.19 49.51 127.54 48.96 127.72 C 48.51 127.78 47.62 127.90 47.17 127.96 L 45.74 128.57 C 48.04 122.42 51.00 116.51 53.98 110.67 C 53.68 109.81 53.39 108.96 53.09 108.11 C 53.59 108.52 54.58 109.35 55.08 109.76 C 54.96 108.99 54.72 107.45 54.60 106.68 Z" />
<path fill="#4e4e5b" opacity="1.00" d=" M 33.73 118.25 L 34.96 117.85 C 35.21 118.22 35.70 118.97 35.95 119.34 C 35.33 121.06 34.80 122.81 34.33 124.57 C 33.74 123.71 33.15 122.85 32.55 121.99 C 33.22 120.84 33.43 119.52 33.73 118.25 Z" />
</g>
<g id="#0a0c19ff">
<path fill="#0a0c19" opacity="1.00" d=" M 22.27 113.20 C 22.25 113.27 22.21 113.41 22.19 113.48 L 22.06 113.62 L 22.27 113.20 Z" />
</g>
<g id="#ced9e3ff">
<path fill="#ced9e3" opacity="1.00" d=" M 25.38 113.20 C 26.88 113.95 28.44 115.49 30.24 114.91 L 30.23 115.46 C 30.29 117.26 32.25 117.96 33.73 118.25 C 33.43 119.52 33.22 120.84 32.55 121.99 C 32.17 122.03 31.39 122.12 31.00 122.16 C 29.04 120.77 27.00 119.49 25.14 117.96 C 24.73 117.15 24.68 116.33 24.99 115.50 C 26.93 117.13 29.07 120.85 31.85 119.82 C 30.77 117.07 27.87 115.54 25.17 114.79 C 25.22 114.40 25.33 113.60 25.38 113.20 Z" />
<path fill="#ced9e3" opacity="1.00" d=" M 34.96 117.85 C 35.40 118.08 36.26 118.55 36.69 118.79 L 35.95 119.34 C 35.70 118.97 35.21 118.22 34.96 117.85 Z" />
<path fill="#ced9e3" opacity="1.00" d=" M 41.25 158.99 C 42.13 159.61 42.98 160.28 43.81 160.97 L 42.54 160.07 C 43.05 165.42 43.54 170.82 43.22 176.19 C 42.84 176.76 42.09 177.89 41.71 178.45 C 41.60 177.59 41.36 175.86 41.25 175.00 C 41.91 169.67 40.67 164.33 41.25 158.99 Z" />
<path fill="#ced9e3" opacity="1.00" d=" M 18.65 175.77 C 23.04 174.06 27.24 171.85 31.18 169.27 C 31.23 171.14 31.37 173.08 32.34 174.74 C 32.86 175.17 33.90 176.03 34.42 176.47 C 31.57 175.93 28.62 174.68 25.72 175.61 C 22.72 176.53 19.61 176.91 16.48 176.74 C 17.02 176.50 18.11 176.02 18.65 175.77 Z" />
</g>
<g id="#4b5260ff">
<path fill="#4b5260" opacity="1.00" d=" M 48.68 126.11 C 50.50 121.99 51.47 117.11 55.36 114.33 C 55.94 115.04 56.54 115.73 57.14 116.42 C 56.69 116.90 55.78 117.85 55.32 118.33 C 55.07 120.60 54.95 122.88 54.80 125.16 C 52.75 125.42 50.71 125.71 48.68 126.11 Z" />
<path fill="#4b5260" opacity="1.00" d=" M 38.45 145.15 C 37.35 144.32 37.51 143.50 38.91 142.68 C 38.79 143.30 38.56 144.53 38.45 145.15 Z" />
<path fill="#4b5260" opacity="1.00" d=" M 2.98 155.88 C 4.68 155.64 6.39 155.41 8.05 154.93 C 7.41 155.63 6.81 156.35 6.24 157.11 C 6.20 157.51 6.12 158.31 6.08 158.71 L 5.92 160.28 C 5.04 159.00 4.17 157.71 3.32 156.41 L 2.98 155.88 Z" />
</g>
<g id="#141839ff">
<path fill="#141839" opacity="1.00" d=" M 21.00 116.02 C 22.12 116.64 22.64 117.86 23.06 119.00 C 22.65 119.00 21.83 119.01 21.42 119.02 C 21.32 118.27 21.11 116.77 21.00 116.02 Z" />
</g>
<g id="#1555d2ff">
<path fill="#1555d2" opacity="1.00" d=" M 3.11 121.99 C 9.14 120.68 15.27 119.57 21.42 119.02 C 21.83 119.01 22.65 119.00 23.06 119.00 C 23.53 120.15 24.38 121.15 25.52 121.69 L 25.08 122.14 C 24.69 122.51 23.93 123.24 23.54 123.61 C 23.73 125.68 24.09 127.73 24.42 129.79 C 27.24 129.39 30.06 128.95 32.89 128.69 C 33.15 129.08 33.66 129.85 33.92 130.24 C 28.72 130.99 23.57 131.96 18.38 132.77 C 17.89 132.36 16.91 131.54 16.42 131.13 C 17.92 130.95 19.41 130.76 20.91 130.55 L 21.27 130.49 C 21.38 127.21 21.33 123.94 21.10 120.67 L 20.31 120.68 C 14.46 121.20 8.75 122.75 2.88 123.20 L 3.11 121.99 Z" />
</g>
<g id="#d699beff">
<path fill="#d699be" opacity="1.00" d=" M 23.06 119.00 L 23.64 118.77 C 24.79 119.01 25.69 119.61 26.33 120.57 L 26.11 121.41 L 25.52 121.69 C 24.38 121.15 23.53 120.15 23.06 119.00 Z" />
</g>
<g id="#890000ff">
<path fill="#890000" opacity="1.00" d=" M 54.80 125.16 C 54.95 122.88 55.07 120.60 55.32 118.33 C 57.73 119.71 60.16 121.26 60.95 124.11 C 58.91 124.50 56.87 124.88 54.80 125.16 Z" />
<path fill="#890000" opacity="1.00" d=" M 56.17 146.18 C 57.26 143.97 59.53 146.79 57.14 147.42 C 56.90 147.11 56.41 146.49 56.17 146.18 Z" />
<path fill="#890000" opacity="1.00" d=" M 83.73 148.60 C 84.66 149.69 85.51 150.85 86.09 152.18 C 86.97 154.65 88.04 157.08 88.63 159.65 C 88.27 159.84 87.55 160.23 87.19 160.42 C 84.10 159.32 80.66 158.79 78.00 156.78 C 77.96 154.57 80.19 153.25 81.31 151.55 C 82.12 150.57 82.93 149.58 83.73 148.60 M 83.36 150.87 C 82.89 152.24 83.74 154.99 85.38 154.99 C 85.62 153.66 85.06 150.67 83.36 150.87 M 78.58 156.05 C 81.35 157.74 84.66 158.04 87.53 159.51 C 87.36 157.05 85.46 154.20 82.89 156.45 C 82.67 155.68 82.22 154.16 81.99 153.40 C 80.85 154.27 79.71 155.15 78.58 156.05 Z" />
</g>
<g id="#2684e3ff">
<path fill="#2684e3" opacity="1.00" d=" M 2.88 123.20 C 8.75 122.75 14.46 121.20 20.31 120.68 C 20.55 123.97 20.74 127.26 20.91 130.55 C 19.41 130.76 17.92 130.95 16.42 131.13 C 16.91 131.54 17.89 132.36 18.38 132.77 C 17.92 132.84 17.00 132.99 16.54 133.06 C 13.50 131.25 9.65 130.77 6.24 131.67 C 6.12 131.49 5.89 131.13 5.78 130.95 C 5.21 129.50 4.58 129.48 3.89 130.90 L 2.90 131.13 C 3.06 128.49 3.08 125.84 2.88 123.20 Z" />
<path fill="#2684e3" opacity="1.00" d=" M 31.00 122.16 C 31.39 122.12 32.17 122.03 32.55 121.99 C 33.15 122.85 33.74 123.71 34.33 124.57 C 35.19 124.85 36.91 125.39 37.77 125.66 C 37.78 125.97 37.79 126.58 37.79 126.89 C 37.23 126.75 36.10 126.49 35.54 126.35 L 34.89 126.06 C 34.01 125.44 33.13 124.85 32.24 124.26 C 31.96 123.86 31.38 123.06 31.09 122.66 L 31.00 122.16 Z" />
<path fill="#2684e3" opacity="1.00" d=" M 41.70 135.12 C 42.08 134.89 42.85 134.41 43.24 134.17 C 42.86 134.62 42.09 135.52 41.71 135.97 L 41.70 135.12 Z" />
<path fill="#2684e3" opacity="1.00" d=" M 36.90 139.53 L 37.79 139.30 L 38.41 139.93 C 38.17 140.47 37.71 141.54 37.47 142.08 C 37.33 141.44 37.05 140.17 36.90 139.53 Z" />
</g>
<g id="#e43435ff">
<path fill="#e43435" opacity="1.00" d=" M 26.33 120.57 C 28.07 120.86 29.53 121.90 31.09 122.66 C 31.38 123.06 31.96 123.86 32.24 124.26 C 31.95 124.41 31.35 124.73 31.05 124.89 L 29.57 124.63 C 29.48 124.55 29.31 124.38 29.23 124.30 C 28.23 123.29 27.17 122.34 26.11 121.41 L 26.33 120.57 Z" />
<path fill="#e43435" opacity="1.00" d=" M 35.84 127.76 C 37.71 128.14 37.34 130.52 36.74 131.81 L 36.41 131.74 C 36.28 131.27 36.01 130.33 35.88 129.86 L 35.58 128.43 L 35.84 127.76 Z" />
<path fill="#e43435" opacity="1.00" d=" M 45.74 130.10 C 47.83 130.18 49.92 130.35 51.99 130.62 C 52.19 131.26 52.59 132.54 52.79 133.18 C 54.14 135.99 55.67 138.72 57.50 141.26 C 56.04 142.31 54.47 143.23 52.73 143.74 C 49.98 143.42 47.21 143.37 44.45 143.40 C 43.86 143.89 42.68 144.85 42.10 145.33 C 41.70 143.60 41.31 141.86 41.35 140.09 L 41.81 139.00 C 43.83 136.42 46.02 133.59 45.74 130.10 Z" />
</g>
<g id="#0d8becff">
<path fill="#0d8bec" opacity="1.00" d=" M 25.52 121.69 L 26.11 121.41 C 27.17 122.34 28.23 123.29 29.23 124.30 L 29.21 124.59 C 27.47 124.66 25.65 123.91 25.08 122.14 L 25.52 121.69 Z" />
</g>
<g id="#296cdaff">
<path fill="#296cda" opacity="1.00" d=" M 23.54 123.61 C 23.93 123.24 24.69 122.51 25.08 122.14 C 25.65 123.91 27.47 124.66 29.21 124.59 L 29.57 124.63 L 31.05 124.89 L 31.25 125.46 C 31.75 126.56 32.30 127.64 32.89 128.69 C 30.06 128.95 27.24 129.39 24.42 129.79 C 24.09 127.73 23.73 125.68 23.54 123.61 Z" />
<path fill="#296cda" opacity="1.00" d=" M 6.24 131.67 C 9.65 130.77 13.50 131.25 16.54 133.06 C 13.05 133.65 9.38 133.39 6.24 131.67 Z" />
<path fill="#296cda" opacity="1.00" d=" M 4.19 132.81 C 4.66 132.91 5.59 133.11 6.06 133.21 C 5.24 134.46 4.61 134.33 4.19 132.81 Z" />
</g>
<g id="#9198e9ff">
<path fill="#9198e9" opacity="1.00" d=" M 29.23 124.30 C 29.31 124.38 29.48 124.55 29.57 124.63 L 29.21 124.59 L 29.23 124.30 Z" />
</g>
<g id="#df6583ff">
<path fill="#df6583" opacity="1.00" d=" M 32.24 124.26 C 33.13 124.85 34.01 125.44 34.89 126.06 C 34.99 126.43 35.19 127.18 35.30 127.55 L 34.70 127.52 C 33.29 127.41 32.21 126.39 31.25 125.46 L 31.05 124.89 C 31.35 124.73 31.95 124.41 32.24 124.26 Z" />
</g>
<g id="#a51311ff">
<path fill="#a51311" opacity="1.00" d=" M 57.89 126.25 C 58.76 124.21 61.27 123.84 62.57 125.72 C 61.97 125.82 60.76 126.03 60.16 126.13 C 60.14 126.65 60.09 127.68 60.07 128.19 C 59.45 128.37 58.21 128.72 57.59 128.90 L 56.86 129.23 L 56.28 129.47 C 55.56 129.42 54.11 129.32 53.39 129.27 C 53.03 129.01 52.31 128.48 51.94 128.21 C 51.96 128.81 51.98 130.01 51.99 130.62 C 49.92 130.35 47.83 130.18 45.74 130.10 L 45.24 130.04 C 45.37 129.67 45.62 128.93 45.74 128.57 L 47.17 127.96 C 47.72 129.37 48.32 129.29 48.96 127.72 C 49.51 127.54 50.61 127.19 51.16 127.01 C 53.33 126.29 55.61 126.06 57.89 126.25 Z" />
</g>
<g id="#2797efff">
<path fill="#2797ef" opacity="1.00" d=" M 31.25 125.46 C 32.21 126.39 33.29 127.41 34.70 127.52 L 35.30 127.55 C 35.37 127.77 35.51 128.21 35.58 128.43 L 35.88 129.86 C 35.63 130.19 35.13 130.85 34.87 131.18 L 34.40 130.91 L 33.92 130.24 C 33.66 129.85 33.15 129.08 32.89 128.69 C 32.30 127.64 31.75 126.56 31.25 125.46 Z" />
</g>
<g id="#b774cdff">
<path fill="#b774cd" opacity="1.00" d=" M 35.30 127.55 L 35.84 127.76 L 35.58 128.43 C 35.51 128.21 35.37 127.77 35.30 127.55 Z" />
</g>
<g id="#d00e14ff">
<path fill="#d00e14" opacity="1.00" d=" M 39.55 129.84 C 40.64 129.19 41.73 128.56 42.80 127.87 C 42.71 128.64 42.52 130.16 42.42 130.93 L 42.42 130.99 L 42.31 130.92 C 41.92 131.85 41.14 133.72 40.76 134.65 C 40.50 133.01 40.11 131.40 39.55 129.84 Z" />
</g>
<g id="#e20f35ff">
<path fill="#e20f35" opacity="1.00" d=" M 47.17 127.96 C 47.62 127.90 48.51 127.78 48.96 127.72 C 48.32 129.29 47.72 129.37 47.17 127.96 Z" />
</g>
<g id="#7fb1b5ff">
<path fill="#7fb1b5" opacity="1.00" d=" M 51.94 128.21 C 52.31 128.48 53.03 129.01 53.39 129.27 C 54.70 131.15 55.91 133.08 57.20 134.98 C 57.50 135.55 58.11 136.71 58.41 137.29 C 58.08 137.48 57.41 137.87 57.08 138.06 C 56.72 137.47 55.99 136.28 55.62 135.68 C 55.56 135.59 55.44 135.42 55.37 135.33 C 54.96 134.79 54.12 133.70 53.70 133.16 C 53.69 131.96 53.12 131.12 51.99 130.62 C 51.98 130.01 51.96 128.81 51.94 128.21 Z" />
</g>
<g id="#797d83ff">
<path fill="#797d83" opacity="1.00" d=" M 71.98 129.09 C 74.70 128.52 77.75 128.12 79.59 130.71 L 78.15 131.05 L 78.02 130.17 C 76.60 127.79 74.10 129.74 72.15 130.10 L 71.98 129.09 Z" />
<path fill="#797d83" opacity="1.00" d=" M 68.68 129.91 C 70.63 128.36 71.27 131.00 72.24 132.17 C 71.26 131.58 70.29 130.98 69.32 130.37 C 68.26 130.53 66.14 130.84 65.08 131.00 C 66.05 130.11 67.25 129.75 68.68 129.91 Z" />
<path fill="#797d83" opacity="1.00" d=" M 46.38 163.81 C 49.93 167.31 53.64 170.70 57.82 173.44 C 57.91 176.56 57.99 179.68 58.06 182.80 C 58.53 182.62 59.45 182.24 59.91 182.06 C 62.14 181.20 64.45 180.60 66.76 179.98 C 64.01 182.49 60.01 185.05 56.25 183.28 C 53.61 181.76 50.75 180.72 47.85 179.81 L 47.57 180.67 C 47.40 180.60 47.06 180.46 46.89 180.38 C 46.28 179.34 45.70 178.27 45.17 177.18 C 45.30 176.98 45.54 176.58 45.66 176.38 C 46.11 176.15 47.01 175.71 47.46 175.48 C 47.39 171.57 46.97 167.68 46.38 163.81 Z" />
<path fill="#797d83" opacity="1.00" d=" M 75.73 176.77 C 78.73 175.14 81.73 177.14 84.42 178.39 C 85.89 180.61 88.23 181.92 90.53 183.12 C 85.10 182.47 80.88 178.41 75.73 176.77 Z" />
</g>
<g id="#d01012ff">
<path fill="#d01012" opacity="1.00" d=" M 53.39 129.27 C 54.11 129.32 55.56 129.42 56.28 129.47 C 57.11 130.67 57.93 131.89 58.74 133.11 L 59.22 133.85 L 58.99 135.27 C 58.54 135.20 57.65 135.05 57.20 134.98 C 55.91 133.08 54.70 131.15 53.39 129.27 Z" />
</g>
<g id="#df0614ff">
<path fill="#df0614" opacity="1.00" d=" M 57.51 130.63 C 58.12 129.83 59.11 128.83 60.22 129.22 C 60.08 129.82 59.81 131.03 59.67 131.63 L 58.81 132.03 C 58.48 131.68 57.83 130.98 57.51 130.63 Z" />
</g>
<g id="#001cc3ff">
<path fill="#001cc3" opacity="1.00" d=" M 3.89 130.90 C 4.58 129.48 5.21 129.50 5.78 130.95 C 5.31 130.94 4.36 130.92 3.89 130.90 Z" />
</g>
<g id="#09155aff">
<path fill="#09155a" opacity="1.00" d=" M 34.87 131.18 C 35.13 130.85 35.63 130.19 35.88 129.86 C 36.01 130.33 36.28 131.27 36.41 131.74 C 36.02 131.60 35.26 131.32 34.87 131.18 Z" />
</g>
<g id="#df0804ff">
<path fill="#df0804" opacity="1.00" d=" M 45.24 130.04 L 45.74 130.10 C 46.02 133.59 43.83 136.42 41.81 139.00 C 41.78 138.47 41.73 137.41 41.70 136.88 L 41.71 135.97 C 42.09 135.52 42.86 134.62 43.24 134.17 C 44.03 132.86 44.81 131.52 45.24 130.04 Z" />
</g>
<g id="#214db9ff">
<path fill="#214db9" opacity="1.00" d=" M 23.58 133.44 C 26.70 131.31 30.80 131.60 34.40 130.91 L 34.87 131.18 C 35.26 131.32 36.02 131.60 36.41 131.74 L 36.74 131.81 L 37.58 132.01 C 37.51 133.00 37.43 133.98 37.32 134.97 C 36.78 134.52 35.69 133.63 35.14 133.19 C 34.90 135.22 34.65 137.26 34.34 139.28 L 34.11 140.30 C 34.13 137.53 34.14 134.76 34.21 132.00 C 31.75 132.55 29.20 132.85 26.85 133.80 C 25.27 135.40 24.44 137.55 23.44 139.52 C 21.56 143.65 18.75 147.24 16.70 151.27 C 16.50 151.63 16.11 152.36 15.92 152.72 L 15.01 152.99 C 12.02 153.72 9.76 155.84 8.25 158.45 C 8.03 158.80 7.61 159.49 7.39 159.84 L 6.08 158.71 C 6.12 158.31 6.20 157.51 6.24 157.11 C 6.81 156.35 7.41 155.63 8.05 154.93 C 8.92 153.74 12.53 152.87 10.84 151.21 C 8.52 151.87 6.33 152.94 4.04 153.71 C 3.84 152.93 3.44 151.38 3.24 150.60 C 3.16 150.14 2.99 149.22 2.91 148.76 C 3.73 149.67 4.54 150.59 5.35 151.52 C 7.25 150.84 9.15 150.17 11.08 149.63 C 11.65 149.99 12.79 150.69 13.36 151.04 C 14.86 148.93 16.26 146.75 17.70 144.60 C 19.51 142.13 21.15 139.55 22.62 136.87 C 23.11 136.07 23.61 135.27 24.10 134.48 L 23.58 133.44 Z" />
</g>
<g id="#8c8c93ff">
<path fill="#8c8c93" opacity="1.00" d=" M 60.97 131.15 C 63.55 131.05 66.02 131.90 67.58 134.04 C 65.50 132.81 63.27 131.87 60.97 131.15 Z" />
<path fill="#8c8c93" opacity="1.00" d=" M 67.82 133.97 C 70.68 135.70 73.95 137.07 76.11 139.72 C 73.24 137.97 70.14 136.45 67.82 133.97 Z" />
<path fill="#8c8c93" opacity="1.00" d=" M 62.12 136.01 C 65.38 137.66 68.67 139.44 71.23 142.09 C 68.03 140.36 64.66 138.69 62.12 136.01 Z" />
<path fill="#8c8c93" opacity="1.00" d=" M 64.37 165.56 C 65.12 164.74 65.87 163.92 66.65 163.14 C 67.12 163.28 68.05 163.57 68.51 163.71 L 68.08 164.39 C 66.11 168.05 61.23 173.58 56.88 170.17 C 57.54 170.01 58.84 169.71 59.49 169.55 C 59.50 167.99 59.52 166.43 59.50 164.87 C 60.71 164.69 61.93 164.53 63.15 164.36 C 63.45 164.66 64.06 165.26 64.37 165.56 Z" />
</g>
<g id="#d9bf06ff">
<path fill="#d9bf06" opacity="1.00" d=" M 79.75 130.26 C 84.42 130.86 89.22 131.46 93.44 133.71 C 94.98 134.19 94.61 136.11 95.13 137.29 L 93.97 136.49 C 93.79 136.37 93.45 136.13 93.28 136.01 C 92.76 144.53 93.22 153.10 92.17 161.59 C 90.97 163.85 89.98 166.23 89.34 168.72 C 89.02 168.49 88.37 168.03 88.05 167.80 C 88.51 167.56 89.41 167.09 89.87 166.85 C 88.86 166.38 87.84 165.94 86.81 165.55 L 87.41 163.61 C 87.45 163.39 87.55 162.93 87.59 162.70 L 87.22 162.04 C 84.19 160.85 80.92 160.18 77.70 159.66 C 77.28 160.09 76.45 160.95 76.03 161.38 C 75.68 161.52 74.98 161.78 74.62 161.92 L 73.61 161.23 L 73.17 160.88 C 75.36 150.67 77.74 140.50 79.75 130.26 M 81.71 132.61 C 81.82 134.47 81.95 136.33 82.10 138.20 C 81.58 138.47 80.53 139.03 80.00 139.31 L 79.51 139.13 C 79.38 139.53 79.11 140.31 78.98 140.70 C 79.05 142.81 79.13 144.92 79.21 147.03 C 79.73 146.30 80.26 145.57 80.78 144.85 C 81.32 147.04 81.56 149.30 81.31 151.55 C 80.19 153.25 77.96 154.57 78.00 156.78 C 80.66 158.79 84.10 159.32 87.19 160.42 C 87.55 160.23 88.27 159.84 88.63 159.65 C 88.04 157.08 86.97 154.65 86.09 152.18 C 87.19 150.29 88.21 148.36 89.18 146.42 C 89.42 146.11 89.90 145.49 90.14 145.18 C 90.60 145.20 91.50 145.23 91.95 145.25 L 92.05 144.07 C 91.15 142.00 88.67 142.07 86.84 141.43 L 88.41 141.35 L 87.61 140.11 C 88.57 140.02 90.47 139.84 91.42 139.75 L 90.56 139.47 C 90.68 138.58 90.92 136.80 91.04 135.91 L 90.77 135.16 C 90.36 135.14 89.55 135.09 89.15 135.07 L 88.40 135.41 C 87.79 134.99 86.55 134.14 85.94 133.71 C 84.61 133.04 83.20 132.65 81.71 132.61 Z" />
</g>
<g id="#438be2ff">
<path fill="#438be2" opacity="1.00" d=" M 3.15 131.46 C 3.41 131.80 3.93 132.48 4.19 132.81 C 4.61 134.33 5.24 134.46 6.06 133.21 L 6.46 133.41 L 6.79 133.58 C 7.82 134.44 8.85 135.32 10.00 136.01 L 10.09 136.12 C 10.04 139.56 9.92 143.01 10.05 146.46 C 10.27 147.54 10.69 148.54 11.33 149.48 L 11.08 149.63 C 9.15 150.17 7.25 150.84 5.35 151.52 C 4.54 150.59 3.73 149.67 2.91 148.76 C 3.20 143.00 2.79 137.22 3.15 131.46 Z" />
</g>
<g id="#4099e8ff">
<path fill="#4099e8" opacity="1.00" d=" M 26.85 133.80 C 29.20 132.85 31.75 132.55 34.21 132.00 C 34.14 134.76 34.13 137.53 34.11 140.30 L 33.97 140.96 C 32.54 142.31 32.32 144.37 33.14 146.11 L 33.53 147.56 C 30.96 146.93 28.42 147.66 26.07 148.67 C 25.76 146.80 23.31 147.73 23.39 149.29 C 21.18 150.04 18.95 150.70 16.70 151.27 C 18.75 147.24 21.56 143.65 23.44 139.52 C 24.44 137.55 25.27 135.40 26.85 133.80 Z" />
</g>
<g id="#85181bff">
<path fill="#85181b" opacity="1.00" d=" M 58.81 132.03 L 59.67 131.63 C 59.56 132.19 59.34 133.29 59.22 133.85 L 58.74 133.11 L 58.81 132.03 Z" />
</g>
<g id="#1461d7ff">
<path fill="#1461d7" opacity="1.00" d=" M 6.79 133.58 C 12.27 135.89 18.01 133.58 23.47 132.49 L 23.45 133.19 C 20.36 137.29 17.82 141.77 14.78 145.91 L 13.92 145.74 C 15.39 141.87 17.97 138.61 20.10 135.10 C 16.78 135.75 13.40 136.34 10.00 136.01 C 8.85 135.32 7.82 134.44 6.79 133.58 Z" />
</g>
<g id="#d5080bff">
<path fill="#d5080b" opacity="1.00" d=" M 52.79 133.18 L 53.70 133.16 C 54.12 133.70 54.96 134.79 55.37 135.33 C 55.44 135.42 55.56 135.59 55.62 135.68 C 55.99 136.28 56.72 137.47 57.08 138.06 C 57.31 138.60 57.76 139.67 57.99 140.20 C 58.03 140.63 58.13 141.47 58.18 141.90 C 58.25 142.38 58.40 143.35 58.47 143.83 C 56.98 143.91 55.49 143.94 54.01 143.92 C 53.69 143.88 53.05 143.79 52.73 143.74 C 54.47 143.23 56.04 142.31 57.50 141.26 C 55.67 138.72 54.14 135.99 52.79 133.18 Z" />
</g>
<g id="#be9c0dff">
<path fill="#be9c0d" opacity="1.00" d=" M 81.71 132.61 C 83.20 132.65 84.61 133.04 85.94 133.71 L 85.10 133.94 C 84.52 133.97 83.36 134.03 82.79 134.05 C 83.26 135.31 83.73 136.56 84.21 137.81 C 86.34 138.32 88.47 138.82 90.56 139.47 L 91.42 139.75 C 90.47 139.84 88.57 140.02 87.61 140.11 C 85.80 139.39 83.98 138.70 82.10 138.20 C 81.95 136.33 81.82 134.47 81.71 132.61 Z" />
</g>
<g id="#e0dcc8ff">
<path fill="#e0dcc8" opacity="1.00" d=" M 14.78 145.91 C 17.82 141.77 20.36 137.29 23.45 133.19 L 23.58 133.44 L 24.10 134.48 C 23.61 135.27 23.11 136.07 22.62 136.87 C 20.95 139.43 19.33 142.01 17.70 144.60 C 16.26 146.75 14.86 148.93 13.36 151.04 C 12.79 150.69 11.65 149.99 11.08 149.63 L 11.33 149.48 L 11.66 149.29 C 13.31 148.91 14.63 147.64 14.78 145.91 Z" />
<path fill="#e0dcc8" opacity="1.00" d=" M 3.24 150.60 C 3.44 151.38 3.84 152.93 4.04 153.71 C 6.33 152.94 8.52 151.87 10.84 151.21 C 12.53 152.87 8.92 153.74 8.05 154.93 C 6.39 155.41 4.68 155.64 2.98 155.88 C 3.17 154.12 3.18 152.36 3.24 150.60 Z" />
<path fill="#e0dcc8" opacity="1.00" d=" M 8.25 158.45 C 9.76 155.84 12.02 153.72 15.01 152.99 L 14.98 154.05 C 12.66 155.39 11.18 158.61 8.25 158.45 Z" />
<path fill="#e0dcc8" opacity="1.00" d=" M 99.59 157.68 C 103.65 156.50 107.16 159.48 109.97 162.00 C 114.29 167.78 111.41 176.08 105.59 179.57 C 102.40 180.61 98.99 180.59 95.70 181.16 C 97.50 179.83 99.28 178.48 101.14 177.22 C 103.71 175.01 108.47 173.23 107.79 169.13 C 107.09 166.17 104.33 164.37 102.35 162.27 C 102.01 162.74 101.34 163.67 101.00 164.13 C 100.73 163.02 100.46 161.91 100.21 160.79 C 100.05 160.02 99.75 158.46 99.59 157.68 Z" />
</g>
<g id="#ab0202ff">
<path fill="#ab0202" opacity="1.00" d=" M 35.14 133.19 C 35.69 133.63 36.78 134.52 37.32 134.97 C 37.17 136.48 37.03 138.01 36.90 139.53 C 37.05 140.17 37.33 141.44 37.47 142.08 C 36.83 142.44 35.55 143.17 34.91 143.53 C 34.76 142.47 34.48 140.34 34.34 139.28 C 34.65 137.26 34.90 135.22 35.14 133.19 Z" />
</g>
<g id="#edeee7ff">
<path fill="#edeee7" opacity="1.00" d=" M 82.79 134.05 C 83.36 134.03 84.52 133.97 85.10 133.94 C 85.27 135.62 87.04 136.64 88.40 135.41 L 89.15 135.07 C 89.18 135.46 89.23 136.22 89.26 136.60 C 89.71 136.43 90.60 136.08 91.04 135.91 C 90.92 136.80 90.68 138.58 90.56 139.47 C 88.47 138.82 86.34 138.32 84.21 137.81 C 83.73 136.56 83.26 135.31 82.79 134.05 Z" />
</g>
<g id="#c7bcaeff">
<path fill="#c7bcae" opacity="1.00" d=" M 85.10 133.94 L 85.94 133.71 C 86.55 134.14 87.79 134.99 88.40 135.41 C 87.04 136.64 85.27 135.62 85.10 133.94 Z" />
</g>
<g id="#3d9aebff">
<path fill="#3d9aeb" opacity="1.00" d=" M 10.00 136.01 C 13.40 136.34 16.78 135.75 20.10 135.10 C 17.97 138.61 15.39 141.87 13.92 145.74 L 13.15 146.21 C 12.86 145.04 12.60 143.87 12.36 142.70 C 11.86 140.43 12.10 137.73 10.09 136.12 L 10.00 136.01 Z" />
</g>
<g id="#704246ff">
<path fill="#704246" opacity="1.00" d=" M 55.37 135.33 C 55.44 135.42 55.56 135.59 55.62 135.68 C 55.56 135.59 55.44 135.42 55.37 135.33 Z" />
</g>
<g id="#82121fff">
<path fill="#82121f" opacity="1.00" d=" M 57.20 134.98 C 57.65 135.05 58.54 135.20 58.99 135.27 C 58.99 135.69 59.00 136.53 59.00 136.95 L 58.41 137.29 C 58.11 136.71 57.50 135.55 57.20 134.98 Z" />
</g>
<g id="#cfc6b7ff">
<path fill="#cfc6b7" opacity="1.00" d=" M 89.15 135.07 C 89.55 135.09 90.36 135.14 90.77 135.16 L 91.04 135.91 C 90.60 136.08 89.71 136.43 89.26 136.60 C 89.23 136.22 89.18 135.46 89.15 135.07 Z" />
</g>
<g id="#bcdcf3ff">
<path fill="#bcdcf3" opacity="1.00" d=" M 10.09 136.12 C 12.10 137.73 11.86 140.43 12.36 142.70 C 11.57 143.94 10.78 145.18 10.05 146.46 C 9.92 143.01 10.04 139.56 10.09 136.12 Z" />
</g>
<g id="#585d67ff">
<path fill="#585d67" opacity="1.00" d=" M 58.41 137.29 L 59.00 136.95 C 59.77 139.32 60.84 141.59 61.22 144.07 C 62.29 145.39 63.53 146.56 65.01 147.43 C 64.93 148.84 64.85 150.24 64.77 151.65 C 65.81 151.90 66.85 152.17 67.88 152.46 C 67.69 153.72 67.50 154.98 67.32 156.25 C 63.55 157.85 59.40 158.24 55.38 157.50 C 55.63 155.07 56.87 152.98 58.20 151.01 C 57.29 151.29 56.38 151.58 55.47 151.86 C 55.81 150.52 56.14 149.17 56.48 147.82 C 54.65 148.06 52.81 148.30 50.97 148.54 C 51.05 147.04 51.11 145.55 51.15 144.05 L 49.73 143.88 C 48.61 143.64 47.50 143.68 46.42 143.98 L 46.29 144.65 C 46.01 146.18 45.75 147.73 45.45 149.27 C 45.11 147.76 44.79 146.25 44.51 144.73 C 44.49 144.40 44.46 143.74 44.45 143.40 C 47.21 143.37 49.98 143.42 52.73 143.74 C 53.05 143.79 53.69 143.88 54.01 143.92 C 54.41 144.18 55.23 144.70 55.63 144.96 L 56.17 146.18 C 56.41 146.49 56.90 147.11 57.14 147.42 C 57.66 147.79 58.70 148.52 59.22 148.89 L 59.21 146.51 C 60.67 147.58 60.81 149.06 60.36 150.68 C 61.54 151.00 62.72 151.29 63.91 151.54 C 63.92 150.60 63.94 148.71 63.95 147.76 C 63.32 148.52 62.69 149.28 62.06 150.05 C 62.18 149.30 62.42 147.82 62.54 147.08 C 61.17 146.00 59.79 144.96 58.47 143.83 C 58.40 143.35 58.25 142.38 58.18 141.90 C 60.50 143.50 60.17 139.49 57.99 140.20 C 57.76 139.67 57.31 138.60 57.08 138.06 C 57.41 137.87 58.08 137.48 58.41 137.29 Z" />
</g>
<g id="#bf5004ff">
<path fill="#bf5004" opacity="1.00" d=" M 93.97 136.49 L 95.13 137.29 C 95.89 140.45 96.51 143.64 97.17 146.82 C 97.06 147.61 96.83 149.18 96.71 149.97 C 95.80 149.29 94.90 148.62 94.00 147.95 C 93.98 144.13 94.03 140.31 93.97 136.49 Z" />
</g>
<g id="#eeda22ff">
<path fill="#eeda22" opacity="1.00" d=" M 82.10 138.20 C 83.98 138.70 85.80 139.39 87.61 140.11 L 88.41 141.35 L 86.84 141.43 C 84.51 140.89 82.24 140.13 80.00 139.31 C 80.53 139.03 81.58 138.47 82.10 138.20 Z" />
</g>
<g id="#de1b18ff">
<path fill="#de1b18" opacity="1.00" d=" M 39.81 140.82 C 40.19 140.63 40.96 140.27 41.35 140.09 C 41.31 141.86 41.70 143.60 42.10 145.33 C 40.87 145.92 39.57 146.14 38.45 145.15 C 38.56 144.53 38.79 143.30 38.91 142.68 L 39.29 141.89 C 39.36 141.75 39.50 141.46 39.56 141.32 L 39.81 140.82 Z" />
</g>
<g id="#3a51e0ff">
<path fill="#3a51e0" opacity="1.00" d=" M 33.14 146.11 C 32.32 144.37 32.54 142.31 33.97 140.96 C 34.33 142.72 34.38 144.66 33.14 146.11 Z" />
</g>
<g id="#d9c729ff">
<path fill="#d9c729" opacity="1.00" d=" M 78.98 140.70 C 83.37 141.71 87.62 143.26 92.05 144.07 L 91.95 145.25 C 91.50 145.23 90.60 145.20 90.14 145.18 C 86.58 144.81 83.24 142.55 79.60 143.35 C 82.78 144.43 86.00 145.35 89.18 146.42 C 88.21 148.36 87.19 150.29 86.09 152.18 C 85.51 150.85 84.66 149.69 83.73 148.60 C 82.93 149.58 82.12 150.57 81.31 151.55 C 81.56 149.30 81.32 147.04 80.78 144.85 C 80.26 145.57 79.73 146.30 79.21 147.03 C 79.13 144.92 79.05 142.81 78.98 140.70 M 81.89 146.04 C 83.25 147.46 85.13 148.05 86.94 148.66 C 86.70 146.27 83.67 146.41 81.89 146.04 Z" />
</g>
<g id="#bebfbcff">
<path fill="#bebfbc" opacity="1.00" d=" M 63.15 142.27 C 64.54 141.95 65.08 142.49 64.77 143.88 C 63.39 144.19 62.84 143.65 63.15 142.27 Z" />
</g>
<g id="#61afebff">
<path fill="#61afeb" opacity="1.00" d=" M 12.36 142.70 C 12.60 143.87 12.86 145.04 13.15 146.21 C 12.58 147.20 12.08 148.22 11.66 149.29 L 11.33 149.48 C 10.69 148.54 10.27 147.54 10.05 146.46 C 10.78 145.18 11.57 143.94 12.36 142.70 Z" />
</g>
<g id="#d6e0e8ff">
<path fill="#d6e0e8" opacity="1.00" d=" M 46.42 143.98 C 47.50 143.68 48.61 143.64 49.73 143.88 C 49.01 145.09 48.27 146.30 47.46 147.45 C 47.02 146.54 46.62 145.60 46.29 144.65 L 46.42 143.98 Z" />
</g>
<g id="#848a96ff">
<path fill="#848a96" opacity="1.00" d=" M 49.73 143.88 L 51.15 144.05 C 51.11 145.55 51.05 147.04 50.97 148.54 C 52.81 148.30 54.65 148.06 56.48 147.82 C 56.14 149.17 55.81 150.52 55.47 151.86 C 56.38 151.58 57.29 151.29 58.20 151.01 C 56.87 152.98 55.63 155.07 55.38 157.50 C 53.79 157.30 52.18 157.15 50.59 157.01 C 50.39 156.89 50.00 156.63 49.80 156.51 C 49.12 157.05 48.46 157.61 47.82 158.20 C 45.32 157.59 42.79 157.12 40.24 156.74 C 37.44 159.09 34.09 160.59 30.55 161.44 C 30.22 161.22 29.56 160.78 29.23 160.56 L 29.79 159.78 C 32.48 158.15 35.82 158.18 38.46 156.46 C 36.28 155.77 34.05 155.17 31.93 154.30 C 32.22 154.02 32.78 153.46 33.06 153.18 C 33.58 153.33 34.60 153.63 35.11 153.78 C 36.76 153.68 38.42 153.62 40.07 153.49 C 40.21 153.48 40.47 153.45 40.60 153.44 L 40.21 153.18 C 40.84 151.71 41.49 150.25 42.19 148.81 C 43.12 150.62 42.57 152.58 42.21 154.45 C 42.58 154.56 43.30 154.77 43.66 154.88 C 45.04 155.28 46.42 155.68 47.80 156.08 C 48.12 155.67 48.74 154.86 49.05 154.45 C 49.44 153.97 50.20 153.03 50.59 152.55 C 50.43 152.44 50.11 152.21 49.95 152.09 C 51.58 151.51 50.64 148.95 49.08 150.10 C 48.51 150.29 47.36 150.68 46.79 150.87 L 46.55 150.07 C 45.79 150.01 44.27 149.90 43.51 149.84 L 43.48 149.35 C 43.35 148.23 43.22 147.11 43.08 145.99 C 43.44 145.68 44.15 145.05 44.51 144.73 C 44.79 146.25 45.11 147.76 45.45 149.27 C 45.75 147.73 46.01 146.18 46.29 144.65 C 46.62 145.60 47.02 146.54 47.46 147.45 C 48.27 146.30 49.01 145.09 49.73 143.88 Z" />
</g>
<g id="#283799ff">
<path fill="#283799" opacity="1.00" d=" M 13.15 146.21 L 13.92 145.74 L 14.78 145.91 C 14.63 147.64 13.31 148.91 11.66 149.29 C 12.08 148.22 12.58 147.20 13.15 146.21 Z" />
</g>
<g id="#132fabff">
<path fill="#132fab" opacity="1.00" d=" M 26.07 148.67 C 28.42 147.66 30.96 146.93 33.53 147.56 C 31.40 148.61 29.19 149.53 26.89 150.10 C 25.18 150.45 23.49 150.82 21.80 151.23 C 19.84 151.72 17.87 152.20 15.92 152.72 C 16.11 152.36 16.50 151.63 16.70 151.27 C 18.95 150.70 21.18 150.04 23.39 149.29 C 24.06 149.13 25.40 148.83 26.07 148.67 Z" />
</g>
<g id="#575b66ff">
<path fill="#575b66" opacity="1.00" d=" M 30.95 149.47 C 33.60 148.16 36.40 147.14 39.28 146.46 C 39.52 147.64 39.75 148.82 39.98 150.00 C 39.45 150.30 38.40 150.92 37.87 151.23 C 37.47 151.05 36.67 150.70 36.27 150.53 C 35.98 151.10 35.40 152.25 35.12 152.83 C 33.07 152.48 31.12 151.89 30.95 149.47 Z" />
</g>
<g id="#d48000ff">
<path fill="#d48000" opacity="1.00" d=" M 97.17 146.82 C 98.04 150.43 98.87 154.04 99.59 157.68 C 99.75 158.46 100.05 160.02 100.21 160.79 C 100.05 161.62 99.75 163.28 99.60 164.11 C 98.79 160.59 97.96 157.08 96.70 153.69 C 94.85 156.95 96.29 161.59 93.18 164.07 C 93.90 158.73 94.11 153.34 94.00 147.95 C 94.90 148.62 95.80 149.29 96.71 149.97 C 96.83 149.18 97.06 147.61 97.17 146.82 Z" />
</g>
<g id="#64c0f3ff">
<path fill="#64c0f3" opacity="1.00" d=" M 23.39 149.29 C 23.31 147.73 25.76 146.80 26.07 148.67 C 25.40 148.83 24.06 149.13 23.39 149.29 Z" />
</g>
<g id="#a1a395ff">
<path fill="#a1a395" opacity="1.00" d=" M 21.80 151.23 C 23.49 150.82 25.18 150.45 26.89 150.10 C 27.92 150.55 28.94 151.05 29.92 151.62 C 30.28 151.95 30.99 152.62 31.34 152.95 L 31.20 153.92 L 29.84 153.23 C 28.16 152.15 26.18 151.92 24.29 152.57 C 23.67 152.24 22.42 151.57 21.80 151.23 Z" />
</g>
<g id="#73787eff">
<path fill="#73787e" opacity="1.00" d=" M 43.51 149.84 C 44.27 149.90 45.79 150.01 46.55 150.07 L 46.79 150.87 C 47.10 152.34 47.48 153.86 49.05 154.45 C 48.74 154.86 48.12 155.67 47.80 156.08 C 46.42 155.68 45.04 155.28 43.66 154.88 C 43.62 153.20 43.59 151.52 43.51 149.84 Z" />
</g>
<g id="#a9acb5ff">
<path fill="#a9acb5" opacity="1.00" d=" M 46.79 150.87 C 47.36 150.68 48.51 150.29 49.08 150.10 C 49.30 150.60 49.73 151.59 49.95 152.09 C 50.11 152.21 50.43 152.44 50.59 152.55 C 50.20 153.03 49.44 153.97 49.05 154.45 C 47.48 153.86 47.10 152.34 46.79 150.87 Z" />
</g>
<g id="#5b5e67ff">
<path fill="#5b5e67" opacity="1.00" d=" M 49.08 150.10 C 50.64 148.95 51.58 151.51 49.95 152.09 C 49.73 151.59 49.30 150.60 49.08 150.10 Z" />
</g>
<g id="#82775dff">
<path fill="#82775d" opacity="1.00" d=" M 15.92 152.72 C 17.87 152.20 19.84 151.72 21.80 151.23 C 22.42 151.57 23.67 152.24 24.29 152.57 C 21.69 153.24 19.07 153.87 16.41 154.26 L 14.98 154.05 L 15.01 152.99 L 15.92 152.72 Z" />
</g>
<g id="#e1b628ff">
<path fill="#e1b628" opacity="1.00" d=" M 83.36 150.87 C 85.06 150.67 85.62 153.66 85.38 154.99 C 83.74 154.99 82.89 152.24 83.36 150.87 Z" />
</g>
<g id="#3c85e5ff">
<path fill="#3c85e5" opacity="1.00" d=" M 24.29 152.57 C 26.18 151.92 28.16 152.15 29.84 153.23 C 29.94 154.70 30.00 156.18 30.02 157.65 C 23.43 158.54 17.16 161.17 10.57 161.92 C 9.96 158.12 13.79 156.08 16.41 154.26 C 19.07 153.87 21.69 153.24 24.29 152.57 Z" />
</g>
<g id="#bdbfc8ff">
<path fill="#bdbfc8" opacity="1.00" d=" M 31.34 152.95 C 31.77 153.01 32.63 153.12 33.06 153.18 C 32.78 153.46 32.22 154.02 31.93 154.30 L 31.20 153.92 L 31.34 152.95 Z" />
</g>
<g id="#ced4d7ff">
<path fill="#ced4d7" opacity="1.00" d=" M 40.21 153.18 L 40.60 153.44 C 40.47 153.45 40.21 153.48 40.07 153.49 L 40.21 153.18 Z" />
</g>
<g id="#535e5bff">
<path fill="#535e5b" opacity="1.00" d=" M 29.84 153.23 L 31.20 153.92 L 31.93 154.30 C 34.05 155.17 36.28 155.77 38.46 156.46 C 35.82 158.18 32.48 158.15 29.79 159.78 L 29.92 158.73 L 30.02 157.65 C 30.00 156.18 29.94 154.70 29.84 153.23 Z" />
</g>
<g id="#e3cc19ff">
<path fill="#e3cc19" opacity="1.00" d=" M 78.58 156.05 C 79.71 155.15 80.85 154.27 81.99 153.40 C 82.22 154.16 82.67 155.68 82.89 156.45 C 85.46 154.20 87.36 157.05 87.53 159.51 C 84.66 158.04 81.35 157.74 78.58 156.05 Z" />
</g>
<g id="#ddad01ff">
<path fill="#ddad01" opacity="1.00" d=" M 93.18 164.07 C 96.29 161.59 94.85 156.95 96.70 153.69 C 97.96 157.08 98.79 160.59 99.60 164.11 C 99.75 163.28 100.05 161.62 100.21 160.79 C 100.46 161.91 100.73 163.02 101.00 164.13 C 101.65 166.65 101.99 169.23 102.03 171.84 C 100.93 171.93 99.82 172.01 98.72 172.06 C 97.32 170.55 95.61 169.39 93.67 168.68 C 92.55 167.39 93.12 165.60 93.18 164.07 Z" />
</g>
<g id="#5d666dff">
<path fill="#5d666d" opacity="1.00" d=" M 40.24 156.74 C 42.79 157.12 45.32 157.59 47.82 158.20 C 54.51 160.65 62.33 162.16 68.81 158.29 C 68.99 160.27 69.17 162.28 69.83 164.18 C 69.50 164.06 68.84 163.83 68.51 163.71 C 68.05 163.57 67.12 163.28 66.65 163.14 C 65.87 163.92 65.12 164.74 64.37 165.56 C 64.06 165.26 63.45 164.66 63.15 164.36 C 61.93 164.53 60.71 164.69 59.50 164.87 C 59.48 164.49 59.45 163.72 59.43 163.34 C 58.92 163.26 57.88 163.09 57.37 163.01 C 54.84 162.68 52.29 162.47 49.75 162.26 C 48.39 160.93 46.76 159.95 45.08 159.08 C 48.68 163.10 52.44 167.06 56.88 170.17 C 61.23 173.58 66.11 168.05 68.08 164.39 C 67.99 165.80 68.82 167.05 69.90 167.89 C 69.72 168.34 69.38 169.24 69.20 169.68 C 65.90 170.12 63.46 172.87 60.09 173.12 C 59.52 173.20 58.39 173.36 57.82 173.44 C 53.64 170.70 49.93 167.31 46.38 163.81 C 45.97 163.29 45.14 162.25 44.72 161.73 C 44.49 161.54 44.04 161.16 43.81 160.97 C 42.98 160.28 42.13 159.61 41.25 158.99 C 38.28 160.30 35.45 161.88 32.66 163.53 C 32.16 165.23 31.64 166.92 31.16 168.63 C 31.14 167.98 31.10 166.67 31.07 166.02 C 31.05 165.28 30.99 163.82 30.96 163.09 C 30.14 163.00 28.50 162.82 27.68 162.73 C 28.63 162.28 29.59 161.85 30.55 161.44 C 34.09 160.59 37.44 159.09 40.24 156.74 Z" />
</g>
<g id="#1e50bcff">
<path fill="#1e50bc" opacity="1.00" d=" M 10.57 161.92 C 17.16 161.17 23.43 158.54 30.02 157.65 L 29.92 158.73 C 26.78 159.89 23.57 160.91 20.29 161.62 C 18.39 161.97 16.48 162.25 14.59 162.66 C 13.20 162.91 11.48 163.43 10.57 161.92 Z" />
</g>
<g id="#7f90a0ff">
<path fill="#7f90a0" opacity="1.00" d=" M 20.29 161.62 C 23.57 160.91 26.78 159.89 29.92 158.73 L 29.79 159.78 L 29.23 160.56 C 29.56 160.78 30.22 161.22 30.55 161.44 C 29.59 161.85 28.63 162.28 27.68 162.73 C 28.50 162.82 30.14 163.00 30.96 163.09 C 30.99 163.82 31.05 165.28 31.07 166.02 C 28.48 167.29 25.36 169.49 22.53 167.48 C 20.13 166.48 20.29 163.78 20.29 161.62 Z" />
</g>
<g id="#72777eff">
<path fill="#72777e" opacity="1.00" d=" M 32.66 163.53 C 35.45 161.88 38.28 160.30 41.25 158.99 C 40.67 164.33 41.91 169.67 41.25 175.00 C 41.00 175.63 40.52 176.88 40.27 177.50 C 37.61 176.62 34.98 175.68 32.34 174.74 C 31.37 173.08 31.23 171.14 31.18 169.27 L 31.16 168.63 C 31.64 166.92 32.16 165.23 32.66 163.53 Z" />
</g>
<g id="#e5c908ff">
<path fill="#e5c908" opacity="1.00" d=" M 77.70 159.66 C 80.92 160.18 84.19 160.85 87.22 162.04 L 87.59 162.70 L 87.20 163.04 L 87.41 163.61 L 86.81 165.55 C 85.57 165.38 84.33 165.23 83.09 165.10 C 82.78 164.53 82.17 163.38 81.86 162.81 C 81.76 163.30 81.55 164.29 81.44 164.79 C 83.55 165.98 85.86 166.78 88.05 167.80 C 88.37 168.03 89.02 168.49 89.34 168.72 C 89.98 166.23 90.97 163.85 92.17 161.59 C 92.18 165.64 92.44 169.70 92.43 173.76 L 92.40 174.20 C 92.17 176.49 91.88 178.78 91.61 181.08 C 91.54 181.62 91.41 182.71 91.34 183.25 L 90.53 183.12 C 88.23 181.92 85.89 180.61 84.42 178.39 C 81.73 177.14 78.73 175.14 75.73 176.77 C 75.00 176.58 74.27 176.40 73.54 176.24 C 72.77 171.20 75.12 166.18 73.61 161.23 L 74.62 161.92 C 76.22 163.32 78.21 163.80 80.30 163.53 C 78.89 162.78 77.46 162.07 76.03 161.38 C 76.45 160.95 77.28 160.09 77.70 159.66 Z" />
</g>
<g id="#887a12ff">
<path fill="#887a12" opacity="1.00" d=" M 73.17 160.88 L 73.61 161.23 C 75.12 166.18 72.77 171.20 73.54 176.24 C 73.16 176.15 72.40 175.98 72.02 175.89 C 71.42 174.52 70.91 173.12 70.41 171.71 C 70.54 171.11 70.81 169.91 70.94 169.30 C 71.80 166.53 72.58 163.72 73.17 160.88 Z" />
</g>
<g id="#8b8f94ff">
<path fill="#8b8f94" opacity="1.00" d=" M 44.72 161.73 C 45.14 162.25 45.97 163.29 46.38 163.81 C 46.97 167.68 47.39 171.57 47.46 175.48 C 47.01 175.71 46.11 176.15 45.66 176.38 C 45.36 171.49 44.90 166.62 44.72 161.73 Z" />
</g>
<g id="#777d83ff">
<path fill="#777d83" opacity="1.00" d=" M 49.75 162.26 C 52.29 162.47 54.84 162.68 57.37 163.01 C 57.34 165.07 57.30 167.12 57.25 169.18 C 54.19 167.54 51.92 164.90 49.75 162.26 Z" />
</g>
<g id="#b2b298ff">
<path fill="#b2b298" opacity="1.00" d=" M 102.35 162.27 C 104.33 164.37 107.09 166.17 107.79 169.13 C 108.47 173.23 103.71 175.01 101.14 177.22 C 100.75 176.62 99.97 175.43 99.58 174.84 C 100.45 174.12 101.33 173.42 102.21 172.72 C 102.56 172.65 103.27 172.49 103.62 172.42 C 103.69 171.62 103.76 170.83 103.85 170.04 C 103.39 170.49 102.49 171.39 102.03 171.84 C 101.99 169.23 101.65 166.65 101.00 164.13 C 101.34 163.67 102.01 162.74 102.35 162.27 Z" />
</g>
<g id="#00000aff">
<path fill="#00000a" opacity="1.00" d=" M 87.20 163.04 L 87.59 162.70 C 87.55 162.93 87.45 163.39 87.41 163.61 L 87.20 163.04 Z" />
</g>
<g id="#2f3543ff">
<path fill="#2f3543" opacity="1.00" d=" M 68.51 163.71 C 68.84 163.83 69.50 164.06 69.83 164.18 C 70.37 165.41 70.39 166.65 69.90 167.89 C 68.82 167.05 67.99 165.80 68.08 164.39 L 68.51 163.71 Z" />
</g>
<g id="#00020dff">
<path fill="#00020d" opacity="1.00" d=" M 9.98 169.68 C 10.26 169.37 10.83 168.76 11.11 168.45 L 11.82 168.85 C 11.55 169.13 11.02 169.70 10.75 169.98 L 9.98 169.68 Z" />
</g>
<g id="#474b55ff">
<path fill="#474b55" opacity="1.00" d=" M 11.82 168.85 C 12.97 169.54 14.08 170.28 15.20 171.03 C 14.98 171.97 14.56 173.84 14.35 174.77 L 16.15 174.61 C 17.38 174.53 18.62 174.47 19.85 174.42 C 19.55 174.76 18.95 175.43 18.65 175.77 C 18.11 176.02 17.02 176.50 16.48 176.74 C 14.44 177.22 12.39 177.99 10.26 177.83 C 6.99 176.88 6.89 172.27 9.57 170.56 L 9.98 169.68 L 10.75 169.98 C 11.02 169.70 11.55 169.13 11.82 168.85 M 10.19 172.18 C 9.38 173.45 10.93 174.97 12.18 175.09 C 14.28 174.34 11.83 170.61 10.19 172.18 Z" />
<path fill="#474b55" opacity="1.00" d=" M 68.68 173.50 C 69.27 172.91 69.85 172.32 70.41 171.71 C 70.91 173.12 71.42 174.52 72.02 175.89 C 70.57 176.87 69.20 177.95 67.86 179.06 L 66.99 179.76 C 67.51 177.66 68.08 175.57 68.68 173.50 Z" />
</g>
<g id="#888a6cff">
<path fill="#888a6c" opacity="1.00" d=" M 93.12 169.02 L 93.67 168.68 C 95.61 169.39 97.32 170.55 98.72 172.06 L 97.85 172.68 C 97.60 173.34 97.36 174.00 97.14 174.67 C 96.14 176.29 95.10 177.89 94.04 179.47 C 93.52 177.70 92.91 175.96 92.40 174.20 L 92.43 173.76 C 92.65 172.17 92.85 170.59 93.12 169.02 Z" />
</g>
<g id="#868a8fff">
<path fill="#868a8f" opacity="1.00" d=" M 60.09 173.12 C 63.46 172.87 65.90 170.12 69.20 169.68 C 69.64 169.59 70.51 169.40 70.94 169.30 C 70.81 169.91 70.54 171.11 70.41 171.71 C 69.85 172.32 69.27 172.91 68.68 173.50 C 68.08 175.57 67.51 177.66 66.99 179.76 L 67.86 179.06 C 67.58 179.29 67.03 179.75 66.76 179.98 C 64.45 180.60 62.14 181.20 59.91 182.06 C 60.05 179.08 60.03 176.10 60.09 173.12 Z" />
</g>
<g id="#e0e2e7ff">
<path fill="#e0e2e7" opacity="1.00" d=" M 57.82 173.44 C 58.39 173.36 59.52 173.20 60.09 173.12 C 60.03 176.10 60.05 179.08 59.91 182.06 C 59.45 182.24 58.53 182.62 58.06 182.80 C 57.99 179.68 57.91 176.56 57.82 173.44 Z" />
</g>
<g id="#939881ff">
<path fill="#939881" opacity="1.00" d=" M 97.14 174.67 C 97.36 174.00 97.60 173.34 97.85 172.68 C 99.30 172.71 100.75 172.73 102.21 172.72 C 101.33 173.42 100.45 174.12 99.58 174.84 C 99.97 175.43 100.75 176.62 101.14 177.22 C 99.28 178.48 97.50 179.83 95.70 181.16 C 95.24 181.31 94.32 181.60 93.85 181.75 C 93.90 181.18 93.99 180.04 94.04 179.47 C 95.10 177.89 96.14 176.29 97.14 174.67 Z" />
</g>
<g id="#76728dff">
<path fill="#76728d" opacity="1.00" d=" M 92.40 174.20 C 92.91 175.96 93.52 177.70 94.04 179.47 C 93.99 180.04 93.90 181.18 93.85 181.75 C 93.29 181.58 92.17 181.24 91.61 181.08 C 91.88 178.78 92.17 176.49 92.40 174.20 Z" />
</g>
</svg>
