<?xml version="1.0" encoding="UTF-8" ?>
<!DOCTYPE svg PUBLIC "-//W3C//DTD SVG 1.1//EN" "http://www.w3.org/Graphics/SVG/1.1/DTD/svg11.dtd">
<svg width="417pt" height="242pt" viewBox="0 0 417 242" version="1.1" xmlns="http://www.w3.org/2000/svg">
<g id="#f4f4f4ff">
<path fill="#f4f4f4" opacity="1.00" d=" M 105.39 118.21 C 105.99 118.81 105.99 118.81 105.39 118.21 Z" />
<path fill="#f4f4f4" opacity="1.00" d=" M 2.96 125.01 C 6.29 125.16 9.62 125.25 12.94 125.14 C 17.18 124.99 21.42 125.06 25.66 125.10 C 25.49 125.83 25.37 126.58 25.15 127.30 C 24.12 127.31 23.08 127.28 22.04 127.22 C 22.10 127.79 22.21 128.93 22.26 129.50 C 20.98 130.46 19.69 131.42 18.40 132.37 C 18.47 130.33 19.61 128.61 20.68 126.95 C 19.41 126.96 18.15 126.97 16.88 126.98 C 17.02 129.52 17.03 132.13 17.92 134.54 C 16.76 135.41 16.47 136.55 17.07 137.95 C 16.46 139.86 14.90 141.75 15.14 143.75 C 16.21 146.43 17.06 149.19 17.58 152.03 C 20.79 151.98 24.01 151.92 27.22 151.60 L 26.59 152.83 C 23.37 153.10 20.17 153.45 16.97 153.88 C 16.73 154.44 16.24 155.56 16.00 156.12 L 15.27 156.19 C 14.73 156.17 13.66 156.12 13.13 156.10 C 13.08 154.76 13.04 153.42 12.99 152.09 C 10.67 152.10 8.35 152.12 6.02 152.13 C 5.98 152.86 5.91 154.33 5.87 155.06 C 6.97 155.31 8.09 155.54 9.20 155.76 C 7.64 155.86 6.08 156.01 4.53 156.25 C 5.01 154.34 5.75 151.88 3.04 151.45 C 3.07 150.20 3.09 148.96 3.11 147.71 C 3.60 148.12 4.59 148.94 5.09 149.34 C 7.77 149.00 10.46 148.63 13.05 147.87 C 13.43 147.43 14.20 146.56 14.58 146.12 L 13.24 145.13 C 10.17 142.55 6.21 145.36 2.99 146.29 C 3.02 143.65 3.01 141.02 3.00 138.38 C 3.25 138.64 3.74 139.15 3.99 139.41 C 5.60 138.81 7.29 138.42 8.99 138.16 L 9.66 138.08 C 11.25 138.88 13.13 139.06 14.65 137.97 L 14.67 137.45 C 14.79 134.65 15.00 131.85 14.99 129.04 L 14.57 128.59 C 11.52 128.59 8.52 129.18 5.55 129.80 C 5.48 131.46 5.42 133.12 5.29 134.78 L 4.36 134.95 C 3.95 133.09 3.52 131.23 3.15 129.36 C 2.96 127.92 3.00 126.46 2.96 125.01 M 10.54 141.13 C 10.33 142.48 12.64 143.40 13.71 142.77 C 14.22 141.24 11.61 140.30 10.54 141.13 Z" />
<path fill="#f4f4f4" opacity="1.00" d=" M 12.81 129.69 L 13.38 129.53 C 14.35 130.82 14.14 132.63 13.24 133.90 L 13.02 133.25 C 12.97 132.36 12.86 130.58 12.81 129.69 Z" />
</g>
<g id="#e0e0e0ff">
<path fill="#e0e0e0" opacity="1.00" d=" M 38.78 64.56 C 45.53 63.13 52.56 63.70 59.39 64.21 C 57.76 65.33 55.71 65.13 53.84 65.29 C 55.07 67.23 56.41 69.10 57.63 71.05 L 58.07 71.75 C 58.46 74.26 57.86 76.76 57.19 79.16 C 57.73 79.73 58.28 80.29 58.83 80.86 C 58.08 81.40 57.35 81.97 56.64 82.56 C 55.41 83.70 54.29 84.95 53.16 86.19 C 55.08 87.37 57.23 88.33 59.52 87.72 C 61.34 88.70 63.22 90.09 63.28 92.42 C 60.07 92.51 56.83 92.41 53.72 91.54 C 53.31 91.94 52.48 92.73 52.07 93.12 C 49.06 92.77 46.03 92.49 42.99 92.54 C 41.81 92.57 40.63 92.62 39.44 92.68 L 39.15 92.70 C 42.47 91.66 43.28 86.87 47.07 86.94 C 48.57 87.06 49.30 86.44 49.26 85.08 C 48.66 83.01 46.12 84.50 46.56 86.19 C 46.03 85.50 45.50 84.82 44.97 84.15 C 46.19 83.62 47.41 83.10 48.63 82.58 C 48.50 82.24 48.24 81.56 48.11 81.22 C 50.90 81.34 53.70 81.24 56.47 80.93 C 53.80 78.68 50.19 79.19 47.03 79.88 C 45.64 76.81 46.01 73.35 45.49 70.10 C 46.05 69.95 47.17 69.67 47.73 69.53 C 47.63 68.85 47.53 68.18 47.43 67.51 C 47.94 67.08 48.97 66.23 49.48 65.80 C 45.96 64.98 42.32 65.23 38.78 64.56 Z" />
</g>
<g id="#e3ecf4ff">
<path fill="#e3ecf4" opacity="1.00" d=" M 62.45 70.71 C 62.35 69.40 61.56 67.77 63.00 66.89 C 68.01 67.00 73.00 67.79 78.02 67.95 C 81.93 67.96 85.67 69.47 88.44 72.23 C 85.72 72.84 82.56 72.29 80.28 74.16 C 79.07 75.03 77.94 75.99 76.80 76.94 C 73.38 76.84 69.97 76.88 66.56 77.01 L 66.13 77.02 C 65.89 75.89 65.66 74.77 65.42 73.64 C 63.00 72.91 60.51 72.41 58.07 71.75 L 57.63 71.05 C 59.23 70.94 60.84 70.82 62.45 70.71 Z" />
<path fill="#e3ecf4" opacity="1.00" d=" M 110.13 109.99 C 110.49 110.00 111.20 110.02 111.56 110.03 L 111.40 110.89 L 110.45 111.21 L 109.75 110.62 L 110.13 109.99 Z" />
<path fill="#e3ecf4" opacity="1.00" d=" M 101.23 118.23 C 102.64 117.78 103.10 118.25 102.60 119.66 C 101.19 120.12 100.73 119.65 101.23 118.23 Z" />
</g>
<g id="#596c45ff">
<path fill="#596c45" opacity="1.00" d=" M 80.49 76.13 C 83.11 74.73 86.29 75.17 89.12 75.55 C 86.79 75.90 84.33 75.33 82.08 76.09 C 80.85 80.20 82.20 84.64 81.40 88.88 C 81.24 88.81 80.92 88.68 80.76 88.61 C 81.83 84.83 81.38 80.90 80.66 77.11 L 80.49 76.13 Z" />
<path fill="#596c45" opacity="1.00" d=" M 79.17 119.75 C 79.98 119.51 81.61 119.01 82.43 118.77 C 82.77 118.76 83.47 118.73 83.82 118.72 C 84.52 118.90 85.93 119.27 86.64 119.45 C 86.84 119.87 87.26 120.72 87.46 121.14 L 86.73 121.26 C 84.28 121.48 81.81 121.44 79.35 121.44 C 79.30 121.02 79.21 120.17 79.17 119.75 Z" />
<path fill="#596c45" opacity="1.00" d=" M 63.22 142.22 C 63.59 142.17 64.33 142.09 64.70 142.05 C 64.66 144.44 64.61 146.84 64.56 149.24 C 66.08 149.52 67.60 149.81 69.11 150.10 C 67.20 149.84 65.27 149.65 63.38 149.25 C 63.30 146.91 63.20 144.56 63.22 142.22 Z" />
</g>
<g id="#d6dee2ff">
<path fill="#d6dee2" opacity="1.00" d=" M 66.56 77.01 C 69.97 76.88 73.38 76.84 76.80 76.94 C 77.76 76.98 79.69 77.07 80.66 77.11 C 81.38 80.90 81.83 84.83 80.76 88.61 C 80.92 88.68 81.24 88.81 81.40 88.88 C 83.74 89.23 84.88 91.27 84.88 93.47 C 85.16 97.84 87.33 101.73 88.69 105.80 C 87.81 106.08 86.93 106.37 86.04 106.65 C 87.29 106.79 88.55 106.94 89.80 107.08 C 87.84 111.52 88.42 116.47 87.46 121.14 C 87.26 120.72 86.84 119.87 86.64 119.45 C 85.93 119.27 84.52 118.90 83.82 118.72 C 84.38 118.34 85.50 117.56 86.06 117.18 C 85.65 116.26 85.23 115.36 84.79 114.46 C 84.35 115.13 83.49 116.47 83.05 117.14 C 80.58 117.39 83.23 114.31 82.99 113.15 C 80.92 114.49 80.55 117.06 82.43 118.77 C 81.61 119.01 79.98 119.51 79.17 119.75 C 79.21 120.17 79.30 121.02 79.35 121.44 C 81.81 121.44 84.28 121.48 86.73 121.26 C 86.72 122.07 86.68 123.67 86.66 124.47 C 85.44 124.70 84.20 124.87 82.96 125.05 C 83.06 125.80 83.27 127.29 83.38 128.04 C 82.89 127.14 81.93 125.33 81.45 124.42 C 80.35 125.97 79.19 127.48 77.99 128.95 C 78.19 127.12 78.43 125.29 78.70 123.47 L 79.07 123.06 C 76.25 123.27 73.43 123.01 70.67 122.47 C 71.45 120.68 73.16 120.45 74.91 120.63 C 73.94 119.09 73.00 117.54 72.08 115.98 C 74.10 114.34 75.67 112.18 77.83 110.71 C 79.84 109.76 82.12 109.56 84.11 108.54 C 81.12 107.48 77.96 107.11 74.86 106.54 C 76.70 105.81 78.68 105.67 80.64 105.61 C 80.50 105.19 80.22 104.33 80.08 103.90 C 80.44 103.59 81.17 102.97 81.53 102.65 C 79.88 99.80 76.87 98.81 73.78 98.38 C 77.27 98.10 80.77 97.90 84.25 97.49 C 82.28 97.15 80.30 96.85 78.33 96.55 C 77.95 94.81 78.64 92.31 76.72 91.35 C 74.80 90.80 72.80 90.74 70.84 90.49 C 73.25 90.29 75.66 90.02 78.05 89.68 C 76.36 89.27 74.67 88.88 72.98 88.50 C 74.57 88.23 76.16 87.94 77.75 87.65 C 77.77 84.47 77.96 81.26 78.85 78.18 C 74.84 78.36 69.97 79.71 66.56 77.01 Z" />
</g>
<g id="#098d01ff">
<path fill="#098d01" opacity="1.00" d=" M 101.34 77.95 C 103.90 77.54 106.49 77.59 109.06 77.94 C 108.34 79.25 107.76 80.66 107.91 82.20 C 108.67 83.27 110.20 83.21 111.22 83.94 C 111.46 85.44 111.47 86.96 111.57 88.48 C 107.54 87.52 103.32 87.29 99.27 88.33 C 99.44 86.71 99.56 85.08 99.62 83.46 C 102.17 84.12 105.05 84.97 107.38 83.18 C 105.33 82.29 103.08 82.57 100.92 82.49 C 101.34 81.00 101.49 79.49 101.34 77.95 Z" />
<path fill="#098d01" opacity="1.00" d=" M 45.05 115.53 C 45.59 112.76 49.38 112.65 50.42 115.08 L 50.13 115.52 C 49.70 116.57 48.98 117.29 47.97 117.68 C 46.89 117.12 46.01 116.26 45.05 115.53 M 47.00 114.43 C 46.50 116.15 47.03 116.76 48.60 116.26 C 49.07 114.57 48.54 113.96 47.00 114.43 Z" />
<path fill="#098d01" opacity="1.00" d=" M 82.43 118.77 C 80.55 117.06 80.92 114.49 82.99 113.15 C 83.23 114.31 80.58 117.39 83.05 117.14 C 83.49 116.47 84.35 115.13 84.79 114.46 C 85.23 115.36 85.65 116.26 86.06 117.18 C 85.50 117.56 84.38 118.34 83.82 118.72 C 83.47 118.73 82.77 118.76 82.43 118.77 Z" />
</g>
<g id="#bdbdbdff">
<path fill="#bdbdbd" opacity="1.00" d=" M 47.03 79.88 C 50.19 79.19 53.80 78.68 56.47 80.93 C 53.70 81.24 50.90 81.34 48.11 81.22 L 46.44 81.14 L 47.03 79.88 Z" />
</g>
<g id="#2fa308ff">
<path fill="#2fa308" opacity="1.00" d=" M 17.42 81.83 C 24.26 81.79 31.09 81.36 37.92 81.07 L 38.08 82.02 C 34.05 82.93 29.93 83.35 25.80 83.23 C 26.06 84.23 26.37 85.21 26.72 86.19 C 29.91 86.98 33.27 87.31 36.24 88.84 C 34.27 88.94 32.31 89.03 30.34 89.07 C 25.99 88.84 21.62 88.99 17.26 88.99 C 17.79 86.63 17.91 84.21 17.42 81.83 Z" />
</g>
<g id="#92d482ff">
<path fill="#92d482" opacity="1.00" d=" M 3.01 81.71 C 5.15 81.71 7.30 81.72 9.45 81.75 C 9.39 83.11 9.86 84.69 8.95 85.88 C 7.80 88.07 5.05 87.82 3.00 88.40 C 3.00 86.17 3.00 83.94 3.01 81.71 Z" />
</g>
<g id="#7bc765ff">
<path fill="#7bc765" opacity="1.00" d=" M 9.45 81.75 C 10.06 81.76 11.28 81.78 11.89 81.79 C 12.78 82.65 13.67 83.51 14.56 84.37 C 12.94 86.30 10.82 87.66 8.63 88.86 C 6.76 88.85 4.89 88.87 3.02 88.89 L 3.00 88.40 C 5.05 87.82 7.80 88.07 8.95 85.88 C 9.86 84.69 9.39 83.11 9.45 81.75 Z" />
</g>
<g id="#5bba3cff">
<path fill="#5bba3c" opacity="1.00" d=" M 11.89 81.79 C 13.74 81.81 15.58 81.83 17.42 81.83 C 17.91 84.21 17.79 86.63 17.26 88.99 C 14.39 88.96 11.51 88.87 8.63 88.86 C 10.82 87.66 12.94 86.30 14.56 84.37 C 13.67 83.51 12.78 82.65 11.89 81.79 Z" />
</g>
<g id="#1a8705ff">
<path fill="#1a8705" opacity="1.00" d=" M 25.80 83.23 C 29.93 83.35 34.05 82.93 38.08 82.02 C 38.43 84.92 38.83 88.04 37.15 90.63 C 36.92 90.18 36.47 89.29 36.24 88.84 C 33.27 87.31 29.91 86.98 26.72 86.19 C 26.37 85.21 26.06 84.23 25.80 83.23 Z" />
<path fill="#1a8705" opacity="1.00" d=" M 25.76 142.95 L 26.44 143.01 C 27.05 143.05 28.26 143.14 28.87 143.18 C 29.71 143.10 31.40 142.94 32.24 142.86 L 32.93 142.79 C 32.88 144.14 32.87 145.50 32.89 146.85 C 31.42 146.68 29.95 146.51 28.48 146.34 L 28.44 147.99 C 29.79 148.22 31.14 148.47 32.49 148.71 C 32.31 149.07 31.95 149.78 31.77 150.14 C 29.53 150.10 27.29 150.01 25.06 149.96 C 25.05 148.89 25.06 147.83 25.10 146.76 C 25.29 145.49 25.52 144.22 25.76 142.95 M 28.34 145.00 C 28.90 145.60 28.90 145.60 28.34 145.00 M 31.18 145.13 C 31.70 145.67 31.70 145.67 31.18 145.13 M 27.27 147.29 C 27.84 147.84 27.84 147.84 27.27 147.29 Z" />
</g>
<g id="#c6c7c8ff">
<path fill="#c6c7c8" opacity="1.00" d=" M 53.16 86.19 C 54.29 84.95 55.41 83.70 56.64 82.56 C 57.56 84.31 58.48 86.05 59.52 87.72 C 57.23 88.33 55.08 87.37 53.16 86.19 Z" />
</g>
<g id="#c1c2c2ff">
<path fill="#c1c2c2" opacity="1.00" d=" M 46.56 86.19 C 46.12 84.50 48.66 83.01 49.26 85.08 C 49.30 86.44 48.57 87.06 47.07 86.94 L 46.56 86.19 Z" />
</g>
<g id="#12841eff">
<path fill="#12841e" opacity="1.00" d=" M 3.02 88.89 C 4.89 88.87 6.76 88.85 8.63 88.86 C 11.51 88.87 14.39 88.96 17.26 88.99 C 21.62 88.99 25.99 88.84 30.34 89.07 C 32.38 89.95 34.39 90.89 36.48 91.64 C 34.18 91.37 31.47 90.54 29.58 92.38 C 32.06 92.93 34.55 93.39 37.08 93.63 C 35.82 94.22 34.42 94.34 33.07 94.62 L 32.42 94.88 C 32.03 95.15 31.25 95.68 30.86 95.95 C 29.01 94.88 27.31 93.57 25.97 91.91 C 21.04 90.16 15.46 90.83 11.02 93.57 C 11.32 92.99 11.93 91.84 12.23 91.26 C 9.79 91.61 7.34 91.95 4.90 92.34 C 4.43 92.02 3.48 91.38 3.00 91.05 C 3.00 90.51 3.01 89.43 3.02 88.89 M 5.06 90.35 C 5.07 91.76 8.65 91.65 8.69 90.31 C 7.47 89.67 6.26 89.68 5.06 90.35 Z" />
<path fill="#12841e" opacity="1.00" d=" M 107.67 108.71 C 108.55 108.00 109.42 107.26 110.27 106.51 L 110.04 107.25 C 109.68 109.39 111.91 108.69 113.16 108.34 C 113.12 108.90 113.05 110.00 113.02 110.55 C 112.11 111.48 111.22 112.42 110.36 113.39 L 110.09 112.94 C 109.19 111.58 108.46 110.13 107.67 108.71 M 110.13 109.99 L 109.75 110.62 L 110.45 111.21 L 111.40 110.89 L 111.56 110.03 C 111.20 110.02 110.49 110.00 110.13 109.99 Z" />
</g>
<g id="#023806ff">
<path fill="#023806" opacity="1.00" d=" M 30.34 89.07 C 32.31 89.03 34.27 88.94 36.24 88.84 C 36.47 89.29 36.92 90.18 37.15 90.63 C 37.23 90.98 37.41 91.66 37.49 92.00 L 36.48 91.64 C 34.39 90.89 32.38 89.95 30.34 89.07 Z" />
</g>
<g id="#a1c8beff">
<path fill="#a1c8be" opacity="1.00" d=" M 5.06 90.35 C 6.26 89.68 7.47 89.67 8.69 90.31 C 8.65 91.65 5.07 91.76 5.06 90.35 Z" />
</g>
<g id="#dae2e0ff">
<path fill="#dae2e0" opacity="1.00" d=" M 11.02 93.57 C 15.46 90.83 21.04 90.16 25.97 91.91 C 27.31 93.57 29.01 94.88 30.86 95.95 C 31.25 95.68 32.03 95.15 32.42 94.88 C 33.68 95.29 34.93 95.70 36.19 96.12 C 35.30 97.52 34.47 98.96 33.59 100.38 C 33.53 100.47 33.42 100.66 33.36 100.76 L 33.54 100.68 C 33.46 101.31 33.30 102.58 33.22 103.21 C 31.77 103.47 30.32 103.73 28.86 103.96 C 27.44 103.07 25.97 102.24 24.36 101.76 C 24.47 100.87 24.58 99.98 24.68 99.08 C 21.47 99.17 18.27 99.33 15.08 99.58 C 15.32 100.25 15.81 101.60 16.05 102.28 C 15.28 102.25 13.73 102.18 12.96 102.14 C 12.88 100.73 12.80 99.31 12.71 97.90 C 9.31 98.79 6.06 100.15 3.00 101.88 C 3.00 98.27 3.00 94.66 3.00 91.05 C 3.48 91.38 4.43 92.02 4.90 92.34 C 7.34 91.95 9.79 91.61 12.23 91.26 C 11.93 91.84 11.32 92.99 11.02 93.57 Z" />
</g>
<g id="#749258ff">
<path fill="#749258" opacity="1.00" d=" M 29.58 92.38 C 31.47 90.54 34.18 91.37 36.48 91.64 L 37.49 92.00 C 37.57 92.33 37.74 92.99 37.82 93.32 L 37.08 93.63 C 34.55 93.39 32.06 92.93 29.58 92.38 Z" />
</g>
<g id="#aacf85ff">
<path fill="#aacf85" opacity="1.00" d=" M 53.72 91.54 C 56.83 92.41 60.07 92.51 63.28 92.42 C 63.72 92.56 64.60 92.84 65.04 92.98 C 63.80 93.08 62.56 93.18 61.32 93.26 C 64.77 97.12 66.75 102.64 65.04 107.72 C 62.39 107.71 59.74 107.74 57.10 107.82 C 57.29 105.90 57.38 103.98 57.41 102.05 C 56.99 103.79 56.70 105.55 56.42 107.31 C 53.89 107.35 51.36 107.47 48.83 107.58 C 47.35 107.61 45.87 107.65 44.39 107.70 C 43.94 102.64 43.35 97.60 42.99 92.54 C 46.03 92.49 49.06 92.77 52.07 93.12 C 52.48 92.73 53.31 91.94 53.72 91.54 M 46.06 94.95 C 45.70 98.58 46.28 103.24 50.24 104.59 C 53.32 105.16 53.45 101.06 53.33 98.93 C 53.85 98.35 54.38 97.77 54.91 97.20 C 52.09 95.98 49.16 94.98 46.06 94.95 Z" />
</g>
<g id="#91be62ff">
<path fill="#91be62" opacity="1.00" d=" M 39.44 92.68 C 40.63 92.62 41.81 92.57 42.99 92.54 C 43.35 97.60 43.94 102.64 44.39 107.70 C 45.87 107.65 47.35 107.61 48.83 107.58 C 51.46 107.58 54.08 107.66 56.71 107.68 L 56.65 109.43 C 49.76 109.41 42.86 109.81 35.98 109.32 C 36.85 107.38 37.37 105.32 37.58 103.21 C 36.71 104.55 36.77 106.99 34.88 107.25 L 34.19 107.45 C 34.50 102.14 36.50 97.07 39.44 92.68 Z" />
</g>
<g id="#8cbf5bff">
<path fill="#8cbf5b" opacity="1.00" d=" M 61.32 93.26 C 62.56 93.18 63.80 93.08 65.04 92.98 C 67.55 98.24 70.91 103.51 70.12 109.64 C 69.62 109.63 68.62 109.61 68.12 109.60 C 64.66 109.35 61.19 109.50 57.73 109.24 L 57.10 107.82 C 59.74 107.74 62.39 107.71 65.04 107.72 C 66.75 102.64 64.77 97.12 61.32 93.26 Z" />
</g>
<g id="#c0c5beff">
<path fill="#c0c5be" opacity="1.00" d=" M 84.88 93.47 C 87.28 96.03 88.05 99.56 89.40 102.70 C 90.05 104.08 89.94 105.61 89.80 107.08 C 88.55 106.94 87.29 106.79 86.04 106.65 C 86.93 106.37 87.81 106.08 88.69 105.80 C 87.33 101.73 85.16 97.84 84.88 93.47 Z" />
</g>
<g id="#b8d894ff">
<path fill="#b8d894" opacity="1.00" d=" M 46.06 94.95 C 49.16 94.98 52.09 95.98 54.91 97.20 C 54.38 97.77 53.85 98.35 53.33 98.93 C 53.45 101.06 53.32 105.16 50.24 104.59 C 46.28 103.24 45.70 98.58 46.06 94.95 Z" />
</g>
<g id="#f3f4f3ff">
<path fill="#f3f4f3" opacity="1.00" d=" M 3.00 101.88 C 6.06 100.15 9.31 98.79 12.71 97.90 C 12.80 99.31 12.88 100.73 12.96 102.14 C 11.80 102.53 10.66 102.99 9.53 103.47 C 13.88 103.58 18.29 103.98 22.60 103.27 C 23.04 102.89 23.92 102.14 24.36 101.76 C 25.97 102.24 27.44 103.07 28.86 103.96 C 28.22 106.36 27.81 108.82 27.35 111.26 C 26.64 111.86 25.93 112.47 25.24 113.09 L 24.84 113.60 L 24.35 113.43 C 23.09 112.95 21.75 111.46 20.46 112.68 C 18.91 113.45 19.14 115.56 18.37 116.86 C 16.55 115.80 17.04 113.57 16.71 111.81 C 16.49 112.50 16.06 113.87 15.84 114.55 C 14.30 112.75 12.42 111.50 10.33 113.45 C 10.08 112.96 9.59 111.97 9.34 111.48 C 8.17 112.49 5.58 112.96 5.95 115.02 C 5.44 117.50 8.47 117.68 10.02 118.39 C 9.13 116.89 4.96 114.42 8.79 113.27 C 10.27 114.80 10.62 117.52 12.86 118.18 C 13.89 117.36 14.81 116.40 15.75 115.48 C 15.93 116.11 16.29 117.38 16.47 118.01 C 17.55 117.86 18.61 117.65 19.67 117.39 C 21.39 118.20 23.11 117.89 24.24 116.30 L 24.79 115.85 C 24.99 116.52 25.41 117.85 25.62 118.51 C 25.76 117.81 26.06 116.41 26.21 115.71 C 26.45 116.04 26.94 116.70 27.18 117.03 C 27.39 117.68 27.81 118.99 28.02 119.65 C 27.28 119.66 25.80 119.69 25.06 119.71 C 17.71 119.61 10.36 119.75 3.00 119.75 C 2.97 113.80 3.07 107.84 3.00 101.88 M 13.76 108.73 C 14.76 109.46 15.77 110.19 16.78 110.92 C 17.73 110.11 18.68 109.30 19.63 108.50 C 20.65 109.20 21.81 109.49 23.09 109.35 C 23.79 109.72 27.51 108.85 25.42 108.05 C 23.46 108.12 21.38 107.76 19.49 108.40 C 18.79 107.88 17.38 106.84 16.67 106.33 C 16.76 107.00 16.93 108.35 17.01 109.02 L 15.98 109.22 C 16.06 108.38 16.23 106.72 16.31 105.88 C 15.43 106.80 14.57 107.75 13.76 108.73 Z" />
<path fill="#f3f4f3" opacity="1.00" d=" M 11.65 114.14 C 12.96 112.44 15.13 115.25 13.41 116.32 C 12.11 117.41 10.69 115.22 11.65 114.14 Z" />
<path fill="#f3f4f3" opacity="1.00" d=" M 21.09 114.07 C 22.51 112.87 23.85 115.50 22.39 116.30 C 21.01 117.38 19.87 114.91 21.09 114.07 Z" />
<path fill="#f3f4f3" opacity="1.00" d=" M 27.27 147.29 C 27.84 147.84 27.84 147.84 27.27 147.29 Z" />
<path fill="#f3f4f3" opacity="1.00" d=" M 90.62 159.61 C 96.40 159.70 102.17 158.89 107.71 157.23 C 107.44 157.55 106.89 158.19 106.61 158.51 C 106.25 158.57 105.51 158.69 105.14 158.76 C 100.26 159.55 95.33 160.33 90.37 160.36 L 90.62 159.61 Z" />
</g>
<g id="#cbcfd2ff">
<path fill="#cbcfd2" opacity="1.00" d=" M 94.30 107.51 C 100.92 101.69 110.01 101.42 117.94 98.62 C 119.23 99.33 120.52 100.05 121.81 100.78 C 121.70 101.38 121.47 102.57 121.35 103.17 C 120.79 102.94 119.68 102.48 119.13 102.25 C 119.19 103.58 119.26 104.92 119.34 106.25 C 118.54 105.13 117.77 103.99 116.85 102.97 C 112.41 102.32 107.90 103.42 103.68 104.76 C 100.57 105.72 97.72 108.04 94.30 107.51 Z" />
</g>
<g id="#829d86ff">
<path fill="#829d86" opacity="1.00" d=" M 15.08 99.58 C 18.27 99.33 21.47 99.17 24.68 99.08 C 24.58 99.98 24.47 100.87 24.36 101.76 C 23.92 102.14 23.04 102.89 22.60 103.27 C 18.29 103.98 13.88 103.58 9.53 103.47 C 10.66 102.99 11.80 102.53 12.96 102.14 C 13.73 102.18 15.28 102.25 16.05 102.28 C 15.81 101.60 15.32 100.25 15.08 99.58 Z" />
</g>
<g id="#5e918aff">
<path fill="#5e918a" opacity="1.00" d=" M 33.36 100.76 C 33.42 100.66 33.53 100.47 33.59 100.38 L 33.54 100.68 L 33.36 100.76 Z" />
</g>
<g id="#dcdfe1ff">
<path fill="#dcdfe1" opacity="1.00" d=" M 119.13 102.25 C 119.68 102.48 120.79 102.94 121.35 103.17 C 119.45 114.42 120.77 125.83 121.59 137.11 C 121.98 142.89 123.49 148.50 124.34 154.20 C 121.02 157.85 117.17 161.36 112.58 163.41 C 110.78 164.24 109.08 165.27 107.46 166.41 C 105.15 166.20 102.83 166.04 100.53 165.78 C 105.08 164.62 109.69 163.58 113.99 161.63 C 112.23 157.96 110.78 154.08 108.28 150.83 C 108.12 148.69 107.99 146.55 107.84 144.41 C 108.33 144.78 108.81 145.15 109.30 145.53 C 110.37 144.63 111.49 143.78 112.69 143.06 C 112.88 141.79 113.06 140.51 113.23 139.24 C 114.67 139.04 116.10 138.86 117.54 138.70 L 118.54 138.98 C 118.64 137.93 118.74 136.87 118.83 135.81 C 118.82 135.35 118.80 134.42 118.80 133.96 C 118.50 131.11 117.99 128.28 117.57 125.44 C 115.43 125.69 113.30 125.94 111.15 125.97 C 110.03 125.30 108.94 124.59 107.85 123.88 C 110.83 123.39 114.01 123.26 116.67 121.69 C 118.45 120.87 117.54 118.67 117.76 117.16 C 117.34 114.45 116.39 111.80 114.70 109.62 C 114.12 109.89 113.56 110.21 113.02 110.55 C 113.05 110.00 113.12 108.90 113.16 108.34 C 111.91 108.69 109.68 109.39 110.04 107.25 L 110.27 106.51 C 110.43 106.14 110.76 105.42 110.92 105.06 C 105.83 105.01 100.55 106.17 96.75 109.78 C 93.22 112.57 91.34 116.76 89.89 120.90 C 90.74 120.39 91.59 119.88 92.44 119.37 C 92.83 119.51 93.63 119.80 94.02 119.95 C 94.57 120.13 95.67 120.49 96.21 120.67 L 96.12 121.18 C 95.23 122.34 93.92 123.38 94.09 125.01 C 92.52 125.51 90.93 125.97 89.35 126.43 C 88.97 127.69 88.60 128.95 88.22 130.21 C 88.37 125.10 89.15 120.04 89.79 114.97 C 90.10 111.93 91.80 109.23 94.30 107.51 C 97.72 108.04 100.57 105.72 103.68 104.76 C 107.90 103.42 112.41 102.32 116.85 102.97 C 117.77 103.99 118.54 105.13 119.34 106.25 C 119.26 104.92 119.19 103.58 119.13 102.25 M 114.47 140.32 C 114.62 140.48 114.92 140.80 115.07 140.95 C 115.50 140.94 116.36 140.92 116.79 140.91 C 116.93 140.76 117.21 140.44 117.35 140.29 L 116.78 140.27 C 116.35 140.28 115.49 140.29 115.07 140.30 L 114.47 140.32 M 115.39 145.07 C 114.88 146.76 115.42 147.30 117.01 146.71 C 117.53 145.01 116.99 144.46 115.39 145.07 M 118.24 150.41 C 117.43 151.44 117.09 154.20 118.57 154.62 C 119.24 153.56 119.68 150.80 118.24 150.41 Z" />
</g>
<g id="#aec2acff">
<path fill="#aec2ac" opacity="1.00" d=" M 28.86 103.96 C 30.32 103.73 31.77 103.47 33.22 103.21 C 32.86 106.06 32.54 108.92 32.23 111.78 C 31.12 112.18 30.03 112.62 28.96 113.11 C 28.75 114.78 28.61 116.45 28.54 118.13 C 31.14 117.98 31.10 115.72 31.23 113.72 C 31.62 113.75 32.41 113.80 32.81 113.83 C 33.11 118.98 32.97 124.14 32.95 129.30 C 30.83 130.00 30.69 132.31 30.10 134.12 C 29.93 133.25 29.58 131.50 29.40 130.62 C 29.36 130.40 29.27 129.94 29.22 129.72 C 28.37 129.37 27.52 129.03 26.66 128.71 C 27.59 127.47 28.52 126.21 29.46 124.97 C 29.99 124.95 31.05 124.91 31.58 124.89 C 31.56 123.12 31.55 121.34 31.54 119.57 C 30.36 119.60 29.19 119.62 28.02 119.65 C 27.81 118.99 27.39 117.68 27.18 117.03 L 28.30 117.88 C 27.98 115.85 28.60 113.37 26.79 111.84 C 26.85 112.51 26.96 113.84 27.02 114.51 C 26.46 114.84 25.34 115.52 24.79 115.85 L 24.24 116.30 C 24.27 115.58 24.32 114.15 24.35 113.43 L 24.84 113.60 C 25.08 113.54 25.55 113.43 25.79 113.38 L 25.24 113.09 C 25.93 112.47 26.64 111.86 27.35 111.26 C 27.81 108.82 28.22 106.36 28.86 103.96 Z" />
<path fill="#aec2ac" opacity="1.00" d=" M 25.06 149.96 C 27.29 150.01 29.53 150.10 31.77 150.14 C 31.52 150.65 31.01 151.67 30.76 152.18 C 29.41 152.58 27.99 152.68 26.59 152.83 L 27.22 151.60 C 27.40 151.55 27.76 151.43 27.95 151.37 C 27.23 151.31 25.79 151.17 25.07 151.10 L 25.06 149.96 Z" />
</g>
<g id="#f2f2f2ff">
<path fill="#f2f2f2" opacity="1.00" d=" M 96.75 109.78 C 100.55 106.17 105.83 105.01 110.92 105.06 C 110.76 105.42 110.43 106.14 110.27 106.51 C 109.42 107.26 108.55 108.00 107.67 108.71 C 104.60 107.86 102.21 110.36 99.88 111.91 C 98.08 113.12 96.53 114.71 95.89 116.83 C 94.81 117.47 93.61 118.54 94.02 119.95 C 93.63 119.80 92.83 119.51 92.44 119.37 C 91.59 119.88 90.74 120.39 89.89 120.90 C 91.34 116.76 93.22 112.57 96.75 109.78 Z" />
<path fill="#f2f2f2" opacity="1.00" d=" M 7.87 129.74 C 8.67 129.54 10.27 129.14 11.07 128.93 C 11.41 130.45 11.79 131.97 12.20 133.47 C 10.45 133.99 8.65 134.33 6.84 134.54 C 7.20 132.95 7.13 131.22 7.87 129.74 M 9.09 131.32 C 7.45 134.31 12.37 131.62 9.09 131.32 Z" />
<path fill="#f2f2f2" opacity="1.00" d=" M 44.06 131.47 C 47.63 132.09 51.31 131.91 54.91 131.62 C 54.96 131.91 55.07 132.51 55.13 132.80 C 51.42 132.70 47.71 132.60 44.01 132.74 C 44.02 132.43 44.05 131.79 44.06 131.47 Z" />
<path fill="#f2f2f2" opacity="1.00" d=" M 17.11 145.01 C 17.50 145.13 18.28 145.38 18.66 145.51 C 19.20 146.99 19.84 148.43 20.78 149.71 C 21.81 150.78 22.79 150.57 23.70 149.09 L 23.96 148.75 C 23.81 148.71 23.52 148.63 23.37 148.59 L 22.30 148.29 C 21.95 146.88 21.65 145.45 21.47 144.01 C 22.69 144.92 23.89 145.83 25.10 146.76 C 25.06 147.83 25.05 148.89 25.06 149.96 L 25.07 151.10 C 23.02 150.98 20.98 150.99 18.93 151.02 C 18.36 149.00 17.80 146.98 17.11 145.01 Z" />
</g>
<g id="#86cc64ff">
<path fill="#86cc64" opacity="1.00" d=" M 13.76 108.73 C 14.57 107.75 15.43 106.80 16.31 105.88 C 16.23 106.72 16.06 108.38 15.98 109.22 L 17.01 109.02 C 16.93 108.35 16.76 107.00 16.67 106.33 C 17.38 106.84 18.79 107.88 19.49 108.40 L 19.63 108.50 C 18.68 109.30 17.73 110.11 16.78 110.92 C 15.77 110.19 14.76 109.46 13.76 108.73 Z" />
</g>
<g id="#81ba41ff">
<path fill="#81ba41" opacity="1.00" d=" M 34.19 107.45 L 34.88 107.25 C 37.32 109.60 32.08 110.16 34.19 107.45 Z" />
</g>
<g id="#56562fff">
<path fill="#56562f" opacity="1.00" d=" M 19.49 108.40 C 21.38 107.76 23.46 108.12 25.42 108.05 C 27.51 108.85 23.79 109.72 23.09 109.35 C 21.81 109.49 20.65 109.20 19.63 108.50 L 19.49 108.40 Z" />
<path fill="#56562f" opacity="1.00" d=" M 5.95 115.02 C 5.58 112.96 8.17 112.49 9.34 111.48 C 9.59 111.97 10.08 112.96 10.33 113.45 C 12.42 111.50 14.30 112.75 15.84 114.55 C 16.06 113.87 16.49 112.50 16.71 111.81 C 17.04 113.57 16.55 115.80 18.37 116.86 C 19.14 115.56 18.91 113.45 20.46 112.68 C 21.75 111.46 23.09 112.95 24.35 113.43 C 24.32 114.15 24.27 115.58 24.24 116.30 C 23.11 117.89 21.39 118.20 19.67 117.39 C 18.61 117.65 17.55 117.86 16.47 118.01 C 16.29 117.38 15.93 116.11 15.75 115.48 C 14.81 116.40 13.89 117.36 12.86 118.18 C 10.62 117.52 10.27 114.80 8.79 113.27 C 4.96 114.42 9.13 116.89 10.02 118.39 C 8.47 117.68 5.44 117.50 5.95 115.02 M 11.65 114.14 C 10.69 115.22 12.11 117.41 13.41 116.32 C 15.13 115.25 12.96 112.44 11.65 114.14 M 21.09 114.07 C 19.87 114.91 21.01 117.38 22.39 116.30 C 23.85 115.50 22.51 112.87 21.09 114.07 Z" />
<path fill="#56562f" opacity="1.00" d=" M 28.96 113.11 C 30.03 112.62 31.12 112.18 32.23 111.78 C 32.37 112.29 32.66 113.32 32.81 113.83 C 32.41 113.80 31.62 113.75 31.23 113.72 C 31.10 115.72 31.14 117.98 28.54 118.13 C 28.61 116.45 28.75 114.78 28.96 113.11 Z" />
<path fill="#56562f" opacity="1.00" d=" M 50.42 115.08 C 53.11 113.92 56.18 114.64 59.03 114.35 C 58.95 114.77 58.80 115.60 58.72 116.01 C 57.33 116.09 55.95 116.13 54.56 116.10 C 53.08 115.98 51.60 115.79 50.13 115.52 L 50.42 115.08 Z" />
<path fill="#56562f" opacity="1.00" d=" M 100.41 117.29 C 102.88 117.34 105.35 117.41 107.82 117.40 C 108.19 118.40 108.57 119.41 108.95 120.41 C 105.81 120.51 102.68 120.58 99.54 120.45 C 99.76 119.66 100.19 118.08 100.41 117.29 M 101.23 118.23 C 100.73 119.65 101.19 120.12 102.60 119.66 C 103.10 118.25 102.64 117.78 101.23 118.23 M 105.39 118.21 C 105.99 118.81 105.99 118.81 105.39 118.21 Z" />
<path fill="#56562f" opacity="1.00" d=" M 39.46 121.41 C 41.30 121.26 43.15 121.14 44.99 120.91 C 45.70 121.63 48.82 121.75 46.92 123.19 C 46.33 122.91 45.15 122.35 44.56 122.08 C 44.15 122.34 43.32 122.88 42.90 123.14 C 41.80 122.98 40.70 122.82 39.61 122.66 C 39.57 122.35 39.50 121.73 39.46 121.41 Z" />
<path fill="#56562f" opacity="1.00" d=" M 56.46 121.44 C 56.80 121.15 57.48 120.59 57.82 120.30 C 58.19 120.87 58.94 122.00 59.32 122.57 C 60.47 121.75 61.64 120.95 62.82 120.19 C 62.40 121.53 61.92 122.85 61.36 124.14 C 61.50 124.80 61.78 126.13 61.92 126.79 C 61.31 126.56 60.09 126.09 59.48 125.86 C 59.52 126.32 59.62 127.26 59.67 127.73 C 57.24 127.49 54.79 127.34 52.35 127.59 C 52.23 126.33 52.05 125.05 52.42 123.81 C 52.64 124.38 53.08 125.50 53.30 126.06 C 53.75 125.71 54.65 125.01 55.10 124.65 C 56.90 125.64 58.92 125.74 60.92 125.64 L 60.50 123.65 C 56.46 123.18 52.34 122.33 48.30 123.24 C 48.44 122.46 48.58 121.67 48.71 120.89 C 51.26 121.49 53.87 121.38 56.46 121.44 Z" />
<path fill="#56562f" opacity="1.00" d=" M 94.09 125.01 C 93.92 123.38 95.23 122.34 96.12 121.18 C 96.13 122.05 96.15 123.77 96.16 124.63 C 97.20 123.60 98.23 122.55 99.28 121.51 C 99.20 122.30 99.06 123.88 98.99 124.67 C 99.82 123.98 99.94 122.11 101.24 122.11 C 101.81 123.32 102.31 124.57 102.82 125.82 C 100.52 125.64 98.21 125.48 95.90 125.62 C 95.45 125.47 94.54 125.16 94.09 125.01 Z" />
<path fill="#56562f" opacity="1.00" d=" M 72.43 124.13 C 73.12 124.48 73.81 124.83 74.50 125.18 C 74.94 126.36 75.38 127.54 75.83 128.71 C 76.19 126.65 77.00 124.76 78.70 123.47 C 78.43 125.29 78.19 127.12 77.99 128.95 C 79.19 127.48 80.35 125.97 81.45 124.42 C 81.93 125.33 82.89 127.14 83.38 128.04 C 83.27 127.29 83.06 125.80 82.96 125.05 C 84.20 124.87 85.44 124.70 86.66 124.47 C 86.60 125.97 86.52 127.47 86.49 128.98 C 85.26 128.05 84.04 127.49 82.90 128.97 C 82.56 128.81 81.88 128.48 81.55 128.32 C 79.40 128.68 77.23 129.48 75.04 129.08 L 73.90 128.87 C 73.88 127.94 73.82 126.07 73.80 125.14 C 71.32 125.87 72.29 127.87 72.92 129.63 C 71.78 128.80 70.65 127.97 69.52 127.14 C 70.49 126.13 71.46 125.13 72.43 124.13 Z" />
<path fill="#56562f" opacity="1.00" d=" M 39.01 127.60 C 39.36 126.79 39.71 125.98 40.06 125.17 C 41.95 125.36 43.85 125.20 45.73 124.94 C 45.90 125.83 46.22 127.62 46.39 128.51 C 45.84 127.95 44.76 126.83 44.22 126.27 C 42.72 127.49 40.81 127.44 39.01 127.60 Z" />
<path fill="#56562f" opacity="1.00" d=" M 46.67 124.34 C 47.86 125.83 49.07 126.41 50.10 124.45 C 50.43 125.45 50.66 126.46 50.78 127.51 C 49.46 127.45 48.14 127.42 46.83 127.25 C 46.79 126.52 46.71 125.07 46.67 124.34 Z" />
<path fill="#56562f" opacity="1.00" d=" M 69.59 132.35 C 70.79 131.29 72.08 130.32 73.58 129.72 C 72.85 130.90 72.15 132.09 71.46 133.29 C 73.13 132.77 74.09 131.26 75.19 130.03 C 75.55 131.43 75.95 132.83 76.48 134.19 C 77.17 132.82 77.81 131.44 78.53 130.10 C 80.51 130.24 80.13 133.60 82.04 134.46 C 81.71 133.72 81.05 132.25 80.72 131.51 C 81.27 130.66 82.01 130.03 82.96 129.61 C 83.20 131.36 83.44 133.19 85.08 134.22 C 84.35 132.32 82.96 130.13 85.88 129.58 C 85.84 131.33 86.91 136.15 83.63 134.39 C 82.02 134.84 80.41 134.45 78.85 134.01 C 76.68 134.85 74.33 134.16 72.13 134.84 C 71.28 134.01 70.43 133.18 69.59 132.35 Z" />
<path fill="#56562f" opacity="1.00" d=" M 77.45 142.88 C 78.08 142.83 79.33 142.73 79.96 142.68 C 81.22 145.84 79.22 149.31 78.60 152.46 C 77.13 151.91 75.64 151.41 74.11 151.08 C 73.08 150.85 72.06 150.64 71.03 150.44 C 71.78 150.48 73.29 150.56 74.05 150.59 C 78.53 150.96 77.19 145.77 77.45 142.88 M 77.88 144.57 C 77.61 145.65 78.05 148.54 79.68 147.70 C 80.79 146.63 79.30 143.31 77.88 144.57 Z" />
<path fill="#56562f" opacity="1.00" d=" M 71.97 152.98 C 74.50 153.26 77.01 153.70 79.48 154.29 C 77.47 154.33 75.47 154.34 73.46 154.44 L 72.90 154.68 L 72.03 155.06 C 71.76 159.44 72.38 163.82 72.37 168.20 C 71.35 168.93 70.29 169.61 69.22 170.26 C 70.98 165.59 70.88 160.57 71.40 155.68 C 71.46 155.39 71.58 154.82 71.64 154.53 C 71.72 154.14 71.89 153.37 71.97 152.98 Z" />
<path fill="#56562f" opacity="1.00" d=" M 2.58 172.12 C 5.82 171.82 9.64 171.15 11.87 174.15 C 12.25 174.58 13.01 175.46 13.39 175.89 C 14.62 175.67 15.84 175.45 17.06 175.23 C 15.77 175.82 14.83 176.85 14.20 178.11 C 10.61 176.21 6.79 174.80 3.20 172.89 C 3.05 172.70 2.73 172.31 2.58 172.12 Z" />
<path fill="#56562f" opacity="1.00" d=" M 56.97 177.13 C 61.74 176.37 66.50 177.60 71.26 177.73 C 58.81 177.27 46.39 178.35 33.95 178.51 C 27.72 178.47 21.40 179.78 15.24 178.36 C 15.91 178.00 17.26 177.28 17.93 176.92 C 19.91 176.82 21.90 176.75 23.88 176.67 C 34.94 175.73 45.95 178.79 56.97 177.13 Z" />
</g>
<g id="#ddddddff">
<path fill="#dddddd" opacity="1.00" d=" M 99.88 111.91 C 102.21 110.36 104.60 107.86 107.67 108.71 C 108.46 110.13 109.19 111.58 110.09 112.94 C 108.77 113.03 107.46 113.14 106.15 113.28 L 105.57 113.60 C 104.92 114.15 104.28 114.70 103.66 115.27 C 102.67 115.59 101.68 115.91 100.71 116.28 L 100.41 117.29 C 100.19 118.08 99.76 119.66 99.54 120.45 L 98.66 120.44 C 98.65 119.68 98.63 118.16 98.63 117.41 L 98.06 117.28 L 96.50 116.96 L 95.89 116.83 C 96.53 114.71 98.08 113.12 99.88 111.91 Z" />
</g>
<g id="#dcdedbff">
<path fill="#dcdedb" opacity="1.00" d=" M 37.51 110.23 C 40.34 110.50 43.15 111.00 45.96 111.43 C 44.81 112.38 43.67 113.34 42.52 114.29 C 42.85 114.77 43.19 115.25 43.52 115.73 C 42.32 116.13 41.06 116.42 39.94 117.04 C 38.84 118.25 39.43 119.97 39.46 121.41 C 39.50 121.73 39.57 122.35 39.61 122.66 C 40.70 122.82 41.80 122.98 42.90 123.14 C 43.32 122.88 44.15 122.34 44.56 122.08 C 45.15 122.35 46.33 122.91 46.92 123.19 C 46.63 123.63 46.03 124.50 45.73 124.94 C 43.85 125.20 41.95 125.36 40.06 125.17 C 39.71 125.98 39.36 126.79 39.01 127.60 C 38.07 129.58 37.35 131.77 37.81 133.98 C 38.52 137.97 38.36 142.04 38.87 146.06 C 38.95 146.52 39.10 147.45 39.18 147.91 C 39.15 148.57 39.09 149.89 39.06 150.55 C 37.34 150.75 35.61 150.94 33.90 151.23 C 33.75 146.66 33.42 142.07 34.07 137.53 C 36.65 133.02 34.87 127.87 35.23 123.03 C 35.25 118.65 36.83 114.52 37.41 110.22 L 37.51 110.23 Z" />
</g>
<g id="#b8bcb5ff">
<path fill="#b8bcb5" opacity="1.00" d=" M 61.72 112.15 C 63.83 111.25 65.92 110.28 68.12 109.60 C 68.62 109.61 69.62 109.63 70.12 109.64 C 69.98 111.01 69.85 112.38 69.74 113.75 C 68.84 114.59 67.95 115.43 67.06 116.28 C 65.33 114.84 63.58 113.42 61.72 112.15 Z" />
</g>
<g id="#cacac8ff">
<path fill="#cacac8" opacity="1.00" d=" M 33.98 113.92 C 33.71 111.78 36.03 111.18 37.41 110.22 C 36.83 114.52 35.25 118.65 35.23 123.03 C 34.87 127.87 36.65 133.02 34.07 137.53 C 33.85 129.66 33.55 121.77 33.98 113.92 Z" />
</g>
<g id="#d6d7d1ff">
<path fill="#d6d7d1" opacity="1.00" d=" M 59.22 113.17 C 60.04 112.80 60.87 112.46 61.72 112.15 C 63.58 113.42 65.33 114.84 67.06 116.28 C 62.80 120.88 56.12 118.60 50.68 120.06 C 51.94 118.71 53.24 117.39 54.56 116.10 C 55.95 116.13 57.33 116.09 58.72 116.01 C 58.80 115.60 58.95 114.77 59.03 114.35 L 59.22 113.17 Z" />
</g>
<g id="#030700ff">
<path fill="#030700" opacity="1.00" d=" M 25.24 113.09 L 25.79 113.38 C 25.55 113.43 25.08 113.54 24.84 113.60 L 25.24 113.09 Z" />
</g>
<g id="#263612ff">
<path fill="#263612" opacity="1.00" d=" M 26.79 111.84 C 28.60 113.37 27.98 115.85 28.30 117.88 L 27.18 117.03 C 26.94 116.70 26.45 116.04 26.21 115.71 C 26.06 116.41 25.76 117.81 25.62 118.51 C 25.41 117.85 24.99 116.52 24.79 115.85 C 25.34 115.52 26.46 114.84 27.02 114.51 C 26.96 113.84 26.85 112.51 26.79 111.84 Z" />
</g>
<g id="#828282ff">
<path fill="#828282" opacity="1.00" d=" M 106.15 113.28 C 107.46 113.14 108.77 113.03 110.09 112.94 L 110.36 113.39 C 111.96 113.32 113.55 113.23 115.14 113.12 C 115.05 113.72 114.86 114.93 114.77 115.53 C 112.04 115.41 109.31 115.34 106.58 115.43 C 106.47 114.89 106.26 113.82 106.15 113.28 Z" />
</g>
<g id="#bde7f4ff">
<path fill="#bde7f4" opacity="1.00" d=" M 47.00 114.43 C 48.54 113.96 49.07 114.57 48.60 116.26 C 47.03 116.76 46.50 116.15 47.00 114.43 Z" />
<path fill="#bde7f4" opacity="1.00" d=" M 3.15 129.36 C 3.52 131.23 3.95 133.09 4.36 134.95 L 5.29 134.78 C 5.67 134.72 6.45 134.60 6.84 134.54 C 8.65 134.33 10.45 133.99 12.20 133.47 L 13.02 133.25 L 13.24 133.90 C 13.00 134.36 12.51 135.28 12.27 135.75 C 12.51 135.92 13.00 136.28 13.25 136.45 C 11.97 136.78 10.77 137.33 9.66 138.08 L 8.99 138.16 C 6.90 138.34 4.81 138.39 2.72 138.37 C 3.23 135.39 3.03 132.37 3.15 129.36 Z" />
</g>
<g id="#dfe7ecff">
<path fill="#dfe7ec" opacity="1.00" d=" M 64.60 125.27 C 65.07 121.00 68.56 117.97 72.08 115.98 C 73.00 117.54 73.94 119.09 74.91 120.63 C 73.16 120.45 71.45 120.68 70.67 122.47 C 73.43 123.01 76.25 123.27 79.07 123.06 L 78.70 123.47 C 77.00 124.76 76.19 126.65 75.83 128.71 C 75.38 127.54 74.94 126.36 74.50 125.18 C 73.81 124.83 73.12 124.48 72.43 124.13 C 71.46 125.13 70.49 126.13 69.52 127.14 C 70.65 127.97 71.78 128.80 72.92 129.63 C 72.29 127.87 71.32 125.87 73.80 125.14 C 73.82 126.07 73.88 127.94 73.90 128.87 L 75.04 129.08 C 74.68 129.24 73.94 129.56 73.58 129.72 C 72.08 130.32 70.79 131.29 69.59 132.35 C 70.43 133.18 71.28 134.01 72.13 134.84 C 71.57 135.14 70.47 135.74 69.92 136.04 C 67.75 135.67 65.34 135.87 63.41 134.68 C 62.88 131.52 64.17 128.39 64.60 125.27 Z" />
</g>
<g id="#5e5e5eff">
<path fill="#5e5e5e" opacity="1.00" d=" M 94.02 119.95 C 93.61 118.54 94.81 117.47 95.89 116.83 L 96.50 116.96 C 96.49 118.20 96.45 119.45 96.21 120.67 C 95.67 120.49 94.57 120.13 94.02 119.95 Z" />
</g>
<g id="#555454ff">
<path fill="#555454" opacity="1.00" d=" M 98.06 117.28 L 98.63 117.41 C 98.63 118.16 98.65 119.68 98.66 120.44 C 96.66 120.72 97.05 118.17 98.06 117.28 Z" />
</g>
<g id="#d1d0ceff">
<path fill="#d1d0ce" opacity="1.00" d=" M 103.43 125.87 C 107.20 121.59 112.55 119.18 117.76 117.16 C 117.54 118.67 118.45 120.87 116.67 121.69 C 114.01 123.26 110.83 123.39 107.85 123.88 C 108.94 124.59 110.03 125.30 111.15 125.97 C 108.58 126.03 106.00 125.98 103.43 125.87 Z" />
</g>
<g id="#007da9ff">
<path fill="#007da9" opacity="1.00" d=" M 25.06 119.71 C 25.80 119.69 27.28 119.66 28.02 119.65 C 29.19 119.62 30.36 119.60 31.54 119.57 C 31.55 121.34 31.56 123.12 31.58 124.89 C 31.05 124.91 29.99 124.95 29.46 124.97 C 28.81 125.00 27.49 125.04 26.84 125.06 L 27.25 124.06 C 27.59 123.15 27.92 122.25 28.24 121.35 C 27.81 121.21 26.95 120.93 26.52 120.79 L 25.06 119.71 Z" />
<path fill="#007da9" opacity="1.00" d=" M 5.55 129.80 C 8.52 129.18 11.52 128.59 14.57 128.59 L 14.99 129.04 C 14.59 129.17 13.78 129.41 13.38 129.53 L 12.81 129.69 C 12.86 130.58 12.97 132.36 13.02 133.25 L 12.20 133.47 C 11.79 131.97 11.41 130.45 11.07 128.93 C 10.27 129.14 8.67 129.54 7.87 129.74 C 7.13 131.22 7.20 132.95 6.84 134.54 C 6.45 134.60 5.67 134.72 5.29 134.78 C 5.42 133.12 5.48 131.46 5.55 129.80 Z" />
<path fill="#007da9" opacity="1.00" d=" M 22.42 137.16 C 24.73 136.48 25.37 133.97 26.11 131.96 C 25.90 133.02 25.48 135.14 25.28 136.20 C 26.48 136.97 27.76 137.51 28.96 136.38 C 28.84 136.63 28.59 137.13 28.47 137.38 C 27.99 138.31 27.56 139.27 27.17 140.24 L 26.75 139.86 C 25.88 138.67 25.06 137.44 24.23 136.22 C 23.61 137.41 23.04 138.63 22.53 139.88 C 22.19 139.65 21.49 139.20 21.14 138.97 C 20.84 138.60 20.23 137.84 19.93 137.47 C 20.28 137.42 20.99 137.33 21.34 137.28 L 22.42 137.16 Z" />
<path fill="#007da9" opacity="1.00" d=" M 72.03 155.06 L 72.90 154.68 C 72.89 155.27 72.88 156.47 72.88 157.06 C 73.10 160.78 73.50 164.58 72.37 168.20 C 72.38 163.82 71.76 159.44 72.03 155.06 Z" />
<path fill="#007da9" opacity="1.00" d=" M 91.53 167.21 C 92.96 168.01 94.39 168.89 95.98 169.34 C 100.67 168.91 105.30 167.87 110.02 167.66 C 110.40 167.97 111.16 168.61 111.53 168.92 L 110.04 168.81 C 108.04 168.27 105.97 168.64 104.21 169.71 C 102.60 170.14 100.99 170.55 99.38 170.95 C 98.48 171.11 96.69 171.42 95.79 171.58 C 95.12 170.98 94.45 170.38 93.79 169.77 C 93.03 168.92 92.28 168.06 91.53 167.21 Z" />
<path fill="#007da9" opacity="1.00" d=" M 17.06 175.23 C 19.34 174.83 21.63 174.57 23.92 174.27 C 26.78 173.96 29.65 173.76 32.52 173.63 C 27.81 175.43 22.57 174.91 17.93 176.92 C 17.26 177.28 15.91 178.00 15.24 178.36 L 14.20 178.11 C 14.83 176.85 15.77 175.82 17.06 175.23 Z" />
</g>
<g id="#0d9ae1ff">
<path fill="#0d9ae1" opacity="1.00" d=" M 3.00 119.75 C 10.36 119.75 17.71 119.61 25.06 119.71 L 26.52 120.79 C 21.63 120.99 16.74 121.07 11.85 120.99 C 9.96 120.83 8.05 120.83 6.16 121.02 C 5.37 120.99 3.79 120.92 3.00 120.89 L 3.00 119.75 Z" />
</g>
<g id="#4bb2e9ff">
<path fill="#4bb2e9" opacity="1.00" d=" M 3.00 120.89 C 3.79 120.92 5.37 120.99 6.16 121.02 L 6.17 121.52 C 6.18 122.14 6.20 123.39 6.21 124.02 C 8.44 124.19 10.68 124.23 12.92 124.20 L 12.94 125.14 C 9.62 125.25 6.29 125.16 2.96 125.01 C 2.98 123.63 3.00 122.26 3.00 120.89 Z" />
</g>
<g id="#9ed5ecff">
<path fill="#9ed5ec" opacity="1.00" d=" M 6.16 121.02 C 8.05 120.83 9.96 120.83 11.85 120.99 C 10.40 122.61 7.90 122.75 6.17 121.52 L 6.16 121.02 Z" />
</g>
<g id="#6dbce9ff">
<path fill="#6dbce9" opacity="1.00" d=" M 11.85 120.99 C 16.74 121.07 21.63 120.99 26.52 120.79 C 26.95 120.93 27.81 121.21 28.24 121.35 C 27.92 122.25 27.59 123.15 27.25 124.06 C 22.48 123.93 17.70 124.01 12.92 124.20 C 10.68 124.23 8.44 124.19 6.21 124.02 C 6.20 123.39 6.18 122.14 6.17 121.52 C 7.90 122.75 10.40 122.61 11.85 120.99 Z" />
<path fill="#6dbce9" opacity="1.00" d=" M 15.14 143.75 L 16.24 144.21 L 16.87 144.46 L 17.11 145.01 C 17.80 146.98 18.36 149.00 18.93 151.02 C 20.98 150.99 23.02 150.98 25.07 151.10 C 25.79 151.17 27.23 151.31 27.95 151.37 C 27.76 151.43 27.40 151.55 27.22 151.60 C 24.01 151.92 20.79 151.98 17.58 152.03 C 17.06 149.19 16.21 146.43 15.14 143.75 Z" />
</g>
<g id="#0798dfff">
<path fill="#0798df" opacity="1.00" d=" M 12.92 124.20 C 17.70 124.01 22.48 123.93 27.25 124.06 L 26.84 125.06 C 26.54 125.07 25.95 125.09 25.66 125.10 C 21.42 125.06 17.18 124.99 12.94 125.14 L 12.92 124.20 Z" />
</g>
<g id="#d5dfdcff">
<path fill="#d5dfdc" opacity="1.00" d=" M 25.66 125.10 C 25.95 125.09 26.54 125.07 26.84 125.06 C 27.49 125.04 28.81 125.00 29.46 124.97 C 28.52 126.21 27.59 127.47 26.66 128.71 C 26.52 129.52 26.24 131.15 26.11 131.96 C 25.37 133.97 24.73 136.48 22.42 137.16 C 22.45 134.61 22.49 132.05 22.26 129.50 C 22.21 128.93 22.10 127.79 22.04 127.22 C 23.08 127.28 24.12 127.31 25.15 127.30 C 25.37 126.58 25.49 125.83 25.66 125.10 Z" />
</g>
<g id="#d4dad3ff">
<path fill="#d4dad3" opacity="1.00" d=" M 16.88 126.98 C 18.15 126.97 19.41 126.96 20.68 126.95 C 19.61 128.61 18.47 130.33 18.40 132.37 C 19.31 134.04 20.30 135.68 21.34 137.28 C 20.99 137.33 20.28 137.42 19.93 137.47 C 19.55 138.96 19.24 140.46 18.96 141.98 C 18.21 142.76 17.51 143.58 16.87 144.46 L 16.24 144.21 C 17.03 142.35 17.79 140.45 18.03 138.43 C 19.48 137.46 19.10 135.54 17.92 134.54 C 17.03 132.13 17.02 129.52 16.88 126.98 Z" />
</g>
<g id="#929e95ff">
<path fill="#929e95" opacity="1.00" d=" M 91.52 129.23 C 91.31 126.67 94.73 127.84 96.12 128.25 C 96.46 128.12 97.15 127.86 97.50 127.73 C 100.36 127.81 103.25 127.55 106.07 128.17 C 108.25 127.66 110.48 127.44 112.71 127.33 C 112.71 127.63 112.69 128.24 112.69 128.55 C 110.31 128.26 107.77 127.81 105.64 129.23 C 100.93 129.18 96.22 129.63 91.52 129.23 Z" />
<path fill="#929e95" opacity="1.00" d=" M 92.06 135.74 C 92.64 136.55 93.32 137.26 94.11 137.88 C 94.54 140.99 94.81 144.13 94.92 147.27 C 96.95 146.57 98.99 145.87 101.02 145.18 C 101.06 145.82 101.15 147.09 101.19 147.73 C 99.31 148.56 96.14 147.54 94.98 149.16 C 94.97 149.56 94.95 150.36 94.94 150.76 C 93.98 147.66 94.11 144.35 93.07 141.27 C 92.61 144.93 92.55 148.62 92.39 152.30 C 93.04 152.30 94.34 152.30 94.99 152.29 C 92.88 152.59 90.78 152.91 88.68 153.22 C 88.66 151.29 88.64 149.37 88.62 147.45 C 89.67 147.77 90.73 148.10 91.78 148.43 C 91.76 148.05 91.71 147.30 91.68 146.93 C 88.57 146.71 88.57 143.15 87.92 140.81 L 87.88 139.90 C 88.93 139.58 89.97 139.26 91.02 138.94 C 90.58 140.36 90.14 141.77 89.71 143.19 C 90.39 143.84 91.08 144.49 91.77 145.14 C 92.04 142.01 92.13 138.88 92.06 135.74 Z" />
<path fill="#929e95" opacity="1.00" d=" M 85.00 177.05 C 88.78 177.15 92.56 177.25 96.34 177.31 C 98.32 177.36 100.30 177.43 102.29 177.43 C 96.75 178.90 90.97 178.48 85.35 177.88 L 85.00 177.05 Z" />
</g>
<g id="#7cb9c5ff">
<path fill="#7cb9c5" opacity="1.00" d=" M 13.38 129.53 C 13.78 129.41 14.59 129.17 14.99 129.04 C 15.00 131.85 14.79 134.65 14.67 137.45 C 14.31 137.20 13.60 136.70 13.25 136.45 C 13.00 136.28 12.51 135.92 12.27 135.75 C 12.51 135.28 13.00 134.36 13.24 133.90 C 14.14 132.63 14.35 130.82 13.38 129.53 Z" />
</g>
<g id="#d4df3cff">
<path fill="#d4df3c" opacity="1.00" d=" M 26.66 128.71 C 27.52 129.03 28.37 129.37 29.22 129.72 C 29.27 129.94 29.36 130.40 29.40 130.62 C 28.38 132.72 26.84 134.49 25.28 136.20 C 25.48 135.14 25.90 133.02 26.11 131.96 C 26.24 131.15 26.52 129.52 26.66 128.71 Z" />
<path fill="#d4df3c" opacity="1.00" d=" M 27.17 140.24 C 27.56 139.27 27.99 138.31 28.47 137.38 C 28.55 139.32 28.71 141.25 28.87 143.18 C 28.26 143.14 27.05 143.05 26.44 143.01 C 26.63 142.32 26.99 140.93 27.17 140.24 Z" />
<path fill="#d4df3c" opacity="1.00" d=" M 7.81 148.79 C 9.56 148.48 11.31 148.21 13.05 147.87 C 10.46 148.63 7.77 149.00 5.09 149.34 C 6.00 149.17 6.91 148.99 7.81 148.79 Z" />
<path fill="#d4df3c" opacity="1.00" d=" M 20.35 157.38 C 24.78 155.52 29.28 153.48 34.16 153.23 C 33.84 153.72 33.21 154.71 32.90 155.20 C 23.83 160.70 12.81 160.88 2.67 163.02 C 2.80 162.51 3.05 161.48 3.18 160.97 C 8.84 159.47 14.88 159.65 20.35 157.38 Z" />
</g>
<g id="#e9e386ff">
<path fill="#e9e386" opacity="1.00" d=" M 18.40 132.37 C 19.69 131.42 20.98 130.46 22.26 129.50 C 22.49 132.05 22.45 134.61 22.42 137.16 L 21.34 137.28 C 20.30 135.68 19.31 134.04 18.40 132.37 Z" />
</g>
<g id="#98b11aff">
<path fill="#98b11a" opacity="1.00" d=" M 30.10 134.12 C 30.69 132.31 30.83 130.00 32.95 129.30 C 32.96 133.80 33.06 138.29 32.93 142.79 L 32.24 142.86 C 32.44 139.76 31.66 136.79 30.10 134.12 Z" />
</g>
<g id="#6cc424ff">
<path fill="#6cc424" opacity="1.00" d=" M 39.85 129.97 C 47.06 129.67 54.28 130.03 61.49 130.01 C 61.41 132.62 58.97 132.11 57.11 132.20 L 57.05 132.88 C 58.32 132.87 59.59 132.86 60.87 132.86 C 60.90 133.39 60.97 134.44 61.01 134.97 C 53.93 134.92 46.85 135.00 39.78 134.71 C 39.80 133.13 39.83 131.55 39.85 129.97 M 44.06 131.47 C 44.05 131.79 44.02 132.43 44.01 132.74 C 47.71 132.60 51.42 132.70 55.13 132.80 C 55.07 132.51 54.96 131.91 54.91 131.62 C 51.31 131.91 47.63 132.09 44.06 131.47 Z" />
</g>
<g id="#107babff">
<path fill="#107bab" opacity="1.00" d=" M 9.09 131.32 C 12.37 131.62 7.45 134.31 9.09 131.32 Z" />
</g>
<g id="#adc881ff">
<path fill="#adc881" opacity="1.00" d=" M 25.28 136.20 C 26.84 134.49 28.38 132.72 29.40 130.62 C 29.58 131.50 29.93 133.25 30.10 134.12 C 31.66 136.79 32.44 139.76 32.24 142.86 C 31.40 142.94 29.71 143.10 28.87 143.18 C 28.71 141.25 28.55 139.32 28.47 137.38 C 28.59 137.13 28.84 136.63 28.96 136.38 C 27.76 137.51 26.48 136.97 25.28 136.20 Z" />
</g>
<g id="#b8c4c0ff">
<path fill="#b8c4c0" opacity="1.00" d=" M 94.40 132.10 C 97.91 131.72 101.44 131.43 104.97 131.26 C 103.32 131.80 101.67 132.34 100.02 132.87 C 100.57 133.82 101.12 134.77 101.67 135.73 C 101.78 139.69 101.88 143.66 101.77 147.63 L 101.19 147.73 C 101.15 147.09 101.06 145.82 101.02 145.18 C 98.99 145.87 96.95 146.57 94.92 147.27 C 94.81 144.13 94.54 140.99 94.11 137.88 C 94.42 136.58 94.35 135.33 93.92 134.11 C 95.48 134.13 97.04 134.12 98.61 134.10 C 97.20 133.44 95.81 132.75 94.40 132.10 Z" />
</g>
<g id="#b8c7c2ff">
<path fill="#b8c7c2" opacity="1.00" d=" M 87.69 134.08 C 89.24 134.10 90.79 134.11 92.34 134.11 C 92.27 134.52 92.13 135.33 92.06 135.74 C 92.13 138.88 92.04 142.01 91.77 145.14 C 91.08 144.49 90.39 143.84 89.71 143.19 C 90.14 141.77 90.58 140.36 91.02 138.94 C 89.97 139.26 88.93 139.58 87.88 139.90 C 87.81 137.96 87.76 136.02 87.69 134.08 Z" />
</g>
<g id="#727977ff">
<path fill="#727977" opacity="1.00" d=" M 92.34 134.11 C 92.73 134.11 93.52 134.11 93.92 134.11 C 94.35 135.33 94.42 136.58 94.11 137.88 C 93.32 137.26 92.64 136.55 92.06 135.74 C 92.13 135.33 92.27 134.52 92.34 134.11 Z" />
</g>
<g id="#e4e5e6ff">
<path fill="#e4e5e6" opacity="1.00" d=" M 101.67 135.73 C 103.03 134.99 104.31 133.80 105.96 133.89 C 108.38 133.69 109.62 136.24 111.69 136.99 C 113.63 137.60 115.61 138.04 117.54 138.70 C 116.10 138.86 114.67 139.04 113.23 139.24 C 113.06 140.51 112.88 141.79 112.69 143.06 C 111.49 143.78 110.37 144.63 109.30 145.53 C 108.81 145.15 108.33 144.78 107.84 144.41 C 107.36 144.25 106.40 143.91 105.91 143.75 C 105.89 145.34 105.88 146.94 105.87 148.54 C 102.73 148.80 99.59 149.21 96.56 150.13 C 99.29 153.05 103.69 150.76 107.11 150.92 C 107.24 152.60 107.38 154.28 107.52 155.96 C 104.55 156.01 101.62 156.45 98.69 156.86 C 100.64 156.25 102.57 155.53 104.32 154.46 C 104.58 153.92 105.11 152.84 105.37 152.29 C 102.51 152.60 99.64 152.90 96.77 153.15 L 96.70 154.02 C 97.94 154.27 99.18 154.51 100.43 154.73 C 99.38 154.84 98.33 154.95 97.28 155.06 C 95.33 154.02 93.14 153.78 90.97 153.75 C 90.98 154.32 91.01 155.48 91.03 156.06 L 91.04 156.76 C 93.17 156.84 95.29 156.96 97.42 157.03 C 95.35 157.30 93.28 157.53 91.21 157.75 C 89.88 157.66 88.55 157.53 87.24 157.31 L 86.52 156.41 L 85.88 155.61 C 85.16 154.09 84.53 154.03 84.00 155.42 C 83.42 155.21 82.84 155.01 82.26 154.80 C 81.76 154.39 80.75 153.56 80.25 153.14 C 82.04 153.32 83.85 153.37 85.65 153.32 L 85.90 152.55 C 86.06 152.05 86.38 151.03 86.54 150.53 C 88.04 147.51 87.95 144.09 87.92 140.81 C 88.57 143.15 88.57 146.71 91.68 146.93 C 91.71 147.30 91.76 148.05 91.78 148.43 C 90.73 148.10 89.67 147.77 88.62 147.45 C 88.64 149.37 88.66 151.29 88.68 153.22 C 90.78 152.91 92.88 152.59 94.99 152.29 L 95.41 152.24 C 95.29 151.87 95.06 151.13 94.94 150.76 C 94.95 150.36 94.97 149.56 94.98 149.16 C 96.14 147.54 99.31 148.56 101.19 147.73 L 101.77 147.63 C 101.88 143.66 101.78 139.69 101.67 135.73 Z" />
</g>
<g id="#898d8cff">
<path fill="#898d8c" opacity="1.00" d=" M 110.97 134.12 C 113.58 134.07 116.19 134.00 118.80 133.96 C 118.80 134.42 118.82 135.35 118.83 135.81 C 116.19 135.91 113.56 135.99 110.93 136.06 C 110.94 135.57 110.96 134.61 110.97 134.12 Z" />
</g>
<g id="#efe122ff">
<path fill="#efe122" opacity="1.00" d=" M 17.07 137.95 C 16.47 136.55 16.76 135.41 17.92 134.54 C 19.10 135.54 19.48 137.46 18.03 138.43 L 17.07 137.95 Z" />
</g>
<g id="#958c9cff">
<path fill="#958c9c" opacity="1.00" d=" M 40.26 136.25 C 41.58 135.54 43.43 135.39 44.73 136.19 C 44.38 137.59 40.66 137.51 40.26 136.25 Z" />
</g>
<g id="#dedde2ff">
<path fill="#dedde2" opacity="1.00" d=" M 83.43 136.68 C 84.22 136.44 85.02 136.23 85.83 136.06 C 86.19 138.22 86.25 140.42 86.19 142.61 C 84.13 142.41 81.99 142.04 79.96 142.68 C 79.33 142.73 78.08 142.83 77.45 142.88 C 76.87 142.70 75.71 142.34 75.13 142.16 C 75.04 141.59 74.84 140.44 74.75 139.87 C 77.49 139.76 80.23 139.67 82.97 139.48 C 78.50 138.57 73.35 140.11 69.36 137.60 L 70.26 137.51 C 74.23 138.27 78.32 138.69 82.33 137.95 L 83.43 136.68 Z" />
</g>
<g id="#bcbca8ff">
<path fill="#bcbca8" opacity="1.00" d=" M 9.66 138.08 C 10.77 137.33 11.97 136.78 13.25 136.45 C 13.60 136.70 14.31 137.20 14.67 137.45 L 14.65 137.97 C 13.13 139.06 11.25 138.88 9.66 138.08 Z" />
</g>
<g id="#ded72fff">
<path fill="#ded72f" opacity="1.00" d=" M 24.23 136.22 C 25.06 137.44 25.88 138.67 26.75 139.86 C 26.50 140.64 26.01 142.18 25.76 142.95 C 25.52 144.22 25.29 145.49 25.10 146.76 C 23.89 145.83 22.69 144.92 21.47 144.01 C 21.65 145.45 21.95 146.88 22.30 148.29 C 21.92 148.65 21.16 149.35 20.78 149.71 C 19.84 148.43 19.20 146.99 18.66 145.51 C 19.85 144.67 20.22 142.93 18.96 141.98 C 19.24 140.46 19.55 138.96 19.93 137.47 C 20.23 137.84 20.84 138.60 21.14 138.97 C 20.81 140.39 20.82 141.79 21.17 143.17 C 22.58 142.75 22.49 141.04 22.53 139.88 C 23.04 138.63 23.61 137.41 24.23 136.22 M 24.28 139.43 C 23.44 140.11 23.17 142.66 24.65 142.57 C 25.48 141.89 25.69 139.38 24.28 139.43 Z" />
</g>
<g id="#a8ada1ff">
<path fill="#a8ada1" opacity="1.00" d=" M 70.26 137.51 C 74.62 136.81 79.05 137.05 83.43 136.68 L 82.33 137.95 C 78.32 138.69 74.23 138.27 70.26 137.51 Z" />
</g>
<g id="#313c23ff">
<path fill="#313c23" opacity="1.00" d=" M 15.14 143.75 C 14.90 141.75 16.46 139.86 17.07 137.95 L 18.03 138.43 C 17.79 140.45 17.03 142.35 16.24 144.21 L 15.14 143.75 Z" />
</g>
<g id="#c9d7e4ff">
<path fill="#c9d7e4" opacity="1.00" d=" M 21.14 138.97 C 21.49 139.20 22.19 139.65 22.53 139.88 C 22.49 141.04 22.58 142.75 21.17 143.17 C 20.82 141.79 20.81 140.39 21.14 138.97 Z" />
</g>
<g id="#f4e889ff">
<path fill="#f4e889" opacity="1.00" d=" M 24.28 139.43 C 25.69 139.38 25.48 141.89 24.65 142.57 C 23.17 142.66 23.44 140.11 24.28 139.43 Z" />
</g>
<g id="#c3c39cff">
<path fill="#c3c39c" opacity="1.00" d=" M 26.75 139.86 L 27.17 140.24 C 26.99 140.93 26.63 142.32 26.44 143.01 L 25.76 142.95 C 26.01 142.18 26.50 140.64 26.75 139.86 Z" />
</g>
<g id="#b9bbb7ff">
<path fill="#b9bbb7" opacity="1.00" d=" M 70.25 141.79 C 70.92 139.79 73.04 140.01 74.75 139.87 C 74.84 140.44 75.04 141.59 75.13 142.16 C 73.51 141.97 71.88 141.85 70.25 141.79 Z" />
</g>
<g id="#63422fff">
<path fill="#63422f" opacity="1.00" d=" M 114.47 140.32 L 115.07 140.30 L 115.07 140.95 C 114.92 140.80 114.62 140.48 114.47 140.32 Z" />
</g>
<g id="#d99547ff">
<path fill="#d99547" opacity="1.00" d=" M 115.07 140.30 C 115.49 140.29 116.35 140.28 116.78 140.27 L 116.79 140.91 C 116.36 140.92 115.50 140.94 115.07 140.95 L 115.07 140.30 Z" />
</g>
<g id="#74a36fff">
<path fill="#74a36f" opacity="1.00" d=" M 116.78 140.27 L 117.35 140.29 C 117.21 140.44 116.93 140.76 116.79 140.91 L 116.78 140.27 Z" />
</g>
<g id="#b1ddecff">
<path fill="#b1ddec" opacity="1.00" d=" M 10.54 141.13 C 11.61 140.30 14.22 141.24 13.71 142.77 C 12.64 143.40 10.33 142.48 10.54 141.13 Z" />
</g>
<g id="#b7b86aff">
<path fill="#b7b86a" opacity="1.00" d=" M 16.87 144.46 C 17.51 143.58 18.21 142.76 18.96 141.98 C 20.22 142.93 19.85 144.67 18.66 145.51 C 18.28 145.38 17.50 145.13 17.11 145.01 L 16.87 144.46 Z" />
</g>
<g id="#b4e3f4ff">
<path fill="#b4e3f4" opacity="1.00" d=" M 64.70 142.05 C 66.55 141.91 68.40 141.82 70.25 141.79 C 71.88 141.85 73.51 141.97 75.13 142.16 C 75.71 142.34 76.87 142.70 77.45 142.88 C 77.19 145.77 78.53 150.96 74.05 150.59 C 74.25 148.07 74.47 145.55 74.70 143.03 C 73.52 143.09 72.35 143.15 71.17 143.21 C 71.13 145.62 71.08 148.03 71.03 150.44 C 70.55 150.35 69.59 150.18 69.11 150.10 C 67.60 149.81 66.08 149.52 64.56 149.24 C 64.61 146.84 64.66 144.44 64.70 142.05 Z" />
</g>
<g id="#abd6ecff">
<path fill="#abd6ec" opacity="1.00" d=" M 79.96 142.68 C 81.99 142.04 84.13 142.41 86.19 142.61 C 86.07 145.25 86.01 147.92 86.54 150.53 C 84.42 150.24 82.29 150.03 80.17 149.86 C 80.03 153.34 83.61 152.28 85.90 152.55 L 85.65 153.32 C 83.85 153.37 82.04 153.32 80.25 153.14 C 79.84 152.97 79.02 152.63 78.60 152.46 C 79.22 149.31 81.22 145.84 79.96 142.68 Z" />
</g>
<g id="#616364ff">
<path fill="#616364" opacity="1.00" d=" M 93.07 141.27 C 94.11 144.35 93.98 147.66 94.94 150.76 C 95.06 151.13 95.29 151.87 95.41 152.24 L 94.99 152.29 C 94.34 152.30 93.04 152.30 92.39 152.30 C 92.55 148.62 92.61 144.93 93.07 141.27 Z" />
</g>
<g id="#a1af09ff">
<path fill="#a1af09" opacity="1.00" d=" M 44.19 143.48 C 45.63 143.40 47.06 143.27 48.50 143.25 C 48.28 144.41 48.03 145.56 47.81 146.71 C 48.43 146.35 49.66 145.63 50.28 145.27 C 50.44 145.74 50.75 146.70 50.91 147.17 C 51.47 147.23 52.61 147.36 53.18 147.42 C 52.97 147.46 52.56 147.53 52.36 147.57 C 50.69 147.88 49.02 148.19 47.36 148.52 C 47.27 147.03 47.19 145.54 47.13 144.05 C 46.42 144.18 45.02 144.44 44.31 144.56 C 44.28 144.29 44.22 143.75 44.19 143.48 Z" />
<path fill="#a1af09" opacity="1.00" d=" M 2.67 163.02 C 12.81 160.88 23.83 160.70 32.90 155.20 C 34.42 155.32 35.95 155.35 37.43 155.74 C 39.20 157.10 40.46 159.00 42.23 160.36 C 43.89 161.23 45.57 159.99 47.06 159.36 C 48.00 159.69 48.93 160.04 49.88 160.33 C 50.67 160.44 52.25 160.64 53.05 160.75 C 52.81 161.23 52.35 162.19 52.12 162.67 C 50.21 162.76 48.31 162.88 46.40 163.01 C 40.91 163.05 35.45 162.54 30.01 161.80 C 20.91 160.86 12.16 165.88 3.14 164.33 L 2.67 163.02 Z" />
</g>
<g id="#a9cbd8ff">
<path fill="#a9cbd8" opacity="1.00" d=" M 71.17 143.21 C 72.35 143.15 73.52 143.09 74.70 143.03 C 74.47 145.55 74.25 148.07 74.05 150.59 C 73.29 150.56 71.78 150.48 71.03 150.44 C 71.08 148.03 71.13 145.62 71.17 143.21 Z" />
</g>
<g id="#81e2f4ff">
<path fill="#81e2f4" opacity="1.00" d=" M 2.99 146.29 C 6.21 145.36 10.17 142.55 13.24 145.13 C 11.10 145.80 9.19 147.00 7.81 148.79 C 6.91 148.99 6.00 149.17 5.09 149.34 C 4.59 148.94 3.60 148.12 3.11 147.71 C 3.08 147.35 3.02 146.64 2.99 146.29 Z" />
</g>
<g id="#a2cbe0ff">
<path fill="#a2cbe0" opacity="1.00" d=" M 77.88 144.57 C 79.30 143.31 80.79 146.63 79.68 147.70 C 78.05 148.54 77.61 145.65 77.88 144.57 Z" />
</g>
<g id="#a8abb0ff">
<path fill="#a8abb0" opacity="1.00" d=" M 105.91 143.75 C 106.40 143.91 107.36 144.25 107.84 144.41 C 107.99 146.55 108.12 148.69 108.28 150.83 L 107.11 150.92 C 103.69 150.76 99.29 153.05 96.56 150.13 C 99.59 149.21 102.73 148.80 105.87 148.54 C 105.88 146.94 105.89 145.34 105.91 143.75 Z" />
</g>
<g id="#b9d2bdff">
<path fill="#b9d2bd" opacity="1.00" d=" M 28.34 145.00 C 28.90 145.60 28.90 145.60 28.34 145.00 Z" />
</g>
<g id="#79b47aff">
<path fill="#79b47a" opacity="1.00" d=" M 31.18 145.13 C 31.70 145.67 31.70 145.67 31.18 145.13 Z" />
</g>
<g id="#babea8ff">
<path fill="#babea8" opacity="1.00" d=" M 58.14 145.13 C 59.77 144.65 60.35 145.21 59.86 146.82 C 58.23 147.30 57.65 146.74 58.14 145.13 Z" />
</g>
<g id="#584b4eff">
<path fill="#584b4e" opacity="1.00" d=" M 115.39 145.07 C 116.99 144.46 117.53 145.01 117.01 146.71 C 115.42 147.30 114.88 146.76 115.39 145.07 Z" />
</g>
<g id="#48b1f1ff">
<path fill="#48b1f1" opacity="1.00" d=" M 7.81 148.79 C 9.19 147.00 11.10 145.80 13.24 145.13 L 14.58 146.12 C 14.20 146.56 13.43 147.43 13.05 147.87 C 11.31 148.21 9.56 148.48 7.81 148.79 Z" />
</g>
<g id="#74a71dff">
<path fill="#74a71d" opacity="1.00" d=" M 38.87 146.06 C 39.35 146.09 40.29 146.16 40.77 146.19 C 41.24 146.65 42.19 147.56 42.66 148.02 C 42.29 148.53 41.55 149.56 41.18 150.08 L 40.23 149.83 C 39.97 149.35 39.44 148.39 39.18 147.91 C 39.10 147.45 38.95 146.52 38.87 146.06 Z" />
</g>
<g id="#d4dd73ff">
<path fill="#d4dd73" opacity="1.00" d=" M 40.77 146.19 C 41.96 146.24 43.16 146.31 44.35 146.39 L 44.82 146.78 C 43.31 146.54 42.85 148.71 44.31 149.15 C 46.57 149.43 48.87 149.53 51.14 149.28 C 51.44 148.85 52.05 147.99 52.36 147.57 C 52.56 147.53 52.97 147.46 53.18 147.42 C 55.83 147.58 58.45 148.05 61.03 148.68 C 59.16 148.58 57.29 148.84 55.62 149.68 C 53.68 150.86 51.80 152.14 49.73 153.09 C 47.75 151.98 45.70 150.94 43.43 150.57 C 42.87 150.45 41.75 150.20 41.18 150.08 C 41.55 149.56 42.29 148.53 42.66 148.02 C 42.19 147.56 41.24 146.65 40.77 146.19 Z" />
</g>
<g id="#6ea466ff">
<path fill="#6ea466" opacity="1.00" d=" M 28.48 146.34 C 29.95 146.51 31.42 146.68 32.89 146.85 C 32.97 148.38 33.07 149.91 33.19 151.44 C 32.58 151.63 31.37 152.00 30.76 152.18 C 31.01 151.67 31.52 150.65 31.77 150.14 C 31.95 149.78 32.31 149.07 32.49 148.71 C 31.14 148.47 29.79 148.22 28.44 147.99 L 28.48 146.34 Z" />
</g>
<g id="#73b526ff">
<path fill="#73b526" opacity="1.00" d=" M 44.31 149.15 C 42.85 148.71 43.31 146.54 44.82 146.78 C 45.01 147.26 45.37 148.21 45.55 148.69 C 45.24 148.80 44.62 149.04 44.31 149.15 Z" />
</g>
<g id="#b2b753ff">
<path fill="#b2b753" opacity="1.00" d=" M 20.78 149.71 C 21.16 149.35 21.92 148.65 22.30 148.29 L 23.37 148.59 L 23.70 149.09 C 22.79 150.57 21.81 150.78 20.78 149.71 Z" />
</g>
<g id="#ebef00ff">
<path fill="#ebef00" opacity="1.00" d=" M 23.37 148.59 C 23.52 148.63 23.81 148.71 23.96 148.75 L 23.70 149.09 L 23.37 148.59 Z" />
</g>
<g id="#eaf2a1ff">
<path fill="#eaf2a1" opacity="1.00" d=" M 39.18 147.91 C 39.44 148.39 39.97 149.35 40.23 149.83 L 41.18 150.08 C 41.75 150.20 42.87 150.45 43.43 150.57 C 40.58 151.13 37.86 152.16 35.13 153.13 C 34.88 153.16 34.40 153.20 34.16 153.23 C 29.28 153.48 24.78 155.52 20.35 157.38 C 14.88 159.65 8.84 159.47 3.18 160.97 C 3.12 160.19 3.01 158.63 2.96 157.86 L 3.27 157.82 C 7.34 157.86 11.32 157.09 15.27 156.19 L 16.00 156.12 C 16.24 155.56 16.73 154.44 16.97 153.88 C 20.17 153.45 23.37 153.10 26.59 152.83 C 27.99 152.68 29.41 152.58 30.76 152.18 C 31.37 152.00 32.58 151.63 33.19 151.44 L 33.90 151.23 C 35.61 150.94 37.34 150.75 39.06 150.55 C 39.09 149.89 39.15 148.57 39.18 147.91 Z" />
</g>
<g id="#f4c88fff">
<path fill="#f4c88f" opacity="1.00" d=" M 55.62 149.68 C 57.29 148.84 59.16 148.58 61.03 148.68 C 61.62 148.82 62.79 149.11 63.38 149.25 C 65.27 149.65 67.20 149.84 69.11 150.10 C 69.59 150.18 70.55 150.35 71.03 150.44 C 72.06 150.64 73.08 150.85 74.11 151.08 C 73.57 151.55 72.51 152.50 71.97 152.98 C 66.38 154.57 62.18 148.94 56.54 149.85 L 55.62 149.68 Z" />
</g>
<g id="#c6cb3cff">
<path fill="#c6cb3c" opacity="1.00" d=" M 49.73 153.09 C 51.80 152.14 53.68 150.86 55.62 149.68 C 56.21 151.04 56.80 152.40 57.40 153.75 C 57.56 154.29 57.88 155.37 58.05 155.90 C 57.06 156.83 56.08 157.76 55.11 158.69 C 54.70 158.12 54.28 157.55 53.86 156.98 L 53.41 156.41 C 51.72 156.04 50.00 155.79 48.30 155.51 C 47.96 155.07 47.30 154.18 46.96 153.73 C 47.65 153.57 49.04 153.25 49.73 153.09 Z" />
</g>
<g id="#d55c14ff">
<path fill="#d55c14" opacity="1.00" d=" M 55.62 149.68 L 56.54 149.85 C 56.99 150.37 57.89 151.42 58.34 151.95 C 61.52 155.05 65.41 157.35 68.39 160.69 C 69.50 159.08 70.57 157.44 71.40 155.68 C 70.88 160.57 70.98 165.59 69.22 170.26 C 65.21 170.89 61.14 170.80 57.11 170.54 C 60.29 168.04 64.53 169.22 68.25 168.84 C 67.61 168.41 66.96 167.99 66.31 167.59 C 68.35 164.42 65.25 161.48 62.05 161.58 C 61.07 158.67 59.79 155.78 57.40 153.75 C 56.80 152.40 56.21 151.04 55.62 149.68 Z" />
<path fill="#d55c14" opacity="1.00" d=" M 71.97 152.98 C 72.51 152.50 73.57 151.55 74.11 151.08 C 75.64 151.41 77.13 151.91 78.60 152.46 C 79.02 152.63 79.84 152.97 80.25 153.14 C 80.75 153.56 81.76 154.39 82.26 154.80 C 81.56 154.68 80.18 154.42 79.48 154.29 C 77.01 153.70 74.50 153.26 71.97 152.98 Z" />
<path fill="#d55c14" opacity="1.00" d=" M 87.24 157.31 C 88.55 157.53 89.88 157.66 91.21 157.75 L 90.62 159.61 L 90.37 160.36 C 89.99 160.67 89.24 161.28 88.86 161.59 C 88.35 160.15 87.85 158.71 87.24 157.31 Z" />
</g>
<g id="#f1a568ff">
<path fill="#f1a568" opacity="1.00" d=" M 56.54 149.85 C 62.18 148.94 66.38 154.57 71.97 152.98 C 71.89 153.37 71.72 154.14 71.64 154.53 C 67.09 154.37 62.66 153.30 58.34 151.95 C 57.89 151.42 56.99 150.37 56.54 149.85 Z" />
</g>
<g id="#369abcff">
<path fill="#369abc" opacity="1.00" d=" M 80.17 149.86 C 82.29 150.03 84.42 150.24 86.54 150.53 C 86.38 151.03 86.06 152.05 85.90 152.55 C 83.61 152.28 80.03 153.34 80.17 149.86 Z" />
</g>
<g id="#888b8fff">
<path fill="#888b8f" opacity="1.00" d=" M 118.24 150.41 C 119.68 150.80 119.24 153.56 118.57 154.62 C 117.09 154.20 117.43 151.44 118.24 150.41 Z" />
</g>
<g id="#d2dc47ff">
<path fill="#d2dc47" opacity="1.00" d=" M 35.13 153.13 C 37.86 152.16 40.58 151.13 43.43 150.57 C 45.70 150.94 47.75 151.98 49.73 153.09 C 49.04 153.25 47.65 153.57 46.96 153.73 C 43.01 153.71 39.06 153.44 35.13 153.13 Z" />
</g>
<g id="#d0c5c8ff">
<path fill="#d0c5c8" opacity="1.00" d=" M 107.11 150.92 L 108.28 150.83 C 110.78 154.08 112.23 157.96 113.99 161.63 C 109.69 163.58 105.08 164.62 100.53 165.78 C 96.82 165.21 92.78 165.31 89.49 163.29 C 91.78 162.72 94.11 162.30 96.47 162.16 C 99.22 162.91 102.29 163.54 104.57 161.35 C 105.48 161.02 106.40 160.71 107.32 160.41 C 107.69 160.29 108.42 160.05 108.79 159.93 L 108.79 159.37 C 108.80 158.52 108.82 156.83 108.83 155.98 C 108.50 155.98 107.85 155.97 107.52 155.96 C 107.38 154.28 107.24 152.60 107.11 150.92 Z" />
</g>
<g id="#82beefff">
<path fill="#82beef" opacity="1.00" d=" M 3.04 151.45 C 5.75 151.88 5.01 154.34 4.53 156.25 C 4.22 156.64 3.59 157.43 3.27 157.82 L 2.96 157.86 C 3.00 155.72 3.02 153.59 3.04 151.45 Z" />
</g>
<g id="#a3d1f4ff">
<path fill="#a3d1f4" opacity="1.00" d=" M 6.02 152.13 C 8.35 152.12 10.67 152.10 12.99 152.09 C 13.04 153.42 13.08 154.76 13.13 156.10 C 11.82 156.00 10.51 155.89 9.20 155.76 C 8.09 155.54 6.97 155.31 5.87 155.06 C 5.91 154.33 5.98 152.86 6.02 152.13 Z" />
</g>
<g id="#df8537ff">
<path fill="#df8537" opacity="1.00" d=" M 58.34 151.95 C 62.66 153.30 67.09 154.37 71.64 154.53 C 71.58 154.82 71.46 155.39 71.40 155.68 C 70.57 157.44 69.50 159.08 68.39 160.69 C 65.41 157.35 61.52 155.05 58.34 151.95 Z" />
</g>
<g id="#6bd296ff">
<path fill="#6bd296" opacity="1.00" d=" M 96.77 153.15 C 99.64 152.90 102.51 152.60 105.37 152.29 C 105.11 152.84 104.58 153.92 104.32 154.46 C 103.02 154.55 101.73 154.64 100.43 154.73 C 99.18 154.51 97.94 154.27 96.70 154.02 L 96.77 153.15 Z" />
</g>
<g id="#b9bd0aff">
<path fill="#b9bd0a" opacity="1.00" d=" M 34.16 153.23 C 34.40 153.20 34.88 153.16 35.13 153.13 C 39.06 153.44 43.01 153.71 46.96 153.73 C 47.30 154.18 47.96 155.07 48.30 155.51 C 50.00 155.79 51.72 156.04 53.41 156.41 L 53.86 156.98 C 52.54 158.11 51.22 159.23 49.88 160.33 C 48.93 160.04 48.00 159.69 47.06 159.36 C 45.57 159.99 43.89 161.23 42.23 160.36 C 40.46 159.00 39.20 157.10 37.43 155.74 C 35.95 155.35 34.42 155.32 32.90 155.20 C 33.21 154.71 33.84 153.72 34.16 153.23 Z" />
</g>
<g id="#8c3a06ff">
<path fill="#8c3a06" opacity="1.00" d=" M 57.40 153.75 C 59.79 155.78 61.07 158.67 62.05 161.58 C 62.76 163.48 63.52 165.38 64.38 167.22 C 63.81 167.16 62.66 167.04 62.09 166.98 C 61.72 165.88 61.37 164.78 61.04 163.67 C 60.33 160.98 59.05 158.49 58.05 155.90 C 57.88 155.37 57.56 154.29 57.40 153.75 Z" />
</g>
<g id="#82d2a1ff">
<path fill="#82d2a1" opacity="1.00" d=" M 90.97 153.75 C 93.14 153.78 95.33 154.02 97.28 155.06 C 95.20 155.41 93.11 155.74 91.03 156.06 C 91.01 155.48 90.98 154.32 90.97 153.75 Z" />
</g>
<g id="#d698c6ff">
<path fill="#d698c6" opacity="1.00" d=" M 100.43 154.73 C 101.73 154.64 103.02 154.55 104.32 154.46 C 102.57 155.53 100.64 156.25 98.69 156.86 C 98.37 156.90 97.73 156.98 97.42 157.03 C 95.29 156.96 93.17 156.84 91.04 156.76 L 91.03 156.06 C 93.11 155.74 95.20 155.41 97.28 155.06 C 98.33 154.95 99.38 154.84 100.43 154.73 Z" />
<path fill="#d698c6" opacity="1.00" d=" M 79.41 175.22 C 81.68 172.22 79.81 168.90 79.25 165.72 C 81.57 166.62 83.85 167.61 86.05 168.76 C 85.71 169.76 85.37 170.76 85.03 171.76 C 84.83 172.29 84.42 173.34 84.22 173.87 C 83.41 174.56 82.58 175.22 81.72 175.84 C 80.93 175.71 80.16 175.50 79.41 175.22 Z" />
</g>
<g id="#88d7f0ff">
<path fill="#88d7f0" opacity="1.00" d=" M 72.90 154.68 L 73.46 154.44 C 74.62 156.04 76.18 157.25 77.90 158.20 C 78.43 156.89 78.96 155.59 79.48 154.29 C 80.18 154.42 81.56 154.68 82.26 154.80 C 82.84 155.01 83.42 155.21 84.00 155.42 C 84.47 155.47 85.41 155.56 85.88 155.61 L 86.52 156.41 C 83.09 157.45 79.77 158.95 76.21 159.46 C 74.88 159.03 73.90 157.95 72.88 157.06 C 72.88 156.47 72.89 155.27 72.90 154.68 Z" />
</g>
<g id="#a9e9f4ff">
<path fill="#a9e9f4" opacity="1.00" d=" M 73.46 154.44 C 75.47 154.34 77.47 154.33 79.48 154.29 C 78.96 155.59 78.43 156.89 77.90 158.20 C 76.18 157.25 74.62 156.04 73.46 154.44 Z" />
</g>
<g id="#3d5045ff">
<path fill="#3d5045" opacity="1.00" d=" M 84.00 155.42 C 84.53 154.03 85.16 154.09 85.88 155.61 C 85.41 155.56 84.47 155.47 84.00 155.42 Z" />
</g>
<g id="#d9d5a7ff">
<path fill="#d9d5a7" opacity="1.00" d=" M 4.53 156.25 C 6.08 156.01 7.64 155.86 9.20 155.76 C 10.51 155.89 11.82 156.00 13.13 156.10 C 13.66 156.12 14.73 156.17 15.27 156.19 C 11.32 157.09 7.34 157.86 3.27 157.82 C 3.59 157.43 4.22 156.64 4.53 156.25 Z" />
</g>
<g id="#0c8a3eff">
<path fill="#0c8a3e" opacity="1.00" d=" M 98.69 156.86 C 101.62 156.45 104.55 156.01 107.52 155.96 C 107.85 155.97 108.50 155.98 108.83 155.98 C 108.82 156.83 108.80 158.52 108.79 159.37 C 108.25 159.16 107.16 158.72 106.61 158.51 C 106.89 158.19 107.44 157.55 107.71 157.23 C 102.17 158.89 96.40 159.70 90.62 159.61 L 91.21 157.75 C 93.28 157.53 95.35 157.30 97.42 157.03 C 97.73 156.98 98.37 156.90 98.69 156.86 Z" />
</g>
<g id="#d8d9dcff">
<path fill="#d8d9dc" opacity="1.00" d=" M 118.15 162.34 C 120.67 160.13 123.16 157.87 125.93 155.96 C 126.14 161.01 126.22 166.07 125.94 171.12 C 125.01 171.59 124.08 172.05 123.15 172.50 C 122.85 172.19 122.26 171.57 121.96 171.26 C 119.20 168.76 114.97 169.68 111.53 168.92 C 111.16 168.61 110.40 167.97 110.02 167.66 C 109.19 167.19 108.34 166.77 107.46 166.41 C 111.21 165.71 115.19 164.93 118.15 162.34 Z" />
</g>
<g id="#b7a60eff">
<path fill="#b7a60e" opacity="1.00" d=" M 49.88 160.33 C 51.22 159.23 52.54 158.11 53.86 156.98 C 54.28 157.55 54.70 158.12 55.11 158.69 C 56.08 157.76 57.06 156.83 58.05 155.90 C 59.05 158.49 60.33 160.98 61.04 163.67 C 60.99 163.94 60.89 164.48 60.84 164.75 C 58.72 162.61 56.23 160.67 53.05 160.75 C 52.25 160.64 50.67 160.44 49.88 160.33 Z" />
</g>
<g id="#69c3eeff">
<path fill="#69c3ee" opacity="1.00" d=" M 72.88 157.06 C 73.90 157.95 74.88 159.03 76.21 159.46 C 79.77 158.95 83.09 157.45 86.52 156.41 L 87.24 157.31 C 87.85 158.71 88.35 160.15 88.86 161.59 C 89.02 162.01 89.33 162.87 89.49 163.29 C 92.78 165.31 96.82 165.21 100.53 165.78 C 102.83 166.04 105.15 166.20 107.46 166.41 C 108.34 166.77 109.19 167.19 110.02 167.66 C 105.30 167.87 100.67 168.91 95.98 169.34 C 94.39 168.89 92.96 168.01 91.53 167.21 C 90.39 166.30 89.24 165.39 88.08 164.51 C 87.81 162.64 87.61 160.74 87.06 158.93 C 85.49 157.83 83.52 158.80 82.20 159.83 L 81.90 160.11 C 81.47 160.51 80.61 161.30 80.18 161.70 C 78.40 162.65 76.59 163.55 74.81 164.51 C 74.08 166.95 73.78 170.01 71.21 171.26 C 67.41 174.16 62.11 171.36 58.30 174.23 C 58.12 174.23 57.76 174.22 57.58 174.22 C 53.53 173.70 49.44 173.91 45.54 175.18 L 44.99 175.28 C 44.63 174.60 43.92 173.23 43.56 172.54 C 51.50 172.21 59.39 170.40 67.37 171.28 C 67.83 171.02 68.76 170.52 69.22 170.26 C 70.29 169.61 71.35 168.93 72.37 168.20 C 73.50 164.58 73.10 160.78 72.88 157.06 Z" />
</g>
<g id="#364d98ff">
<path fill="#364d98" opacity="1.00" d=" M 82.20 159.83 C 83.52 158.80 85.49 157.83 87.06 158.93 C 87.61 160.74 87.81 162.64 88.08 164.51 C 87.04 163.74 86.01 162.97 84.94 162.24 C 86.94 160.51 83.61 159.55 82.20 159.83 Z" />
</g>
<g id="#18964fff">
<path fill="#18964f" opacity="1.00" d=" M 90.37 160.36 C 95.33 160.33 100.26 159.55 105.14 158.76 C 105.69 159.17 106.78 160.00 107.32 160.41 C 106.40 160.71 105.48 161.02 104.57 161.35 C 101.87 161.65 99.17 161.90 96.47 162.16 C 94.11 162.30 91.78 162.72 89.49 163.29 C 89.33 162.87 89.02 162.01 88.86 161.59 C 89.24 161.28 89.99 160.67 90.37 160.36 Z" />
</g>
<g id="#045c0aff">
<path fill="#045c0a" opacity="1.00" d=" M 105.14 158.76 C 105.51 158.69 106.25 158.57 106.61 158.51 C 107.16 158.72 108.25 159.16 108.79 159.37 L 108.79 159.93 C 108.42 160.05 107.69 160.29 107.32 160.41 C 106.78 160.00 105.69 159.17 105.14 158.76 Z" />
</g>
<g id="#150c1fff">
<path fill="#150c1f" opacity="1.00" d=" M 82.20 159.83 C 83.61 159.55 86.94 160.51 84.94 162.24 L 84.17 161.96 C 83.60 161.50 82.47 160.57 81.90 160.11 L 82.20 159.83 Z" />
</g>
<g id="#a89118ff">
<path fill="#a89118" opacity="1.00" d=" M 53.05 160.75 C 56.23 160.67 58.72 162.61 60.84 164.75 C 60.89 164.48 60.99 163.94 61.04 163.67 C 61.37 164.78 61.72 165.88 62.09 166.98 C 50.43 168.67 38.58 167.97 26.89 169.42 C 23.63 169.87 20.33 170.13 17.04 169.93 C 21.36 167.75 26.33 167.52 31.04 166.84 C 39.48 166.70 47.92 166.47 56.36 166.60 C 54.55 166.05 52.74 165.53 50.89 165.15 C 53.46 165.24 56.02 165.00 58.56 164.64 C 56.87 162.81 54.53 162.34 52.12 162.67 C 52.35 162.19 52.81 161.23 53.05 160.75 Z" />
</g>
<g id="#743b66ff">
<path fill="#743b66" opacity="1.00" d=" M 80.18 161.70 C 80.61 161.30 81.47 160.51 81.90 160.11 C 82.47 160.57 83.60 161.50 84.17 161.96 C 81.43 160.65 80.56 164.09 79.25 165.72 C 79.81 168.90 81.68 172.22 79.41 175.22 C 80.16 175.50 80.93 175.71 81.72 175.84 C 82.58 175.22 83.41 174.56 84.22 173.87 C 84.50 174.92 84.76 175.98 85.00 177.05 C 84.85 176.66 84.54 175.87 84.38 175.48 C 82.80 176.21 81.21 176.91 79.60 177.56 C 79.26 176.75 78.94 175.94 78.62 175.14 C 76.48 174.89 74.33 174.73 72.17 174.65 C 74.31 174.33 76.46 174.16 78.61 173.93 C 77.92 172.09 77.18 170.27 76.41 168.47 C 77.65 166.21 78.81 163.89 80.18 161.70 Z" />
<path fill="#743b66" opacity="1.00" d=" M 104.21 169.71 C 105.97 168.64 108.04 168.27 110.04 168.81 C 108.59 170.65 106.18 170.33 104.21 169.71 Z" />
<path fill="#743b66" opacity="1.00" d=" M 121.96 171.26 C 122.26 171.57 122.85 172.19 123.15 172.50 C 124.08 172.05 125.01 171.59 125.94 171.12 C 124.95 172.22 124.19 173.87 122.59 174.12 C 115.82 175.22 109.07 176.40 102.29 177.43 C 100.30 177.43 98.32 177.36 96.34 177.31 L 95.57 176.27 C 99.94 176.16 104.24 175.42 108.52 174.59 C 111.77 174.12 115.00 173.52 118.29 173.33 C 119.75 173.49 122.29 173.37 121.96 171.26 Z" />
</g>
<g id="#edd9e9ff">
<path fill="#edd9e9" opacity="1.00" d=" M 96.47 162.16 C 99.17 161.90 101.87 161.65 104.57 161.35 C 102.29 163.54 99.22 162.91 96.47 162.16 Z" />
<path fill="#edd9e9" opacity="1.00" d=" M 79.25 165.72 C 80.56 164.09 81.43 160.65 84.17 161.96 L 84.94 162.24 C 86.01 162.97 87.04 163.74 88.08 164.51 C 89.24 165.39 90.39 166.30 91.53 167.21 C 92.28 168.06 93.03 168.92 93.79 169.77 C 91.60 168.69 89.42 167.22 86.90 167.15 L 86.33 168.22 L 86.05 168.76 C 83.85 167.61 81.57 166.62 79.25 165.72 Z" />
</g>
<g id="#6c7c10ff">
<path fill="#6c7c10" opacity="1.00" d=" M 3.14 164.33 C 12.16 165.88 20.91 160.86 30.01 161.80 C 35.45 162.54 40.91 163.05 46.40 163.01 C 44.07 163.59 41.79 164.33 39.46 164.90 C 36.23 164.70 33.03 164.19 29.80 164.13 C 22.26 163.10 14.88 165.19 7.57 166.67 C 6.04 166.90 4.52 167.12 2.99 167.32 C 3.03 166.58 3.10 165.08 3.14 164.33 Z" />
</g>
<g id="#cb3b09ff">
<path fill="#cb3b09" opacity="1.00" d=" M 62.05 161.58 C 65.25 161.48 68.35 164.42 66.31 167.59 C 65.83 167.49 64.86 167.31 64.38 167.22 C 63.52 165.38 62.76 163.48 62.05 161.58 Z" />
</g>
<g id="#379ad7ff">
<path fill="#379ad7" opacity="1.00" d=" M 74.81 164.51 C 76.59 163.55 78.40 162.65 80.18 161.70 C 78.81 163.89 77.65 166.21 76.41 168.47 C 72.52 174.44 64.62 174.45 58.30 174.23 C 62.11 171.36 67.41 174.16 71.21 171.26 C 73.78 170.01 74.08 166.95 74.81 164.51 Z" />
</g>
<g id="#444c1dff">
<path fill="#444c1d" opacity="1.00" d=" M 46.40 163.01 C 48.31 162.88 50.21 162.76 52.12 162.67 C 54.53 162.34 56.87 162.81 58.56 164.64 C 56.02 165.00 53.46 165.24 50.89 165.15 C 47.09 164.91 43.27 165.13 39.46 164.90 C 41.79 164.33 44.07 163.59 46.40 163.01 Z" />
</g>
<g id="#e1ed90ff">
<path fill="#e1ed90" opacity="1.00" d=" M 7.57 166.67 C 14.88 165.19 22.26 163.10 29.80 164.13 C 25.65 166.45 20.87 167.10 16.36 168.40 C 12.68 169.46 8.86 169.78 5.06 169.95 C 6.18 169.08 7.57 168.30 7.57 166.67 Z" />
</g>
<g id="#f0f483ff">
<path fill="#f0f483" opacity="1.00" d=" M 29.80 164.13 C 33.03 164.19 36.23 164.70 39.46 164.90 C 43.27 165.13 47.09 164.91 50.89 165.15 C 52.74 165.53 54.55 166.05 56.36 166.60 C 47.92 166.47 39.48 166.70 31.04 166.84 C 26.33 167.52 21.36 167.75 17.04 169.93 L 16.91 169.93 C 15.55 169.76 14.24 170.21 13.01 170.73 C 9.70 170.82 6.39 170.77 3.08 170.83 C 3.06 169.66 3.03 168.49 2.99 167.32 C 4.52 167.12 6.04 166.90 7.57 166.67 C 7.57 168.30 6.18 169.08 5.06 169.95 C 8.86 169.78 12.68 169.46 16.36 168.40 C 20.87 167.10 25.65 166.45 29.80 164.13 Z" />
</g>
<g id="#eb9c5fff">
<path fill="#eb9c5f" opacity="1.00" d=" M 26.89 169.42 C 38.58 167.97 50.43 168.67 62.09 166.98 C 62.66 167.04 63.81 167.16 64.38 167.22 C 64.86 167.31 65.83 167.49 66.31 167.59 C 66.96 167.99 67.61 168.41 68.25 168.84 C 64.53 169.22 60.29 168.04 57.11 170.54 C 57.04 170.55 56.92 170.57 56.86 170.58 C 53.75 169.88 50.56 169.58 47.39 169.99 C 40.60 170.63 33.70 169.75 26.99 171.18 C 21.96 172.22 16.85 172.84 11.87 174.15 C 12.12 173.46 12.61 172.08 12.85 171.39 C 14.23 172.83 16.77 171.90 16.91 169.93 L 17.04 169.93 C 20.33 170.13 23.63 169.87 26.89 169.42 Z" />
</g>
<g id="#c472a9ff">
<path fill="#c472a9" opacity="1.00" d=" M 86.90 167.15 C 89.42 167.22 91.60 168.69 93.79 169.77 C 94.45 170.38 95.12 170.98 95.79 171.58 C 96.69 171.42 98.48 171.11 99.38 170.95 C 97.82 171.39 96.28 171.86 94.74 172.33 C 95.06 172.80 95.70 173.75 96.01 174.22 C 96.52 174.03 97.53 173.66 98.03 173.48 C 98.72 173.90 99.40 174.32 100.09 174.74 C 102.90 174.60 105.71 174.61 108.52 174.59 C 104.24 175.42 99.94 176.16 95.57 176.27 C 94.56 175.91 93.56 175.56 92.54 175.22 C 90.94 174.43 89.37 173.59 87.78 172.77 C 87.81 171.07 87.83 169.36 87.84 167.66 C 87.46 167.80 86.71 168.08 86.33 168.22 L 86.90 167.15 Z" />
<path fill="#c472a9" opacity="1.00" d=" M 23.88 176.67 C 30.48 176.15 37.08 175.80 43.69 175.52 C 50.26 176.16 56.78 175.00 63.33 175.05 C 68.16 177.11 73.74 176.94 78.62 175.14 C 78.94 175.94 79.26 176.75 79.60 177.56 C 81.21 176.91 82.80 176.21 84.38 175.48 C 84.54 175.87 84.85 176.66 85.00 177.05 L 85.35 177.88 C 80.66 177.39 75.96 177.83 71.26 177.73 C 66.50 177.60 61.74 176.37 56.97 177.13 C 45.95 178.79 34.94 175.73 23.88 176.67 Z" />
</g>
<g id="#9a3a67ff">
<path fill="#9a3a67" opacity="1.00" d=" M 86.33 168.22 C 86.71 168.08 87.46 167.80 87.84 167.66 C 87.83 169.36 87.81 171.07 87.78 172.77 C 89.37 173.59 90.94 174.43 92.54 175.22 C 89.61 175.09 86.83 174.19 85.03 171.76 C 85.37 170.76 85.71 169.76 86.05 168.76 L 86.33 168.22 Z" />
</g>
<g id="#433e5fff">
<path fill="#433e5f" opacity="1.00" d=" M 76.41 168.47 C 77.18 170.27 77.92 172.09 78.61 173.93 C 76.46 174.16 74.31 174.33 72.17 174.65 C 69.24 175.06 66.28 175.12 63.33 175.05 C 56.78 175.00 50.26 176.16 43.69 175.52 L 44.99 175.28 L 45.54 175.18 C 49.58 175.41 53.63 175.12 57.58 174.22 C 57.76 174.22 58.12 174.23 58.30 174.23 C 64.62 174.45 72.52 174.44 76.41 168.47 Z" />
</g>
<g id="#dcb3d5ff">
<path fill="#dcb3d5" opacity="1.00" d=" M 110.04 168.81 L 111.53 168.92 C 114.97 169.68 119.20 168.76 121.96 171.26 C 120.38 170.54 118.55 171.66 118.29 173.33 C 115.00 173.52 111.77 174.12 108.52 174.59 C 105.71 174.61 102.90 174.60 100.09 174.74 C 99.40 174.32 98.72 173.90 98.03 173.48 C 97.53 173.66 96.52 174.03 96.01 174.22 C 95.70 173.75 95.06 172.80 94.74 172.33 C 96.28 171.86 97.82 171.39 99.38 170.95 C 100.99 170.55 102.60 170.14 104.21 169.71 C 106.18 170.33 108.59 170.65 110.04 168.81 Z" />
</g>
<g id="#9c6518ff">
<path fill="#9c6518" opacity="1.00" d=" M 13.01 170.73 C 14.24 170.21 15.55 169.76 16.91 169.93 C 16.77 171.90 14.23 172.83 12.85 171.39 L 13.01 170.73 Z" />
</g>
<g id="#ed7c26ff">
<path fill="#ed7c26" opacity="1.00" d=" M 26.99 171.18 C 33.70 169.75 40.60 170.63 47.39 169.99 L 46.85 171.66 L 46.56 171.65 C 42.16 170.82 37.60 171.21 33.54 173.15 C 30.33 173.51 27.12 173.81 23.92 174.27 C 21.63 174.57 19.34 174.83 17.06 175.23 C 15.84 175.45 14.62 175.67 13.39 175.89 C 13.01 175.46 12.25 174.58 11.87 174.15 C 16.85 172.84 21.96 172.22 26.99 171.18 Z" />
</g>
<g id="#cd4208ff">
<path fill="#cd4208" opacity="1.00" d=" M 47.39 169.99 C 50.56 169.58 53.75 169.88 56.86 170.58 C 53.60 171.49 50.23 171.96 46.85 171.66 L 47.39 169.99 Z" />
</g>
<g id="#c6a717ff">
<path fill="#c6a717" opacity="1.00" d=" M 3.08 170.83 C 6.39 170.77 9.70 170.82 13.01 170.73 L 12.85 171.39 C 12.61 172.08 12.12 173.46 11.87 174.15 C 9.64 171.15 5.82 171.82 2.58 172.12 L 3.08 170.83 Z" />
</g>
<g id="#a8430fff">
<path fill="#a8430f" opacity="1.00" d=" M 33.54 173.15 C 37.60 171.21 42.16 170.82 46.56 171.65 C 45.09 171.94 43.62 172.27 42.17 172.64 L 41.62 172.70 C 38.93 172.93 36.24 173.03 33.54 173.15 Z" />
</g>
<g id="#c0539aff">
<path fill="#c0539a" opacity="1.00" d=" M 118.29 173.33 C 118.55 171.66 120.38 170.54 121.96 171.26 C 122.29 173.37 119.75 173.49 118.29 173.33 Z" />
</g>
<g id="#452f38ff">
<path fill="#452f38" opacity="1.00" d=" M 85.03 171.76 C 86.83 174.19 89.61 175.09 92.54 175.22 C 93.56 175.56 94.56 175.91 95.57 176.27 L 96.34 177.31 C 92.56 177.25 88.78 177.15 85.00 177.05 C 84.76 175.98 84.50 174.92 84.22 173.87 C 84.42 173.34 84.83 172.29 85.03 171.76 Z" />
</g>
<g id="#32a3dfff">
<path fill="#32a3df" opacity="1.00" d=" M 41.62 172.70 L 42.17 172.64 C 42.52 172.61 43.21 172.57 43.56 172.54 C 43.92 173.23 44.63 174.60 44.99 175.28 L 43.69 175.52 C 37.08 175.80 30.48 176.15 23.88 176.67 C 21.90 176.75 19.91 176.82 17.93 176.92 C 22.57 174.91 27.81 175.43 32.52 173.63 C 35.55 173.31 38.59 173.11 41.62 172.70 Z" />
</g>
<g id="#2f90c5ff">
<path fill="#2f90c5" opacity="1.00" d=" M 45.54 175.18 C 49.44 173.91 53.53 173.70 57.58 174.22 C 53.63 175.12 49.58 175.41 45.54 175.18 Z" />
</g>
<g id="#dca2dbff">
<path fill="#dca2db" opacity="1.00" d=" M 63.33 175.05 C 66.28 175.12 69.24 175.06 72.17 174.65 C 74.33 174.73 76.48 174.89 78.62 175.14 C 73.74 176.94 68.16 177.11 63.33 175.05 Z" />
</g>
</svg>
