<?xml version="1.0" encoding="UTF-8" ?>
<!DOCTYPE svg PUBLIC "-//W3C//DTD SVG 1.1//EN" "http://www.w3.org/Graphics/SVG/1.1/DTD/svg11.dtd">
<svg width="417pt" height="242pt" viewBox="0 0 417 242" version="1.1" xmlns="http://www.w3.org/2000/svg">
<g id="#f4f4f4ff">
<path fill="#f4f4f4" opacity="1.00" d=" M 76.00 129.81 C 75.94 124.07 76.18 118.30 77.43 112.68 C 80.20 112.87 82.99 113.02 85.77 113.15 C 85.39 119.34 85.41 125.55 84.88 131.73 C 82.61 131.62 80.34 131.57 78.08 131.56 C 77.56 131.12 76.52 130.25 76.00 129.81 Z" />
<path fill="#f4f4f4" opacity="1.00" d=" M 108.48 113.10 C 111.09 113.00 113.71 112.94 116.32 112.94 C 116.44 119.03 116.17 125.13 116.22 131.23 C 115.62 131.39 114.42 131.72 113.82 131.88 C 112.09 131.98 110.36 132.07 108.63 132.16 C 108.13 125.81 108.76 119.45 108.48 113.10 Z" />
<path fill="#f4f4f4" opacity="1.00" d=" M 92.83 132.49 C 95.07 132.88 97.31 133.23 99.57 133.53 C 101.53 132.64 103.73 132.37 105.68 133.42 C 106.69 133.35 107.69 133.28 108.70 133.22 C 111.09 133.09 113.48 133.26 115.85 133.47 C 114.66 139.21 115.13 145.08 115.92 150.84 C 113.34 150.27 111.89 147.97 110.43 146.00 L 110.91 144.86 C 107.76 144.23 104.53 144.00 101.40 144.87 C 102.41 146.21 103.45 147.54 104.49 148.86 C 105.42 147.81 106.36 146.78 107.32 145.77 C 107.46 146.19 107.74 147.03 107.89 147.46 C 107.53 147.92 106.81 148.84 106.45 149.30 C 104.30 149.57 102.16 149.91 100.03 150.31 C 98.98 150.06 97.93 149.83 96.88 149.62 C 96.84 148.73 96.75 146.94 96.71 146.05 C 98.40 146.11 100.08 146.15 101.77 146.13 C 100.25 145.07 98.48 144.51 96.74 143.92 C 96.82 141.28 96.98 138.64 96.89 136.00 C 98.67 135.88 100.45 135.81 102.24 135.70 C 99.07 135.14 95.93 134.43 92.93 133.26 L 92.83 132.49 Z" />
</g>
<g id="#6f7170ff">
<path fill="#6f7170" opacity="1.00" d=" M 53.29 60.95 C 57.29 59.51 64.07 59.00 65.20 64.34 C 61.92 64.12 58.67 63.69 55.40 63.43 C 54.80 63.50 53.59 63.62 52.99 63.68 C 53.07 63.00 53.21 61.63 53.29 60.95 Z" />
<path fill="#6f7170" opacity="1.00" d=" M 108.63 132.16 C 110.36 132.07 112.09 131.98 113.82 131.88 C 114.83 132.17 115.84 132.47 116.85 132.79 C 116.33 140.84 117.22 148.98 115.96 156.98 C 116.07 155.36 116.08 153.74 116.10 152.13 C 114.69 152.00 113.27 151.87 111.86 151.75 C 111.49 152.89 111.09 154.02 110.76 155.18 C 110.60 155.73 110.28 156.83 110.11 157.38 C 108.93 156.43 107.71 155.52 106.50 154.60 C 107.06 154.68 108.19 154.83 108.76 154.91 C 108.41 154.12 108.07 153.33 107.73 152.54 C 107.41 151.73 106.77 150.11 106.45 149.30 C 106.81 148.84 107.53 147.92 107.89 147.46 C 107.74 147.03 107.46 146.19 107.32 145.77 C 108.23 146.18 109.07 146.72 109.83 147.38 C 110.03 146.92 110.23 146.46 110.43 146.00 C 111.89 147.97 113.34 150.27 115.92 150.84 C 115.13 145.08 114.66 139.21 115.85 133.47 C 113.48 133.26 111.09 133.09 108.70 133.22 L 108.63 132.16 M 108.44 149.21 C 107.55 151.06 111.83 152.04 112.12 150.13 C 111.70 148.67 109.51 148.18 108.44 149.21 Z" />
</g>
<g id="#9ddaf4ff">
<path fill="#9ddaf4" opacity="1.00" d=" M 52.99 63.68 C 53.59 63.62 54.80 63.50 55.40 63.43 C 55.41 63.98 55.42 65.07 55.43 65.61 C 55.41 66.68 55.37 67.75 55.32 68.82 C 57.54 68.92 59.76 69.05 61.99 69.03 C 62.47 68.98 63.43 68.88 63.90 68.83 C 64.48 67.90 65.02 66.96 65.54 66.00 C 67.83 66.88 70.18 67.64 72.39 68.73 C 70.92 69.17 69.44 69.59 67.95 69.95 C 66.70 70.19 65.46 70.41 64.21 70.59 C 62.16 70.83 60.10 70.99 58.04 71.04 C 56.22 71.03 54.40 70.97 52.58 70.96 C 51.41 70.97 50.25 70.99 49.09 71.02 C 48.80 80.01 49.09 89.04 48.19 98.00 C 48.05 100.41 47.18 102.67 45.97 104.73 C 44.35 100.50 44.05 95.95 43.03 91.57 C 42.34 84.62 42.72 77.62 42.56 70.65 C 44.36 70.62 46.17 70.60 47.97 70.57 C 46.13 69.97 44.28 69.37 42.45 68.74 C 44.69 65.63 48.57 65.05 52.10 64.59 C 52.20 65.43 52.39 67.11 52.48 67.95 C 52.65 66.52 52.81 65.10 52.99 63.68 Z" />
</g>
<g id="#519dcfff">
<path fill="#519dcf" opacity="1.00" d=" M 55.40 63.43 C 58.67 63.69 61.92 64.12 65.20 64.34 L 65.31 64.84 L 65.54 66.00 C 65.02 66.96 64.48 67.90 63.90 68.83 C 63.43 68.88 62.47 68.98 61.99 69.03 C 61.93 68.30 61.82 66.85 61.77 66.12 C 59.66 65.94 57.54 65.77 55.43 65.61 C 55.42 65.07 55.41 63.98 55.40 63.43 Z" />
</g>
<g id="#47a5f2ff">
<path fill="#47a5f2" opacity="1.00" d=" M 65.31 64.84 C 68.13 65.36 71.23 65.54 73.59 67.35 C 74.67 70.76 74.13 74.43 74.25 77.95 C 74.35 88.84 74.05 99.74 74.31 110.63 L 74.34 111.37 C 74.06 115.44 74.07 119.53 74.69 123.58 C 74.70 124.85 74.70 126.13 74.70 127.41 C 74.34 131.85 73.63 136.63 76.13 140.62 C 68.30 141.16 60.46 140.93 52.63 140.95 C 51.19 128.01 52.86 115.05 53.46 102.11 C 54.02 97.09 54.96 92.12 55.14 87.06 C 55.16 82.34 57.44 77.89 56.68 73.14 C 57.13 72.43 57.59 71.73 58.04 71.04 C 60.10 70.99 62.16 70.83 64.21 70.59 C 63.10 83.18 65.03 95.75 66.46 108.24 C 67.18 102.53 67.62 96.79 68.06 91.05 C 68.15 85.09 68.06 79.11 68.93 73.20 C 68.57 72.78 67.84 71.96 67.47 71.55 C 67.59 71.15 67.83 70.35 67.95 69.95 C 69.44 69.59 70.92 69.17 72.39 68.73 C 70.18 67.64 67.83 66.88 65.54 66.00 L 65.31 64.84 M 57.83 122.97 C 58.07 128.11 55.73 133.30 57.48 138.35 C 58.57 141.40 62.32 139.99 64.73 140.05 C 64.21 139.04 63.31 138.16 63.28 136.97 C 63.05 132.34 63.25 127.69 63.11 123.05 C 62.93 118.31 63.83 113.31 61.72 108.86 C 58.02 112.49 57.91 118.12 57.83 122.97 Z" />
</g>
<g id="#51b2f4ff">
<path fill="#51b2f4" opacity="1.00" d=" M 55.32 68.82 C 55.37 67.75 55.41 66.68 55.43 65.61 C 57.54 65.77 59.66 65.94 61.77 66.12 C 61.82 66.85 61.93 68.30 61.99 69.03 C 59.76 69.05 57.54 68.92 55.32 68.82 Z" />
</g>
<g id="#62b3f4ff">
<path fill="#62b3f4" opacity="1.00" d=" M 64.21 70.59 C 65.46 70.41 66.70 70.19 67.95 69.95 C 67.83 70.35 67.59 71.15 67.47 71.55 C 67.84 71.96 68.57 72.78 68.93 73.20 C 68.06 79.11 68.15 85.09 68.06 91.05 C 67.62 96.79 67.18 102.53 66.46 108.24 C 65.03 95.75 63.10 83.18 64.21 70.59 Z" />
</g>
<g id="#80ccf2ff">
<path fill="#80ccf2" opacity="1.00" d=" M 49.09 71.02 C 50.25 70.99 51.41 70.97 52.58 70.96 C 50.39 82.51 51.19 94.31 50.17 105.96 C 49.99 117.64 49.67 129.30 49.65 140.98 C 47.12 141.01 44.60 141.05 42.07 141.12 L 41.97 140.13 C 43.97 137.87 43.32 134.74 43.38 132.00 C 43.13 125.77 43.57 119.49 42.44 113.32 C 42.62 113.22 42.99 113.03 43.17 112.93 C 42.97 105.81 42.87 98.69 43.03 91.57 C 44.05 95.95 44.35 100.50 45.97 104.73 C 47.18 102.67 48.05 100.41 48.19 98.00 C 49.09 89.04 48.80 80.01 49.09 71.02 Z" />
</g>
<g id="#5eb8f4ff">
<path fill="#5eb8f4" opacity="1.00" d=" M 52.58 70.96 C 54.40 70.97 56.22 71.03 58.04 71.04 C 57.59 71.73 57.13 72.43 56.68 73.14 C 57.44 77.89 55.16 82.34 55.14 87.06 C 54.96 92.12 54.02 97.09 53.46 102.11 C 52.86 115.05 51.19 128.01 52.63 140.95 C 51.88 140.96 50.39 140.97 49.65 140.98 C 49.67 129.30 49.99 117.64 50.17 105.96 C 51.19 94.31 50.39 82.51 52.58 70.96 Z" />
</g>
<g id="#bb7064ff">
<path fill="#bb7064" opacity="1.00" d=" M 11.42 110.41 C 9.29 110.65 10.48 107.05 12.09 108.28 C 11.93 108.81 11.59 109.88 11.42 110.41 Z" />
</g>
<g id="#171511ff">
<path fill="#171511" opacity="1.00" d=" M 12.09 108.28 L 13.26 108.35 C 13.75 108.45 14.71 108.64 15.20 108.74 C 15.13 109.03 15.00 109.63 14.93 109.92 C 14.54 109.87 13.75 109.75 13.36 109.70 C 13.50 110.07 13.79 110.82 13.93 111.19 C 14.26 111.63 14.92 112.51 15.24 112.95 C 14.66 113.34 13.51 114.13 12.93 114.53 C 12.35 114.18 11.18 113.48 10.60 113.13 C 10.80 112.45 11.21 111.09 11.42 110.41 C 11.59 109.88 11.93 108.81 12.09 108.28 Z" />
<path fill="#171511" opacity="1.00" d=" M 74.31 110.63 C 75.44 111.08 76.57 111.54 77.70 111.99 L 77.43 112.68 C 76.18 118.30 75.94 124.07 76.00 129.81 C 76.52 130.25 77.56 131.12 78.08 131.56 C 80.34 131.57 82.61 131.62 84.88 131.73 C 85.25 131.95 85.99 132.38 86.36 132.60 C 88.45 133.71 90.66 134.61 92.69 135.85 C 90.01 135.19 87.58 133.88 84.98 133.03 C 82.01 132.37 78.93 132.62 75.91 132.39 C 75.77 134.01 75.64 135.64 75.44 137.26 C 75.62 133.95 75.48 130.64 74.70 127.41 C 74.70 126.13 74.70 124.85 74.69 123.58 C 75.04 120.09 75.42 116.61 76.01 113.15 C 75.59 112.71 74.75 111.82 74.34 111.37 L 74.31 110.63 Z" />
<path fill="#171511" opacity="1.00" d=" M 96.42 125.10 C 98.04 124.57 98.59 125.12 98.05 126.77 C 96.45 127.27 95.90 126.72 96.42 125.10 Z" />
<path fill="#171511" opacity="1.00" d=" M 92.93 133.26 C 95.93 134.43 99.07 135.14 102.24 135.70 C 100.45 135.81 98.67 135.88 96.89 136.00 C 96.98 138.64 96.82 141.28 96.74 143.92 C 96.23 145.30 95.72 146.69 95.19 148.06 C 95.20 147.54 95.22 146.48 95.22 145.95 C 95.37 142.88 95.48 139.81 95.65 136.74 C 94.77 135.86 93.89 134.98 93.05 134.08 L 92.93 133.26 Z" />
<path fill="#171511" opacity="1.00" d=" M 101.40 144.87 C 104.53 144.00 107.76 144.23 110.91 144.86 L 110.43 146.00 C 110.23 146.46 110.03 146.92 109.83 147.38 C 109.07 146.72 108.23 146.18 107.32 145.77 C 106.36 146.78 105.42 147.81 104.49 148.86 C 103.45 147.54 102.41 146.21 101.40 144.87 Z" />
<path fill="#171511" opacity="1.00" d=" M 121.46 156.85 C 123.46 154.65 128.42 154.60 129.84 157.57 C 127.04 157.38 124.25 157.16 121.46 156.85 Z" />
<path fill="#171511" opacity="1.00" d=" M 121.65 158.56 C 123.61 160.27 125.87 160.75 127.97 158.90 C 128.40 158.76 129.25 158.48 129.68 158.34 C 129.61 163.07 128.52 168.12 130.89 172.50 L 130.10 172.89 C 130.08 173.29 130.04 174.10 130.02 174.50 C 129.98 175.09 129.90 176.28 129.86 176.87 C 128.47 177.02 127.07 177.14 125.67 177.24 C 125.29 177.13 124.54 176.92 124.16 176.81 C 123.25 175.82 122.42 174.77 121.55 173.76 C 121.59 173.25 121.66 172.23 121.70 171.72 L 121.56 171.07 L 120.85 171.16 L 120.03 171.28 C 119.94 172.28 120.19 173.21 120.79 174.06 L 120.52 174.91 C 119.77 173.99 118.85 173.13 118.43 172.00 C 118.95 170.96 120.06 170.45 120.95 169.78 C 121.71 166.09 121.66 162.31 121.65 158.56 M 125.24 163.13 C 125.28 166.45 128.28 161.68 125.24 163.13 M 123.25 165.36 C 122.30 167.23 122.18 169.31 122.47 171.36 L 123.93 171.07 C 123.92 171.49 123.91 172.33 123.90 172.76 C 124.69 173.49 125.64 173.91 126.75 174.02 C 126.56 171.39 126.68 168.75 127.56 166.25 C 126.14 165.89 124.69 165.62 123.25 165.36 Z" />
<path fill="#171511" opacity="1.00" d=" M 35.12 179.98 C 35.18 178.72 35.85 177.86 37.13 177.43 L 37.57 177.91 C 38.45 179.35 36.38 180.87 35.12 179.98 Z" />
</g>
<g id="#ce501bff">
<path fill="#ce501b" opacity="1.00" d=" M 13.26 108.35 C 13.71 108.24 14.60 108.02 15.05 107.91 L 15.20 108.74 C 14.71 108.64 13.75 108.45 13.26 108.35 Z" />
</g>
<g id="#105790ff">
<path fill="#105790" opacity="1.00" d=" M 15.05 107.91 C 17.41 108.18 16.81 111.03 17.45 112.70 C 16.86 113.46 16.28 114.22 15.71 114.99 C 14.02 115.17 12.33 115.35 10.64 115.54 C 10.63 114.94 10.61 113.73 10.60 113.13 C 11.18 113.48 12.35 114.18 12.93 114.53 C 13.51 114.13 14.66 113.34 15.24 112.95 C 14.92 112.51 14.26 111.63 13.93 111.19 C 14.18 110.87 14.68 110.24 14.93 109.92 C 15.00 109.63 15.13 109.03 15.20 108.74 L 15.05 107.91 Z" />
<path fill="#105790" opacity="1.00" d=" M 101.92 157.24 C 102.98 155.73 104.01 154.19 105.03 152.65 C 105.20 152.99 105.54 153.67 105.71 154.02 C 105.88 155.41 105.99 156.81 106.09 158.21 L 105.72 158.20 C 104.46 157.93 103.20 157.66 101.95 157.36 L 101.92 157.24 Z" />
<path fill="#105790" opacity="1.00" d=" M 43.26 157.76 C 44.05 163.29 42.43 169.36 45.12 174.51 L 45.81 175.32 C 45.28 175.00 44.20 174.35 43.67 174.03 C 43.26 174.17 42.45 174.45 42.04 174.59 C 42.58 173.53 43.12 172.46 43.66 171.40 C 43.03 170.69 42.38 169.99 41.73 169.29 C 41.48 170.28 40.97 172.25 40.72 173.23 C 40.69 171.85 41.01 170.49 41.44 169.18 C 43.34 168.84 43.70 164.26 41.44 165.93 C 41.37 166.53 41.25 167.73 41.18 168.32 C 40.84 165.83 40.71 163.31 40.57 160.80 C 40.98 162.09 41.39 163.39 41.81 164.69 L 43.29 164.58 C 43.25 162.31 43.26 160.03 43.26 157.76 Z" />
<path fill="#105790" opacity="1.00" d=" M 101.22 164.93 C 102.69 166.31 103.32 168.10 103.20 170.10 C 101.56 169.81 100.90 170.35 101.21 171.71 C 102.35 172.50 103.35 172.31 104.22 171.14 C 105.56 171.20 106.90 171.20 108.25 171.15 L 109.07 171.12 C 109.81 171.12 111.29 171.14 112.03 171.14 L 112.87 171.19 C 113.18 171.21 113.81 171.24 114.13 171.26 C 115.09 170.55 116.01 169.78 116.89 168.97 C 116.48 170.02 116.05 171.06 115.60 172.10 C 116.70 174.10 117.82 176.08 118.94 178.07 C 118.74 177.83 118.33 177.36 118.13 177.12 C 116.02 173.01 111.24 173.38 107.30 173.26 C 105.46 173.23 103.57 173.33 102.02 174.43 C 101.04 172.64 100.06 170.85 99.06 169.07 C 99.79 169.00 101.25 168.85 101.98 168.78 C 101.72 167.49 101.47 166.21 101.22 164.93 Z" />
</g>
<g id="#3499e9ff">
<path fill="#3499e9" opacity="1.00" d=" M 57.83 122.97 C 57.91 118.12 58.02 112.49 61.72 108.86 C 63.83 113.31 62.93 118.31 63.11 123.05 C 63.25 127.69 63.05 132.34 63.28 136.97 C 63.31 138.16 64.21 139.04 64.73 140.05 C 62.32 139.99 58.57 141.40 57.48 138.35 C 55.73 133.30 58.07 128.11 57.83 122.97 Z" />
</g>
<g id="#c0d1e0ff">
<path fill="#c0d1e0" opacity="1.00" d=" M 13.36 109.70 C 13.75 109.75 14.54 109.87 14.93 109.92 C 14.68 110.24 14.18 110.87 13.93 111.19 C 13.79 110.82 13.50 110.07 13.36 109.70 Z" />
<path fill="#c0d1e0" opacity="1.00" d=" M 76.98 179.88 C 82.27 180.07 88.46 178.73 92.61 182.90 C 90.69 183.23 88.77 183.60 86.84 183.92 C 84.08 181.51 80.20 182.44 76.86 182.12 C 76.89 181.56 76.95 180.44 76.98 179.88 Z" />
</g>
<g id="#17202dff">
<path fill="#17202d" opacity="1.00" d=" M 23.69 111.47 C 23.57 111.83 23.33 112.57 23.21 112.94 C 26.18 112.89 29.22 112.91 32.05 111.83 C 32.98 111.70 34.85 111.45 35.78 111.33 L 35.45 113.08 C 33.68 113.17 31.93 113.44 30.21 113.88 C 27.37 112.84 24.32 113.16 21.38 113.36 C 21.14 118.72 21.48 124.09 21.19 129.45 C 23.56 129.47 24.91 130.66 24.71 133.19 C 25.28 132.71 26.44 131.75 27.01 131.28 C 26.51 132.15 26.01 133.03 25.51 133.91 C 26.53 136.00 27.54 138.11 28.76 140.10 C 29.11 140.40 29.80 140.99 30.15 141.28 C 29.42 141.18 28.70 141.09 27.98 140.96 C 26.93 138.37 25.80 135.82 24.71 133.24 C 22.53 134.09 23.14 136.58 22.85 138.41 C 23.39 138.32 24.49 138.14 25.04 138.05 C 25.00 138.58 24.94 139.64 24.90 140.17 C 24.43 140.42 23.49 140.92 23.02 141.18 C 20.22 141.61 17.33 141.84 14.56 141.10 L 13.49 139.43 C 16.46 139.75 20.01 140.05 21.95 137.25 C 21.32 133.64 17.96 134.66 15.55 135.52 C 14.92 133.84 14.47 132.10 13.93 130.39 C 16.30 130.46 18.66 130.59 21.02 130.80 C 17.46 129.06 14.43 126.11 10.17 126.33 C 12.84 124.51 15.79 126.86 18.32 127.80 C 18.96 127.79 20.25 127.78 20.89 127.77 C 20.69 123.13 20.73 118.49 20.66 113.85 C 21.68 113.06 22.69 112.27 23.69 111.47 Z" />
</g>
<g id="#b1b1aaff">
<path fill="#b1b1aa" opacity="1.00" d=" M 77.70 111.99 C 86.74 110.78 95.88 110.51 104.98 110.97 C 109.24 111.41 113.48 112.05 117.77 112.23 C 117.09 119.06 116.87 125.93 116.85 132.79 C 115.84 132.47 114.83 132.17 113.82 131.88 C 114.42 131.72 115.62 131.39 116.22 131.23 C 116.17 125.13 116.44 119.03 116.32 112.94 C 113.71 112.94 111.09 113.00 108.48 113.10 C 108.76 119.45 108.13 125.81 108.63 132.16 L 108.70 133.22 C 107.69 133.28 106.69 133.35 105.68 133.42 C 103.73 132.37 101.53 132.64 99.57 133.53 C 97.31 133.23 95.07 132.88 92.83 132.49 L 92.93 133.26 L 93.05 134.08 C 92.69 133.71 91.97 132.98 91.61 132.62 C 89.86 132.65 88.11 132.66 86.36 132.60 C 85.99 132.38 85.25 131.95 84.88 131.73 C 85.41 125.55 85.39 119.34 85.77 113.15 C 82.99 113.02 80.20 112.87 77.43 112.68 L 77.70 111.99 M 93.13 117.25 C 93.28 117.21 93.58 117.12 93.73 117.08 L 94.12 116.35 C 94.11 113.58 90.53 116.59 93.13 117.25 M 97.11 115.34 L 96.71 116.05 C 94.10 116.70 98.11 119.67 97.98 116.94 C 97.98 116.55 98.00 115.78 98.01 115.39 L 97.11 115.34 M 101.06 115.47 C 99.59 118.51 104.40 115.51 101.06 115.47 M 88.13 121.20 C 87.61 122.82 88.17 123.38 89.80 122.87 C 90.32 121.25 89.76 120.69 88.13 121.20 M 96.42 125.10 C 95.90 126.72 96.45 127.27 98.05 126.77 C 98.59 125.12 98.04 124.57 96.42 125.10 Z" />
<path fill="#b1b1aa" opacity="1.00" d=" M 42.07 141.12 C 44.60 141.05 47.12 141.01 49.65 140.98 C 50.39 140.97 51.88 140.96 52.63 140.95 C 60.46 140.93 68.30 141.16 76.13 140.62 C 77.51 146.97 76.31 153.55 76.61 160.00 C 76.28 162.58 77.31 165.89 75.19 167.86 C 75.10 167.49 74.92 166.75 74.83 166.38 C 75.28 163.58 75.19 160.74 74.82 157.95 C 74.18 152.87 74.55 147.74 74.24 142.65 C 73.75 142.62 72.77 142.55 72.29 142.52 C 69.69 142.47 67.10 142.61 64.51 142.66 C 60.50 142.53 56.50 142.60 52.49 142.72 C 49.37 141.91 46.14 142.38 42.97 142.50 C 42.75 142.16 42.30 141.46 42.07 141.12 Z" />
</g>
<g id="#19212aff">
<path fill="#19212a" opacity="1.00" d=" M 33.50 116.40 C 34.89 114.85 36.19 113.17 37.87 111.92 C 39.64 110.80 41.48 112.48 43.17 112.93 C 42.99 113.03 42.62 113.22 42.44 113.32 C 37.71 114.79 36.40 121.45 30.97 121.18 C 30.82 119.73 30.66 118.29 30.48 116.85 C 31.49 116.70 32.49 116.55 33.50 116.40 Z" />
</g>
<g id="#d7e6eaff">
<path fill="#d7e6ea" opacity="1.00" d=" M 74.34 111.37 C 74.75 111.82 75.59 112.71 76.01 113.15 C 75.42 116.61 75.04 120.09 74.69 123.58 C 74.07 119.53 74.06 115.44 74.34 111.37 Z" />
<path fill="#d7e6ea" opacity="1.00" d=" M 71.50 175.72 C 71.90 175.41 72.70 174.79 73.09 174.48 C 73.79 174.64 75.19 174.95 75.88 175.10 C 75.98 176.40 76.08 177.70 76.18 179.00 C 70.98 178.98 65.71 179.33 60.59 178.18 C 63.80 178.06 67.01 177.90 70.19 177.48 C 70.52 177.04 71.17 176.16 71.50 175.72 Z" />
</g>
<g id="#3276b3ff">
<path fill="#3276b3" opacity="1.00" d=" M 93.13 117.25 C 90.53 116.59 94.11 113.58 94.12 116.35 L 93.73 117.08 L 93.13 117.25 Z" />
</g>
<g id="#157bc9ff">
<path fill="#157bc9" opacity="1.00" d=" M 97.11 115.34 L 98.01 115.39 C 98.00 115.78 97.98 116.55 97.98 116.94 C 97.66 116.72 97.03 116.27 96.71 116.05 L 97.11 115.34 Z" />
</g>
<g id="#ac1f17ff">
<path fill="#ac1f17" opacity="1.00" d=" M 101.06 115.47 C 104.40 115.51 99.59 118.51 101.06 115.47 Z" />
</g>
<g id="#828584ff">
<path fill="#828584" opacity="1.00" d=" M 97.98 116.94 C 98.11 119.67 94.10 116.70 96.71 116.05 C 97.03 116.27 97.66 116.72 97.98 116.94 Z" />
</g>
<g id="#706761ff">
<path fill="#706761" opacity="1.00" d=" M 93.13 117.25 L 93.73 117.08 C 93.58 117.12 93.28 117.21 93.13 117.25 Z" />
</g>
<g id="#6f7077ff">
<path fill="#6f7077" opacity="1.00" d=" M 88.13 121.20 C 89.76 120.69 90.32 121.25 89.80 122.87 C 88.17 123.38 87.61 122.82 88.13 121.20 Z" />
</g>
<g id="#f3f3f2ff">
<path fill="#f3f3f2" opacity="1.00" d=" M 74.70 127.41 C 75.48 130.64 75.62 133.95 75.44 137.26 C 75.64 135.64 75.77 134.01 75.91 132.39 C 78.93 132.62 82.01 132.37 84.98 133.03 C 87.58 133.88 90.01 135.19 92.69 135.85 C 90.66 134.61 88.45 133.71 86.36 132.60 C 88.11 132.66 89.86 132.65 91.61 132.62 C 91.97 132.98 92.69 133.71 93.05 134.08 C 93.89 134.98 94.77 135.86 95.65 136.74 C 95.48 139.81 95.37 142.88 95.22 145.95 C 94.61 146.70 93.99 147.44 93.35 148.18 C 92.85 147.63 91.85 146.52 91.35 145.97 C 91.79 145.66 92.66 145.05 93.09 144.75 L 92.72 144.64 C 91.87 144.39 90.18 143.90 89.33 143.65 C 89.26 141.10 89.15 138.52 88.20 136.13 C 87.95 138.77 88.00 141.43 88.16 144.08 C 87.91 144.10 87.40 144.14 87.14 144.16 C 84.91 144.25 82.71 144.63 80.52 145.06 C 81.42 146.25 82.32 147.44 83.26 148.60 C 82.62 150.40 82.42 152.30 82.20 154.19 C 81.17 156.25 79.54 158.14 79.19 160.47 C 79.04 163.46 79.59 166.43 80.07 169.37 C 79.27 169.31 77.65 169.17 76.85 169.10 C 78.45 169.74 80.17 170.37 79.69 172.56 C 79.10 172.21 77.93 171.51 77.34 171.15 C 77.27 171.57 77.13 172.41 77.06 172.83 C 83.13 175.17 89.74 173.49 95.99 174.82 C 96.04 174.17 96.14 172.89 96.19 172.25 C 96.47 172.50 97.04 173.02 97.32 173.27 C 97.97 175.08 98.53 176.93 99.11 178.77 C 91.89 178.70 84.68 178.77 77.47 178.84 C 76.93 176.66 76.34 174.50 75.63 172.38 C 75.49 171.93 75.20 171.04 75.06 170.59 C 75.09 169.91 75.15 168.54 75.19 167.86 C 77.31 165.89 76.28 162.58 76.61 160.00 C 76.31 153.55 77.51 146.97 76.13 140.62 C 73.63 136.63 74.34 131.85 74.70 127.41 M 80.12 175.46 C 79.29 176.69 79.55 177.39 80.91 177.55 C 81.75 176.31 81.48 175.62 80.12 175.46 M 85.05 177.14 C 88.71 178.27 92.58 178.14 96.34 177.67 C 93.47 174.81 87.86 173.66 85.05 177.14 Z" />
<path fill="#f3f3f2" opacity="1.00" d=" M 90.75 147.88 C 89.11 147.48 89.01 146.91 90.46 146.18 C 90.53 146.60 90.68 147.46 90.75 147.88 Z" />
</g>
<g id="#e8e9e8ff">
<path fill="#e8e9e8" opacity="1.00" d=" M 22.85 138.41 C 23.14 136.58 22.53 134.09 24.71 133.24 C 25.80 135.82 26.93 138.37 27.98 140.96 C 27.21 140.76 25.67 140.37 24.90 140.17 C 24.94 139.64 25.00 138.58 25.04 138.05 C 24.49 138.14 23.39 138.32 22.85 138.41 Z" />
</g>
<g id="#9f98a3ff">
<path fill="#9f98a3" opacity="1.00" d=" M 2.98 137.66 C 9.31 137.61 15.64 137.90 21.95 137.25 C 20.01 140.05 16.46 139.75 13.49 139.43 C 10.44 139.05 7.35 138.95 4.27 139.13 C 4.05 139.96 3.61 141.63 3.39 142.46 L 3.23 141.50 C 3.09 140.22 3.01 138.94 2.98 137.66 Z" />
</g>
<g id="#c2c3c3ff">
<path fill="#c2c3c3" opacity="1.00" d=" M 88.20 136.13 C 89.15 138.52 89.26 141.10 89.33 143.65 C 90.18 143.90 91.87 144.39 92.72 144.64 C 91.26 145.13 89.74 145.39 88.22 145.61 C 87.90 146.11 87.59 146.62 87.28 147.13 C 88.44 147.69 89.57 148.30 90.70 148.92 L 90.75 147.88 C 90.68 147.46 90.53 146.60 90.46 146.18 L 91.35 145.97 C 91.85 146.52 92.85 147.63 93.35 148.18 C 93.99 147.44 94.61 146.70 95.22 145.95 C 95.22 146.48 95.20 147.54 95.19 148.06 C 95.72 146.69 96.23 145.30 96.74 143.92 C 98.48 144.51 100.25 145.07 101.77 146.13 C 100.08 146.15 98.40 146.11 96.71 146.05 C 96.75 146.94 96.84 148.73 96.88 149.62 C 95.82 149.61 94.77 149.62 93.71 149.66 C 92.07 150.80 90.19 151.47 88.19 151.58 C 87.15 150.49 85.95 149.56 84.45 149.23 C 84.35 148.80 84.15 147.95 84.04 147.52 C 85.11 146.43 86.16 145.33 87.14 144.16 C 87.40 144.14 87.91 144.10 88.16 144.08 C 88.00 141.43 87.95 138.77 88.20 136.13 Z" />
</g>
<g id="#e9eceeff">
<path fill="#e9ecee" opacity="1.00" d=" M 4.27 139.13 C 7.35 138.95 10.44 139.05 13.49 139.43 L 14.56 141.10 C 14.83 141.47 15.36 142.22 15.63 142.59 C 15.18 143.01 14.72 143.43 14.27 143.85 C 16.30 144.80 19.35 146.99 20.69 143.93 C 22.94 143.75 25.19 143.57 27.44 143.40 C 27.54 143.92 27.75 144.95 27.85 145.47 C 25.95 145.47 24.08 145.83 22.62 147.15 C 19.94 147.23 17.26 146.99 14.60 146.64 C 12.81 148.57 10.51 149.85 7.97 150.53 C 8.24 149.28 8.52 148.04 8.80 146.80 C 7.55 147.48 6.30 148.16 5.06 148.83 C 4.44 146.73 3.78 144.62 3.39 142.46 C 3.61 141.63 4.05 139.96 4.27 139.13 Z" />
</g>
<g id="#b5beceff">
<path fill="#b5bece" opacity="1.00" d=" M 23.02 141.18 C 23.49 140.92 24.43 140.42 24.90 140.17 C 25.67 140.37 27.21 140.76 27.98 140.96 C 28.70 141.09 29.42 141.18 30.15 141.28 C 31.02 141.98 31.92 142.65 32.77 143.38 C 30.36 146.79 30.72 151.13 29.79 155.03 C 29.31 152.88 28.86 150.73 28.29 148.61 C 23.62 148.15 18.92 148.73 14.36 149.74 C 12.76 150.00 11.87 151.47 10.78 152.50 C 11.44 152.80 12.77 153.42 13.43 153.73 L 13.76 154.60 C 11.24 154.45 8.72 154.44 6.21 154.16 C 6.50 153.45 7.09 152.03 7.38 151.32 C 6.79 151.00 6.20 150.68 5.59 150.39 L 5.49 150.54 C 3.92 152.33 4.16 154.80 4.16 157.01 C 4.36 162.60 4.14 168.21 4.83 173.77 C 4.42 174.25 3.61 175.21 3.20 175.68 C 2.78 164.31 2.98 152.89 3.23 141.50 L 3.39 142.46 C 3.78 144.62 4.44 146.73 5.06 148.83 C 6.30 148.16 7.55 147.48 8.80 146.80 C 8.52 148.04 8.24 149.28 7.97 150.53 C 10.51 149.85 12.81 148.57 14.60 146.64 C 17.26 146.99 19.94 147.23 22.62 147.15 C 24.08 145.83 25.95 145.47 27.85 145.47 C 27.75 144.95 27.54 143.92 27.44 143.40 C 25.19 143.57 22.94 143.75 20.69 143.93 C 21.45 142.99 22.20 142.05 23.02 141.18 Z" />
</g>
<g id="#a4afbfff">
<path fill="#a4afbf" opacity="1.00" d=" M 38.26 156.91 C 41.77 151.90 36.35 144.02 41.97 140.13 L 42.07 141.12 C 42.30 141.46 42.75 142.16 42.97 142.50 L 43.18 142.80 C 42.58 142.75 41.37 142.67 40.76 142.62 C 40.84 148.68 40.31 154.74 40.57 160.80 C 40.71 163.31 40.84 165.83 41.18 168.32 L 41.44 169.18 C 41.01 170.49 40.69 171.85 40.72 173.23 C 40.88 175.07 41.26 176.88 41.55 178.71 C 46.46 178.86 51.37 178.65 56.28 178.56 L 56.94 178.67 C 58.32 179.57 59.35 179.37 60.01 178.06 L 60.59 178.18 C 65.71 179.33 70.98 178.98 76.18 179.00 C 76.08 177.70 75.98 176.40 75.88 175.10 C 75.19 174.95 73.79 174.64 73.09 174.48 L 73.92 173.83 C 74.50 173.36 75.07 172.87 75.63 172.38 C 76.34 174.50 76.93 176.66 77.47 178.84 C 84.68 178.77 91.89 178.70 99.11 178.77 C 98.53 176.93 97.97 175.08 97.32 173.27 L 98.29 174.14 C 99.57 176.19 100.67 178.57 103.08 179.51 C 103.14 178.50 103.26 176.47 103.33 175.45 C 103.95 176.52 104.58 177.60 105.20 178.67 C 112.16 179.04 119.13 178.74 126.10 178.68 C 126.04 180.47 125.96 182.25 125.89 184.04 C 127.03 184.34 128.19 184.63 129.35 184.90 C 127.71 185.26 126.09 185.67 124.46 186.07 C 124.29 185.33 123.96 183.84 123.80 183.10 L 123.20 183.09 C 123.61 181.97 124.02 180.84 124.43 179.72 C 121.59 180.11 118.84 180.84 116.08 181.58 C 111.40 182.86 106.50 182.48 101.71 182.95 C 100.84 185.66 104.59 185.33 106.25 185.89 C 104.27 186.06 102.28 186.12 100.30 186.18 C 100.21 185.32 100.02 183.58 99.93 182.72 C 97.49 182.72 95.05 182.70 92.61 182.90 C 88.46 178.73 82.27 180.07 76.98 179.88 C 76.95 180.44 76.89 181.56 76.86 182.12 C 80.20 182.44 84.08 181.51 86.84 183.92 C 83.35 184.89 79.82 185.77 76.21 186.19 C 76.08 185.39 75.80 183.77 75.66 182.96 C 68.77 183.29 61.88 183.55 54.99 183.42 C 49.60 183.17 44.74 186.10 39.36 186.08 C 39.24 185.25 38.99 183.59 38.86 182.76 C 35.30 182.75 31.75 182.84 28.19 182.96 C 27.77 182.65 26.91 182.02 26.49 181.71 C 26.95 181.12 27.42 180.53 27.89 179.94 C 24.36 179.58 20.81 179.58 17.28 179.89 C 17.47 180.89 17.66 181.89 17.84 182.89 C 13.43 182.94 8.81 183.42 5.09 186.01 C 4.83 185.82 4.32 185.45 4.06 185.26 C 4.06 184.86 4.06 184.06 4.06 183.66 C 7.06 182.78 10.77 182.92 12.66 179.97 C 9.47 179.56 6.24 179.48 3.02 179.54 C 2.97 179.26 2.85 178.69 2.79 178.41 C 5.37 178.42 7.95 178.39 10.53 178.29 C 10.16 177.75 9.41 176.67 9.04 176.13 C 9.99 176.33 10.94 176.50 11.90 176.64 C 11.61 177.32 11.02 178.67 10.72 179.35 C 17.34 179.29 23.96 179.42 30.58 179.23 C 31.16 177.43 31.74 175.64 32.41 173.87 L 33.53 173.52 C 33.42 174.93 33.38 176.35 33.35 177.77 C 33.03 178.07 32.40 178.66 32.09 178.96 C 33.10 179.30 34.11 179.64 35.12 179.98 C 36.38 180.87 38.45 179.35 37.57 177.91 L 37.13 177.43 C 40.27 176.20 39.16 172.34 39.74 169.71 C 39.00 169.46 37.51 168.96 36.77 168.72 C 37.44 168.54 38.78 168.18 39.44 167.99 C 39.41 165.81 39.42 163.62 39.08 161.46 C 38.83 159.93 38.59 158.41 38.26 156.91 M 40.86 179.76 C 40.89 181.23 40.92 182.70 40.96 184.17 C 43.70 184.04 46.95 183.90 48.27 181.01 C 46.72 178.66 43.23 180.13 40.86 179.76 M 71.78 181.91 C 74.00 182.63 77.07 182.87 76.45 179.56 C 74.85 180.20 71.79 179.42 71.78 181.91 M 101.34 179.95 C 101.50 180.46 101.84 181.48 102.01 181.99 C 105.06 182.49 108.17 182.13 111.22 181.74 C 108.85 178.83 104.58 180.18 101.34 179.95 M 77.38 183.32 C 77.55 184.83 81.23 184.45 81.56 183.17 C 80.35 182.41 78.52 182.44 77.38 183.32 Z" />
</g>
<g id="#a7aebfff">
<path fill="#a7aebf" opacity="1.00" d=" M 14.56 141.10 C 17.33 141.84 20.22 141.61 23.02 141.18 C 22.20 142.05 21.45 142.99 20.69 143.93 C 19.35 146.99 16.30 144.80 14.27 143.85 C 14.72 143.43 15.18 143.01 15.63 142.59 C 15.36 142.22 14.83 141.47 14.56 141.10 Z" />
</g>
<g id="#3592dfff">
<path fill="#3592df" opacity="1.00" d=" M 42.97 142.50 C 46.14 142.38 49.37 141.91 52.49 142.72 C 56.10 144.92 61.01 145.28 64.51 142.66 C 67.10 142.61 69.69 142.47 72.29 142.52 C 73.51 145.78 72.42 148.92 71.32 152.00 C 70.61 158.79 69.57 165.62 70.42 172.44 C 70.74 173.67 69.55 174.37 68.90 175.19 C 68.30 164.80 67.13 154.31 68.88 143.97 C 67.52 144.19 66.02 144.00 64.77 144.65 C 63.41 153.17 64.66 162.04 62.47 170.46 C 61.77 170.07 60.36 169.30 59.66 168.91 C 60.01 168.76 60.72 168.46 61.07 168.31 C 59.84 168.08 58.60 167.85 57.37 167.63 C 57.82 166.77 58.27 165.90 58.72 165.04 C 55.38 160.11 60.04 154.65 57.56 149.46 C 56.09 148.52 54.46 147.88 52.88 147.14 C 51.99 145.52 51.49 142.88 49.10 143.14 C 47.14 142.88 45.16 142.88 43.18 142.80 L 42.97 142.50 Z" />
</g>
<g id="#eff1f2ff">
<path fill="#eff1f2" opacity="1.00" d=" M 40.76 142.62 C 41.37 142.67 42.58 142.75 43.18 142.80 C 43.30 147.78 42.99 152.77 43.26 157.76 C 43.26 160.03 43.25 162.31 43.29 164.58 L 41.81 164.69 C 41.39 163.39 40.98 162.09 40.57 160.80 C 40.31 154.74 40.84 148.68 40.76 142.62 Z" />
</g>
<g id="#64b3f2ff">
<path fill="#64b3f2" opacity="1.00" d=" M 43.18 142.80 C 45.16 142.88 47.14 142.88 49.10 143.14 C 50.30 147.32 50.68 151.68 51.04 155.99 C 51.44 160.80 49.60 165.41 49.61 170.19 C 49.44 171.60 49.82 173.43 48.38 174.29 C 47.30 174.45 46.21 174.52 45.12 174.51 C 42.43 169.36 44.05 163.29 43.26 157.76 C 42.99 152.77 43.30 147.78 43.18 142.80 Z" />
</g>
<g id="#459eeaff">
<path fill="#459eea" opacity="1.00" d=" M 49.10 143.14 C 51.49 142.88 51.99 145.52 52.88 147.14 C 54.46 147.88 56.09 148.52 57.56 149.46 C 60.04 154.65 55.38 160.11 58.72 165.04 C 58.27 165.90 57.82 166.77 57.37 167.63 C 58.60 167.85 59.84 168.08 61.07 168.31 C 60.72 168.46 60.01 168.76 59.66 168.91 C 57.69 169.22 55.23 168.97 53.91 170.80 C 53.16 172.40 53.16 174.24 52.83 175.95 C 51.63 176.29 50.43 176.65 49.24 177.04 C 48.06 176.54 46.91 175.97 45.81 175.32 L 45.12 174.51 C 46.21 174.52 47.30 174.45 48.38 174.29 C 49.82 173.43 49.44 171.60 49.61 170.19 C 49.60 165.41 51.44 160.80 51.04 155.99 C 50.68 151.68 50.30 147.32 49.10 143.14 Z" />
</g>
<g id="#097ad3ff">
<path fill="#097ad3" opacity="1.00" d=" M 52.49 142.72 C 56.50 142.60 60.50 142.53 64.51 142.66 C 61.01 145.28 56.10 144.92 52.49 142.72 Z" />
</g>
<g id="#2188d3ff">
<path fill="#2188d3" opacity="1.00" d=" M 72.29 142.52 C 72.77 142.55 73.75 142.62 74.24 142.65 C 74.55 147.74 74.18 152.87 74.82 157.95 C 75.19 160.74 75.28 163.58 74.83 166.38 C 74.37 167.38 73.96 168.40 73.53 169.42 C 72.83 170.17 72.13 170.93 71.43 171.69 C 72.05 172.23 73.30 173.30 73.92 173.83 L 73.09 174.48 C 72.70 174.79 71.90 175.41 71.50 175.72 C 70.57 175.84 68.70 176.08 67.76 176.20 C 68.05 175.95 68.62 175.44 68.90 175.19 C 69.55 174.37 70.74 173.67 70.42 172.44 C 69.57 165.62 70.61 158.79 71.32 152.00 C 72.42 148.92 73.51 145.78 72.29 142.52 Z" />
<path fill="#2188d3" opacity="1.00" d=" M 89.43 157.34 C 89.80 157.66 90.54 158.30 90.91 158.61 C 92.27 160.21 93.73 161.72 95.15 163.27 C 95.30 165.12 94.70 166.88 93.89 168.52 C 93.33 167.23 92.73 165.95 92.09 164.70 C 90.32 162.58 88.88 160.25 89.43 157.34 Z" />
</g>
<g id="#8795a6ff">
<path fill="#8795a6" opacity="1.00" d=" M 29.79 155.03 C 30.72 151.13 30.36 146.79 32.77 143.38 C 33.22 144.38 33.63 145.40 33.99 146.44 C 33.18 147.82 31.99 149.17 32.28 150.89 C 32.38 154.70 31.72 158.51 32.21 162.32 C 31.76 163.29 31.31 164.27 30.85 165.24 C 29.77 164.73 28.68 164.26 27.59 163.79 C 28.18 159.32 28.20 154.81 27.85 150.33 C 25.76 150.13 23.68 149.92 21.60 149.70 C 23.83 149.34 26.06 148.98 28.29 148.61 C 28.86 150.73 29.31 152.88 29.79 155.03 Z" />
</g>
<g id="#4f9fdeff">
<path fill="#4f9fde" opacity="1.00" d=" M 64.77 144.65 C 66.02 144.00 67.52 144.19 68.88 143.97 C 67.13 154.31 68.30 164.80 68.90 175.19 C 68.62 175.44 68.05 175.95 67.76 176.20 C 67.10 176.39 66.44 176.58 65.77 176.76 C 62.37 175.90 58.85 175.75 55.36 175.79 C 56.00 174.91 56.67 174.05 57.37 173.23 C 58.53 173.56 59.64 174.04 60.77 174.48 C 61.35 173.15 61.94 171.81 62.47 170.46 C 64.66 162.04 63.41 153.17 64.77 144.65 Z" />
</g>
<g id="#1c1816ff">
<path fill="#1c1816" opacity="1.00" d=" M 80.52 145.06 C 82.71 144.63 84.91 144.25 87.14 144.16 C 86.16 145.33 85.11 146.43 84.04 147.52 C 84.15 147.95 84.35 148.80 84.45 149.23 C 85.95 149.56 87.15 150.49 88.19 151.58 C 90.19 151.47 92.07 150.80 93.71 149.66 C 94.77 149.62 95.82 149.61 96.88 149.62 C 97.93 149.83 98.98 150.06 100.03 150.31 C 102.16 149.91 104.30 149.57 106.45 149.30 C 106.77 150.11 107.41 151.73 107.73 152.54 C 105.48 152.41 103.24 152.11 101.00 151.78 C 101.26 153.61 101.53 155.43 101.92 157.24 L 101.95 157.36 C 103.20 157.66 104.46 157.93 105.72 158.20 C 104.27 158.40 102.86 158.16 101.52 157.58 C 101.37 159.37 101.23 161.15 101.06 162.94 C 99.68 165.56 98.08 168.11 95.99 170.22 C 95.81 170.41 95.45 170.78 95.27 170.96 C 94.61 171.33 93.29 172.07 92.63 172.43 C 88.92 173.19 84.70 174.47 81.20 172.34 C 86.73 172.37 93.03 171.63 96.65 166.90 C 99.61 162.51 99.78 157.05 99.05 151.98 C 96.95 150.74 96.02 153.35 94.93 154.54 C 95.08 153.87 95.38 152.53 95.52 151.86 C 94.81 151.82 93.39 151.73 92.68 151.69 C 92.95 152.42 93.50 153.87 93.77 154.59 C 92.79 156.29 92.03 158.12 92.78 160.08 C 92.31 159.71 91.38 158.98 90.91 158.61 C 90.54 158.30 89.80 157.66 89.43 157.34 C 88.88 160.25 90.32 162.58 92.09 164.70 C 91.46 166.17 91.49 167.73 91.82 169.28 C 90.32 169.76 88.84 170.45 87.24 170.57 C 87.06 170.21 86.71 169.47 86.53 169.10 C 85.28 169.13 84.02 169.18 82.76 169.26 C 83.46 168.40 84.16 167.54 84.85 166.67 C 84.28 166.47 83.14 166.06 82.57 165.85 C 83.33 164.97 84.08 164.08 84.89 163.25 C 84.24 165.75 87.67 164.04 85.59 162.79 C 86.07 162.48 87.03 161.85 87.51 161.54 C 87.55 163.66 87.49 165.77 87.39 167.89 C 87.66 167.90 88.19 167.92 88.46 167.93 C 88.74 166.51 89.03 165.10 89.33 163.69 C 88.85 161.04 88.66 158.36 88.77 155.68 C 88.34 155.49 87.49 155.10 87.06 154.90 C 87.82 154.08 88.59 153.26 89.35 152.43 C 88.36 152.52 87.38 152.62 86.40 152.72 C 85.47 151.81 84.55 150.91 83.61 150.02 C 83.65 151.43 82.97 152.97 83.54 154.34 C 84.59 155.15 85.91 155.44 87.14 155.88 C 87.19 156.47 87.31 157.66 87.37 158.25 C 85.09 158.36 82.82 158.49 80.55 158.62 C 81.43 157.82 82.32 157.04 83.22 156.26 C 82.96 155.74 82.45 154.71 82.20 154.19 C 82.42 152.30 82.62 150.40 83.26 148.60 C 82.32 147.44 81.42 146.25 80.52 145.06 Z" />
<path fill="#1c1816" opacity="1.00" d=" M 92.72 144.64 L 93.09 144.75 C 92.66 145.05 91.79 145.66 91.35 145.97 L 90.46 146.18 C 89.01 146.91 89.11 147.48 90.75 147.88 L 90.70 148.92 C 89.57 148.30 88.44 147.69 87.28 147.13 C 87.59 146.62 87.90 146.11 88.22 145.61 C 89.74 145.39 91.26 145.13 92.72 144.64 Z" />
<path fill="#1c1816" opacity="1.00" d=" M 73.53 169.42 C 73.96 168.40 74.37 167.38 74.83 166.38 C 74.92 166.75 75.10 167.49 75.19 167.86 C 75.15 168.54 75.09 169.91 75.06 170.59 C 75.20 171.04 75.49 171.93 75.63 172.38 C 75.07 172.87 74.50 173.36 73.92 173.83 C 73.30 173.30 72.05 172.23 71.43 171.69 C 72.13 170.93 72.83 170.17 73.53 169.42 Z" />
</g>
<g id="#566f82ff">
<path fill="#566f82" opacity="1.00" d=" M 32.28 150.89 C 31.99 149.17 33.18 147.82 33.99 146.44 C 35.02 150.08 36.57 153.53 38.26 156.91 C 38.59 158.41 38.83 159.93 39.08 161.46 C 37.79 159.14 36.34 156.91 34.82 154.73 C 35.14 158.94 35.39 163.44 32.38 166.82 C 31.99 166.43 31.23 165.64 30.85 165.24 C 31.31 164.27 31.76 163.29 32.21 162.32 C 31.72 158.51 32.38 154.70 32.28 150.89 Z" />
</g>
<g id="#878a90ff">
<path fill="#878a90" opacity="1.00" d=" M 14.36 149.74 C 18.92 148.73 23.62 148.15 28.29 148.61 C 26.06 148.98 23.83 149.34 21.60 149.70 C 23.68 149.92 25.76 150.13 27.85 150.33 C 28.20 154.81 28.18 159.32 27.59 163.79 C 28.68 164.26 29.77 164.73 30.85 165.24 C 31.23 165.64 31.99 166.43 32.38 166.82 C 33.11 168.61 35.20 168.37 36.77 168.72 C 37.51 168.96 39.00 169.46 39.74 169.71 C 37.48 170.17 35.16 170.41 32.88 169.94 C 32.52 169.02 32.16 168.09 31.80 167.17 C 25.41 170.87 17.82 170.61 10.70 170.32 C 10.42 171.97 10.15 173.63 9.82 175.27 C 9.69 173.82 9.56 172.37 9.45 170.92 C 9.10 170.53 8.40 169.75 8.05 169.37 C 10.17 167.46 12.67 165.47 12.73 162.35 C 13.24 162.15 14.26 161.75 14.78 161.55 C 14.68 160.61 14.58 159.68 14.49 158.75 C 14.42 158.05 14.28 156.66 14.21 155.97 C 14.10 155.63 13.87 154.94 13.76 154.60 L 13.43 153.73 C 12.77 153.42 11.44 152.80 10.78 152.50 C 11.87 151.47 12.76 150.00 14.36 149.74 Z" />
<path fill="#878a90" opacity="1.00" d=" M 4.16 157.01 C 4.16 154.80 3.92 152.33 5.49 150.54 C 5.54 151.91 5.58 153.29 5.61 154.66 C 6.47 154.94 7.33 155.20 8.19 155.46 C 7.67 155.54 6.62 155.70 6.10 155.78 C 5.98 156.17 5.74 156.94 5.62 157.33 C 4.32 160.55 4.85 164.03 5.08 167.39 C 4.82 168.70 5.12 170.02 5.81 171.16 C 5.77 172.44 5.71 173.72 5.65 175.01 C 4.77 175.67 3.88 176.34 3.02 177.04 C 3.07 176.70 3.16 176.02 3.20 175.68 C 3.61 175.21 4.42 174.25 4.83 173.77 C 4.14 168.21 4.36 162.60 4.16 157.01 Z" />
</g>
<g id="#f4f3f2ff">
<path fill="#f4f3f2" opacity="1.00" d=" M 108.44 149.21 C 109.51 148.18 111.70 148.67 112.12 150.13 C 111.83 152.04 107.55 151.06 108.44 149.21 Z" />
<path fill="#f4f3f2" opacity="1.00" d=" M 34.82 154.73 C 36.34 156.91 37.79 159.14 39.08 161.46 C 39.42 163.62 39.41 165.81 39.44 167.99 C 38.78 168.18 37.44 168.54 36.77 168.72 C 35.20 168.37 33.11 168.61 32.38 166.82 C 35.39 163.44 35.14 158.94 34.82 154.73 Z" />
<path fill="#f4f3f2" opacity="1.00" d=" M 110.11 157.38 C 110.28 156.83 110.60 155.73 110.76 155.18 C 111.80 159.40 112.91 163.81 111.49 168.10 C 110.89 167.91 110.29 167.72 109.69 167.53 C 110.83 165.72 110.93 163.62 110.72 161.55 C 110.59 160.48 110.44 159.41 110.27 158.35 L 110.11 157.38 Z" />
<path fill="#f4f3f2" opacity="1.00" d=" M 3.02 177.04 C 3.88 176.34 4.77 175.67 5.65 175.01 C 6.78 175.39 7.91 175.76 9.04 176.13 C 9.41 176.67 10.16 177.75 10.53 178.29 C 7.95 178.39 5.37 178.42 2.79 178.41 L 3.02 177.04 Z" />
</g>
<g id="#242427ff">
<path fill="#242427" opacity="1.00" d=" M 5.59 150.39 C 6.20 150.68 6.79 151.00 7.38 151.32 C 7.09 152.03 6.50 153.45 6.21 154.16 C 8.72 154.44 11.24 154.45 13.76 154.60 C 13.87 154.94 14.10 155.63 14.21 155.97 C 12.20 155.81 10.20 155.65 8.19 155.46 C 7.33 155.20 6.47 154.94 5.61 154.66 C 5.58 153.29 5.54 151.91 5.49 150.54 L 5.59 150.39 Z" />
<path fill="#242427" opacity="1.00" d=" M 79.19 160.47 C 79.31 161.24 79.56 162.79 79.69 163.57 C 80.00 165.58 80.27 167.60 80.52 169.63 C 81.08 169.53 82.20 169.35 82.76 169.26 C 84.02 169.18 85.28 169.13 86.53 169.10 C 86.71 169.47 87.06 170.21 87.24 170.57 C 85.11 170.56 82.98 170.48 80.85 170.42 C 80.89 171.16 80.99 172.66 81.04 173.40 C 80.70 173.19 80.03 172.77 79.69 172.56 C 80.17 170.37 78.45 169.74 76.85 169.10 C 77.65 169.17 79.27 169.31 80.07 169.37 C 79.59 166.43 79.04 163.46 79.19 160.47 Z" />
<path fill="#242427" opacity="1.00" d=" M 10.70 170.32 C 17.82 170.61 25.41 170.87 31.80 167.17 C 32.16 168.09 32.52 169.02 32.88 169.94 C 33.09 170.47 33.51 171.53 33.72 172.06 C 33.67 172.42 33.58 173.15 33.53 173.52 L 32.41 173.87 C 30.95 174.30 29.48 174.74 28.00 175.12 C 24.52 175.97 20.94 176.35 17.39 176.86 C 15.56 176.78 13.73 176.75 11.90 176.64 C 10.94 176.50 9.99 176.33 9.04 176.13 C 7.91 175.76 6.78 175.39 5.65 175.01 C 5.71 173.72 5.77 172.44 5.81 171.16 C 6.22 170.53 7.02 169.28 7.42 168.65 L 8.05 169.37 C 8.40 169.75 9.10 170.53 9.45 170.92 C 9.56 172.37 9.69 173.82 9.82 175.27 C 10.15 173.63 10.42 171.97 10.70 170.32 Z" />
</g>
<g id="#d2d3d6ff">
<path fill="#d2d3d6" opacity="1.00" d=" M 83.61 150.02 C 84.55 150.91 85.47 151.81 86.40 152.72 C 87.38 152.62 88.36 152.52 89.35 152.43 C 88.59 153.26 87.82 154.08 87.06 154.90 C 87.49 155.10 88.34 155.49 88.77 155.68 C 88.66 158.36 88.85 161.04 89.33 163.69 C 89.03 165.10 88.74 166.51 88.46 167.93 C 88.19 167.92 87.66 167.90 87.39 167.89 C 87.49 165.77 87.55 163.66 87.51 161.54 C 87.51 161.16 87.50 160.40 87.49 160.02 C 87.46 159.43 87.42 158.84 87.37 158.25 C 87.31 157.66 87.19 156.47 87.14 155.88 C 85.91 155.44 84.59 155.15 83.54 154.34 C 82.97 152.97 83.65 151.43 83.61 150.02 Z" />
<path fill="#d2d3d6" opacity="1.00" d=" M 130.10 172.89 L 130.89 172.50 C 134.22 174.86 137.07 178.07 138.46 181.96 C 136.01 184.04 132.38 184.06 129.35 184.90 C 128.19 184.63 127.03 184.34 125.89 184.04 C 125.96 182.25 126.04 180.47 126.10 178.68 L 126.12 177.72 C 127.33 178.84 128.33 180.64 130.20 180.62 C 131.93 180.59 133.59 180.01 135.26 179.60 C 133.97 177.47 132.09 175.85 130.02 174.50 C 130.04 174.10 130.08 173.29 130.10 172.89 Z" />
</g>
<g id="#f1f3f1ff">
<path fill="#f1f3f1" opacity="1.00" d=" M 92.68 151.69 C 93.39 151.73 94.81 151.82 95.52 151.86 C 95.38 152.53 95.08 153.87 94.93 154.54 C 96.02 153.35 96.95 150.74 99.05 151.98 C 99.78 157.05 99.61 162.51 96.65 166.90 C 95.57 163.19 95.86 159.31 95.58 155.50 C 95.25 158.07 95.18 160.67 95.15 163.27 C 93.73 161.72 92.27 160.21 90.91 158.61 C 91.38 158.98 92.31 159.71 92.78 160.08 C 92.03 158.12 92.79 156.29 93.77 154.59 C 93.50 153.87 92.95 152.42 92.68 151.69 Z" />
<path fill="#f1f3f1" opacity="1.00" d=" M 101.00 151.78 C 103.24 152.11 105.48 152.41 107.73 152.54 C 108.07 153.33 108.41 154.12 108.76 154.91 C 108.19 154.83 107.06 154.68 106.50 154.60 L 105.71 154.02 C 105.54 153.67 105.20 152.99 105.03 152.65 C 104.01 154.19 102.98 155.73 101.92 157.24 C 101.53 155.43 101.26 153.61 101.00 151.78 Z" />
</g>
<g id="#191a1eff">
<path fill="#191a1e" opacity="1.00" d=" M 111.86 151.75 C 113.27 151.87 114.69 152.00 116.10 152.13 C 116.08 153.74 116.07 155.36 115.96 156.98 C 115.86 157.71 115.65 159.17 115.55 159.89 C 115.07 159.65 114.10 159.17 113.61 158.93 C 117.73 158.42 112.15 154.96 112.66 158.48 C 112.41 161.05 113.96 163.16 115.02 165.34 L 115.16 166.08 C 113.63 166.67 113.56 167.25 114.96 167.84 C 114.45 168.74 113.91 169.62 113.34 170.49 C 113.04 170.23 112.46 169.71 112.17 169.46 C 112.14 169.88 112.06 170.72 112.03 171.14 C 111.29 171.14 109.81 171.12 109.07 171.12 C 109.01 170.71 108.89 169.88 108.82 169.47 C 108.54 169.74 107.96 170.27 107.67 170.54 C 107.29 170.16 106.54 169.39 106.16 169.01 C 106.30 166.90 105.51 164.36 107.44 162.84 C 107.49 165.67 110.39 163.89 108.69 162.07 L 110.72 161.55 C 110.93 163.62 110.83 165.72 109.69 167.53 C 110.29 167.72 110.89 167.91 111.49 168.10 C 112.91 163.81 111.80 159.40 110.76 155.18 C 111.09 154.02 111.49 152.89 111.86 151.75 Z" />
</g>
<g id="#64b3f4ff">
<path fill="#64b3f4" opacity="1.00" d=" M 79.19 160.47 C 79.54 158.14 81.17 156.25 82.20 154.19 C 82.45 154.71 82.96 155.74 83.22 156.26 C 82.32 157.04 81.43 157.82 80.55 158.62 C 82.82 158.49 85.09 158.36 87.37 158.25 C 87.42 158.84 87.46 159.43 87.49 160.02 C 85.01 161.46 82.41 162.67 79.69 163.57 C 79.56 162.79 79.31 161.24 79.19 160.47 Z" />
</g>
<g id="#0e2648ff">
<path fill="#0e2648" opacity="1.00" d=" M 106.09 158.21 C 105.99 156.81 105.88 155.41 105.71 154.02 L 106.50 154.60 C 107.71 155.52 108.93 156.43 110.11 157.38 L 110.27 158.35 C 109.85 158.35 109.01 158.34 108.59 158.34 C 107.96 158.31 106.72 158.24 106.09 158.21 Z" />
</g>
<g id="#bec4d4ff">
<path fill="#bec4d4" opacity="1.00" d=" M 6.10 155.78 C 6.62 155.70 7.67 155.54 8.19 155.46 C 10.20 155.65 12.20 155.81 14.21 155.97 C 14.28 156.66 14.42 158.05 14.49 158.75 C 14.33 159.31 14.02 160.42 13.86 160.98 C 11.22 160.95 8.59 160.72 5.97 160.44 C 5.88 159.66 5.70 158.11 5.62 157.33 C 5.74 156.94 5.98 156.17 6.10 155.78 Z" />
</g>
<g id="#62717eff">
<path fill="#62717e" opacity="1.00" d=" M 95.15 163.27 C 95.18 160.67 95.25 158.07 95.58 155.50 C 95.86 159.31 95.57 163.19 96.65 166.90 C 93.03 171.63 86.73 172.37 81.20 172.34 C 84.70 174.47 88.92 173.19 92.63 172.43 C 93.70 174.10 95.98 172.70 95.27 170.96 C 95.45 170.78 95.81 170.41 95.99 170.22 C 96.77 171.52 97.53 172.82 98.29 174.14 L 97.32 173.27 C 97.04 173.02 96.47 172.50 96.19 172.25 C 96.14 172.89 96.04 174.17 95.99 174.82 C 89.74 173.49 83.13 175.17 77.06 172.83 C 77.13 172.41 77.27 171.57 77.34 171.15 C 77.93 171.51 79.10 172.21 79.69 172.56 C 80.03 172.77 80.70 173.19 81.04 173.40 C 80.99 172.66 80.89 171.16 80.85 170.42 C 82.98 170.48 85.11 170.56 87.24 170.57 C 88.84 170.45 90.32 169.76 91.82 169.28 C 91.49 167.73 91.46 166.17 92.09 164.70 C 92.73 165.95 93.33 167.23 93.89 168.52 C 94.70 166.88 95.30 165.12 95.15 163.27 Z" />
</g>
<g id="#b6c3d3ff">
<path fill="#b6c3d3" opacity="1.00" d=" M 112.66 158.48 C 112.15 154.96 117.73 158.42 113.61 158.93 L 112.66 158.48 Z" />
</g>
<g id="#636266ff">
<path fill="#636266" opacity="1.00" d=" M 5.08 167.39 C 4.85 164.03 4.32 160.55 5.62 157.33 C 5.70 158.11 5.88 159.66 5.97 160.44 C 6.14 162.62 6.59 164.93 5.78 167.05 L 5.08 167.39 Z" />
</g>
<g id="#67ace2ff">
<path fill="#67ace2" opacity="1.00" d=" M 101.52 157.58 C 102.86 158.16 104.27 158.40 105.72 158.20 L 106.09 158.21 C 106.72 158.24 107.96 158.31 108.59 158.34 L 107.83 158.44 C 106.23 158.19 104.05 160.28 106.14 161.36 C 104.69 162.70 102.96 163.66 101.11 164.31 L 101.06 162.94 C 101.23 161.15 101.37 159.37 101.52 157.58 Z" />
</g>
<g id="#4a98c2ff">
<path fill="#4a98c2" opacity="1.00" d=" M 108.59 158.34 C 109.01 158.34 109.85 158.35 110.27 158.35 C 110.44 159.41 110.59 160.48 110.72 161.55 L 108.69 162.07 C 108.38 162.26 107.75 162.64 107.44 162.84 C 105.51 164.36 106.30 166.90 106.16 169.01 C 106.54 169.39 107.29 170.16 107.67 170.54 L 108.25 171.15 C 106.90 171.20 105.56 171.20 104.22 171.14 C 103.97 170.88 103.46 170.36 103.20 170.10 C 103.32 168.10 102.69 166.31 101.22 164.93 C 101.19 164.78 101.13 164.46 101.11 164.31 C 102.96 163.66 104.69 162.70 106.14 161.36 C 107.74 161.47 109.82 159.67 107.83 158.44 L 108.59 158.34 Z" />
</g>
<g id="#605f63ff">
<path fill="#605f63" opacity="1.00" d=" M 121.65 158.56 C 123.76 158.25 125.93 158.13 127.97 158.90 C 125.87 160.75 123.61 160.27 121.65 158.56 Z" />
</g>
<g id="#a2a5a9ff">
<path fill="#a2a5a9" opacity="1.00" d=" M 14.49 158.75 C 14.58 159.68 14.68 160.61 14.78 161.55 C 14.26 161.75 13.24 162.15 12.73 162.35 C 12.67 165.47 10.17 167.46 8.05 169.37 L 7.42 168.65 C 7.01 168.25 6.19 167.45 5.78 167.05 C 6.59 164.93 6.14 162.62 5.97 160.44 C 8.59 160.72 11.22 160.95 13.86 160.98 C 14.02 160.42 14.33 159.31 14.49 158.75 Z" />
</g>
<g id="#8fc9e9ff">
<path fill="#8fc9e9" opacity="1.00" d=" M 106.14 161.36 C 104.05 160.28 106.23 158.19 107.83 158.44 C 109.82 159.67 107.74 161.47 106.14 161.36 Z" />
</g>
<g id="#4d95cdff">
<path fill="#4d95cd" opacity="1.00" d=" M 112.66 158.48 L 113.61 158.93 C 114.10 159.17 115.07 159.65 115.55 159.89 C 115.98 160.81 116.39 161.73 116.79 162.67 C 116.18 163.55 115.59 164.44 115.02 165.34 C 113.96 163.16 112.41 161.05 112.66 158.48 Z" />
</g>
<g id="#2f82c4ff">
<path fill="#2f82c4" opacity="1.00" d=" M 79.69 163.57 C 82.41 162.67 85.01 161.46 87.49 160.02 C 87.50 160.40 87.51 161.16 87.51 161.54 C 87.03 161.85 86.07 162.48 85.59 162.79 L 84.89 163.25 C 84.08 164.08 83.33 164.97 82.57 165.85 C 83.14 166.06 84.28 166.47 84.85 166.67 C 84.16 167.54 83.46 168.40 82.76 169.26 C 82.20 169.35 81.08 169.53 80.52 169.63 C 80.27 167.60 80.00 165.58 79.69 163.57 Z" />
<path fill="#2f82c4" opacity="1.00" d=" M 53.91 170.80 C 55.23 168.97 57.69 169.22 59.66 168.91 C 60.36 169.30 61.77 170.07 62.47 170.46 C 61.94 171.81 61.35 173.15 60.77 174.48 C 59.64 174.04 58.53 173.56 57.37 173.23 C 56.67 174.05 56.00 174.91 55.36 175.79 C 54.73 175.83 53.47 175.91 52.83 175.95 C 53.16 174.24 53.16 172.40 53.91 170.80 Z" />
</g>
<g id="#9d9d9dff">
<path fill="#9d9d9d" opacity="1.00" d=" M 107.44 162.84 C 107.75 162.64 108.38 162.26 108.69 162.07 C 110.39 163.89 107.49 165.67 107.44 162.84 Z" />
<path fill="#9d9d9d" opacity="1.00" d=" M 17.28 179.89 C 20.81 179.58 24.36 179.58 27.89 179.94 C 27.42 180.53 26.95 181.12 26.49 181.71 C 26.91 182.02 27.77 182.65 28.19 182.96 C 24.74 183.06 21.29 182.93 17.84 182.89 C 17.66 181.89 17.47 180.89 17.28 179.89 Z" />
</g>
<g id="#756c64ff">
<path fill="#756c64" opacity="1.00" d=" M 84.89 163.25 L 85.59 162.79 C 87.67 164.04 84.24 165.75 84.89 163.25 Z" />
</g>
<g id="#3d7eabff">
<path fill="#3d7eab" opacity="1.00" d=" M 115.02 165.34 C 115.59 164.44 116.18 163.55 116.79 162.67 C 117.66 164.67 117.91 166.96 116.89 168.97 C 116.01 169.78 115.09 170.55 114.13 171.26 C 113.81 171.24 113.18 171.21 112.87 171.19 L 113.34 170.49 C 113.91 169.62 114.45 168.74 114.96 167.84 C 115.01 167.40 115.11 166.52 115.16 166.08 L 115.02 165.34 Z" />
</g>
<g id="#485358ff">
<path fill="#485358" opacity="1.00" d=" M 125.24 163.13 C 128.28 161.68 125.28 166.45 125.24 163.13 Z" />
</g>
<g id="#4091d0ff">
<path fill="#4091d0" opacity="1.00" d=" M 123.25 165.36 C 124.69 165.62 126.14 165.89 127.56 166.25 C 126.68 168.75 126.56 171.39 126.75 174.02 C 125.64 173.91 124.69 173.49 123.90 172.76 C 126.61 173.97 126.62 169.74 123.93 171.07 L 122.47 171.36 C 122.18 169.31 122.30 167.23 123.25 165.36 Z" />
</g>
<g id="#dddae3ff">
<path fill="#dddae3" opacity="1.00" d=" M 41.44 165.93 C 43.70 164.26 43.34 168.84 41.44 169.18 L 41.18 168.32 C 41.25 167.73 41.37 166.53 41.44 165.93 Z" />
</g>
<g id="#857a6aff">
<path fill="#857a6a" opacity="1.00" d=" M 114.96 167.84 C 113.56 167.25 113.63 166.67 115.16 166.08 C 115.11 166.52 115.01 167.40 114.96 167.84 Z" />
</g>
<g id="#dedbddff">
<path fill="#dedbdd" opacity="1.00" d=" M 5.08 167.39 L 5.78 167.05 C 6.19 167.45 7.01 168.25 7.42 168.65 C 7.02 169.28 6.22 170.53 5.81 171.16 C 5.12 170.02 4.82 168.70 5.08 167.39 Z" />
</g>
<g id="#878585ff">
<path fill="#878585" opacity="1.00" d=" M 107.67 170.54 C 107.96 170.27 108.54 169.74 108.82 169.47 C 108.89 169.88 109.01 170.71 109.07 171.12 L 108.25 171.15 L 107.67 170.54 Z" />
</g>
<g id="#78837fff">
<path fill="#78837f" opacity="1.00" d=" M 112.17 169.46 C 112.46 169.71 113.04 170.23 113.34 170.49 L 112.87 171.19 L 112.03 171.14 C 112.06 170.72 112.14 169.88 112.17 169.46 Z" />
</g>
<g id="#f4f3f4ff">
<path fill="#f4f3f4" opacity="1.00" d=" M 32.88 169.94 C 35.16 170.41 37.48 170.17 39.74 169.71 C 39.16 172.34 40.27 176.20 37.13 177.43 C 35.85 177.86 35.18 178.72 35.12 179.98 C 34.11 179.64 33.10 179.30 32.09 178.96 C 32.40 178.66 33.03 178.07 33.35 177.77 C 33.38 176.35 33.42 174.93 33.53 173.52 C 33.58 173.15 33.67 172.42 33.72 172.06 C 33.51 171.53 33.09 170.47 32.88 169.94 Z" />
</g>
<g id="#eff3f4ff">
<path fill="#eff3f4" opacity="1.00" d=" M 41.73 169.29 C 42.38 169.99 43.03 170.69 43.66 171.40 C 43.12 172.46 42.58 173.53 42.04 174.59 C 42.45 174.45 43.26 174.17 43.67 174.03 C 44.20 174.35 45.28 175.00 45.81 175.32 C 46.91 175.97 48.06 176.54 49.24 177.04 C 51.57 177.61 53.93 178.09 56.28 178.56 C 51.37 178.65 46.46 178.86 41.55 178.71 C 41.26 176.88 40.88 175.07 40.72 173.23 C 40.97 172.25 41.48 170.28 41.73 169.29 Z" />
<path fill="#eff3f4" opacity="1.00" d=" M 92.63 172.43 C 93.29 172.07 94.61 171.33 95.27 170.96 C 95.98 172.70 93.70 174.10 92.63 172.43 Z" />
</g>
<g id="#e9eaeaff">
<path fill="#e9eaea" opacity="1.00" d=" M 101.21 171.71 C 100.90 170.35 101.56 169.81 103.20 170.10 C 103.46 170.36 103.97 170.88 104.22 171.14 C 103.35 172.31 102.35 172.50 101.21 171.71 Z" />
</g>
<g id="#4299e1ff">
<path fill="#4299e1" opacity="1.00" d=" M 120.03 171.28 L 120.85 171.16 C 121.06 171.30 121.49 171.58 121.70 171.72 C 121.66 172.23 121.59 173.25 121.55 173.76 L 120.79 174.06 C 120.19 173.21 119.94 172.28 120.03 171.28 Z" />
</g>
<g id="#b0f4e6ff">
<path fill="#b0f4e6" opacity="1.00" d=" M 120.85 171.16 L 121.56 171.07 L 121.70 171.72 C 121.49 171.58 121.06 171.30 120.85 171.16 Z" />
</g>
<g id="#59b8f3ff">
<path fill="#59b8f3" opacity="1.00" d=" M 123.93 171.07 C 126.62 169.74 126.61 173.97 123.90 172.76 C 123.91 172.33 123.92 171.49 123.93 171.07 Z" />
</g>
<g id="#e8e8e9ff">
<path fill="#e8e8e9" opacity="1.00" d=" M 28.00 175.12 C 29.48 174.74 30.95 174.30 32.41 173.87 C 31.74 175.64 31.16 177.43 30.58 179.23 C 23.96 179.42 17.34 179.29 10.72 179.35 C 11.02 178.67 11.61 177.32 11.90 176.64 C 13.73 176.75 15.56 176.78 17.39 176.86 C 21.58 178.26 26.01 178.19 30.37 178.03 C 29.58 177.05 28.79 176.09 28.00 175.12 Z" />
</g>
<g id="#a6b5c5ff">
<path fill="#a6b5c5" opacity="1.00" d=" M 107.30 173.26 C 111.24 173.38 116.02 173.01 118.13 177.12 C 114.28 178.67 110.12 178.10 106.11 177.67 C 106.51 176.20 106.90 174.73 107.30 173.26 Z" />
</g>
<g id="#bebebfff">
<path fill="#bebebf" opacity="1.00" d=" M 17.39 176.86 C 20.94 176.35 24.52 175.97 28.00 175.12 C 28.79 176.09 29.58 177.05 30.37 178.03 C 26.01 178.19 21.58 178.26 17.39 176.86 Z" />
</g>
<g id="#afb2b9ff">
<path fill="#afb2b9" opacity="1.00" d=" M 80.12 175.46 C 81.48 175.62 81.75 176.31 80.91 177.55 C 79.55 177.39 79.29 176.69 80.12 175.46 Z" />
</g>
<g id="#8ba5bbff">
<path fill="#8ba5bb" opacity="1.00" d=" M 85.05 177.14 C 87.86 173.66 93.47 174.81 96.34 177.67 C 92.58 178.14 88.71 178.27 85.05 177.14 Z" />
</g>
<g id="#9ea3a8ff">
<path fill="#9ea3a8" opacity="1.00" d=" M 130.02 174.50 C 132.09 175.85 133.97 177.47 135.26 179.60 C 133.59 180.01 131.93 180.59 130.20 180.62 C 128.33 180.64 127.33 178.84 126.12 177.72 L 125.67 177.24 C 127.07 177.14 128.47 177.02 129.86 176.87 C 129.90 176.28 129.98 175.09 130.02 174.50 Z" />
</g>
<g id="#0e69beff">
<path fill="#0e69be" opacity="1.00" d=" M 49.24 177.04 C 50.43 176.65 51.63 176.29 52.83 175.95 C 53.47 175.91 54.73 175.83 55.36 175.79 C 58.85 175.75 62.37 175.90 65.77 176.76 C 60.30 177.63 54.75 177.13 49.24 177.04 Z" />
</g>
<g id="#8ab2d5ff">
<path fill="#8ab2d5" opacity="1.00" d=" M 65.77 176.76 C 66.44 176.58 67.10 176.39 67.76 176.20 C 68.70 176.08 70.57 175.84 71.50 175.72 C 71.17 176.16 70.52 177.04 70.19 177.48 C 67.01 177.90 63.80 178.06 60.59 178.18 L 60.01 178.06 C 58.85 177.56 57.83 177.76 56.94 178.67 L 56.28 178.56 C 53.93 178.09 51.57 177.61 49.24 177.04 C 54.75 177.13 60.30 177.63 65.77 176.76 Z" />
</g>
<g id="#d9e2e8ff">
<path fill="#d9e2e8" opacity="1.00" d=" M 56.94 178.67 C 57.83 177.76 58.85 177.56 60.01 178.06 C 59.35 179.37 58.32 179.57 56.94 178.67 Z" />
</g>
<g id="#f3f3f3ff">
<path fill="#f3f3f3" opacity="1.00" d=" M 3.02 179.54 C 6.24 179.48 9.47 179.56 12.66 179.97 C 10.77 182.92 7.06 182.78 4.06 183.66 C 1.86 183.86 3.30 180.76 3.02 179.54 Z" />
</g>
<g id="#d1d7ddff">
<path fill="#d1d7dd" opacity="1.00" d=" M 40.86 179.76 C 43.23 180.13 46.72 178.66 48.27 181.01 C 46.95 183.90 43.70 184.04 40.96 184.17 C 40.92 182.70 40.89 181.23 40.86 179.76 Z" />
</g>
<g id="#cdd4d9ff">
<path fill="#cdd4d9" opacity="1.00" d=" M 71.78 181.91 C 71.79 179.42 74.85 180.20 76.45 179.56 C 77.07 182.87 74.00 182.63 71.78 181.91 Z" />
</g>
<g id="#d7dfe7ff">
<path fill="#d7dfe7" opacity="1.00" d=" M 101.34 179.95 C 104.58 180.18 108.85 178.83 111.22 181.74 C 108.17 182.13 105.06 182.49 102.01 181.99 C 101.84 181.48 101.50 180.46 101.34 179.95 Z" />
</g>
<g id="#dcdfe2ff">
<path fill="#dcdfe2" opacity="1.00" d=" M 116.08 181.58 C 118.84 180.84 121.59 180.11 124.43 179.72 C 124.02 180.84 123.61 181.97 123.20 183.09 C 117.40 182.91 111.77 184.29 106.25 185.89 C 104.59 185.33 100.84 185.66 101.71 182.95 C 106.50 182.48 111.40 182.86 116.08 181.58 Z" />
</g>
<g id="#e8ebeeff">
<path fill="#e8ebee" opacity="1.00" d=" M 77.38 183.32 C 78.52 182.44 80.35 182.41 81.56 183.17 C 81.23 184.45 77.55 184.83 77.38 183.32 Z" />
</g>
</svg>
