<?xml version="1.0" encoding="UTF-8" ?>
<!DOCTYPE svg PUBLIC "-//W3C//DTD SVG 1.1//EN" "http://www.w3.org/Graphics/SVG/1.1/DTD/svg11.dtd">
<svg width="417pt" height="242pt" viewBox="0 0 417 242" version="1.1" xmlns="http://www.w3.org/2000/svg">
<g id="#f4f4f4ff">
<path fill="#f4f4f4" opacity="1.00" d=" M 37.15 121.92 C 36.36 119.95 38.04 118.56 39.36 117.44 L 41.23 117.71 C 40.10 118.74 38.95 119.76 37.80 120.78 C 38.65 120.60 40.36 120.26 41.21 120.08 C 40.31 122.51 38.96 123.13 37.15 121.92 Z" />
<path fill="#f4f4f4" opacity="1.00" d=" M 53.72 143.08 C 54.82 142.64 55.94 142.21 57.05 141.80 C 56.67 142.20 55.92 142.99 55.54 143.38 C 56.01 144.22 56.48 145.07 56.93 145.93 C 55.30 145.67 54.18 144.66 53.72 143.08 Z" />
</g>
<g id="#140b08ff">
<path fill="#140b08" opacity="1.00" d=" M 43.64 70.21 C 50.46 70.31 57.28 69.98 64.10 70.24 C 69.60 70.35 74.84 73.74 77.27 78.66 C 74.73 79.29 72.10 80.05 69.47 79.51 L 68.95 79.16 C 69.47 79.10 70.52 78.99 71.05 78.94 C 71.58 78.69 72.65 78.18 73.19 77.93 C 73.66 77.42 74.61 76.40 75.09 75.89 C 70.90 76.01 66.71 76.21 62.52 76.01 C 56.99 75.91 51.45 76.23 45.92 76.17 C 44.30 75.99 42.69 75.83 41.07 75.67 C 41.29 73.49 39.84 69.93 43.23 70.03 C 43.27 71.78 43.37 73.54 43.51 75.29 C 43.63 73.60 43.63 71.90 43.64 70.21 Z" />
<path fill="#140b08" opacity="1.00" d=" M 5.90 156.77 C 6.50 155.89 7.12 155.03 7.74 154.17 C 9.06 155.79 10.91 156.74 12.92 157.25 C 11.02 157.65 9.22 158.39 7.48 159.22 C 7.34 159.16 7.07 159.04 6.93 158.98 C 8.13 158.35 8.49 156.89 7.86 155.74 C 7.37 156.38 6.39 157.65 5.90 158.29 L 5.29 157.73 C 5.44 157.49 5.75 157.01 5.90 156.77 Z" />
<path fill="#140b08" opacity="1.00" d=" M 15.83 157.14 C 15.05 158.62 14.27 160.10 13.57 161.63 C 13.03 161.24 12.49 160.84 11.96 160.44 C 13.24 159.33 14.53 158.22 15.83 157.14 Z" />
<path fill="#140b08" opacity="1.00" d=" M 17.72 168.53 C 19.37 166.35 21.24 164.35 22.96 162.22 L 23.99 162.30 C 22.21 164.66 20.32 167.02 17.72 168.53 Z" />
<path fill="#140b08" opacity="1.00" d=" M 27.03 163.02 C 27.28 162.85 27.77 162.50 28.01 162.32 C 28.38 162.47 29.11 162.77 29.47 162.91 C 27.67 163.09 26.40 164.49 25.85 166.12 C 24.85 166.72 23.83 167.27 22.79 167.81 C 23.95 166.01 25.42 164.43 27.03 163.02 Z" />
<path fill="#140b08" opacity="1.00" d=" M 7.00 168.19 C 7.94 165.69 10.42 164.08 12.79 163.09 C 14.09 163.84 15.38 164.62 16.89 164.85 C 15.55 165.60 14.18 165.30 12.83 164.78 C 11.47 164.21 10.54 165.80 9.61 166.50 C 8.78 167.13 7.91 167.69 7.00 168.19 Z" />
<path fill="#140b08" opacity="1.00" d=" M 21.41 172.80 C 20.69 171.56 22.58 169.72 23.82 170.18 C 24.24 171.41 22.77 173.43 21.41 172.80 Z" />
</g>
<g id="#666a72ff">
<path fill="#666a72" opacity="1.00" d=" M 4.59 74.87 L 6.39 74.71 C 5.64 78.90 5.67 83.14 6.44 87.32 C 9.03 87.99 11.68 87.78 14.27 87.28 C 14.60 87.30 15.25 87.35 15.58 87.37 C 15.70 87.74 15.93 88.48 16.04 88.86 L 14.95 89.07 C 14.00 89.23 13.05 89.41 12.11 89.60 L 11.58 89.76 C 9.91 88.04 8.35 90.03 6.86 90.88 C 5.36 91.42 5.64 93.37 6.95 93.95 C 7.28 94.29 7.94 94.96 8.27 95.30 C 7.71 95.31 6.61 95.33 6.05 95.34 C 6.46 95.75 7.28 96.57 7.69 96.98 C 7.11 97.15 5.94 97.49 5.35 97.66 C 5.03 94.73 4.93 91.78 5.03 88.83 C 4.94 88.38 4.77 87.48 4.68 87.02 L 4.61 86.34 C 4.64 82.52 4.55 78.70 4.59 74.87 Z" />
</g>
<g id="#1b1d1eff">
<path fill="#1b1d1e" opacity="1.00" d=" M 6.39 74.71 C 9.11 74.53 11.84 74.65 14.55 74.78 C 14.50 78.42 14.51 82.06 14.40 85.70 C 12.26 86.07 10.10 86.35 7.94 86.64 C 10.05 86.85 12.16 87.08 14.27 87.28 C 11.68 87.78 9.03 87.99 6.44 87.32 C 5.67 83.14 5.64 78.90 6.39 74.71 M 9.11 79.10 L 9.03 79.88 C 7.56 79.32 5.94 81.77 7.87 82.28 C 8.99 82.65 11.46 81.55 10.58 80.19 L 10.69 79.37 C 10.29 79.30 9.50 79.17 9.11 79.10 Z" />
</g>
<g id="#151517ff">
<path fill="#151517" opacity="1.00" d=" M 15.16 74.64 C 16.35 75.07 19.01 74.88 18.68 76.91 C 19.18 100.42 18.61 123.93 18.72 147.45 C 18.02 147.48 16.61 147.55 15.91 147.58 C 16.18 143.81 16.32 140.03 15.96 136.27 C 16.61 135.50 17.91 133.97 18.56 133.21 C 17.76 133.26 16.16 133.35 15.36 133.40 C 17.41 129.34 20.07 124.14 17.11 119.86 C 15.17 117.87 17.62 115.38 17.20 113.04 C 16.77 112.62 15.91 111.77 15.48 111.35 C 15.78 110.97 16.38 110.22 16.69 109.85 C 16.77 106.45 15.55 103.10 15.87 99.66 C 16.36 96.08 16.45 92.45 16.04 88.86 C 15.93 88.48 15.70 87.74 15.58 87.37 C 15.25 87.35 14.60 87.30 14.27 87.28 C 12.16 87.08 10.05 86.85 7.94 86.64 C 10.10 86.35 12.26 86.07 14.40 85.70 C 14.61 85.65 15.03 85.57 15.24 85.52 C 15.25 81.89 15.11 78.27 15.16 74.64 Z" />
</g>
<g id="#3e454fff">
<path fill="#3e454f" opacity="1.00" d=" M 45.92 76.17 C 51.45 76.23 56.99 75.91 62.52 76.01 L 62.64 77.12 C 61.46 76.37 60.34 76.39 59.28 77.16 C 59.37 78.82 61.72 77.89 62.72 77.70 C 63.35 77.90 64.61 78.30 65.24 78.50 C 64.63 79.43 64.04 80.38 63.34 81.24 C 62.17 81.36 60.98 81.26 59.81 81.25 C 58.88 81.58 58.05 82.10 57.34 82.79 C 55.88 82.57 54.43 82.32 52.96 82.13 C 53.91 81.77 54.85 81.40 55.78 81.01 C 58.17 80.93 59.06 77.95 56.13 77.99 L 55.64 77.43 L 54.88 76.55 C 53.41 77.31 51.98 78.15 50.52 78.94 C 50.20 78.84 49.55 78.63 49.22 78.53 C 49.05 78.25 48.70 77.68 48.52 77.40 C 47.67 76.96 46.80 76.55 45.92 76.17 Z" />
</g>
<g id="#8b8b8eff">
<path fill="#8b8b8e" opacity="1.00" d=" M 62.52 76.01 C 66.71 76.21 70.90 76.01 75.09 75.89 C 74.61 76.40 73.66 77.42 73.19 77.93 C 72.66 76.12 70.33 77.43 71.05 78.94 C 70.52 78.99 69.47 79.10 68.95 79.16 C 68.14 78.84 67.35 78.49 66.57 78.10 C 66.51 78.62 66.39 79.67 66.33 80.19 C 64.94 82.56 62.44 83.37 59.81 82.82 C 59.81 82.43 59.81 81.65 59.81 81.25 C 60.98 81.26 62.17 81.36 63.34 81.24 C 64.04 80.38 64.63 79.43 65.24 78.50 C 64.61 78.30 63.35 77.90 62.72 77.70 L 62.64 77.12 L 62.52 76.01 Z" />
</g>
<g id="#e3e3e3ff">
<path fill="#e3e3e3" opacity="1.00" d=" M 50.52 78.94 C 51.98 78.15 53.41 77.31 54.88 76.55 L 55.64 77.43 C 55.14 78.04 54.14 79.27 53.64 79.88 C 52.60 79.57 51.56 79.26 50.52 78.94 Z" />
<path fill="#e3e3e3" opacity="1.00" d=" M 91.80 79.64 C 92.56 84.16 92.84 88.88 91.32 93.28 C 94.20 95.18 97.04 97.14 99.80 99.21 C 99.42 99.53 98.66 100.15 98.28 100.47 C 99.37 101.05 100.46 101.64 101.54 102.26 C 101.62 102.86 101.77 104.06 101.85 104.66 C 101.07 104.53 99.50 104.28 98.72 104.15 C 95.81 103.63 92.87 103.38 89.96 102.96 C 83.72 105.54 77.13 103.19 70.68 103.42 C 70.68 102.28 70.69 101.14 70.71 100.01 C 69.14 100.36 67.58 100.71 66.02 101.08 C 62.07 101.36 57.96 101.56 54.23 100.00 C 55.03 98.90 55.85 97.83 56.68 96.77 C 56.72 96.14 56.80 94.88 56.84 94.24 C 60.66 95.78 64.93 95.66 68.70 94.04 C 69.07 95.83 69.74 97.53 70.52 99.18 C 73.64 96.83 78.54 95.86 79.47 91.51 C 83.10 91.74 86.76 91.80 90.38 91.32 C 90.58 87.43 89.28 83.02 91.80 79.64 M 64.02 97.17 C 63.51 98.79 64.08 99.35 65.71 98.87 C 66.21 97.26 65.65 96.69 64.02 97.17 Z" />
<path fill="#e3e3e3" opacity="1.00" d=" M 67.51 139.58 C 68.75 139.56 69.99 139.52 71.23 139.49 C 71.31 139.67 71.48 140.03 71.56 140.21 C 72.26 141.85 72.62 143.61 72.91 145.37 C 70.30 144.11 72.35 139.57 68.19 140.23 C 68.74 141.80 69.37 143.34 70.01 144.88 C 69.58 144.88 68.72 144.87 68.29 144.87 C 68.19 144.16 68.00 142.75 67.90 142.04 C 67.55 142.88 66.85 144.55 66.51 145.39 C 65.27 145.15 64.03 144.90 62.79 144.66 C 63.27 143.80 63.16 142.37 64.32 142.09 C 64.64 142.60 65.29 143.61 65.61 144.11 C 66.53 142.73 67.41 141.29 67.51 139.58 Z" />
<path fill="#e3e3e3" opacity="1.00" d=" M 58.07 142.20 C 59.38 142.27 60.69 142.32 62.01 142.36 C 62.11 143.22 62.31 144.93 62.41 145.79 C 60.78 145.46 60.04 144.44 60.20 142.73 L 59.12 142.77 C 59.12 143.38 59.11 144.62 59.11 145.23 L 58.09 145.23 C 58.09 144.47 58.08 142.96 58.07 142.20 Z" />
</g>
<g id="#bbb8b9ff">
<path fill="#bbb8b9" opacity="1.00" d=" M 59.28 77.16 C 60.34 76.39 61.46 76.37 62.64 77.12 L 62.72 77.70 C 61.72 77.89 59.37 78.82 59.28 77.16 Z" />
</g>
<g id="#c3c3c6ff">
<path fill="#c3c3c6" opacity="1.00" d=" M 71.05 78.94 C 70.33 77.43 72.66 76.12 73.19 77.93 C 72.65 78.18 71.58 78.69 71.05 78.94 Z" />
</g>
<g id="#171719ff">
<path fill="#171719" opacity="1.00" d=" M 53.64 79.88 C 54.14 79.27 55.14 78.04 55.64 77.43 L 56.13 77.99 C 56.04 78.75 55.87 80.26 55.78 81.01 C 54.85 81.40 53.91 81.77 52.96 82.13 C 52.59 82.10 51.83 82.05 51.45 82.03 C 49.65 85.64 47.30 88.95 44.55 91.90 C 44.68 95.44 45.00 99.02 44.43 102.55 C 40.73 102.73 37.02 102.46 33.32 102.57 C 32.86 98.35 31.57 93.30 34.53 89.72 C 34.04 93.72 33.42 97.77 34.16 101.79 C 36.01 98.18 34.95 93.99 35.08 90.12 C 38.28 90.03 41.49 90.25 44.67 90.64 C 47.04 86.97 48.55 82.84 49.22 78.53 C 49.55 78.63 50.20 78.84 50.52 78.94 C 51.56 79.26 52.60 79.57 53.64 79.88 Z" />
</g>
<g id="#c4c2c3ff">
<path fill="#c4c2c3" opacity="1.00" d=" M 56.13 77.99 C 59.06 77.95 58.17 80.93 55.78 81.01 C 55.87 80.26 56.04 78.75 56.13 77.99 Z" />
</g>
<g id="#9da84cff">
<path fill="#9da84c" opacity="1.00" d=" M 9.11 79.10 C 9.50 79.17 10.29 79.30 10.69 79.37 L 10.58 80.19 C 10.19 80.11 9.42 79.95 9.03 79.88 L 9.11 79.10 Z" />
</g>
<g id="#f49203ff">
<path fill="#f49203" opacity="1.00" d=" M 79.31 79.07 C 83.48 78.97 87.65 79.32 91.80 79.64 C 89.28 83.02 90.58 87.43 90.38 91.32 C 86.76 91.80 83.10 91.74 79.47 91.51 C 79.63 87.36 79.49 83.21 79.31 79.07 Z" />
<path fill="#f49203" opacity="1.00" d=" M 90.77 150.76 C 91.09 150.20 91.72 149.07 92.04 148.51 L 92.81 148.54 C 92.79 149.97 92.11 150.71 90.77 150.76 Z" />
</g>
<g id="#b0574fff">
<path fill="#b0574f" opacity="1.00" d=" M 7.87 82.28 C 5.94 81.77 7.56 79.32 9.03 79.88 C 9.42 79.95 10.19 80.11 10.58 80.19 C 11.46 81.55 8.99 82.65 7.87 82.28 Z" />
</g>
<g id="#1e1915ff">
<path fill="#1e1915" opacity="1.00" d=" M 66.33 80.19 C 66.82 80.03 67.81 79.71 68.31 79.55 C 68.08 81.28 67.05 82.99 67.97 84.72 C 68.91 87.73 68.51 90.93 68.70 94.04 C 64.93 95.66 60.66 95.78 56.84 94.24 C 57.14 90.40 56.02 86.29 58.12 82.78 C 58.54 82.79 59.38 82.81 59.81 82.82 C 62.44 83.37 64.94 82.56 66.33 80.19 Z" />
</g>
<g id="#e1e3eaff">
<path fill="#e1e3ea" opacity="1.00" d=" M 3.26 85.79 C 3.60 85.93 4.28 86.20 4.61 86.34 L 4.68 87.02 C 4.77 87.48 4.94 88.38 5.03 88.83 C 4.93 91.78 5.03 94.73 5.35 97.66 C 5.94 97.49 7.11 97.15 7.69 96.98 C 7.94 97.09 8.44 97.31 8.68 97.43 C 9.06 97.30 9.82 97.05 10.20 96.92 C 10.28 97.49 10.45 98.64 10.53 99.21 C 8.72 99.36 6.91 99.51 5.10 99.70 C 5.19 101.97 5.24 104.24 5.27 106.52 C 8.69 106.65 12.13 106.68 15.56 106.61 C 15.54 104.29 15.54 101.96 15.87 99.66 C 15.55 103.10 16.77 106.45 16.69 109.85 C 16.38 110.22 15.78 110.97 15.48 111.35 L 15.15 111.02 C 14.93 110.11 14.68 109.22 14.39 108.34 C 13.54 109.13 13.06 110.42 11.93 110.85 C 10.86 110.53 11.57 109.08 11.41 108.28 C 10.36 108.21 9.31 108.18 8.26 108.19 C 7.49 108.13 5.93 108.01 5.15 107.95 C 5.09 109.61 5.03 111.28 4.97 112.95 C 9.05 112.96 13.12 112.99 17.20 113.04 C 17.62 115.38 15.17 117.87 17.11 119.86 C 20.07 124.14 17.41 129.34 15.36 133.40 C 16.16 133.35 17.76 133.26 18.56 133.21 C 17.91 133.97 16.61 135.50 15.96 136.27 C 16.32 140.03 16.18 143.81 15.91 147.58 C 16.61 148.90 17.51 150.10 18.49 151.23 C 17.87 151.64 17.26 152.06 16.64 152.48 C 15.91 152.46 15.18 152.45 14.45 152.43 C 14.18 152.43 13.64 152.41 13.36 152.40 C 9.95 151.68 6.46 151.99 3.00 151.78 C 3.15 129.78 2.78 107.78 3.26 85.79 M 5.47 114.36 C 5.45 115.75 7.92 115.69 8.67 114.89 C 8.74 113.44 6.23 113.59 5.47 114.36 M 10.37 114.47 C 10.71 115.88 14.39 115.85 14.65 114.36 C 13.39 113.64 11.61 113.77 10.37 114.47 M 4.79 117.17 C 5.10 117.65 5.71 118.63 6.01 119.12 C 9.11 119.52 12.26 119.54 15.38 119.45 C 15.47 118.81 15.65 117.54 15.74 116.91 C 12.09 116.90 8.44 116.91 4.79 117.17 M 5.36 121.84 C 4.85 127.49 4.97 133.18 5.11 138.84 C 6.09 139.21 7.06 139.59 8.03 139.97 C 8.12 140.40 8.31 141.27 8.40 141.70 C 7.25 142.05 6.10 142.41 4.96 142.77 C 4.98 144.63 5.00 146.49 5.00 148.36 C 8.44 148.42 11.89 148.34 15.33 148.22 C 15.47 145.97 15.66 143.64 14.60 141.56 C 14.70 141.04 14.88 140.01 14.98 139.49 C 13.30 139.61 11.98 140.60 10.76 141.66 C 11.34 141.94 12.50 142.50 13.07 142.78 C 12.38 142.72 10.99 142.61 10.30 142.55 C 10.39 141.20 10.78 139.97 12.37 139.70 L 11.83 139.07 C 12.94 139.26 15.41 138.66 15.03 137.20 C 13.72 136.81 12.23 137.55 11.24 138.38 C 10.30 138.20 9.37 138.03 8.44 137.86 C 10.74 136.30 14.21 136.06 15.64 133.52 C 13.43 133.43 11.09 133.92 9.02 132.92 C 8.61 131.25 6.72 130.60 5.58 129.48 C 6.71 129.08 7.83 128.67 8.94 128.25 C 10.51 127.41 9.73 125.26 10.01 123.85 C 9.59 123.93 8.75 124.09 8.33 124.17 C 7.36 123.37 6.37 122.59 5.36 121.84 M 10.04 131.26 C 11.93 131.33 13.83 131.38 15.72 131.39 C 15.26 128.42 11.01 128.95 10.04 131.26 M 12.30 132.14 C 12.45 135.35 15.45 130.67 12.30 132.14 M 7.40 150.17 C 7.98 150.69 7.98 150.69 7.40 150.17 Z" />
<path fill="#e1e3ea" opacity="1.00" d=" M 11.24 97.38 C 12.30 96.32 15.15 97.39 13.92 99.02 C 12.93 100.20 10.13 98.84 11.24 97.38 Z" />
</g>
<g id="#ddedd7ff">
<path fill="#ddedd7" opacity="1.00" d=" M 6.86 90.88 C 8.35 90.03 9.91 88.04 11.58 89.76 C 10.66 90.67 9.77 91.61 8.88 92.55 C 9.54 92.35 10.86 91.95 11.52 91.75 C 11.13 92.92 10.72 94.09 10.30 95.25 C 9.79 95.27 8.77 95.29 8.27 95.30 C 7.94 94.96 7.28 94.29 6.95 93.95 C 6.93 93.18 6.88 91.65 6.86 90.88 Z" />
</g>
<g id="#18171eff">
<path fill="#18171e" opacity="1.00" d=" M 12.11 89.60 C 13.05 89.41 14.00 89.23 14.95 89.07 C 14.76 91.29 14.70 93.52 14.61 95.75 C 13.13 96.09 11.63 96.41 10.20 96.92 C 9.82 97.05 9.06 97.30 8.68 97.43 C 8.44 97.31 7.94 97.09 7.69 96.98 C 7.28 96.57 6.46 95.75 6.05 95.34 C 6.61 95.33 7.71 95.31 8.27 95.30 C 8.77 95.29 9.79 95.27 10.30 95.25 C 12.81 94.33 12.80 91.77 12.11 89.60 Z" />
<path fill="#18171e" opacity="1.00" d=" M 35.18 126.82 C 37.18 126.57 39.22 126.29 41.22 126.69 C 42.92 127.91 42.06 130.38 42.43 132.14 C 41.84 132.44 40.65 133.04 40.06 133.34 L 38.85 132.33 C 38.77 133.14 38.62 134.76 38.55 135.57 C 37.73 134.32 36.95 133.05 36.16 131.78 C 35.60 133.03 35.04 134.27 34.47 135.51 C 34.29 134.81 33.94 133.40 33.77 132.69 L 32.28 132.63 C 32.84 131.52 33.40 130.42 33.96 129.31 C 34.26 128.68 34.87 127.44 35.18 126.82 Z" />
</g>
<g id="#3f4359ff">
<path fill="#3f4359" opacity="1.00" d=" M 14.95 89.07 L 16.04 88.86 C 16.45 92.45 16.36 96.08 15.87 99.66 C 15.54 101.96 15.54 104.29 15.56 106.61 C 12.13 106.68 8.69 106.65 5.27 106.52 C 5.24 104.24 5.19 101.97 5.10 99.70 C 6.91 99.51 8.72 99.36 10.53 99.21 C 10.45 98.64 10.28 97.49 10.20 96.92 C 11.63 96.41 13.13 96.09 14.61 95.75 C 14.70 93.52 14.76 91.29 14.95 89.07 M 11.24 97.38 C 10.13 98.84 12.93 100.20 13.92 99.02 C 15.15 97.39 12.30 96.32 11.24 97.38 Z" />
<path fill="#3f4359" opacity="1.00" d=" M 98.05 156.54 C 100.30 155.14 103.08 155.29 105.55 155.92 C 105.92 156.09 106.67 156.43 107.05 156.60 C 109.26 156.28 111.44 155.76 113.66 155.49 L 113.74 156.07 C 110.82 156.43 107.91 156.93 104.98 157.20 C 103.37 156.61 101.66 156.66 100.02 157.03 L 98.05 156.54 Z" />
</g>
<g id="#6daa5aff">
<path fill="#6daa5a" opacity="1.00" d=" M 11.58 89.76 L 12.11 89.60 C 12.80 91.77 12.81 94.33 10.30 95.25 C 10.72 94.09 11.13 92.92 11.52 91.75 C 10.86 91.95 9.54 92.35 8.88 92.55 C 9.77 91.61 10.66 90.67 11.58 89.76 Z" />
<path fill="#6daa5a" opacity="1.00" d=" M 95.61 167.98 C 97.92 168.06 100.42 167.20 102.63 167.98 C 102.85 168.65 103.28 170.01 103.50 170.69 C 102.61 170.90 100.82 171.33 99.93 171.54 C 101.61 171.69 103.28 171.88 104.95 172.10 C 102.16 174.35 98.36 173.05 95.08 173.40 C 95.07 172.61 95.04 171.03 95.03 170.24 C 97.38 170.13 100.99 171.68 102.39 169.11 C 100.23 168.27 97.86 168.41 95.61 167.98 Z" />
</g>
<g id="#709a60ff">
<path fill="#709a60" opacity="1.00" d=" M 6.95 93.95 C 5.64 93.37 5.36 91.42 6.86 90.88 C 6.88 91.65 6.93 93.18 6.95 93.95 Z" />
</g>
<g id="#141311ff">
<path fill="#141311" opacity="1.00" d=" M 101.74 92.95 C 102.87 96.73 102.65 100.73 102.44 104.63 C 103.60 104.66 104.77 104.70 105.94 104.74 C 105.81 104.42 105.57 103.76 105.45 103.43 C 106.55 104.09 107.68 104.71 108.81 105.33 C 108.79 106.02 108.74 107.40 108.72 108.09 C 108.63 109.88 108.51 111.67 108.40 113.46 C 106.22 113.57 104.04 113.61 101.87 113.59 C 101.92 111.28 102.00 108.96 101.81 106.64 L 100.69 106.00 C 100.40 105.82 99.81 105.45 99.52 105.27 L 99.19 104.82 L 98.72 104.15 C 99.50 104.28 101.07 104.53 101.85 104.66 C 101.77 104.06 101.62 102.86 101.54 102.26 C 101.58 99.15 101.62 96.05 101.74 92.95 Z" />
<path fill="#141311" opacity="1.00" d=" M 47.54 155.75 C 47.63 154.08 47.58 152.41 47.73 150.75 C 48.38 150.76 49.67 150.80 50.31 150.81 C 50.21 151.67 50.00 153.38 49.90 154.24 C 49.81 154.86 49.62 156.11 49.53 156.73 C 49.03 156.49 48.04 155.99 47.54 155.75 Z" />
</g>
<g id="#444549ff">
<path fill="#444549" opacity="1.00" d=" M 105.45 103.43 C 103.80 100.28 104.83 96.72 105.72 93.52 C 106.33 93.50 107.55 93.45 108.16 93.42 C 108.16 96.77 108.32 100.11 108.66 103.43 C 109.18 103.83 110.21 104.64 110.72 105.04 C 110.05 106.06 109.38 107.08 108.72 108.09 C 108.74 107.40 108.79 106.02 108.81 105.33 C 107.68 104.71 106.55 104.09 105.45 103.43 Z" />
</g>
<g id="#a7a9a6ff">
<path fill="#a7a9a6" opacity="1.00" d=" M 64.02 97.17 C 65.65 96.69 66.21 97.26 65.71 98.87 C 64.08 99.35 63.51 98.79 64.02 97.17 Z" />
</g>
<g id="#caf4b5ff">
<path fill="#caf4b5" opacity="1.00" d=" M 51.97 103.19 C 52.72 102.12 53.46 101.05 54.23 100.00 C 57.96 101.56 62.07 101.36 66.02 101.08 C 65.78 101.17 65.32 101.34 65.08 101.43 C 64.62 101.64 63.70 102.05 63.24 102.26 C 63.12 108.89 64.22 115.45 64.70 122.05 C 63.65 122.02 62.60 122.03 61.55 122.06 C 62.41 116.22 60.27 110.72 58.94 105.15 C 59.88 105.69 60.83 106.22 61.77 106.76 C 61.79 105.10 61.82 103.44 61.85 101.79 C 60.56 101.72 59.27 101.68 57.98 101.65 C 57.53 101.75 56.64 101.96 56.19 102.06 L 55.34 102.32 C 54.81 103.13 54.30 103.95 53.80 104.78 C 54.21 106.28 54.61 107.79 55.05 109.28 L 54.27 108.62 C 53.43 106.84 52.69 105.02 51.97 103.19 Z" />
</g>
<g id="#9ef495ff">
<path fill="#9ef495" opacity="1.00" d=" M 66.02 101.08 C 67.58 100.71 69.14 100.36 70.71 100.01 C 70.69 101.14 70.68 102.28 70.68 103.42 L 70.69 104.52 C 70.71 105.38 70.76 107.10 70.79 107.97 C 70.08 105.45 71.13 100.47 67.00 101.51 C 67.57 108.09 68.34 114.77 70.95 120.91 C 73.82 127.12 76.25 133.53 78.37 140.03 C 77.36 138.55 76.29 137.11 75.33 135.60 C 74.10 132.69 72.50 129.96 70.97 127.20 C 70.02 123.88 68.97 120.59 67.65 117.40 C 65.55 112.35 65.89 106.75 65.08 101.43 C 65.32 101.34 65.78 101.17 66.02 101.08 Z" />
<path fill="#9ef495" opacity="1.00" d=" M 56.19 102.06 C 56.64 101.96 57.53 101.75 57.98 101.65 C 58.49 106.43 58.24 111.25 57.91 116.04 C 57.41 121.89 54.06 126.91 51.23 131.88 C 50.18 133.24 48.89 134.50 48.40 136.20 C 46.24 142.92 45.26 149.98 45.59 157.04 C 45.40 158.78 46.26 160.29 47.03 161.78 L 46.96 162.13 C 44.69 163.94 45.84 167.63 45.14 170.24 L 44.71 169.76 C 44.21 169.19 43.22 168.06 42.72 167.49 C 42.32 168.54 41.89 169.59 41.44 170.64 C 42.45 166.47 43.65 162.24 43.23 157.91 C 43.16 156.56 43.10 155.21 43.05 153.87 C 43.10 153.49 43.19 152.74 43.24 152.36 C 43.46 150.60 43.73 148.85 44.03 147.10 C 44.12 146.53 44.31 145.38 44.40 144.81 C 44.81 143.12 44.51 141.37 44.52 139.66 C 39.87 139.47 35.19 139.41 30.62 140.39 C 30.54 139.66 30.39 138.18 30.31 137.44 C 33.71 137.72 37.13 137.77 40.54 137.65 C 40.72 136.70 40.89 135.75 41.04 134.80 C 40.80 134.44 40.31 133.70 40.06 133.34 C 40.65 133.04 41.84 132.44 42.43 132.14 C 42.06 130.38 42.92 127.91 41.22 126.69 C 39.22 126.29 37.18 126.57 35.18 126.82 C 34.79 126.59 34.00 126.13 33.61 125.90 C 33.61 125.49 33.59 124.67 33.59 124.26 C 35.89 124.45 38.21 124.64 40.48 125.11 C 43.71 125.98 42.74 129.54 42.96 132.03 C 43.58 132.01 44.82 131.96 45.44 131.94 C 45.72 132.41 46.28 133.35 46.55 133.82 C 47.86 131.26 49.10 128.64 49.87 125.86 C 53.57 121.10 54.93 114.56 54.27 108.62 L 55.05 109.28 C 55.31 109.50 55.83 109.94 56.10 110.16 C 56.16 107.46 56.11 104.76 56.19 102.06 M 44.10 133.30 C 42.54 136.37 47.28 133.59 44.10 133.30 M 42.10 136.39 C 42.68 136.94 42.68 136.94 42.10 136.39 Z" />
<path fill="#9ef495" opacity="1.00" d=" M 49.39 168.38 C 53.98 167.20 58.67 168.61 63.32 168.05 L 63.82 168.90 C 60.91 169.63 57.88 169.46 54.90 169.47 C 53.36 168.86 51.53 168.35 50.01 169.30 L 49.39 168.38 Z" />
</g>
<g id="#67f342ff">
<path fill="#67f342" opacity="1.00" d=" M 55.34 102.32 L 56.19 102.06 C 56.11 104.76 56.16 107.46 56.10 110.16 C 55.83 109.94 55.31 109.50 55.05 109.28 C 54.61 107.79 54.21 106.28 53.80 104.78 C 54.30 103.95 54.81 103.13 55.34 102.32 Z" />
</g>
<g id="#63f43fff">
<path fill="#63f43f" opacity="1.00" d=" M 57.98 101.65 C 59.27 101.68 60.56 101.72 61.85 101.79 C 61.82 103.44 61.79 105.10 61.77 106.76 C 60.83 106.22 59.88 105.69 58.94 105.15 C 60.27 110.72 62.41 116.22 61.55 122.06 C 61.21 122.24 60.53 122.59 60.19 122.76 C 54.64 126.52 52.46 133.25 50.19 139.22 C 50.63 136.78 50.88 134.32 51.23 131.88 C 54.06 126.91 57.41 121.89 57.91 116.04 C 58.24 111.25 58.49 106.43 57.98 101.65 Z" />
<path fill="#63f43f" opacity="1.00" d=" M 75.33 135.60 C 76.29 137.11 77.36 138.55 78.37 140.03 C 80.61 145.91 80.99 152.52 79.36 158.60 L 79.26 157.78 C 79.20 156.95 79.08 155.31 79.02 154.49 C 78.91 152.95 78.82 151.41 78.69 149.88 C 78.34 145.55 76.75 141.47 75.75 137.28 C 75.64 136.86 75.43 136.02 75.33 135.60 Z" />
</g>
<g id="#58f431ff">
<path fill="#58f431" opacity="1.00" d=" M 63.24 102.26 C 63.70 102.05 64.62 101.64 65.08 101.43 C 65.89 106.75 65.55 112.35 67.65 117.40 C 68.97 120.59 70.02 123.88 70.97 127.20 C 69.48 125.54 67.94 123.86 66.02 122.68 C 65.69 122.52 65.03 122.20 64.70 122.05 C 64.22 115.45 63.12 108.89 63.24 102.26 Z" />
</g>
<g id="#34b317ff">
<path fill="#34b317" opacity="1.00" d=" M 67.00 101.51 C 71.13 100.47 70.08 105.45 70.79 107.97 C 71.00 109.10 71.23 110.24 71.48 111.37 C 72.01 113.73 72.58 116.09 73.34 118.40 C 73.68 119.51 74.04 120.62 74.39 121.73 C 74.58 122.31 74.95 123.47 75.13 124.05 C 75.33 124.43 75.72 125.20 75.92 125.58 L 76.33 126.37 C 76.41 126.52 76.57 126.81 76.64 126.96 C 77.10 127.96 77.54 128.98 77.96 130.00 L 78.04 130.19 C 78.90 132.79 79.73 135.40 80.52 138.02 C 80.97 139.73 81.38 141.45 81.73 143.19 C 81.84 143.96 82.05 145.50 82.15 146.27 C 82.18 147.05 82.24 148.61 82.27 149.39 C 81.45 152.79 81.81 156.30 82.94 159.58 C 82.98 160.73 83.00 161.89 83.01 163.05 C 82.96 163.87 82.87 165.51 82.82 166.33 C 81.35 168.15 81.90 170.68 82.12 172.82 C 80.86 173.75 79.45 174.44 77.90 174.70 C 78.19 173.69 78.44 172.67 78.69 171.65 L 77.18 171.44 C 77.39 170.65 77.81 169.06 78.02 168.27 C 78.12 167.71 78.32 166.59 78.42 166.02 C 78.49 165.47 78.63 164.36 78.70 163.80 C 78.71 163.37 78.75 162.50 78.76 162.06 L 78.72 160.85 C 78.82 160.49 79.01 159.78 79.10 159.43 L 79.36 158.60 C 80.99 152.52 80.61 145.91 78.37 140.03 C 76.25 133.53 73.82 127.12 70.95 120.91 C 68.34 114.77 67.57 108.09 67.00 101.51 Z" />
<path fill="#34b317" opacity="1.00" d=" M 81.31 117.01 C 81.35 116.26 81.48 115.54 81.69 114.84 L 82.56 115.08 C 82.82 115.71 83.34 116.95 83.60 117.57 C 82.90 117.79 81.48 118.22 80.77 118.43 C 80.61 118.33 80.28 118.12 80.12 118.01 C 80.42 117.76 81.01 117.26 81.31 117.01 Z" />
<path fill="#34b317" opacity="1.00" d=" M 36.40 117.77 C 37.19 117.63 37.97 117.51 38.76 117.38 L 39.36 117.44 C 38.04 118.56 36.36 119.95 37.15 121.92 C 38.96 123.13 40.31 122.51 41.21 120.08 C 40.36 120.26 38.65 120.60 37.80 120.78 C 38.95 119.76 40.10 118.74 41.23 117.71 C 41.45 119.17 42.14 120.83 41.25 122.20 C 39.91 123.54 37.94 122.75 36.28 122.75 C 36.32 121.09 36.36 119.43 36.40 117.77 Z" />
<path fill="#34b317" opacity="1.00" d=" M 60.19 122.76 C 60.53 122.59 61.21 122.24 61.55 122.06 C 62.60 122.03 63.65 122.02 64.70 122.05 C 65.03 122.20 65.69 122.52 66.02 122.68 C 65.07 122.61 63.17 122.47 62.23 122.40 C 62.37 123.31 62.67 125.13 62.81 126.04 C 63.57 126.08 65.10 126.16 65.86 126.21 C 65.99 127.52 66.11 128.84 66.22 130.16 C 65.82 130.38 65.01 130.83 64.60 131.06 C 64.70 129.61 64.28 128.06 65.20 126.77 C 64.29 126.91 63.38 127.06 62.48 127.21 C 62.24 127.50 61.77 128.08 61.54 128.37 C 61.58 126.53 61.63 124.69 61.58 122.86 L 60.19 122.76 Z" />
<path fill="#34b317" opacity="1.00" d=" M 49.86 167.12 C 52.90 166.51 56.00 166.50 59.07 166.30 C 59.53 166.26 60.44 166.19 60.90 166.16 C 61.81 166.38 62.72 166.61 63.63 166.86 L 63.32 168.05 C 58.67 168.61 53.98 167.20 49.39 168.38 C 49.18 168.12 48.77 167.60 48.56 167.35 L 49.86 167.12 Z" />
</g>
<g id="#ecbc68ff">
<path fill="#ecbc68" opacity="1.00" d=" M 70.68 103.42 C 77.13 103.19 83.72 105.54 89.96 102.96 C 92.87 103.38 95.81 103.63 98.72 104.15 L 99.19 104.82 C 91.20 104.84 83.21 104.87 75.22 104.90 C 75.54 106.96 75.86 109.01 76.17 111.06 L 75.17 110.89 C 74.95 110.36 74.52 109.29 74.30 108.75 C 74.08 107.47 73.89 106.19 73.71 104.91 C 72.96 104.81 71.44 104.62 70.69 104.52 L 70.68 103.42 Z" />
</g>
<g id="#f498ceff">
<path fill="#f498ce" opacity="1.00" d=" M 28.40 113.70 C 27.85 109.95 28.87 106.25 31.80 103.74 C 36.27 104.60 40.84 104.39 45.29 103.46 L 45.25 104.72 C 41.97 104.62 38.69 104.73 35.43 105.05 C 36.22 107.76 35.30 111.65 37.96 113.34 C 42.45 114.93 42.19 108.93 45.20 107.21 C 45.38 109.26 45.65 111.30 45.91 113.34 C 45.66 113.37 45.18 113.41 44.94 113.43 C 44.41 113.47 43.35 113.55 42.82 113.58 L 42.18 113.63 C 39.01 113.60 35.85 113.52 32.69 113.41 C 32.07 113.40 30.82 113.38 30.20 113.37 C 29.75 113.45 28.85 113.62 28.40 113.70 Z" />
<path fill="#f498ce" opacity="1.00" d=" M 29.53 141.71 C 34.21 141.57 38.90 142.09 43.59 141.83 C 43.49 142.38 43.31 143.49 43.22 144.04 C 38.66 144.00 34.10 144.29 29.54 144.24 C 29.53 143.61 29.53 142.35 29.53 141.71 Z" />
</g>
<g id="#bc2b7eff">
<path fill="#bc2b7e" opacity="1.00" d=" M 45.29 103.46 C 49.15 105.00 49.82 109.41 49.74 113.06 C 48.97 113.12 47.41 113.23 46.64 113.28 L 45.91 113.34 C 45.65 111.30 45.38 109.26 45.20 107.21 C 45.21 106.58 45.24 105.34 45.25 104.72 L 45.29 103.46 Z" />
<path fill="#bc2b7e" opacity="1.00" d=" M 28.42 140.63 C 33.66 141.58 39.00 141.32 44.23 140.45 C 44.29 141.90 44.34 143.35 44.40 144.81 C 44.31 145.38 44.12 146.53 44.03 147.10 C 41.81 147.72 39.50 148.03 37.19 147.88 C 35.84 147.77 34.48 147.67 33.13 147.56 L 32.04 147.47 C 35.58 145.49 39.82 147.18 43.42 145.45 C 38.45 144.73 33.41 144.95 28.41 144.73 C 28.39 143.37 28.39 142.00 28.42 140.63 M 29.53 141.71 C 29.53 142.35 29.53 143.61 29.54 144.24 C 34.10 144.29 38.66 144.00 43.22 144.04 C 43.31 143.49 43.49 142.38 43.59 141.83 C 38.90 142.09 34.21 141.57 29.53 141.71 Z" />
</g>
<g id="#f34db3ff">
<path fill="#f34db3" opacity="1.00" d=" M 35.43 105.05 C 38.69 104.73 41.97 104.62 45.25 104.72 C 45.24 105.34 45.21 106.58 45.20 107.21 C 42.19 108.93 42.45 114.93 37.96 113.34 C 35.30 111.65 36.22 107.76 35.43 105.05 Z" />
</g>
<g id="#c4820fff">
<path fill="#c4820f" opacity="1.00" d=" M 70.69 104.52 C 71.44 104.62 72.96 104.81 73.71 104.91 C 73.89 106.19 74.08 107.47 74.30 108.75 C 73.13 108.49 71.96 108.23 70.79 107.97 C 70.76 107.10 70.71 105.38 70.69 104.52 Z" />
</g>
<g id="#f4a813ff">
<path fill="#f4a813" opacity="1.00" d=" M 75.22 104.90 C 83.21 104.87 91.20 104.84 99.19 104.82 L 99.52 105.27 L 99.50 106.63 C 96.98 106.86 94.46 107.10 91.93 107.37 C 93.66 108.68 95.37 110.02 97.17 111.24 C 90.17 111.28 83.15 111.79 76.17 111.06 C 75.86 109.01 75.54 106.96 75.22 104.90 Z" />
<path fill="#f4a813" opacity="1.00" d=" M 63.63 166.86 C 63.94 166.73 64.57 166.49 64.88 166.37 L 65.01 167.15 C 64.71 167.59 64.12 168.46 63.82 168.90 L 63.32 168.05 L 63.63 166.86 Z" />
</g>
<g id="#989898ff">
<path fill="#989898" opacity="1.00" d=" M 110.72 105.04 C 110.91 107.64 110.79 110.24 110.73 112.84 C 107.50 114.82 103.75 114.13 100.17 114.27 C 97.90 116.25 97.17 119.59 95.65 122.18 C 99.17 122.30 102.72 122.12 106.22 122.58 L 104.93 123.10 C 102.99 122.68 100.99 122.66 99.07 123.16 L 98.14 123.22 C 98.07 129.31 98.56 135.40 98.16 141.49 C 98.74 141.71 99.89 142.15 100.46 142.36 C 99.77 142.58 98.38 143.01 97.69 143.22 L 96.99 143.41 L 96.54 143.52 C 95.91 144.69 95.75 145.91 96.05 147.20 C 95.55 146.22 95.21 145.20 95.02 144.12 L 94.85 143.30 L 94.47 141.59 L 94.43 141.43 C 94.24 140.82 93.85 139.58 93.66 138.97 C 94.44 136.91 94.95 134.77 95.26 132.60 C 91.35 133.26 89.19 137.30 85.32 137.86 C 85.26 137.53 85.15 136.88 85.09 136.55 C 87.54 133.40 90.94 131.28 94.23 129.13 C 94.38 128.71 94.68 127.88 94.83 127.46 C 94.93 126.50 95.03 125.53 95.11 124.56 C 89.47 124.95 83.81 124.79 78.16 124.89 C 78.32 124.02 78.44 123.15 78.56 122.28 C 83.93 123.25 89.34 121.62 94.69 122.58 C 94.73 122.35 94.81 121.89 94.85 121.66 C 95.18 117.80 97.07 114.03 100.76 112.43 C 100.78 110.29 100.79 108.14 100.69 106.00 L 101.81 106.64 C 102.00 108.96 101.92 111.28 101.87 113.59 C 104.04 113.61 106.22 113.57 108.40 113.46 C 108.51 111.67 108.63 109.88 108.72 108.09 C 109.38 107.08 110.05 106.06 110.72 105.04 M 87.33 123.33 C 87.54 124.65 88.28 124.86 89.53 123.96 C 89.31 122.67 88.58 122.46 87.33 123.33 M 96.00 122.76 C 96.32 128.85 96.13 134.96 96.42 141.05 C 96.96 134.98 96.54 128.85 97.27 122.79 L 96.00 122.76 Z" />
</g>
<g id="#1e1f26ff">
<path fill="#1e1f26" opacity="1.00" d=" M 99.52 105.27 C 99.81 105.45 100.40 105.82 100.69 106.00 C 100.79 108.14 100.78 110.29 100.76 112.43 C 97.07 114.03 95.18 117.80 94.85 121.66 C 90.77 120.66 94.66 116.53 95.04 114.04 C 93.72 114.32 92.41 114.63 91.11 115.00 L 89.99 115.32 C 87.53 115.67 84.99 115.71 82.56 115.08 L 81.69 114.84 L 82.20 113.62 C 87.01 112.66 91.93 112.96 96.80 112.78 C 97.18 112.60 97.94 112.24 98.32 112.07 C 98.62 111.93 99.22 111.65 99.52 111.51 C 99.49 109.88 99.48 108.25 99.50 106.63 L 99.52 105.27 Z" />
<path fill="#1e1f26" opacity="1.00" d=" M 98.14 123.22 L 99.07 123.16 C 100.74 124.89 103.21 124.60 104.93 123.10 L 106.22 122.58 C 106.24 123.44 106.26 125.16 106.27 126.02 C 104.35 126.84 100.92 128.48 102.95 131.01 C 103.92 131.08 105.85 131.23 106.82 131.30 C 106.72 131.89 106.52 133.05 106.42 133.64 C 103.83 133.62 101.22 133.32 98.67 133.93 C 101.14 135.19 103.93 134.53 106.57 134.49 C 106.67 136.28 106.77 138.07 106.87 139.87 C 106.13 140.47 105.39 141.07 104.65 141.67 C 102.48 141.57 100.32 141.51 98.16 141.49 C 98.56 135.40 98.07 129.31 98.14 123.22 Z" />
</g>
<g id="#f4bb37ff">
<path fill="#f4bb37" opacity="1.00" d=" M 91.93 107.37 C 94.46 107.10 96.98 106.86 99.50 106.63 C 99.48 108.25 99.49 109.88 99.52 111.51 C 98.93 111.44 97.76 111.31 97.17 111.24 C 95.37 110.02 93.66 108.68 91.93 107.37 Z" />
</g>
<g id="#9ca3abff">
<path fill="#9ca3ab" opacity="1.00" d=" M 5.15 107.95 C 5.93 108.01 7.49 108.13 8.26 108.19 C 8.71 109.04 9.16 109.90 9.61 110.75 C 8.56 110.99 6.45 111.48 5.40 111.72 C 8.52 112.69 12.43 113.20 15.15 111.02 L 15.48 111.35 C 15.91 111.77 16.77 112.62 17.20 113.04 C 13.12 112.99 9.05 112.96 4.97 112.95 C 5.03 111.28 5.09 109.61 5.15 107.95 Z" />
<path fill="#9ca3ab" opacity="1.00" d=" M 5.36 121.84 C 6.37 122.59 7.36 123.37 8.33 124.17 C 7.64 124.33 6.27 124.64 5.59 124.80 C 5.53 125.80 5.40 127.80 5.34 128.80 C 6.24 128.66 8.04 128.39 8.94 128.25 C 7.83 128.67 6.71 129.08 5.58 129.48 C 6.72 130.60 8.61 131.25 9.02 132.92 C 9.31 133.93 9.59 134.96 9.85 135.98 C 8.59 135.74 7.32 135.50 6.05 135.27 C 6.48 136.06 6.90 136.86 7.33 137.65 C 7.51 138.23 7.86 139.39 8.03 139.97 C 7.06 139.59 6.09 139.21 5.11 138.84 C 4.97 133.18 4.85 127.49 5.36 121.84 Z" />
</g>
<g id="#150321ff">
<path fill="#150321" opacity="1.00" d=" M 8.26 108.19 C 9.31 108.18 10.36 108.21 11.41 108.28 C 11.57 109.08 10.86 110.53 11.93 110.85 C 13.06 110.42 13.54 109.13 14.39 108.34 C 14.68 109.22 14.93 110.11 15.15 111.02 C 12.43 113.20 8.52 112.69 5.40 111.72 C 6.45 111.48 8.56 110.99 9.61 110.75 C 9.16 109.90 8.71 109.04 8.26 108.19 Z" />
<path fill="#150321" opacity="1.00" d=" M 28.42 140.63 C 27.76 137.65 30.09 136.08 32.52 135.17 C 35.30 136.05 38.36 136.00 41.04 134.80 C 40.89 135.75 40.72 136.70 40.54 137.65 C 37.13 137.77 33.71 137.72 30.31 137.44 C 30.39 138.18 30.54 139.66 30.62 140.39 C 35.19 139.41 39.87 139.47 44.52 139.66 C 44.51 141.37 44.81 143.12 44.40 144.81 C 44.34 143.35 44.29 141.90 44.23 140.45 C 39.00 141.32 33.66 141.58 28.42 140.63 Z" />
<path fill="#150321" opacity="1.00" d=" M 60.62 155.10 L 60.87 155.17 C 61.43 155.37 62.55 155.77 63.11 155.97 C 63.62 155.90 64.64 155.75 65.15 155.67 C 67.15 156.56 68.62 158.20 70.17 159.68 C 67.55 159.42 64.91 159.35 62.30 159.63 C 61.88 159.89 61.05 160.40 60.64 160.66 C 60.32 160.71 59.68 160.82 59.36 160.88 L 58.40 160.11 L 57.99 158.23 C 58.99 158.38 60.99 158.68 61.99 158.84 C 61.69 158.29 61.08 157.20 60.77 156.66 C 59.40 156.66 58.03 156.67 56.66 156.68 L 56.73 155.75 C 58.03 155.55 59.32 155.34 60.62 155.10 Z" />
<path fill="#150321" opacity="1.00" d=" M 77.13 162.00 L 78.02 159.92 L 78.72 160.85 L 78.76 162.06 C 77.48 161.92 76.96 162.48 77.21 163.72 C 76.75 163.86 75.84 164.13 75.38 164.26 L 74.45 164.19 L 73.36 163.20 C 74.63 162.86 75.91 162.49 77.13 162.00 Z" />
</g>
<g id="#a07520ff">
<path fill="#a07520" opacity="1.00" d=" M 70.79 107.97 C 71.96 108.23 73.13 108.49 74.30 108.75 C 74.52 109.29 74.95 110.36 75.17 110.89 L 76.17 111.06 C 83.15 111.79 90.17 111.28 97.17 111.24 C 97.76 111.31 98.93 111.44 99.52 111.51 C 99.22 111.65 98.62 111.93 98.32 112.07 C 91.18 111.70 84.02 111.58 76.87 111.89 C 76.27 111.90 75.06 111.91 74.46 111.91 C 73.71 111.78 72.23 111.50 71.48 111.37 C 71.23 110.24 71.00 109.10 70.79 107.97 Z" />
</g>
<g id="#423b16ff">
<path fill="#423b16" opacity="1.00" d=" M 71.48 111.37 C 72.23 111.50 73.71 111.78 74.46 111.91 C 74.22 114.10 73.89 116.27 73.34 118.40 C 72.58 116.09 72.01 113.73 71.48 111.37 Z" />
</g>
<g id="#35281eff">
<path fill="#35281e" opacity="1.00" d=" M 74.46 111.91 C 75.06 111.91 76.27 111.90 76.87 111.89 C 77.23 112.50 77.95 113.71 78.32 114.31 C 77.63 115.46 77.81 116.41 78.85 117.16 C 79.16 117.37 79.80 117.80 80.12 118.01 C 80.28 118.12 80.61 118.33 80.77 118.43 C 81.48 118.22 82.90 117.79 83.60 117.57 C 83.43 119.97 81.21 120.10 79.38 120.61 C 80.59 120.49 81.81 120.33 83.02 120.17 C 83.18 119.48 83.50 118.11 83.66 117.42 C 86.52 117.26 89.39 117.16 92.27 117.12 C 91.98 116.59 91.40 115.53 91.11 115.00 C 92.41 114.63 93.72 114.32 95.04 114.04 C 94.66 116.53 90.77 120.66 94.85 121.66 C 94.81 121.89 94.73 122.35 94.69 122.58 C 89.34 121.62 83.93 123.25 78.56 122.28 C 78.44 123.15 78.32 124.02 78.16 124.89 C 77.60 125.07 76.48 125.41 75.92 125.58 C 75.72 125.20 75.33 124.43 75.13 124.05 C 74.95 123.47 74.58 122.31 74.39 121.73 C 74.04 120.62 73.68 119.51 73.34 118.40 C 73.89 116.27 74.22 114.10 74.46 111.91 Z" />
<path fill="#35281e" opacity="1.00" d=" M 8.09 174.25 C 9.37 170.56 12.90 169.02 16.31 167.85 C 14.85 171.37 9.37 170.81 8.98 174.90 C 10.47 174.46 11.95 173.99 13.43 173.50 C 13.79 173.72 14.51 174.14 14.87 174.35 C 15.39 174.03 16.42 173.39 16.94 173.07 C 17.86 170.61 19.90 168.99 22.30 168.08 C 20.61 170.50 17.13 171.90 17.15 175.21 C 20.88 174.82 24.48 173.70 27.82 172.02 C 27.26 172.71 26.14 174.09 25.58 174.78 C 26.55 174.72 28.49 174.60 29.46 174.53 C 29.49 173.84 29.56 172.45 29.59 171.75 C 30.17 171.58 31.33 171.24 31.91 171.07 L 31.72 171.51 C 31.15 172.74 30.58 173.98 30.04 175.22 C 21.02 175.39 12.00 175.37 2.98 175.52 C 3.02 175.13 3.09 174.35 3.13 173.97 C 4.36 174.05 5.01 173.43 5.07 172.11 L 5.71 172.03 L 5.79 171.43 C 6.34 171.38 7.44 171.28 7.99 171.23 C 6.92 172.42 5.86 173.60 4.82 174.81 C 5.64 174.67 7.27 174.39 8.09 174.25 Z" />
</g>
<g id="#0d1128ff">
<path fill="#0d1128" opacity="1.00" d=" M 76.87 111.89 C 84.02 111.58 91.18 111.70 98.32 112.07 C 97.94 112.24 97.18 112.60 96.80 112.78 C 91.93 112.96 87.01 112.66 82.20 113.62 C 81.60 113.72 80.41 113.92 79.81 114.03 C 79.44 114.10 78.69 114.24 78.32 114.31 C 77.95 113.71 77.23 112.50 76.87 111.89 Z" />
</g>
<g id="#4e4e56ff">
<path fill="#4e4e56" opacity="1.00" d=" M 28.40 113.70 C 28.85 113.62 29.75 113.45 30.20 113.37 C 32.69 116.42 33.37 120.43 33.59 124.26 C 33.59 124.67 33.61 125.49 33.61 125.90 C 34.00 126.13 34.79 126.59 35.18 126.82 C 34.87 127.44 34.26 128.68 33.96 129.31 C 32.68 127.62 31.87 125.69 31.51 123.61 C 31.18 123.57 30.53 123.50 30.21 123.46 C 29.62 122.57 29.03 121.68 28.44 120.79 C 28.48 118.43 28.42 116.06 28.40 113.70 Z" />
</g>
<g id="#696870ff">
<path fill="#696870" opacity="1.00" d=" M 44.94 113.43 C 45.18 113.41 45.66 113.37 45.91 113.34 L 46.64 113.28 C 46.16 119.50 45.25 125.68 45.44 131.94 C 44.82 131.96 43.58 132.01 42.96 132.03 C 42.74 129.54 43.71 125.98 40.48 125.11 C 41.03 124.69 42.14 123.84 42.69 123.42 C 42.69 123.00 42.67 122.16 42.66 121.74 C 46.45 120.63 44.84 116.28 44.94 113.43 Z" />
</g>
<g id="#0d1017ff">
<path fill="#0d1017" opacity="1.00" d=" M 46.64 113.28 C 47.41 113.23 48.97 113.12 49.74 113.06 C 49.78 117.33 49.75 121.59 49.87 125.86 C 49.10 128.64 47.86 131.26 46.55 133.82 C 46.28 133.35 45.72 132.41 45.44 131.94 C 45.25 125.68 46.16 119.50 46.64 113.28 Z" />
<path fill="#0d1017" opacity="1.00" d=" M 96.00 122.76 L 97.27 122.79 C 96.54 128.85 96.96 134.98 96.42 141.05 C 96.13 134.96 96.32 128.85 96.00 122.76 Z" />
<path fill="#0d1017" opacity="1.00" d=" M 9.02 132.92 C 11.09 133.92 13.43 133.43 15.64 133.52 C 14.21 136.06 10.74 136.30 8.44 137.86 C 8.16 137.81 7.61 137.70 7.33 137.65 C 6.90 136.86 6.48 136.06 6.05 135.27 C 7.32 135.50 8.59 135.74 9.85 135.98 C 9.59 134.96 9.31 133.93 9.02 132.92 Z" />
</g>
<g id="#c2beb7ff">
<path fill="#c2beb7" opacity="1.00" d=" M 5.47 114.36 C 6.23 113.59 8.74 113.44 8.67 114.89 C 7.92 115.69 5.45 115.75 5.47 114.36 Z" />
</g>
<g id="#b9b1a5ff">
<path fill="#b9b1a5" opacity="1.00" d=" M 10.37 114.47 C 11.61 113.77 13.39 113.64 14.65 114.36 C 14.39 115.85 10.71 115.88 10.37 114.47 Z" />
</g>
<g id="#2b2537ff">
<path fill="#2b2537" opacity="1.00" d=" M 30.20 113.37 C 30.82 113.38 32.07 113.40 32.69 113.41 C 33.92 114.87 35.15 116.33 36.40 117.77 C 36.36 119.43 36.32 121.09 36.28 122.75 C 37.94 122.75 39.91 123.54 41.25 122.20 C 42.14 120.83 41.45 119.17 41.23 117.71 L 39.36 117.44 L 38.76 117.38 C 39.28 117.29 40.34 117.11 40.86 117.01 C 40.77 116.56 40.58 115.66 40.49 115.21 C 40.91 114.82 41.75 114.02 42.18 113.63 L 42.82 113.58 C 42.65 116.30 42.58 119.02 42.66 121.74 C 42.67 122.16 42.69 123.00 42.69 123.42 C 42.14 123.84 41.03 124.69 40.48 125.11 C 38.21 124.64 35.89 124.45 33.59 124.26 C 33.37 120.43 32.69 116.42 30.20 113.37 Z" />
</g>
<g id="#111014ff">
<path fill="#111014" opacity="1.00" d=" M 32.69 113.41 C 35.85 113.52 39.01 113.60 42.18 113.63 C 41.75 114.02 40.91 114.82 40.49 115.21 C 40.58 115.66 40.77 116.56 40.86 117.01 C 40.34 117.11 39.28 117.29 38.76 117.38 C 37.97 117.51 37.19 117.63 36.40 117.77 C 35.15 116.33 33.92 114.87 32.69 113.41 Z" />
</g>
<g id="#929599ff">
<path fill="#929599" opacity="1.00" d=" M 42.82 113.58 C 43.35 113.55 44.41 113.47 44.94 113.43 C 44.84 116.28 46.45 120.63 42.66 121.74 C 42.58 119.02 42.65 116.30 42.82 113.58 Z" />
</g>
<g id="#369024ff">
<path fill="#369024" opacity="1.00" d=" M 78.32 114.31 C 78.69 114.24 79.44 114.10 79.81 114.03 C 79.77 115.17 79.45 116.21 78.85 117.16 C 77.81 116.41 77.63 115.46 78.32 114.31 Z" />
</g>
<g id="#f4f4f1ff">
<path fill="#f4f4f1" opacity="1.00" d=" M 79.81 114.03 C 80.41 113.92 81.60 113.72 82.20 113.62 L 81.69 114.84 C 81.48 115.54 81.35 116.26 81.31 117.01 C 81.01 117.26 80.42 117.76 80.12 118.01 C 79.80 117.80 79.16 117.37 78.85 117.16 C 79.45 116.21 79.77 115.17 79.81 114.03 Z" />
<path fill="#f4f4f1" opacity="1.00" d=" M 62.48 127.21 C 63.38 127.06 64.29 126.91 65.20 126.77 C 64.28 128.06 64.70 129.61 64.60 131.06 C 62.60 132.55 60.90 130.39 61.54 128.37 C 61.77 128.08 62.24 127.50 62.48 127.21 Z" />
<path fill="#f4f4f1" opacity="1.00" d=" M 96.99 143.41 L 97.69 143.22 C 97.62 144.66 97.54 146.11 97.46 147.56 C 100.63 147.76 103.80 147.84 106.97 147.75 L 108.24 147.72 L 109.61 147.68 C 109.52 148.52 109.36 150.20 109.28 151.04 C 108.87 151.01 108.05 150.94 107.64 150.91 C 103.87 150.60 100.03 150.23 96.31 151.07 L 95.10 151.90 C 94.33 152.08 93.55 152.25 92.78 152.44 C 93.90 150.93 94.78 149.26 95.48 147.52 C 94.81 147.77 93.48 148.29 92.81 148.54 L 92.04 148.51 C 91.72 149.07 91.09 150.20 90.77 150.76 C 90.72 151.24 90.62 152.19 90.57 152.66 C 88.72 152.63 86.87 152.60 85.01 152.58 C 86.18 152.24 87.34 151.90 88.50 151.57 C 88.63 150.91 88.88 149.60 89.01 148.95 C 89.39 148.32 90.15 147.06 90.53 146.43 C 89.33 146.89 88.14 147.36 86.94 147.82 C 87.80 146.74 88.66 145.65 89.52 144.57 C 90.50 145.02 91.48 145.48 92.46 145.96 C 92.07 146.55 91.29 147.72 90.89 148.31 C 91.98 147.88 93.06 147.45 94.15 147.01 C 93.52 146.50 92.26 145.48 91.63 144.97 C 92.48 144.76 94.18 144.33 95.02 144.12 C 95.21 145.20 95.55 146.22 96.05 147.20 L 96.64 147.43 C 97.33 146.15 97.45 144.81 96.99 143.41 Z" />
<path fill="#f4f4f1" opacity="1.00" d=" M 9.61 166.50 C 10.54 165.80 11.47 164.21 12.83 164.78 C 13.87 166.57 10.74 167.80 9.61 166.50 Z" />
<path fill="#f4f4f1" opacity="1.00" d=" M 35.45 171.01 C 36.37 170.15 38.50 171.28 38.03 172.53 C 37.09 173.22 35.01 172.28 35.45 171.01 Z" />
</g>
<g id="#b0b6b5ff">
<path fill="#b0b6b5" opacity="1.00" d=" M 82.56 115.08 C 84.99 115.71 87.53 115.67 89.99 115.32 L 91.11 115.00 C 91.40 115.53 91.98 116.59 92.27 117.12 C 89.39 117.16 86.52 117.26 83.66 117.42 C 83.50 118.11 83.18 119.48 83.02 120.17 C 81.81 120.33 80.59 120.49 79.38 120.61 C 81.21 120.10 83.43 119.97 83.60 117.57 C 83.34 116.95 82.82 115.71 82.56 115.08 Z" />
</g>
<g id="#454960ff">
<path fill="#454960" opacity="1.00" d=" M 4.79 117.17 C 8.44 116.91 12.09 116.90 15.74 116.91 C 15.65 117.54 15.47 118.81 15.38 119.45 C 12.26 119.54 9.11 119.52 6.01 119.12 C 5.71 118.63 5.10 117.65 4.79 117.17 Z" />
</g>
<g id="#666670ff">
<path fill="#666670" opacity="1.00" d=" M 28.44 120.79 C 29.03 121.68 29.62 122.57 30.21 123.46 C 30.53 123.50 31.18 123.57 31.51 123.61 C 31.87 125.69 32.68 127.62 33.96 129.31 C 33.40 130.42 32.84 131.52 32.28 132.63 C 31.90 132.58 31.14 132.49 30.76 132.45 C 31.31 134.79 30.51 136.23 28.38 136.75 C 28.27 131.43 28.30 126.11 28.44 120.79 Z" />
<path fill="#666670" opacity="1.00" d=" M 67.88 161.96 C 69.70 162.41 71.53 162.77 73.36 163.20 L 74.45 164.19 L 72.95 164.12 C 72.14 164.25 70.53 164.52 69.72 164.66 C 68.47 164.09 67.21 163.51 65.96 162.93 L 67.88 161.96 Z" />
</g>
<g id="#69b755ff">
<path fill="#69b755" opacity="1.00" d=" M 74.39 121.73 C 74.58 122.31 74.95 123.47 75.13 124.05 C 74.95 123.47 74.58 122.31 74.39 121.73 Z" />
</g>
<g id="#232e2bff">
<path fill="#232e2b" opacity="1.00" d=" M 50.19 139.22 C 52.46 133.25 54.64 126.52 60.19 122.76 L 61.58 122.86 C 61.63 124.69 61.58 126.53 61.54 128.37 C 60.90 130.39 62.60 132.55 64.60 131.06 C 65.01 130.83 65.82 130.38 66.22 130.16 C 66.71 129.88 67.68 129.33 68.17 129.05 C 71.04 132.03 68.92 136.31 71.23 139.49 C 69.99 139.52 68.75 139.56 67.51 139.58 C 67.41 141.29 66.53 142.73 65.61 144.11 C 65.29 143.61 64.64 142.60 64.32 142.09 C 63.16 142.37 63.27 143.80 62.79 144.66 C 64.03 144.90 65.27 145.15 66.51 145.39 C 66.45 145.86 66.35 146.81 66.30 147.28 C 60.32 147.20 54.34 147.21 48.37 147.23 C 48.48 146.64 48.69 145.48 48.80 144.89 C 49.19 142.98 49.67 141.10 50.19 139.22 M 58.17 133.35 C 58.60 134.14 58.66 135.52 59.88 135.42 C 62.49 135.35 65.12 134.03 67.59 135.45 C 67.72 134.88 67.98 133.75 68.11 133.18 C 64.81 133.75 61.48 133.06 58.17 133.35 M 62.14 139.67 C 61.73 141.40 65.76 141.81 65.85 140.09 C 64.86 139.32 63.29 139.22 62.14 139.67 M 54.41 140.01 C 54.71 143.40 57.30 138.31 54.41 140.01 M 58.14 140.18 C 57.63 142.31 62.57 140.68 59.94 139.75 C 59.49 139.85 58.59 140.07 58.14 140.18 M 53.72 143.08 C 54.18 144.66 55.30 145.67 56.93 145.93 C 56.48 145.07 56.01 144.22 55.54 143.38 C 55.92 142.99 56.67 142.20 57.05 141.80 C 55.94 142.21 54.82 142.64 53.72 143.08 M 58.07 142.20 C 58.08 142.96 58.09 144.47 58.09 145.23 L 59.11 145.23 C 59.11 144.62 59.12 143.38 59.12 142.77 L 60.20 142.73 C 60.04 144.44 60.78 145.46 62.41 145.79 C 62.31 144.93 62.11 143.22 62.01 142.36 C 60.69 142.32 59.38 142.27 58.07 142.20 Z" />
</g>
<g id="#333936ff">
<path fill="#333936" opacity="1.00" d=" M 62.23 122.40 C 63.17 122.47 65.07 122.61 66.02 122.68 C 67.94 123.86 69.48 125.54 70.97 127.20 C 72.50 129.96 74.10 132.69 75.33 135.60 C 75.43 136.02 75.64 136.86 75.75 137.28 C 74.28 138.15 72.88 139.12 71.56 140.21 C 71.48 140.03 71.31 139.67 71.23 139.49 C 68.92 136.31 71.04 132.03 68.17 129.05 C 67.68 129.33 66.71 129.88 66.22 130.16 C 66.11 128.84 65.99 127.52 65.86 126.21 C 65.10 126.16 63.57 126.08 62.81 126.04 C 62.67 125.13 62.37 123.31 62.23 122.40 Z" />
<path fill="#333936" opacity="1.00" d=" M 111.03 123.88 C 111.66 124.49 112.28 125.10 112.91 125.72 C 113.14 125.21 113.61 124.20 113.84 123.69 C 114.02 129.62 113.89 135.55 113.95 141.48 C 112.40 141.35 110.87 141.14 109.35 140.84 C 109.39 136.82 108.81 132.66 110.25 128.80 C 110.74 127.20 110.81 125.52 111.03 123.88 M 112.28 126.75 C 111.66 130.44 110.52 135.02 112.92 138.26 C 113.05 134.52 114.61 130.03 112.28 126.75 Z" />
<path fill="#333936" opacity="1.00" d=" M 28.41 144.73 C 33.41 144.95 38.45 144.73 43.42 145.45 C 39.82 147.18 35.58 145.49 32.04 147.47 C 30.84 147.50 29.65 147.52 28.46 147.55 C 28.45 146.84 28.42 145.44 28.41 144.73 Z" />
</g>
<g id="#d3d4d5ff">
<path fill="#d3d4d5" opacity="1.00" d=" M 87.33 123.33 C 88.58 122.46 89.31 122.67 89.53 123.96 C 88.28 124.86 87.54 124.65 87.33 123.33 Z" />
</g>
<g id="#010105ff">
<path fill="#010105" opacity="1.00" d=" M 99.07 123.16 C 100.99 122.66 102.99 122.68 104.93 123.10 C 103.21 124.60 100.74 124.89 99.07 123.16 Z" />
</g>
<g id="#060403ff">
<path fill="#060403" opacity="1.00" d=" M 110.25 128.80 C 110.31 126.72 110.40 124.64 110.51 122.57 C 111.38 122.58 113.11 122.60 113.98 122.61 L 113.84 123.69 C 113.61 124.20 113.14 125.21 112.91 125.72 C 112.28 125.10 111.66 124.49 111.03 123.88 C 110.81 125.52 110.74 127.20 110.25 128.80 Z" />
<path fill="#060403" opacity="1.00" d=" M 92.81 148.54 C 93.48 148.29 94.81 147.77 95.48 147.52 C 94.78 149.26 93.90 150.93 92.78 152.44 L 92.23 152.59 C 92.63 153.69 93.03 154.79 93.43 155.90 C 93.89 156.02 94.83 156.27 95.29 156.40 L 94.94 157.81 C 94.27 157.79 92.92 157.75 92.25 157.73 C 92.34 159.43 92.43 161.13 92.63 162.83 C 92.31 162.78 91.67 162.68 91.35 162.63 C 91.41 160.98 91.46 159.33 91.51 157.69 L 89.52 157.71 C 89.51 159.97 89.50 162.24 89.50 164.50 C 91.67 164.53 93.84 164.53 96.02 164.46 C 96.79 162.77 96.92 160.92 96.90 159.09 L 97.07 159.21 C 97.23 160.75 96.69 162.56 97.65 163.89 C 98.16 164.29 99.19 165.10 99.71 165.50 L 100.80 166.44 C 98.83 166.13 96.86 165.81 94.90 165.47 L 94.92 166.67 C 91.92 166.61 88.92 166.76 85.93 166.92 C 88.42 164.62 88.26 160.52 86.36 157.91 C 86.21 157.67 85.90 157.20 85.75 156.96 C 85.64 156.07 85.41 154.30 85.29 153.41 C 86.96 154.21 88.60 155.07 90.21 155.98 C 90.30 155.15 90.48 153.49 90.57 152.66 C 90.62 152.19 90.72 151.24 90.77 150.76 C 92.11 150.71 92.79 149.97 92.81 148.54 Z" />
<path fill="#060403" opacity="1.00" d=" M 47.42 160.14 C 50.38 161.17 51.15 157.08 52.78 155.41 C 52.41 156.55 52.06 157.71 51.71 158.86 C 51.93 159.60 52.35 161.06 52.56 161.79 C 50.69 161.95 48.82 162.08 46.96 162.13 L 47.03 161.78 C 47.13 161.37 47.32 160.55 47.42 160.14 Z" />
<path fill="#060403" opacity="1.00" d=" M 54.27 157.56 C 54.36 157.29 54.56 156.75 54.66 156.48 C 55.76 156.77 58.81 157.82 57.20 159.28 C 56.16 158.81 55.18 158.24 54.27 157.56 Z" />
<path fill="#060403" opacity="1.00" d=" M 79.10 159.43 C 76.16 160.56 76.58 156.25 79.26 157.78 L 79.36 158.60 L 79.10 159.43 Z" />
<path fill="#060403" opacity="1.00" d=" M 64.18 162.16 C 64.77 162.42 65.37 162.67 65.96 162.93 C 67.21 163.51 68.47 164.09 69.72 164.66 L 70.01 165.31 C 68.19 164.87 66.39 164.37 64.60 163.85 C 64.67 164.48 64.81 165.74 64.88 166.37 C 64.57 166.49 63.94 166.73 63.63 166.86 C 62.72 166.61 61.81 166.38 60.90 166.16 C 62.10 166.01 63.31 165.85 64.51 165.68 C 64.43 164.80 64.26 163.04 64.18 162.16 Z" />
<path fill="#060403" opacity="1.00" d=" M 77.96 164.24 L 78.70 163.80 C 78.63 164.36 78.49 165.47 78.42 166.02 C 75.76 166.50 73.07 167.00 70.65 168.27 C 70.49 167.72 70.18 166.62 70.02 166.08 C 71.79 165.83 73.56 165.56 75.31 165.21 C 76.39 165.45 77.28 165.13 77.96 164.24 Z" />
<path fill="#060403" opacity="1.00" d=" M 48.08 166.84 L 48.56 167.35 C 48.77 167.60 49.18 168.12 49.39 168.38 L 50.01 169.30 C 51.03 171.22 53.41 170.07 54.90 169.47 C 57.88 169.46 60.91 169.63 63.82 168.90 C 64.12 168.46 64.71 167.59 65.01 167.15 C 66.50 167.42 67.99 167.65 69.49 167.88 L 69.50 168.53 C 72.34 168.34 75.17 168.14 78.02 168.27 C 77.81 169.06 77.39 170.65 77.18 171.44 C 72.85 170.70 68.45 171.01 64.11 170.41 C 59.24 169.70 54.38 170.75 49.56 171.28 C 49.44 170.92 49.22 170.20 49.10 169.85 C 48.75 168.85 48.41 167.85 48.08 166.84 Z" />
<path fill="#060403" opacity="1.00" d=" M 106.49 173.52 C 107.22 171.92 107.95 170.32 108.56 168.68 L 107.71 171.28 C 109.66 170.46 111.64 169.73 113.61 168.95 L 113.55 169.67 L 113.47 170.57 C 113.55 171.12 113.71 172.22 113.79 172.77 C 114.50 174.18 115.20 175.61 115.89 177.03 C 114.20 177.35 112.50 177.58 110.80 177.81 C 111.74 177.39 113.62 176.57 114.56 176.15 C 114.24 175.87 113.60 175.30 113.28 175.01 C 112.89 173.44 112.57 171.86 112.26 170.28 C 110.27 171.23 108.33 172.29 106.49 173.52 Z" />
</g>
<g id="#43444bff">
<path fill="#43444b" opacity="1.00" d=" M 8.33 124.17 C 8.75 124.09 9.59 123.93 10.01 123.85 C 9.73 125.26 10.51 127.41 8.94 128.25 C 8.04 128.39 6.24 128.66 5.34 128.80 C 5.40 127.80 5.53 125.80 5.59 124.80 C 6.27 124.64 7.64 124.33 8.33 124.17 Z" />
</g>
<g id="#24252dff">
<path fill="#24252d" opacity="1.00" d=" M 78.16 124.89 C 83.81 124.79 89.47 124.95 95.11 124.56 C 95.03 125.53 94.93 126.50 94.83 127.46 C 91.42 129.17 88.29 131.35 85.27 133.67 C 85.44 132.63 85.60 131.59 85.74 130.55 C 85.84 129.21 85.88 127.87 85.92 126.53 C 82.73 126.75 79.50 126.93 76.33 126.37 L 75.92 125.58 C 76.48 125.41 77.60 125.07 78.16 124.89 Z" />
</g>
<g id="#e38c02ff">
<path fill="#e38c02" opacity="1.00" d=" M 76.33 126.37 C 79.50 126.93 82.73 126.75 85.92 126.53 C 85.88 127.87 85.84 129.21 85.74 130.55 C 83.18 130.39 80.61 130.33 78.04 130.19 L 77.96 130.00 C 79.59 129.87 81.22 129.74 82.85 129.61 C 82.85 129.01 82.85 127.82 82.85 127.23 C 80.78 127.16 78.71 127.10 76.64 126.96 C 76.57 126.81 76.41 126.52 76.33 126.37 Z" />
</g>
<g id="#b17b3bff">
<path fill="#b17b3b" opacity="1.00" d=" M 76.64 126.96 C 78.71 127.10 80.78 127.16 82.85 127.23 C 82.85 127.82 82.85 129.01 82.85 129.61 C 81.22 129.74 79.59 129.87 77.96 130.00 C 77.54 128.98 77.10 127.96 76.64 126.96 Z" />
</g>
<g id="#0d1115ff">
<path fill="#0d1115" opacity="1.00" d=" M 112.28 126.75 C 114.61 130.03 113.05 134.52 112.92 138.26 C 110.52 135.02 111.66 130.44 112.28 126.75 Z" />
</g>
<g id="#392c22ff">
<path fill="#392c22" opacity="1.00" d=" M 85.27 133.67 C 88.29 131.35 91.42 129.17 94.83 127.46 C 94.68 127.88 94.38 128.71 94.23 129.13 C 90.94 131.28 87.54 133.40 85.09 136.55 C 85.15 136.88 85.26 137.53 85.32 137.86 C 89.19 137.30 91.35 133.26 95.26 132.60 C 94.95 134.77 94.44 136.91 93.66 138.97 C 93.85 139.58 94.24 140.82 94.43 141.43 L 94.32 141.39 C 93.83 141.23 92.84 140.91 92.35 140.75 C 88.44 139.70 84.64 137.95 80.52 138.02 C 79.73 135.40 78.90 132.79 78.04 130.19 C 80.61 130.33 83.18 130.39 85.74 130.55 C 85.60 131.59 85.44 132.63 85.27 133.67 Z" />
</g>
<g id="#454954ff">
<path fill="#454954" opacity="1.00" d=" M 10.04 131.26 C 11.01 128.95 15.26 128.42 15.72 131.39 C 13.83 131.38 11.93 131.33 10.04 131.26 Z" />
<path fill="#454954" opacity="1.00" d=" M 108.43 143.53 C 110.27 143.76 112.16 143.90 113.93 143.19 C 113.90 145.99 113.85 148.79 113.78 151.59 C 112.25 151.60 110.73 151.61 109.21 151.63 L 109.28 151.04 C 109.36 150.20 109.52 148.52 109.61 147.68 L 108.24 147.72 C 108.30 146.32 108.37 144.92 108.43 143.53 Z" />
</g>
<g id="#494e5aff">
<path fill="#494e5a" opacity="1.00" d=" M 12.30 132.14 C 15.45 130.67 12.45 135.35 12.30 132.14 Z" />
</g>
<g id="#72f44dff">
<path fill="#72f44d" opacity="1.00" d=" M 48.40 136.20 C 48.89 134.50 50.18 133.24 51.23 131.88 C 50.88 134.32 50.63 136.78 50.19 139.22 C 49.67 141.10 49.19 142.98 48.80 144.89 C 48.43 146.64 48.11 148.40 47.82 150.17 L 47.73 150.75 C 47.58 152.41 47.63 154.08 47.54 155.75 C 47.47 156.31 47.33 157.43 47.26 158.00 C 47.30 158.53 47.38 159.60 47.42 160.14 C 47.32 160.55 47.13 161.37 47.03 161.78 C 46.26 160.29 45.40 158.78 45.59 157.04 C 45.26 149.98 46.24 142.92 48.40 136.20 Z" />
<path fill="#72f44d" opacity="1.00" d=" M 75.38 164.26 C 75.84 164.13 76.75 163.86 77.21 163.72 L 77.96 164.24 C 77.28 165.13 76.39 165.45 75.31 165.21 L 75.38 164.26 Z" />
</g>
<g id="#47464dff">
<path fill="#47464d" opacity="1.00" d=" M 44.10 133.30 C 47.28 133.59 42.54 136.37 44.10 133.30 Z" />
</g>
<g id="#b9b9c1ff">
<path fill="#b9b9c1" opacity="1.00" d=" M 58.17 133.35 C 61.48 133.06 64.81 133.75 68.11 133.18 C 67.98 133.75 67.72 134.88 67.59 135.45 C 65.12 134.03 62.49 135.35 59.88 135.42 C 58.66 135.52 58.60 134.14 58.17 133.35 Z" />
<path fill="#b9b9c1" opacity="1.00" d=" M 92.25 157.73 C 92.92 157.75 94.27 157.79 94.94 157.81 C 95.43 158.13 96.41 158.77 96.90 159.09 C 96.92 160.92 96.79 162.77 96.02 164.46 C 95.17 164.05 93.48 163.24 92.63 162.83 C 92.43 161.13 92.34 159.43 92.25 157.73 Z" />
</g>
<g id="#363948ff">
<path fill="#363948" opacity="1.00" d=" M 42.10 136.39 C 42.68 136.94 42.68 136.94 42.10 136.39 Z" />
</g>
<g id="#353a45ff">
<path fill="#353a45" opacity="1.00" d=" M 11.24 138.38 C 12.23 137.55 13.72 136.81 15.03 137.20 C 15.41 138.66 12.94 139.26 11.83 139.07 C 11.68 138.90 11.39 138.55 11.24 138.38 Z" />
</g>
<g id="#6d6d77ff">
<path fill="#6d6d77" opacity="1.00" d=" M 7.33 137.65 C 7.61 137.70 8.16 137.81 8.44 137.86 C 9.37 138.03 10.30 138.20 11.24 138.38 C 11.39 138.55 11.68 138.90 11.83 139.07 L 12.37 139.70 C 10.78 139.97 10.39 141.20 10.30 142.55 C 10.99 142.61 12.38 142.72 13.07 142.78 C 12.50 142.50 11.34 141.94 10.76 141.66 C 11.98 140.60 13.30 139.61 14.98 139.49 C 14.88 140.01 14.70 141.04 14.60 141.56 C 15.66 143.64 15.47 145.97 15.33 148.22 C 11.89 148.34 8.44 148.42 5.00 148.36 C 5.00 146.49 4.98 144.63 4.96 142.77 C 6.10 142.41 7.25 142.05 8.40 141.70 C 8.31 141.27 8.12 140.40 8.03 139.97 C 7.86 139.39 7.51 138.23 7.33 137.65 Z" />
</g>
<g id="#47534dff">
<path fill="#47534d" opacity="1.00" d=" M 71.56 140.21 C 72.88 139.12 74.28 138.15 75.75 137.28 C 76.75 141.47 78.34 145.55 78.69 149.88 C 76.89 150.04 75.09 150.20 73.28 150.32 C 72.27 152.93 70.73 155.26 68.72 157.22 C 67.80 155.71 67.44 154.00 67.25 152.27 C 66.12 152.26 65.00 152.26 63.87 152.26 C 64.93 152.87 65.99 153.48 67.05 154.10 C 66.57 154.49 65.62 155.28 65.15 155.67 C 64.64 155.75 63.62 155.90 63.11 155.97 C 63.49 154.33 62.84 153.71 61.17 154.11 C 59.51 152.89 57.73 151.81 55.78 151.09 C 59.11 151.10 62.44 151.02 65.76 150.74 L 65.96 149.72 C 66.02 149.36 66.13 148.65 66.19 148.30 L 66.30 147.28 C 66.35 146.81 66.45 145.86 66.51 145.39 C 66.85 144.55 67.55 142.88 67.90 142.04 C 68.00 142.75 68.19 144.16 68.29 144.87 C 68.72 144.87 69.58 144.88 70.01 144.88 C 69.37 143.34 68.74 141.80 68.19 140.23 C 72.35 139.57 70.30 144.11 72.91 145.37 C 72.62 143.61 72.26 141.85 71.56 140.21 M 69.32 152.08 C 69.55 155.42 72.27 150.47 69.32 152.08 Z" />
</g>
<g id="#975a18ff">
<path fill="#975a18" opacity="1.00" d=" M 80.52 138.02 C 84.64 137.95 88.44 139.70 92.35 140.75 C 91.20 141.49 88.86 141.41 88.93 143.25 C 90.79 144.16 92.90 143.43 94.85 143.30 L 95.02 144.12 C 94.18 144.33 92.48 144.76 91.63 144.97 C 92.26 145.48 93.52 146.50 94.15 147.01 C 93.06 147.45 91.98 147.88 90.89 148.31 C 91.29 147.72 92.07 146.55 92.46 145.96 C 91.48 145.48 90.50 145.02 89.52 144.57 C 87.98 144.50 86.43 144.52 84.89 144.63 C 85.13 143.38 85.37 142.13 85.62 140.88 C 84.45 140.86 83.29 140.85 82.13 140.86 C 82.03 141.44 81.83 142.61 81.73 143.19 C 81.38 141.45 80.97 139.73 80.52 138.02 Z" />
<path fill="#975a18" opacity="1.00" d=" M 16.64 152.48 C 17.26 152.06 17.87 151.64 18.49 151.23 C 19.52 151.81 20.58 152.36 21.64 152.88 C 20.42 152.95 19.20 153.04 17.98 153.09 C 17.21 153.89 16.45 154.69 15.69 155.49 C 14.70 152.78 12.03 155.29 10.24 155.30 C 11.27 154.31 12.31 153.35 13.36 152.40 C 13.64 152.41 14.18 152.43 14.45 152.43 C 15.18 152.45 15.91 152.46 16.64 152.48 Z" />
<path fill="#975a18" opacity="1.00" d=" M 22.42 152.86 C 23.37 152.35 24.36 151.89 25.37 151.49 C 24.53 152.77 23.57 153.96 22.69 155.21 C 22.59 155.31 22.40 155.52 22.30 155.62 L 22.69 155.21 C 24.06 154.85 25.44 154.52 26.85 154.36 C 28.07 153.54 29.29 152.71 30.52 151.91 C 29.66 153.30 28.76 154.67 27.87 156.05 C 28.42 155.80 29.51 155.32 30.06 155.07 C 29.95 158.75 25.64 157.23 23.62 159.13 C 23.81 158.34 24.02 157.54 24.23 156.75 C 24.53 156.30 24.53 156.30 24.23 156.75 C 22.16 157.20 19.88 157.94 21.72 160.25 C 20.46 160.71 19.20 161.17 17.95 161.64 C 18.79 160.08 19.58 158.49 20.29 156.87 C 20.64 156.45 20.64 156.45 20.29 156.87 C 19.20 157.27 18.12 157.66 17.03 158.06 C 17.27 157.61 17.76 156.73 18.00 156.28 C 19.72 155.49 21.27 154.39 22.42 152.86 Z" />
</g>
<g id="#9b9f9dff">
<path fill="#9b9f9d" opacity="1.00" d=" M 62.14 139.67 C 63.29 139.22 64.86 139.32 65.85 140.09 C 65.76 141.81 61.73 141.40 62.14 139.67 Z" />
</g>
<g id="#a7ababff">
<path fill="#a7abab" opacity="1.00" d=" M 54.41 140.01 C 57.30 138.31 54.71 143.40 54.41 140.01 Z" />
</g>
<g id="#b1b5b4ff">
<path fill="#b1b5b4" opacity="1.00" d=" M 58.14 140.18 C 58.59 140.07 59.49 139.85 59.94 139.75 C 62.57 140.68 57.63 142.31 58.14 140.18 Z" />
</g>
<g id="#6c3708ff">
<path fill="#6c3708" opacity="1.00" d=" M 82.13 140.86 C 83.29 140.85 84.45 140.86 85.62 140.88 C 85.37 142.13 85.13 143.38 84.89 144.63 C 83.97 145.17 83.06 145.71 82.15 146.27 C 82.05 145.50 81.84 143.96 81.73 143.19 C 81.83 142.61 82.03 141.44 82.13 140.86 Z" />
</g>
<g id="#e0b288ff">
<path fill="#e0b288" opacity="1.00" d=" M 92.35 140.75 C 92.84 140.91 93.83 141.23 94.32 141.39 C 94.36 141.44 94.43 141.54 94.47 141.59 L 94.85 143.30 C 92.90 143.43 90.79 144.16 88.93 143.25 C 88.86 141.41 91.20 141.49 92.35 140.75 Z" />
</g>
<g id="#c66b25ff">
<path fill="#c66b25" opacity="1.00" d=" M 94.32 141.39 L 94.43 141.43 L 94.47 141.59 C 94.43 141.54 94.36 141.44 94.32 141.39 Z" />
</g>
<g id="#afb2b7ff">
<path fill="#afb2b7" opacity="1.00" d=" M 103.31 142.30 C 104.90 141.68 107.55 142.58 108.34 140.52 C 108.59 140.60 109.10 140.76 109.35 140.84 C 110.87 141.14 112.40 141.35 113.95 141.48 C 113.94 141.91 113.93 142.76 113.93 143.19 C 112.16 143.90 110.27 143.76 108.43 143.53 C 108.37 144.92 108.30 146.32 108.24 147.72 L 106.97 147.75 C 106.86 146.59 106.75 145.42 106.64 144.26 C 106.02 144.08 104.78 143.72 104.16 143.54 C 103.95 143.23 103.53 142.61 103.31 142.30 Z" />
</g>
<g id="#242831ff">
<path fill="#242831" opacity="1.00" d=" M 100.46 142.36 C 101.69 142.78 102.92 143.17 104.16 143.54 C 104.78 143.72 106.02 144.08 106.64 144.26 C 106.75 145.42 106.86 146.59 106.97 147.75 C 103.80 147.84 100.63 147.76 97.46 147.56 C 97.54 146.11 97.62 144.66 97.69 143.22 C 98.38 143.01 99.77 142.58 100.46 142.36 Z" />
</g>
<g id="#434751ff">
<path fill="#434751" opacity="1.00" d=" M 96.54 143.52 L 96.99 143.41 C 97.45 144.81 97.33 146.15 96.64 147.43 L 96.05 147.20 C 95.75 145.91 95.91 144.69 96.54 143.52 Z" />
</g>
<g id="#39f400ff">
<path fill="#39f400" opacity="1.00" d=" M 47.82 150.17 C 48.11 148.40 48.43 146.64 48.80 144.89 C 48.69 145.48 48.48 146.64 48.37 147.23 C 54.34 147.21 60.32 147.20 66.30 147.28 L 66.19 148.30 C 62.15 147.96 58.10 147.94 54.05 148.02 C 54.02 148.54 53.97 149.59 53.94 150.12 C 51.90 150.13 49.86 150.11 47.82 150.17 Z" />
<path fill="#39f400" opacity="1.00" d=" M 54.04 158.79 L 54.27 157.56 C 55.18 158.24 56.16 158.81 57.20 159.28 C 57.50 159.49 58.10 159.90 58.40 160.11 L 59.36 160.88 C 57.11 161.29 54.84 161.62 52.56 161.79 C 52.35 161.06 51.93 159.60 51.71 158.86 C 52.30 158.84 53.46 158.81 54.04 158.79 Z" />
<path fill="#39f400" opacity="1.00" d=" M 60.64 160.66 C 61.05 160.40 61.88 159.89 62.30 159.63 C 64.91 159.35 67.55 159.42 70.17 159.68 C 72.38 160.74 74.73 161.50 77.13 162.00 C 75.91 162.49 74.63 162.86 73.36 163.20 C 71.53 162.77 69.70 162.41 67.88 161.96 C 65.71 160.56 63.15 160.35 60.64 160.66 Z" />
<path fill="#39f400" opacity="1.00" d=" M 64.60 163.85 C 66.39 164.37 68.19 164.87 70.01 165.31 C 71.23 165.66 72.21 165.26 72.95 164.12 L 74.45 164.19 L 75.38 164.26 L 75.31 165.21 C 73.56 165.56 71.79 165.83 70.02 166.08 C 69.83 166.67 69.66 167.27 69.49 167.88 C 67.99 167.65 66.50 167.42 65.01 167.15 L 64.88 166.37 C 64.81 165.74 64.67 164.48 64.60 163.85 Z" />
</g>
<g id="#817258ff">
<path fill="#817258" opacity="1.00" d=" M 82.15 146.27 C 83.06 145.71 83.97 145.17 84.89 144.63 C 86.43 144.52 87.98 144.50 89.52 144.57 C 88.66 145.65 87.80 146.74 86.94 147.82 C 88.14 147.36 89.33 146.89 90.53 146.43 C 90.15 147.06 89.39 148.32 89.01 148.95 C 88.11 149.24 87.22 149.52 86.32 149.80 C 86.16 149.14 85.86 147.82 85.70 147.16 C 85.03 147.05 83.68 146.83 83.00 146.73 C 82.89 147.14 82.66 147.98 82.55 148.39 L 82.27 149.39 C 82.24 148.61 82.18 147.05 82.15 146.27 Z" />
</g>
<g id="#ebd6b7ff">
<path fill="#ebd6b7" opacity="1.00" d=" M 15.91 147.58 C 16.61 147.55 18.02 147.48 18.72 147.45 C 23.53 147.63 28.34 148.62 33.13 147.56 C 34.48 147.67 35.84 147.77 37.19 147.88 C 35.83 149.23 34.43 150.55 32.89 151.70 C 31.58 152.49 30.64 153.67 30.06 155.07 C 29.51 155.32 28.42 155.80 27.87 156.05 C 28.76 154.67 29.66 153.30 30.52 151.91 C 29.29 152.71 28.07 153.54 26.85 154.36 C 25.44 154.52 24.06 154.85 22.69 155.21 C 23.57 153.96 24.53 152.77 25.37 151.49 C 24.36 151.89 23.37 152.35 22.42 152.86 L 21.64 152.88 C 20.58 152.36 19.52 151.81 18.49 151.23 C 17.51 150.10 16.61 148.90 15.91 147.58 Z" />
<path fill="#ebd6b7" opacity="1.00" d=" M 20.29 156.87 C 20.64 156.45 20.64 156.45 20.29 156.87 Z" />
<path fill="#ebd6b7" opacity="1.00" d=" M 32.96 157.04 C 33.54 156.82 34.69 156.38 35.27 156.16 C 33.88 157.97 32.58 159.85 31.17 161.65 C 30.62 161.34 29.52 160.74 28.97 160.43 C 29.45 160.20 30.43 159.74 30.91 159.51 C 32.09 159.10 32.77 158.27 32.96 157.04 Z" />
<path fill="#ebd6b7" opacity="1.00" d=" M 5.07 172.11 C 5.25 171.94 5.61 171.60 5.79 171.43 L 5.71 172.03 L 5.07 172.11 Z" />
</g>
<g id="#c4a182ff">
<path fill="#c4a182" opacity="1.00" d=" M 37.19 147.88 C 39.50 148.03 41.81 147.72 44.03 147.10 C 43.73 148.85 43.46 150.60 43.24 152.36 C 42.70 152.20 41.63 151.88 41.10 151.72 C 39.54 150.02 37.52 152.78 40.05 153.17 C 39.84 153.50 39.43 154.16 39.22 154.49 L 38.07 153.61 C 38.06 153.18 38.04 152.30 38.03 151.86 C 36.32 151.79 34.60 151.71 32.89 151.70 C 34.43 150.55 35.83 149.23 37.19 147.88 Z" />
</g>
<g id="#7d5937ff">
<path fill="#7d5937" opacity="1.00" d=" M 83.00 146.73 C 83.68 146.83 85.03 147.05 85.70 147.16 C 85.86 147.82 86.16 149.14 86.32 149.80 C 87.22 149.52 88.11 149.24 89.01 148.95 C 88.88 149.60 88.63 150.91 88.50 151.57 C 87.34 151.90 86.18 152.24 85.01 152.58 C 86.87 152.60 88.72 152.63 90.57 152.66 C 90.48 153.49 90.30 155.15 90.21 155.98 C 88.60 155.07 86.96 154.21 85.29 153.41 C 85.41 154.30 85.64 156.07 85.75 156.96 C 85.06 157.40 83.67 158.28 82.98 158.73 C 83.27 155.27 82.95 151.82 82.55 148.39 C 82.66 147.98 82.89 147.14 83.00 146.73 Z" />
</g>
<g id="#74f445ff">
<path fill="#74f445" opacity="1.00" d=" M 54.05 148.02 C 58.10 147.94 62.15 147.96 66.19 148.30 C 66.13 148.65 66.02 149.36 65.96 149.72 C 61.96 150.04 57.95 150.04 53.94 150.12 C 53.97 149.59 54.02 148.54 54.05 148.02 Z" />
</g>
<g id="#64b446ff">
<path fill="#64b446" opacity="1.00" d=" M 82.27 149.39 L 82.55 148.39 C 82.95 151.82 83.27 155.27 82.98 158.73 L 82.94 159.58 C 81.81 156.30 81.45 152.79 82.27 149.39 Z" />
</g>
<g id="#c78940ff">
<path fill="#c78940" opacity="1.00" d=" M 7.40 150.17 C 7.98 150.69 7.98 150.69 7.40 150.17 Z" />
</g>
<g id="#2d9b0fff">
<path fill="#2d9b0f" opacity="1.00" d=" M 47.82 150.17 C 49.86 150.11 51.90 150.13 53.94 150.12 C 57.95 150.04 61.96 150.04 65.96 149.72 L 65.76 150.74 C 62.44 151.02 59.11 151.10 55.78 151.09 L 55.01 151.05 C 54.28 151.01 52.83 150.92 52.11 150.88 C 51.66 150.86 50.76 150.83 50.31 150.81 C 49.67 150.80 48.38 150.76 47.73 150.75 L 47.82 150.17 Z" />
</g>
<g id="#5a7a55ff">
<path fill="#5a7a55" opacity="1.00" d=" M 73.28 150.32 C 75.09 150.20 76.89 150.04 78.69 149.88 C 78.82 151.41 78.91 152.95 79.02 154.49 C 77.59 154.48 76.16 154.52 74.73 154.55 C 74.52 153.09 74.96 151.11 73.28 150.32 Z" />
</g>
<g id="#e3caa6ff">
<path fill="#e3caa6" opacity="1.00" d=" M 40.05 153.17 C 37.52 152.78 39.54 150.02 41.10 151.72 C 40.83 152.09 40.31 152.81 40.05 153.17 Z" />
</g>
<g id="#6f8b68ff">
<path fill="#6f8b68" opacity="1.00" d=" M 50.31 150.81 C 50.76 150.83 51.66 150.86 52.11 150.88 C 52.31 152.60 54.57 152.68 55.01 151.05 L 55.78 151.09 C 57.73 151.81 59.51 152.89 61.17 154.11 L 60.87 155.17 L 60.62 155.10 C 57.13 154.18 53.48 153.39 49.90 154.24 C 50.00 153.38 50.21 151.67 50.31 150.81 Z" />
</g>
<g id="#505558ff">
<path fill="#505558" opacity="1.00" d=" M 52.11 150.88 C 52.83 150.92 54.28 151.01 55.01 151.05 C 54.57 152.68 52.31 152.60 52.11 150.88 Z" />
</g>
<g id="#cbcdc9ff">
<path fill="#cbcdc9" opacity="1.00" d=" M 68.72 157.22 C 70.73 155.26 72.27 152.93 73.28 150.32 C 74.96 151.11 74.52 153.09 74.73 154.55 C 76.16 154.52 77.59 154.48 79.02 154.49 C 79.08 155.31 79.20 156.95 79.26 157.78 C 76.58 156.25 76.16 160.56 79.10 159.43 C 79.01 159.78 78.82 160.49 78.72 160.85 L 78.02 159.92 L 77.13 162.00 C 74.73 161.50 72.38 160.74 70.17 159.68 C 68.62 158.20 67.15 156.56 65.15 155.67 C 65.62 155.28 66.57 154.49 67.05 154.10 C 65.99 153.48 64.93 152.87 63.87 152.26 C 65.00 152.26 66.12 152.26 67.25 152.27 C 67.44 154.00 67.80 155.71 68.72 157.22 M 70.36 157.12 C 70.02 158.47 70.56 159.03 71.98 158.83 C 72.32 157.47 71.78 156.90 70.36 157.12 Z" />
<path fill="#cbcdc9" opacity="1.00" d=" M 69.49 167.88 C 69.66 167.27 69.83 166.67 70.02 166.08 C 70.18 166.62 70.49 167.72 70.65 168.27 C 73.07 167.00 75.76 166.50 78.42 166.02 C 78.32 166.59 78.12 167.71 78.02 168.27 C 75.17 168.14 72.34 168.34 69.50 168.53 L 69.49 167.88 Z" />
</g>
<g id="#8b8b8bff">
<path fill="#8b8b8b" opacity="1.00" d=" M 96.31 151.07 C 100.03 150.23 103.87 150.60 107.64 150.91 C 107.58 154.56 103.13 154.23 100.55 154.85 C 100.43 154.08 100.19 152.55 100.07 151.78 C 98.41 151.81 96.76 151.85 95.10 151.90 L 96.31 151.07 Z" />
</g>
<g id="#d0e0eeff">
<path fill="#d0e0ee" opacity="1.00" d=" M 107.64 150.91 C 108.05 150.94 108.87 151.01 109.28 151.04 L 109.21 151.63 C 109.10 152.39 108.89 153.91 108.78 154.67 C 107.97 154.98 106.36 155.61 105.55 155.92 C 103.08 155.29 100.30 155.14 98.05 156.54 L 97.86 156.59 C 97.14 155.12 96.54 155.13 96.07 156.60 L 95.29 156.40 C 94.83 156.27 93.89 156.02 93.43 155.90 C 93.03 154.79 92.63 153.69 92.23 152.59 L 92.78 152.44 C 93.55 152.25 94.33 152.08 95.10 151.90 C 96.76 151.85 98.41 151.81 100.07 151.78 C 100.19 152.55 100.43 154.08 100.55 154.85 C 103.13 154.23 107.58 154.56 107.64 150.91 Z" />
</g>
<g id="#d5ab79ff">
<path fill="#d5ab79" opacity="1.00" d=" M 3.00 151.78 C 6.46 151.99 9.95 151.68 13.36 152.40 C 12.31 153.35 11.27 154.31 10.24 155.30 C 12.03 155.29 14.70 152.78 15.69 155.49 C 16.45 154.69 17.21 153.89 17.98 153.09 C 19.20 153.04 20.42 152.95 21.64 152.88 L 22.42 152.86 C 21.27 154.39 19.72 155.49 18.00 156.28 C 17.76 156.73 17.27 157.61 17.03 158.06 C 18.12 157.66 19.20 157.27 20.29 156.87 C 19.58 158.49 18.79 160.08 17.95 161.64 C 19.20 161.17 20.46 160.71 21.72 160.25 C 19.88 157.94 22.16 157.20 24.23 156.75 C 24.02 157.54 23.81 158.34 23.62 159.13 C 23.40 160.16 23.17 161.19 22.96 162.22 C 21.24 164.35 19.37 166.35 17.72 168.53 C 20.32 167.02 22.21 164.66 23.99 162.30 C 24.75 162.48 26.27 162.84 27.03 163.02 C 25.42 164.43 23.95 166.01 22.79 167.81 C 23.83 167.27 24.85 166.72 25.85 166.12 L 25.94 166.75 C 25.87 167.89 25.76 169.03 25.63 170.17 C 26.74 169.09 27.83 167.98 29.10 167.11 C 29.69 166.96 30.85 166.65 31.44 166.50 C 31.09 167.60 30.73 168.71 30.37 169.81 C 32.47 169.11 34.63 168.61 36.85 168.53 C 35.58 170.01 33.70 170.54 31.91 171.07 C 31.33 171.24 30.17 171.58 29.59 171.75 C 29.56 172.45 29.49 173.84 29.46 174.53 C 28.49 174.60 26.55 174.72 25.58 174.78 C 26.14 174.09 27.26 172.71 27.82 172.02 C 24.48 173.70 20.88 174.82 17.15 175.21 C 17.13 171.90 20.61 170.50 22.30 168.08 C 19.90 168.99 17.86 170.61 16.94 173.07 C 16.42 173.39 15.39 174.03 14.87 174.35 C 14.51 174.14 13.79 173.72 13.43 173.50 C 11.95 173.99 10.47 174.46 8.98 174.90 C 9.37 170.81 14.85 171.37 16.31 167.85 C 12.90 169.02 9.37 170.56 8.09 174.25 C 7.27 174.39 5.64 174.67 4.82 174.81 C 5.86 173.60 6.92 172.42 7.99 171.23 C 7.44 171.28 6.34 171.38 5.79 171.43 C 5.99 170.84 6.39 169.66 6.59 169.07 C 5.09 169.32 3.65 170.19 3.09 171.67 C 3.03 169.52 3.05 167.38 3.02 165.23 C 5.67 164.36 8.51 163.54 10.35 161.29 C 8.91 161.85 7.50 162.48 6.09 163.11 C 6.07 162.51 6.02 161.31 6.00 160.71 C 5.04 161.57 4.09 162.43 3.17 163.34 C 3.15 162.83 3.10 161.80 3.08 161.29 C 3.79 160.08 4.54 158.90 5.29 157.73 L 5.90 158.29 C 6.16 158.46 6.67 158.80 6.93 158.98 C 7.07 159.04 7.34 159.16 7.48 159.22 C 9.22 158.39 11.02 157.65 12.92 157.25 C 10.91 156.74 9.06 155.79 7.74 154.17 C 7.12 155.03 6.50 155.89 5.90 156.77 C 5.51 156.29 4.73 155.34 4.34 154.86 C 4.03 155.26 3.41 156.05 3.10 156.44 C 3.07 154.88 3.04 153.33 3.00 151.78 M 15.83 157.14 C 14.53 158.22 13.24 159.33 11.96 160.44 C 12.49 160.84 13.03 161.24 13.57 161.63 C 14.27 160.10 15.05 158.62 15.83 157.14 M 15.14 161.83 C 16.50 162.14 17.09 161.59 16.91 160.20 C 15.54 159.88 14.95 160.42 15.14 161.83 M 20.23 162.29 C 20.78 162.84 20.78 162.84 20.23 162.29 M 7.00 168.19 C 7.91 167.69 8.78 167.13 9.61 166.50 C 10.74 167.80 13.87 166.57 12.83 164.78 C 14.18 165.30 15.55 165.60 16.89 164.85 C 15.38 164.62 14.09 163.84 12.79 163.09 C 10.42 164.08 7.94 165.69 7.00 168.19 M 21.41 172.80 C 22.77 173.43 24.24 171.41 23.82 170.18 C 22.58 169.72 20.69 171.56 21.41 172.80 Z" />
<path fill="#d5ab79" opacity="1.00" d=" M 95.29 156.40 L 96.07 156.60 C 96.51 156.60 97.41 156.60 97.86 156.59 L 98.05 156.54 L 100.02 157.03 C 101.29 157.67 102.61 158.53 104.11 158.31 L 103.31 159.01 C 101.88 159.04 100.45 159.01 99.02 159.03 C 98.37 159.04 97.71 159.10 97.07 159.21 L 96.90 159.09 C 96.41 158.77 95.43 158.13 94.94 157.81 L 95.29 156.40 Z" />
</g>
<g id="#b47b53ff">
<path fill="#b47b53" opacity="1.00" d=" M 30.06 155.07 C 30.64 153.67 31.58 152.49 32.89 151.70 C 34.60 151.71 36.32 151.79 38.03 151.86 C 38.04 152.30 38.06 153.18 38.07 153.61 C 37.14 154.46 36.20 155.31 35.27 156.16 C 34.69 156.38 33.54 156.82 32.96 157.04 C 31.64 156.95 28.96 158.18 30.91 159.51 C 30.43 159.74 29.45 160.20 28.97 160.43 C 29.52 160.74 30.62 161.34 31.17 161.65 C 30.88 162.02 30.31 162.77 30.02 163.15 L 29.47 162.91 C 29.11 162.77 28.38 162.47 28.01 162.32 C 27.77 162.50 27.28 162.85 27.03 163.02 C 26.27 162.84 24.75 162.48 23.99 162.30 L 22.96 162.22 C 23.17 161.19 23.40 160.16 23.62 159.13 C 25.64 157.23 29.95 158.75 30.06 155.07 M 35.26 153.17 C 35.73 153.75 35.73 153.75 35.26 153.17 Z" />
</g>
<g id="#a47149ff">
<path fill="#a47149" opacity="1.00" d=" M 40.05 153.17 C 40.31 152.81 40.83 152.09 41.10 151.72 C 41.63 151.88 42.70 152.20 43.24 152.36 C 43.19 152.74 43.10 153.49 43.05 153.87 C 41.64 155.84 40.15 157.75 38.77 159.75 C 40.26 159.14 41.75 158.53 43.23 157.91 C 43.65 162.24 42.45 166.47 41.44 170.64 C 41.89 169.59 42.32 168.54 42.72 167.49 C 43.22 168.06 44.21 169.19 44.71 169.76 C 43.73 170.48 42.87 171.32 42.12 172.27 C 42.80 173.21 43.92 173.47 45.02 173.40 C 45.63 173.69 46.85 174.28 47.46 174.57 C 46.99 174.73 46.05 175.06 45.58 175.23 C 41.56 175.43 37.53 175.45 33.52 175.23 C 33.28 174.66 32.81 173.52 32.58 172.95 C 32.36 172.59 31.94 171.87 31.72 171.51 L 31.91 171.07 C 33.70 170.54 35.58 170.01 36.85 168.53 C 34.63 168.61 32.47 169.11 30.37 169.81 C 30.73 168.71 31.09 167.60 31.44 166.50 C 30.85 166.65 29.69 166.96 29.10 167.11 C 30.11 166.42 31.14 165.79 32.17 165.14 C 32.49 160.39 37.46 158.54 39.22 154.49 C 39.43 154.16 39.84 153.50 40.05 153.17 M 31.78 168.26 C 33.38 167.90 34.98 167.49 36.63 167.51 C 36.79 166.61 36.95 165.72 37.11 164.83 C 35.16 165.66 32.78 166.16 31.78 168.26 M 38.33 168.04 C 36.76 168.26 36.86 170.92 38.64 169.91 C 40.18 169.67 40.12 167.06 38.33 168.04 M 35.45 171.01 C 35.01 172.28 37.09 173.22 38.03 172.53 C 38.50 171.28 36.37 170.15 35.45 171.01 Z" />
</g>
<g id="#84b47aff">
<path fill="#84b47a" opacity="1.00" d=" M 69.32 152.08 C 72.27 150.47 69.55 155.42 69.32 152.08 Z" />
</g>
<g id="#6c3c18ff">
<path fill="#6c3c18" opacity="1.00" d=" M 35.26 153.17 C 35.73 153.75 35.73 153.75 35.26 153.17 Z" />
</g>
<g id="#bdd0bdff">
<path fill="#bdd0bd" opacity="1.00" d=" M 49.90 154.24 C 53.48 153.39 57.13 154.18 60.62 155.10 C 59.32 155.34 58.03 155.55 56.73 155.75 L 56.66 156.68 C 58.03 156.67 59.40 156.66 60.77 156.66 C 61.08 157.20 61.69 158.29 61.99 158.84 C 60.99 158.68 58.99 158.38 57.99 158.23 L 58.40 160.11 C 58.10 159.90 57.50 159.49 57.20 159.28 C 58.81 157.82 55.76 156.77 54.66 156.48 C 54.56 156.75 54.36 157.29 54.27 157.56 L 54.04 158.79 C 53.46 158.81 52.30 158.84 51.71 158.86 C 52.06 157.71 52.41 156.55 52.78 155.41 C 51.15 157.08 50.38 161.17 47.42 160.14 C 47.38 159.60 47.30 158.53 47.26 158.00 C 47.33 157.43 47.47 156.31 47.54 155.75 C 48.04 155.99 49.03 156.49 49.53 156.73 C 49.62 156.11 49.81 154.86 49.90 154.24 Z" />
<path fill="#bdd0bd" opacity="1.00" d=" M 49.56 171.28 C 54.38 170.75 59.24 169.70 64.11 170.41 C 68.45 171.01 72.85 170.70 77.18 171.44 L 78.69 171.65 C 78.44 172.67 78.19 173.69 77.90 174.70 C 77.43 174.78 76.49 174.96 76.01 175.05 C 76.52 174.51 77.54 173.43 78.05 172.89 C 75.40 172.81 72.75 172.65 70.10 172.65 C 67.66 172.36 65.40 173.09 63.55 174.68 C 61.67 173.11 59.43 172.54 57.01 172.95 L 56.14 172.96 C 54.04 173.01 51.93 173.01 49.82 172.99 C 49.76 172.56 49.62 171.70 49.56 171.28 Z" />
</g>
<g id="#8c5431ff">
<path fill="#8c5431" opacity="1.00" d=" M 35.27 156.16 C 36.20 155.31 37.14 154.46 38.07 153.61 L 39.22 154.49 C 37.46 158.54 32.49 160.39 32.17 165.14 C 31.14 165.79 30.11 166.42 29.10 167.11 C 27.83 167.98 26.74 169.09 25.63 170.17 C 25.76 169.03 25.87 167.89 25.94 166.75 C 27.92 166.53 28.90 164.54 30.02 163.15 C 30.31 162.77 30.88 162.02 31.17 161.65 C 32.58 159.85 33.88 157.97 35.27 156.16 Z" />
</g>
<g id="#703b1aff">
<path fill="#703b1a" opacity="1.00" d=" M 38.77 159.75 C 40.15 157.75 41.64 155.84 43.05 153.87 C 43.10 155.21 43.16 156.56 43.23 157.91 C 41.75 158.53 40.26 159.14 38.77 159.75 Z" />
</g>
<g id="#96ac91ff">
<path fill="#96ac91" opacity="1.00" d=" M 61.17 154.11 C 62.84 153.71 63.49 154.33 63.11 155.97 C 62.55 155.77 61.43 155.37 60.87 155.17 L 61.17 154.11 Z" />
</g>
<g id="#bb8e5bff">
<path fill="#bb8e5b" opacity="1.00" d=" M 4.34 154.86 C 4.73 155.34 5.51 156.29 5.90 156.77 C 5.75 157.01 5.44 157.49 5.29 157.73 C 4.54 158.90 3.79 160.08 3.08 161.29 C 3.04 159.67 2.86 158.04 3.10 156.44 C 3.41 156.05 4.03 155.26 4.34 154.86 Z" />
</g>
<g id="#e7c899ff">
<path fill="#e7c899" opacity="1.00" d=" M 22.30 155.62 C 22.40 155.52 22.59 155.31 22.69 155.21 L 22.30 155.62 Z" />
</g>
<g id="#e7d9c7ff">
<path fill="#e7d9c7" opacity="1.00" d=" M 7.86 155.74 C 8.49 156.89 8.13 158.35 6.93 158.98 C 6.67 158.80 6.16 158.46 5.90 158.29 C 6.39 157.65 7.37 156.38 7.86 155.74 Z" />
</g>
<g id="#e3be8aff">
<path fill="#e3be8a" opacity="1.00" d=" M 24.23 156.75 C 24.53 156.30 24.53 156.30 24.23 156.75 Z" />
</g>
<g id="#4f709dff">
<path fill="#4f709d" opacity="1.00" d=" M 96.07 156.60 C 96.54 155.13 97.14 155.12 97.86 156.59 C 97.41 156.60 96.51 156.60 96.07 156.60 Z" />
</g>
<g id="#c7cbc5ff">
<path fill="#c7cbc5" opacity="1.00" d=" M 104.98 157.20 C 107.91 156.93 110.82 156.43 113.74 156.07 C 113.96 158.01 114.04 159.96 113.98 161.91 C 110.28 161.67 106.00 162.14 103.31 159.01 L 104.11 158.31 C 104.33 158.03 104.76 157.48 104.98 157.20 M 111.38 158.14 C 111.02 159.51 111.55 160.00 112.96 159.61 C 113.33 158.24 112.80 157.75 111.38 158.14 Z" />
</g>
<g id="#65220cff">
<path fill="#65220c" opacity="1.00" d=" M 30.91 159.51 C 28.96 158.18 31.64 156.95 32.96 157.04 C 32.77 158.27 32.09 159.10 30.91 159.51 Z" />
</g>
<g id="#7e7871ff">
<path fill="#7e7871" opacity="1.00" d=" M 70.36 157.12 C 71.78 156.90 72.32 157.47 71.98 158.83 C 70.56 159.03 70.02 158.47 70.36 157.12 Z" />
</g>
<g id="#3a5f10ff">
<path fill="#3a5f10" opacity="1.00" d=" M 85.75 156.96 C 85.90 157.20 86.21 157.67 86.36 157.91 C 86.39 159.34 86.40 160.77 86.39 162.20 C 85.26 162.49 84.13 162.77 83.01 163.05 C 83.00 161.89 82.98 160.73 82.94 159.58 L 82.98 158.73 C 83.67 158.28 85.06 157.40 85.75 156.96 Z" />
<path fill="#3a5f10" opacity="1.00" d=" M 100.02 157.03 C 101.66 156.66 103.37 156.61 104.98 157.20 C 104.76 157.48 104.33 158.03 104.11 158.31 C 102.61 158.53 101.29 157.67 100.02 157.03 Z" />
</g>
<g id="#312410ff">
<path fill="#312410" opacity="1.00" d=" M 86.36 157.91 C 88.26 160.52 88.42 164.62 85.93 166.92 C 85.20 166.89 83.73 166.83 83.00 166.80 L 82.82 166.33 C 82.87 165.51 82.96 163.87 83.01 163.05 C 84.13 162.77 85.26 162.49 86.39 162.20 C 86.40 160.77 86.39 159.34 86.36 157.91 Z" />
</g>
<g id="#eaeaeaff">
<path fill="#eaeaea" opacity="1.00" d=" M 89.52 157.71 L 91.51 157.69 C 91.46 159.33 91.41 160.98 91.35 162.63 C 91.67 162.68 92.31 162.78 92.63 162.83 C 93.48 163.24 95.17 164.05 96.02 164.46 C 93.84 164.53 91.67 164.53 89.50 164.50 C 89.50 162.24 89.51 159.97 89.52 157.71 Z" />
</g>
<g id="#bec1bcff">
<path fill="#bec1bc" opacity="1.00" d=" M 97.07 159.21 C 97.71 159.10 98.37 159.04 99.02 159.03 C 98.98 160.73 98.75 162.52 97.65 163.89 C 96.69 162.56 97.23 160.75 97.07 159.21 Z" />
</g>
<g id="#b89c6aff">
<path fill="#b89c6a" opacity="1.00" d=" M 111.38 158.14 C 112.80 157.75 113.33 158.24 112.96 159.61 C 111.55 160.00 111.02 159.51 111.38 158.14 Z" />
</g>
<g id="#949490ff">
<path fill="#949490" opacity="1.00" d=" M 99.02 159.03 C 100.45 159.01 101.88 159.04 103.31 159.01 C 106.00 162.14 110.28 161.67 113.98 161.91 C 113.92 162.35 113.78 163.24 113.71 163.68 C 109.31 164.43 104.84 163.44 100.46 163.98 L 99.71 165.50 C 99.19 165.10 98.16 164.29 97.65 163.89 C 98.75 162.52 98.98 160.73 99.02 159.03 Z" />
</g>
<g id="#722d18ff">
<path fill="#722d18" opacity="1.00" d=" M 15.14 161.83 C 14.95 160.42 15.54 159.88 16.91 160.20 C 17.09 161.59 16.50 162.14 15.14 161.83 Z" />
</g>
<g id="#91623eff">
<path fill="#91623e" opacity="1.00" d=" M 3.17 163.34 C 4.09 162.43 5.04 161.57 6.00 160.71 C 6.02 161.31 6.07 162.51 6.09 163.11 C 7.50 162.48 8.91 161.85 10.35 161.29 C 8.51 163.54 5.67 164.36 3.02 165.23 C 3.06 164.76 3.13 163.81 3.17 163.34 Z" />
</g>
<g id="#bff4b8ff">
<path fill="#bff4b8" opacity="1.00" d=" M 52.56 161.79 C 54.84 161.62 57.11 161.29 59.36 160.88 C 59.68 160.82 60.32 160.71 60.64 160.66 C 63.15 160.35 65.71 160.56 67.88 161.96 L 65.96 162.93 C 65.37 162.67 64.77 162.42 64.18 162.16 C 64.26 163.04 64.43 164.80 64.51 165.68 C 63.31 165.85 62.10 166.01 60.90 166.16 C 60.44 166.19 59.53 166.26 59.07 166.30 C 59.86 165.23 60.63 164.15 61.40 163.07 C 57.26 163.18 53.22 164.07 49.23 165.09 C 49.39 165.59 49.71 166.61 49.86 167.12 L 48.56 167.35 L 48.08 166.84 C 47.54 165.31 47.27 163.71 46.96 162.13 C 48.82 162.08 50.69 161.95 52.56 161.79 Z" />
</g>
<g id="#66441eff">
<path fill="#66441e" opacity="1.00" d=" M 20.23 162.29 C 20.78 162.84 20.78 162.84 20.23 162.29 Z" />
</g>
<g id="#74ef50ff">
<path fill="#74ef50" opacity="1.00" d=" M 45.14 170.24 C 45.84 167.63 44.69 163.94 46.96 162.13 C 47.27 163.71 47.54 165.31 48.08 166.84 C 48.41 167.85 48.75 168.85 49.10 169.85 C 47.78 170.30 46.45 170.76 45.13 171.23 L 45.14 170.24 Z" />
</g>
<g id="#b1d9abff">
<path fill="#b1d9ab" opacity="1.00" d=" M 77.21 163.72 C 76.96 162.48 77.48 161.92 78.76 162.06 C 78.75 162.50 78.71 163.37 78.70 163.80 L 77.96 164.24 L 77.21 163.72 Z" />
</g>
<g id="#edddb6ff">
<path fill="#edddb6" opacity="1.00" d=" M 25.85 166.12 C 26.40 164.49 27.67 163.09 29.47 162.91 L 30.02 163.15 C 28.90 164.54 27.92 166.53 25.94 166.75 L 25.85 166.12 Z" />
</g>
<g id="#b6adb6ff">
<path fill="#b6adb6" opacity="1.00" d=" M 49.23 165.09 C 53.22 164.07 57.26 163.18 61.40 163.07 C 60.63 164.15 59.86 165.23 59.07 166.30 C 56.00 166.50 52.90 166.51 49.86 167.12 C 49.71 166.61 49.39 165.59 49.23 165.09 Z" />
</g>
<g id="#5ade26ff">
<path fill="#5ade26" opacity="1.00" d=" M 69.72 164.66 C 70.53 164.52 72.14 164.25 72.95 164.12 C 72.21 165.26 71.23 165.66 70.01 165.31 L 69.72 164.66 Z" />
</g>
<g id="#653119ff">
<path fill="#653119" opacity="1.00" d=" M 31.78 168.26 C 32.78 166.16 35.16 165.66 37.11 164.83 C 36.95 165.72 36.79 166.61 36.63 167.51 C 34.98 167.49 33.38 167.90 31.78 168.26 Z" />
</g>
<g id="#606763ff">
<path fill="#606763" opacity="1.00" d=" M 102.39 165.39 C 103.68 165.07 106.35 164.29 106.88 165.95 C 105.97 167.85 103.28 166.48 102.39 165.39 Z" />
</g>
<g id="#6d962fff">
<path fill="#6d962f" opacity="1.00" d=" M 82.12 172.82 C 81.90 170.68 81.35 168.15 82.82 166.33 L 83.00 166.80 C 83.11 167.22 83.34 168.07 83.45 168.49 C 83.30 169.94 83.40 171.83 82.12 172.82 Z" />
</g>
<g id="#405a33ff">
<path fill="#405a33" opacity="1.00" d=" M 107.98 165.03 L 109.14 166.11 C 109.00 166.75 108.71 168.03 108.56 168.68 C 107.95 170.32 107.22 171.92 106.49 173.52 C 108.33 172.29 110.27 171.23 112.26 170.28 C 112.57 171.86 112.89 173.44 113.28 175.01 C 107.76 177.02 101.55 177.49 95.93 175.62 C 95.71 175.75 95.28 176.01 95.07 176.14 C 90.39 174.32 85.31 175.55 80.48 175.89 C 72.35 176.91 64.15 176.84 55.97 176.76 C 52.46 176.66 48.89 176.52 45.58 175.23 C 46.05 175.06 46.99 174.73 47.46 174.57 C 48.35 174.70 49.23 174.85 50.11 175.00 C 51.60 175.26 53.10 175.51 54.60 175.68 C 56.50 175.83 58.41 175.88 60.32 175.91 C 62.42 175.91 64.52 175.81 66.62 175.70 C 69.76 175.55 72.91 175.52 76.01 175.05 C 76.49 174.96 77.43 174.78 77.90 174.70 C 79.45 174.44 80.86 173.75 82.12 172.82 C 83.40 171.83 83.30 169.94 83.45 168.49 C 83.70 168.66 84.20 169.01 84.44 169.18 C 84.47 169.98 84.51 171.57 84.53 172.37 C 87.85 173.92 91.54 173.47 95.08 173.40 C 98.36 173.05 102.16 174.35 104.95 172.10 C 103.28 171.88 101.61 171.69 99.93 171.54 C 100.82 171.33 102.61 170.90 103.50 170.69 C 103.72 170.63 104.16 170.50 104.38 170.44 C 104.35 169.69 104.28 168.18 104.24 167.43 C 106.21 167.77 107.78 167.31 107.98 165.03 Z" />
</g>
<g id="#b3bdc7ff">
<path fill="#b3bdc7" opacity="1.00" d=" M 109.14 166.11 C 109.62 166.54 110.11 166.97 110.59 167.40 C 112.21 166.02 114.56 166.26 113.61 168.95 C 111.64 169.73 109.66 170.46 107.71 171.28 L 108.56 168.68 C 108.71 168.03 109.00 166.75 109.14 166.11 Z" />
</g>
<g id="#d7ae50ff">
<path fill="#d7ae50" opacity="1.00" d=" M 83.00 166.80 C 83.73 166.83 85.20 166.89 85.93 166.92 C 88.92 166.76 91.92 166.61 94.92 166.67 L 94.96 167.90 L 94.99 168.99 C 91.49 169.33 87.95 169.65 84.44 169.18 C 84.20 169.01 83.70 168.66 83.45 168.49 C 83.34 168.07 83.11 167.22 83.00 166.80 Z" />
</g>
<g id="#805132ff">
<path fill="#805132" opacity="1.00" d=" M 38.33 168.04 C 40.12 167.06 40.18 169.67 38.64 169.91 C 36.86 170.92 36.76 168.26 38.33 168.04 Z" />
</g>
<g id="#cac3c8ff">
<path fill="#cac3c8" opacity="1.00" d=" M 94.96 167.90 L 95.61 167.98 C 97.86 168.41 100.23 168.27 102.39 169.11 C 100.99 171.68 97.38 170.13 95.03 170.24 L 94.99 168.99 L 94.96 167.90 Z" />
</g>
<g id="#7c3e20ff">
<path fill="#7c3e20" opacity="1.00" d=" M 3.09 171.67 C 3.65 170.19 5.09 169.32 6.59 169.07 C 6.39 169.66 5.99 170.84 5.79 171.43 C 5.61 171.60 5.25 171.94 5.07 172.11 C 4.67 172.14 3.87 172.20 3.47 172.22 L 3.09 171.67 Z" />
</g>
<g id="#4ebd39ff">
<path fill="#4ebd39" opacity="1.00" d=" M 50.01 169.30 C 51.53 168.35 53.36 168.86 54.90 169.47 C 53.41 170.07 51.03 171.22 50.01 169.30 Z" />
</g>
<g id="#d29808ff">
<path fill="#d29808" opacity="1.00" d=" M 84.44 169.18 C 87.95 169.65 91.49 169.33 94.99 168.99 L 95.03 170.24 C 95.04 171.03 95.07 172.61 95.08 173.40 C 91.54 173.47 87.85 173.92 84.53 172.37 C 84.51 171.57 84.47 169.98 84.44 169.18 Z" />
</g>
<g id="#744c29ff">
<path fill="#744c29" opacity="1.00" d=" M 44.71 169.76 L 45.14 170.24 L 45.13 171.23 C 45.10 171.78 45.05 172.86 45.02 173.40 C 43.92 173.47 42.80 173.21 42.12 172.27 C 42.87 171.32 43.73 170.48 44.71 169.76 Z" />
</g>
<g id="#a8f18bff">
<path fill="#a8f18b" opacity="1.00" d=" M 45.13 171.23 C 46.45 170.76 47.78 170.30 49.10 169.85 C 49.22 170.20 49.44 170.92 49.56 171.28 C 49.62 171.70 49.76 172.56 49.82 172.99 C 49.90 173.49 50.04 174.50 50.11 175.00 C 49.23 174.85 48.35 174.70 47.46 174.57 C 46.85 174.28 45.63 173.69 45.02 173.40 C 45.05 172.86 45.10 171.78 45.13 171.23 Z" />
</g>
<g id="#bfbbabff">
<path fill="#bfbbab" opacity="1.00" d=" M 113.55 169.67 C 118.58 169.42 124.67 168.72 128.37 172.93 C 124.45 175.81 120.13 179.14 114.97 178.71 C 107.22 178.27 99.36 179.03 91.71 177.42 C 87.99 176.71 84.11 177.09 80.48 175.89 C 85.31 175.55 90.39 174.32 95.07 176.14 C 95.28 176.01 95.71 175.75 95.93 175.62 C 101.55 177.49 107.76 177.02 113.28 175.01 C 113.60 175.30 114.24 175.87 114.56 176.15 C 113.62 176.57 111.74 177.39 110.80 177.81 C 112.50 177.58 114.20 177.35 115.89 177.03 C 117.77 175.98 119.31 174.45 120.78 172.89 C 118.61 171.39 116.07 170.73 113.47 170.57 L 113.55 169.67 Z" />
</g>
<g id="#a39572ff">
<path fill="#a39572" opacity="1.00" d=" M 113.47 170.57 C 116.07 170.73 118.61 171.39 120.78 172.89 C 119.31 174.45 117.77 175.98 115.89 177.03 C 115.20 175.61 114.50 174.18 113.79 172.77 C 113.71 172.22 113.55 171.12 113.47 170.57 Z" />
</g>
<g id="#dbb889ff">
<path fill="#dbb889" opacity="1.00" d=" M 3.47 172.22 C 3.87 172.20 4.67 172.14 5.07 172.11 C 5.01 173.43 4.36 174.05 3.13 173.97 C 3.21 173.53 3.38 172.66 3.47 172.22 Z" />
</g>
<g id="#7a5840ff">
<path fill="#7a5840" opacity="1.00" d=" M 33.52 175.23 C 31.99 175.77 30.56 173.29 32.58 172.95 C 32.81 173.52 33.28 174.66 33.52 175.23 Z" />
</g>
<g id="#6ff445ff">
<path fill="#6ff445" opacity="1.00" d=" M 49.82 172.99 C 51.93 173.01 54.04 173.01 56.14 172.96 C 55.76 173.64 54.99 175.00 54.60 175.68 C 53.10 175.51 51.60 175.26 50.11 175.00 C 50.04 174.50 49.90 173.49 49.82 172.99 Z" />
</g>
<g id="#4fe633ff">
<path fill="#4fe633" opacity="1.00" d=" M 56.14 172.96 L 57.01 172.95 C 58.14 173.89 59.23 174.90 60.32 175.91 C 58.41 175.88 56.50 175.83 54.60 175.68 C 54.99 175.00 55.76 173.64 56.14 172.96 Z" />
</g>
<g id="#73ef53ff">
<path fill="#73ef53" opacity="1.00" d=" M 57.01 172.95 C 59.43 172.54 61.67 173.11 63.55 174.68 C 65.40 173.09 67.66 172.36 70.10 172.65 C 68.88 173.59 67.74 174.64 66.62 175.70 C 64.52 175.81 62.42 175.91 60.32 175.91 C 59.23 174.90 58.14 173.89 57.01 172.95 Z" />
</g>
<g id="#50f42aff">
<path fill="#50f42a" opacity="1.00" d=" M 70.10 172.65 C 72.75 172.65 75.40 172.81 78.05 172.89 C 77.54 173.43 76.52 174.51 76.01 175.05 C 72.91 175.52 69.76 175.55 66.62 175.70 C 67.74 174.64 68.88 173.59 70.10 172.65 Z" />
</g>
</svg>
