<?xml version="1.0" encoding="UTF-8" ?>
<!DOCTYPE svg PUBLIC "-//W3C//DTD SVG 1.1//EN" "http://www.w3.org/Graphics/SVG/1.1/DTD/svg11.dtd">
<svg width="7pt" height="13pt" viewBox="0 0 7 13" version="1.1" xmlns="http://www.w3.org/2000/svg">
<g id="#fdfdfdfd">
<path fill="#fdfdfd" opacity="1.00" d=" M 2.87 0.00 L 7.00 0.00 L 7.00 2.12 C 6.53 2.12 5.59 2.10 5.12 2.09 C 5.12 2.55 5.12 3.45 5.12 3.91 C 5.59 3.90 6.53 3.88 7.00 3.88 L 7.00 6.00 C 6.50 6.00 5.50 6.00 5.00 6.00 C 5.00 7.50 5.00 10.50 5.00 12.00 C 4.25 12.00 2.75 12.00 2.00 12.00 C 2.00 10.50 2.00 7.51 2.00 6.01 L 1.00 5.99 C 1.00 5.49 1.00 4.51 1.00 4.01 L 2.00 3.99 C 2.00 3.25 2.00 1.75 2.00 1.01 L 3.13 0.97 L 2.87 0.00 Z" />
</g>
</svg>
