<?xml version="1.0" encoding="UTF-8" ?>
<!DOCTYPE svg PUBLIC "-//W3C//DTD SVG 1.1//EN" "http://www.w3.org/Graphics/SVG/1.1/DTD/svg11.dtd">
<svg width="15pt" height="13pt" viewBox="0 0 15 13" version="1.1" xmlns="http://www.w3.org/2000/svg">
<g id="#f4f4f4fa">
<path fill="#f4f4f4" opacity="0.98" d=" M 1.92 0.00 L 8.10 0.00 C 8.10 1.72 7.82 3.41 7.15 5.00 C 7.55 6.33 8.80 8.24 7.33 9.33 C 5.68 11.76 0.21 10.30 1.06 7.17 C 1.94 6.48 2.93 6.01 4.01 5.74 C 2.26 4.29 1.69 2.23 1.92 0.00 M 4.21 1.14 C 3.26 2.25 4.03 5.02 5.79 3.86 C 6.74 2.75 5.97 -0.02 4.21 1.14 M 3.14 7.21 C 1.98 8.97 4.75 9.74 5.86 8.79 C 7.02 7.03 4.25 6.26 3.14 7.21 Z" />
<path fill="#f4f4f4" opacity="0.98" d=" M 11.11 1.04 L 11.89 1.04 C 11.71 2.60 12.40 3.29 13.96 3.11 L 13.96 3.89 C 12.40 3.71 11.71 4.40 11.89 5.96 L 11.11 5.96 C 11.29 4.40 10.60 3.71 9.04 3.89 L 9.04 3.11 C 10.60 3.29 11.29 2.60 11.11 1.04 Z" />
</g>
</svg>
