<?xml version="1.0" encoding="UTF-8" ?>
<!DOCTYPE svg PUBLIC "-//W3C//DTD SVG 1.1//EN" "http://www.w3.org/Graphics/SVG/1.1/DTD/svg11.dtd">
<svg width="176pt" height="59pt" viewBox="0 0 176 59" version="1.1" xmlns="http://www.w3.org/2000/svg">
<path fill="#1eb53a" opacity="1.00" d=" M 26.62 0.00 L 32.29 0.00 C 34.97 0.39 37.65 0.94 40.20 1.89 C 31.55 4.59 22.93 9.10 17.86 16.89 C 13.91 22.76 12.24 29.98 12.50 37.00 C 12.77 43.33 16.66 50.10 23.20 51.54 C 30.79 53.03 38.63 49.77 44.42 45.02 C 44.18 37.39 44.41 29.76 44.40 22.13 C 39.88 23.85 35.30 25.39 30.76 27.02 C 30.74 29.71 30.72 32.40 30.73 35.09 C 32.29 34.59 33.85 34.11 35.41 33.61 C 35.48 35.70 35.40 37.79 35.30 39.88 C 32.45 40.97 29.17 42.35 26.17 40.95 C 23.49 39.27 22.97 35.89 23.06 32.98 C 22.81 26.49 27.04 20.65 32.29 17.22 C 38.34 13.61 45.27 11.99 51.95 9.99 C 59.65 18.35 61.53 31.35 56.80 41.63 C 52.57 51.24 42.92 58.03 32.49 59.00 L 27.43 59.00 C 17.99 58.36 9.09 52.88 4.23 44.76 C -1.39 35.65 -1.37 23.42 4.21 14.30 C 8.90 6.33 17.51 1.14 26.62 0.00 Z" />
<path fill="#ffffff" opacity="1.00" d=" M 17.86 16.89 C 22.93 9.10 31.55 4.59 40.20 1.89 C 44.69 3.62 48.72 6.43 51.95 9.99 C 45.27 11.99 38.34 13.61 32.29 17.22 C 27.04 20.65 22.81 26.49 23.06 32.98 C 22.97 35.89 23.49 39.27 26.17 40.95 C 29.17 42.35 32.45 40.97 35.30 39.88 C 35.40 37.79 35.48 35.70 35.41 33.61 C 33.85 34.11 32.29 34.59 30.73 35.09 C 30.72 32.40 30.74 29.71 30.76 27.02 C 35.30 25.39 39.88 23.85 44.40 22.13 C 44.41 29.76 44.18 37.39 44.42 45.02 C 38.63 49.77 30.79 53.03 23.20 51.54 C 16.66 50.10 12.77 43.33 12.50 37.00 C 12.24 29.98 13.91 22.76 17.86 16.89 Z" />
<path fill="#2b2a29" opacity="1.00" d=" M 142.47 18.29 C 146.32 15.60 151.50 16.02 155.74 17.52 C 155.78 19.26 155.02 20.94 154.35 22.51 C 151.70 21.19 147.35 20.11 145.46 23.10 C 145.10 25.49 148.25 26.28 149.99 27.02 C 153.48 28.11 157.36 30.87 156.83 35.01 C 157.06 38.91 153.48 41.81 149.92 42.45 C 146.25 43.02 142.28 42.81 138.94 41.04 C 139.58 39.49 140.01 37.87 140.35 36.23 C 143.53 37.67 149.45 39.55 151.03 35.16 C 149.55 31.34 144.41 31.98 141.90 29.15 C 138.33 26.55 138.82 20.61 142.47 18.29 Z" />
<path fill="#2b2a29" opacity="1.00" d=" M 161.38 18.44 C 165.36 15.71 170.97 15.67 175.18 17.88 C 174.65 19.36 174.21 20.86 173.76 22.37 C 170.99 21.39 165.15 19.74 164.67 23.96 C 167.15 28.00 174.28 27.00 175.77 32.39 L 176.00 30.50 L 176.00 36.89 C 173.26 43.83 164.07 43.74 158.25 41.20 C 158.59 39.52 159.19 37.91 159.60 36.26 C 161.92 37.31 164.44 38.08 167.03 37.76 C 168.72 37.91 170.74 36.04 169.99 34.29 C 167.83 31.62 163.94 31.69 161.40 29.50 C 157.73 27.01 157.81 20.98 161.38 18.44 Z" />
<path fill="#2b2a29" opacity="1.00" d=" M 69.03 21.96 C 73.48 16.02 82.11 15.40 88.66 17.69 C 88.20 19.30 87.73 20.91 87.36 22.54 C 83.91 21.21 79.81 20.75 76.46 22.62 C 71.37 25.66 71.70 34.44 77.06 37.00 C 79.12 38.05 81.51 37.88 83.73 37.58 C 83.86 35.84 83.75 34.10 83.81 32.36 C 82.89 32.35 81.05 32.34 80.13 32.33 L 79.57 31.47 C 79.58 30.49 79.60 28.53 79.61 27.56 C 82.87 27.64 86.19 27.20 89.43 27.74 C 89.29 32.23 89.35 36.72 89.39 41.21 C 84.20 42.79 78.29 43.48 73.21 41.19 C 66.12 38.03 64.85 27.90 69.03 21.96 Z" />
<path fill="#2b2a29" opacity="1.00" d=" M 93.24 17.16 C 98.56 16.54 104.64 15.53 109.45 18.54 C 113.39 21.63 112.28 28.37 107.64 30.20 C 111.37 33.13 111.20 38.28 112.75 42.38 C 110.81 42.41 108.87 42.37 106.93 42.40 C 104.63 39.43 106.07 33.96 101.96 32.42 C 101.27 32.41 99.90 32.39 99.22 32.38 C 99.41 35.70 99.32 39.03 99.38 42.36 C 97.34 42.38 95.30 42.41 93.26 42.38 C 93.29 33.99 93.35 25.57 93.24 17.16 M 99.28 21.24 C 99.32 23.49 99.38 25.75 99.25 28.00 C 102.00 28.85 106.45 27.39 106.02 23.83 C 105.25 20.77 101.75 20.99 99.28 21.24 Z" />
<path fill="#2b2a29" opacity="1.00" d=" M 113.84 42.36 C 116.82 33.98 119.08 25.35 121.82 16.88 C 124.44 16.83 127.11 16.58 129.72 17.01 C 132.28 25.49 134.96 33.94 137.63 42.38 C 135.46 42.41 133.29 42.39 131.12 42.34 C 130.48 40.14 129.82 37.94 129.06 35.77 C 126.72 35.74 124.38 35.73 122.05 35.77 C 121.40 37.94 120.78 40.12 120.24 42.32 C 118.10 42.43 115.97 42.40 113.84 42.36 M 125.22 22.07 C 124.76 25.29 123.69 28.35 122.80 31.46 C 124.65 31.51 126.49 31.50 128.33 31.46 C 127.07 28.42 126.91 24.74 125.22 22.07 Z" />
</svg>
