<?xml version="1.0" encoding="UTF-8" ?>
<!DOCTYPE svg PUBLIC "-//W3C//DTD SVG 1.1//EN" "http://www.w3.org/Graphics/SVG/1.1/DTD/svg11.dtd">
<svg width="25pt" height="17pt" viewBox="0 0 25 17" version="1.1" xmlns="http://www.w3.org/2000/svg">
<g id="#091d082f">
<path fill="#091d08" opacity="0.18" d=" M 0.00 16.51 C 0.13 16.63 0.40 16.88 0.54 17.00 L 0.00 17.00 L 0.00 16.51 Z" />
<path fill="#091d08" opacity="0.18" d=" M 24.51 17.00 C 24.63 16.87 24.88 16.60 25.00 16.46 L 25.00 17.00 L 24.51 17.00 Z" />
</g>
<g id="#349e2dff">
<path fill="#349e2d" opacity="1.00" d=" M 1.07 0.00 L 23.87 0.00 C 21.01 2.43 18.14 4.86 15.08 7.06 C 13.99 7.82 12.42 8.86 11.14 7.81 C 7.52 5.57 4.38 2.66 1.07 0.00 Z" />
<path fill="#349e2d" opacity="1.00" d=" M 0.00 2.35 C 3.29 4.19 6.26 6.51 9.25 8.78 C 10.60 9.59 12.24 11.37 13.85 10.01 C 17.67 7.60 21.04 4.52 25.00 2.29 L 25.00 16.46 C 24.88 16.60 24.63 16.87 24.51 17.00 L 0.54 17.00 C 0.40 16.88 0.13 16.63 0.00 16.51 L 0.00 2.35 Z" />
</g>
</svg>
