<?xml version="1.0" encoding="UTF-8" ?>
<!DOCTYPE svg PUBLIC "-//W3C//DTD SVG 1.1//EN" "http://www.w3.org/Graphics/SVG/1.1/DTD/svg11.dtd">
<svg width="25pt" height="17pt" viewBox="0 0 25 17" version="1.1" xmlns="http://www.w3.org/2000/svg">
<g id="#091d082f">
<path fill="#091d08" opacity="0.18" d=" M 0.00 0.00 L 1.07 0.00 C 4.98 2.72 8.24 7.14 12.96 8.21 C 17.04 6.17 20.33 2.84 23.86 0.00 L 25.00 0.00 L 25.00 2.29 C 21.06 4.50 17.71 7.57 13.91 9.98 C 12.29 11.40 10.65 9.64 9.28 8.80 C 6.27 6.54 3.32 4.17 0.00 2.36 L 0.00 0.00 Z" />
<path fill="#091d08" opacity="0.18" d=" M 0.00 16.46 C 0.15 16.60 0.44 16.87 0.59 17.00 L 0.00 17.00 L 0.00 16.46 Z" />
<path fill="#091d08" opacity="0.18" d=" M 24.46 17.00 C 24.60 16.85 24.87 16.56 25.00 16.41 L 25.00 17.00 L 24.46 17.00 Z" />
</g>
<g id="#349e2dff">
<path fill="#349e2d" opacity="1.00" d=" M 1.07 0.00 L 23.86 0.00 C 20.33 2.84 17.04 6.17 12.96 8.21 C 8.24 7.14 4.98 2.72 1.07 0.00 Z" />
<path fill="#349e2d" opacity="1.00" d=" M 0.00 2.36 C 3.32 4.17 6.27 6.54 9.28 8.80 C 10.65 9.64 12.29 11.40 13.91 9.98 C 17.71 7.57 21.06 4.50 25.00 2.29 L 25.00 16.41 C 24.87 16.56 24.60 16.85 24.46 17.00 L 0.59 17.00 C 0.44 16.87 0.15 16.60 0.00 16.46 L 0.00 2.36 Z" />
</g>
</svg>
