<?xml version="1.0" encoding="UTF-8" ?>
<!DOCTYPE svg PUBLIC "-//W3C//DTD SVG 1.1//EN" "http://www.w3.org/Graphics/SVG/1.1/DTD/svg11.dtd">
<svg width="445pt" height="720pt" viewBox="0 0 445 720" version="1.1" xmlns="http://www.w3.org/2000/svg">
<g id="#1eb53aff">
<path fill="#1eb53a" opacity="1.00" d=" M 206.76 0.00 L 235.28 0.00 C 252.61 1.84 269.98 4.15 286.71 9.21 C 291.77 10.76 296.81 12.38 301.91 13.81 C 298.48 15.86 295.20 18.23 291.28 19.28 C 279.27 22.85 267.97 28.34 256.46 33.20 C 248.99 37.06 240.64 38.99 233.50 43.52 C 224.15 49.56 213.96 54.20 205.01 60.88 C 195.91 65.83 188.67 73.27 180.44 79.42 C 175.83 83.12 171.93 87.59 167.75 91.75 C 163.34 96.33 158.45 100.46 154.49 105.46 C 151.51 109.16 148.72 113.01 145.63 116.62 C 139.20 124.53 134.18 133.44 129.18 142.29 C 125.24 148.08 122.31 154.48 119.93 161.05 C 109.18 185.06 102.96 210.90 99.78 236.94 C 99.35 241.59 99.71 246.26 99.57 250.91 C 98.72 251.36 97.88 251.80 97.03 252.25 C 96.91 261.41 96.88 270.57 97.04 279.73 C 97.84 280.18 98.64 280.64 99.45 281.08 C 99.86 305.55 109.02 329.33 122.96 349.25 C 126.44 353.40 129.97 357.51 132.99 362.02 C 139.28 366.02 144.39 371.57 150.80 375.39 C 156.35 378.81 162.25 381.75 168.57 383.47 C 177.00 385.55 185.17 389.28 194.01 389.11 C 203.03 388.89 212.04 389.05 221.05 389.08 C 229.23 388.36 237.06 385.70 245.13 384.29 C 266.20 378.67 286.63 370.46 305.52 359.53 C 313.57 354.58 321.64 349.65 329.44 344.31 C 331.55 342.80 333.93 340.88 333.79 338.00 C 334.17 326.33 333.64 314.65 333.84 302.98 C 334.01 296.96 335.48 291.07 335.63 285.05 C 335.66 245.98 335.64 206.90 335.93 167.83 C 312.50 175.40 289.51 184.22 266.17 192.07 C 255.59 194.68 246.05 200.45 235.28 202.44 C 235.11 222.32 235.18 242.21 235.24 262.10 C 246.58 259.34 257.57 255.34 268.96 252.79 C 269.65 265.53 269.06 278.29 269.35 291.04 C 269.10 293.93 269.76 298.10 266.41 299.40 C 254.69 305.76 241.83 309.91 228.72 312.21 C 219.34 313.48 209.35 312.55 200.84 308.21 C 196.05 305.14 192.07 300.95 188.23 296.80 C 181.03 288.30 178.40 277.08 176.50 266.37 C 175.21 258.97 175.82 251.46 175.67 244.00 C 175.06 227.74 180.05 211.91 185.92 196.93 C 192.22 182.80 201.21 170.00 211.06 158.13 C 218.17 150.86 225.05 143.24 233.44 137.39 C 241.91 131.38 250.35 125.17 259.80 120.72 C 266.40 117.54 272.87 114.02 279.80 111.58 C 287.57 108.92 294.97 105.30 302.76 102.68 C 314.80 98.48 326.54 93.36 338.91 90.16 C 348.55 87.75 357.77 83.90 367.51 81.83 C 375.96 80.22 384.11 77.07 392.78 76.68 C 406.35 93.95 418.94 112.22 427.58 132.51 C 434.20 147.47 438.79 163.30 441.67 179.40 C 443.19 187.79 443.88 196.29 445.00 204.74 L 445.00 232.26 C 442.96 249.03 440.61 265.90 435.05 281.93 C 429.30 299.72 419.87 315.95 411.79 332.73 C 394.37 368.62 371.31 401.31 349.82 434.80 C 308.03 498.00 269.93 564.42 245.47 636.42 C 238.23 657.34 232.36 678.72 227.37 700.28 C 226.05 706.56 224.72 712.83 223.02 719.02 C 219.76 706.72 217.55 694.17 214.02 681.94 C 194.38 607.16 160.66 536.69 119.55 471.43 C 104.55 447.24 88.66 423.62 73.31 399.65 C 62.89 383.56 52.55 367.40 43.46 350.51 C 33.70 332.46 22.71 315.00 15.06 295.91 C 10.61 284.78 6.88 273.34 4.34 261.61 C 2.28 252.27 1.29 242.73 0.00 233.26 L 0.00 204.74 C 1.52 192.36 2.78 179.91 5.72 167.77 C 16.05 123.02 41.90 82.46 76.67 52.68 C 103.35 29.77 135.70 13.64 169.97 5.81 C 182.03 2.75 194.45 1.67 206.76 0.00 Z" />
</g>
<g id="#ffffffff">
<path fill="#ffffff" opacity="1.00" d=" M 301.91 13.81 C 308.28 16.06 314.43 18.89 320.65 21.52 C 327.17 24.29 333.03 28.33 339.25 31.68 C 342.66 33.53 346.01 35.50 349.13 37.82 C 355.98 42.96 363.65 47.10 369.66 53.31 C 377.33 61.14 385.40 68.58 392.78 76.68 C 384.11 77.07 375.96 80.22 367.51 81.83 C 357.77 83.90 348.55 87.75 338.91 90.16 C 326.54 93.36 314.80 98.48 302.76 102.68 C 294.97 105.30 287.57 108.92 279.80 111.58 C 272.87 114.02 266.40 117.54 259.80 120.72 C 250.35 125.17 241.91 131.38 233.44 137.39 C 225.05 143.24 218.17 150.86 211.06 158.13 C 201.21 170.00 192.22 182.80 185.92 196.93 C 180.05 211.91 175.06 227.74 175.67 244.00 C 175.82 251.46 175.21 258.97 176.50 266.37 C 178.40 277.08 181.03 288.30 188.23 296.80 C 192.07 300.95 196.05 305.14 200.84 308.21 C 209.35 312.55 219.34 313.48 228.72 312.21 C 241.83 309.91 254.69 305.76 266.41 299.40 C 269.76 298.10 269.10 293.93 269.35 291.04 C 269.06 278.29 269.65 265.53 268.96 252.79 C 257.57 255.34 246.58 259.34 235.24 262.10 C 235.18 242.21 235.11 222.32 235.28 202.44 C 246.05 200.45 255.59 194.68 266.17 192.07 C 289.51 184.22 312.50 175.40 335.93 167.83 C 335.64 206.90 335.66 245.98 335.63 285.05 C 335.48 291.07 334.01 296.96 333.84 302.98 C 333.64 314.65 334.17 326.33 333.79 338.00 C 333.93 340.88 331.55 342.80 329.44 344.31 C 321.64 349.65 313.57 354.58 305.52 359.53 C 286.63 370.46 266.20 378.67 245.13 384.29 C 237.06 385.70 229.23 388.36 221.05 389.08 C 212.04 389.05 203.03 388.89 194.01 389.11 C 185.17 389.28 177.00 385.55 168.57 383.47 C 162.25 381.75 156.35 378.81 150.80 375.39 C 144.39 371.57 139.28 366.02 132.99 362.02 C 129.97 357.51 126.44 353.40 122.96 349.25 C 109.02 329.33 99.86 305.55 99.45 281.08 C 99.33 276.38 98.59 271.71 98.56 267.01 C 98.50 261.62 99.36 256.28 99.57 250.91 C 99.71 246.26 99.35 241.59 99.78 236.94 C 102.96 210.90 109.18 185.06 119.93 161.05 C 122.31 154.48 125.24 148.08 129.18 142.29 C 134.18 133.44 139.20 124.53 145.63 116.62 C 148.72 113.01 151.51 109.16 154.49 105.46 C 158.45 100.46 163.34 96.33 167.75 91.75 C 171.93 87.59 175.83 83.12 180.44 79.42 C 188.67 73.27 195.91 65.83 205.01 60.88 C 213.96 54.20 224.15 49.56 233.50 43.52 C 240.64 38.99 248.99 37.06 256.46 33.20 C 267.97 28.34 279.27 22.85 291.28 19.28 C 295.20 18.23 298.48 15.86 301.91 13.81 Z" />
</g>
<g id="#88d597f9">
<path fill="#88d597" opacity="0.98" d=" M 97.03 252.25 C 97.88 251.80 98.72 251.36 99.57 250.91 C 99.36 256.28 98.50 261.62 98.56 267.01 C 98.59 271.71 99.33 276.38 99.45 281.08 C 98.64 280.64 97.84 280.18 97.04 279.73 C 96.88 270.57 96.91 261.41 97.03 252.25 Z" />
</g>
</svg>
