<?xml version="1.0" encoding="UTF-8" ?>
<!DOCTYPE svg PUBLIC "-//W3C//DTD SVG 1.1//EN" "http://www.w3.org/Graphics/SVG/1.1/DTD/svg11.dtd">
<svg width="9pt" height="15pt" viewBox="0 0 9 15" version="1.1" xmlns="http://www.w3.org/2000/svg">
<g id="#ffffffff">
<path fill="#ffffff" opacity="1.00" d=" M 4.32 0.00 L 4.94 0.00 C 5.77 1.29 7.37 2.27 7.63 3.83 C 6.61 6.64 2.24 6.71 1.26 3.83 C 1.24 2.05 3.26 1.09 4.32 0.00 M 3.61 2.65 C 3.58 3.12 3.51 4.06 3.48 4.53 C 3.97 4.51 4.94 4.48 5.43 4.46 C 5.41 4.01 5.37 3.11 5.35 2.67 C 4.92 2.66 4.04 2.66 3.61 2.65 Z" />
<path fill="#ffffff" opacity="1.00" d=" M 3.26 8.84 C 1.73 8.72 0.78 8.07 1.29 6.40 C 3.60 6.47 5.93 6.36 8.21 6.82 C 7.51 7.51 6.79 8.20 6.06 8.87 C 6.61 9.78 7.32 10.55 8.17 11.20 C 6.18 12.62 5.14 11.14 4.59 9.33 C 4.13 11.14 2.98 12.02 1.13 11.96 C 1.26 10.57 1.99 9.44 3.26 8.84 Z" />
</g>
</svg>
