<?xml version="1.0" encoding="UTF-8" ?>
<!DOCTYPE svg PUBLIC "-//W3C//DTD SVG 1.1//EN" "http://www.w3.org/Graphics/SVG/1.1/DTD/svg11.dtd">
<svg width="512pt" height="512pt" viewBox="0 0 512 512" version="1.1" xmlns="http://www.w3.org/2000/svg">
<g id="#333333ff">
<path fill="#333333" opacity="1.00" d=" M 121.33 4.34 C 131.13 2.35 141.06 6.28 148.67 12.33 C 163.54 24.53 173.66 41.15 183.85 57.17 C 193.53 72.19 203.10 87.65 208.03 104.96 C 211.35 116.89 211.31 130.23 205.52 141.41 C 199.54 153.57 188.05 161.40 178.31 170.29 C 171.49 176.61 163.13 180.99 156.42 187.42 C 150.15 193.64 146.09 202.16 145.66 211.03 C 144.94 222.20 148.33 233.15 152.74 243.29 C 160.53 260.80 171.64 276.56 183.31 291.68 C 197.63 309.56 212.82 326.78 229.44 342.57 C 242.58 354.45 256.46 366.05 272.84 373.18 C 283.52 377.78 296.16 380.02 307.17 375.21 C 314.84 372.15 320.74 366.17 326.21 360.19 C 332.91 352.88 340.78 346.79 348.14 340.17 C 356.94 332.36 367.94 326.31 379.94 325.97 C 392.11 325.26 403.84 329.82 414.20 335.82 C 429.60 344.51 442.62 356.62 456.00 368.02 C 468.26 378.75 480.77 389.85 488.78 404.27 C 492.72 411.63 494.65 420.41 492.53 428.63 C 490.53 436.21 485.57 442.62 479.91 447.89 C 473.68 453.67 467.02 458.98 460.84 464.83 C 434.57 490.52 398.73 506.15 362.04 508.01 C 323.97 510.27 286.22 499.07 253.00 481.01 C 210.21 457.82 173.61 424.86 140.67 389.36 C 102.05 346.84 66.43 300.44 43.58 247.37 C 28.32 211.58 19.41 171.98 24.87 133.04 C 29.78 92.62 51.35 54.42 83.89 29.84 C 95.75 20.61 105.83 7.39 121.33 4.34 Z" />
</g>
</svg>
