<?xml version="1.0" encoding="UTF-8" ?>
<!DOCTYPE svg PUBLIC "-//W3C//DTD SVG 1.1//EN" "http://www.w3.org/Graphics/SVG/1.1/DTD/svg11.dtd">
<svg width="16pt" height="16pt" viewBox="0 0 16 16" version="1.1" xmlns="http://www.w3.org/2000/svg">
<g id="#ffffffff">
<path fill="#ffffff" opacity="1.00" d=" M 2.90 0.00 L 3.34 0.00 C 4.62 1.30 6.58 2.65 6.55 4.65 C 4.53 4.35 3.55 1.75 2.90 0.00 Z" />
<path fill="#ffffff" opacity="1.00" d=" M 6.51 0.00 L 11.01 0.00 L 11.56 0.78 C 10.22 2.37 7.85 0.89 6.51 0.00 Z" />
<path fill="#ffffff" opacity="1.00" d=" M 1.43 0.55 C 3.81 2.62 5.15 5.53 7.09 7.95 C 9.52 9.95 12.15 11.98 15.24 12.80 C 14.06 13.85 12.93 16.04 11.01 14.99 C 6.16 12.81 2.28 8.62 0.00 3.86 L 0.00 2.41 C 0.36 1.94 1.08 1.01 1.43 0.55 Z" />
<path fill="#ffffff" opacity="1.00" d=" M 11.56 0.78 C 11.65 1.09 11.85 1.70 11.94 2.00 C 11.85 1.70 11.65 1.09 11.56 0.78 Z" />
<path fill="#ffffff" opacity="1.00" d=" M 6.50 2.34 C 10.36 0.83 14.18 4.81 12.74 8.64 C 12.51 7.76 12.06 6.00 11.84 5.12 C 11.04 2.92 8.32 3.05 6.50 2.34 Z" />
<path fill="#ffffff" opacity="1.00" d=" M 11.94 2.00 L 12.55 1.70 L 13.05 2.24 L 12.42 2.55 L 11.94 2.00 Z" />
<path fill="#ffffff" opacity="1.00" d=" M 13.05 2.24 C 14.76 3.63 15.46 6.15 14.46 8.15 C 13.58 6.32 13.44 4.22 13.05 2.24 Z" />
<path fill="#ffffff" opacity="1.00" d=" M 10.55 8.76 C 12.19 8.42 13.40 10.20 14.63 11.03 C 15.17 11.90 14.85 12.14 13.68 11.74 C 12.66 10.91 10.40 10.33 10.55 8.76 Z" />
</g>
</svg>
