<?xml version="1.0" encoding="UTF-8" ?>
<!DOCTYPE svg PUBLIC "-//W3C//DTD SVG 1.1//EN" "http://www.w3.org/Graphics/SVG/1.1/DTD/svg11.dtd">
<svg width="294pt" height="347pt" viewBox="0 0 294 347" version="1.1" xmlns="http://www.w3.org/2000/svg">
<path fill="#dd4449" opacity="1.00" d=" M 112.50 0.00 L 181.79 0.00 C 183.38 0.58 184.98 1.14 186.56 1.76 C 198.42 5.28 208.40 15.10 211.87 27.04 C 215.14 35.33 213.70 44.32 214.00 53.00 C 240.67 53.00 267.33 53.00 294.00 53.00 L 294.00 80.00 C 285.00 80.00 276.00 79.99 267.00 80.00 C 267.00 157.35 266.99 234.69 267.01 312.03 C 265.96 320.33 262.22 328.37 256.26 334.29 C 249.45 341.66 239.70 345.86 229.82 347.00 L 63.44 347.00 C 58.17 345.72 52.63 344.88 47.98 341.87 C 34.79 334.91 26.00 319.92 26.99 304.96 C 27.01 229.97 27.00 154.99 27.00 80.00 C 18.00 79.99 9.00 80.00 0.00 80.00 L 0.00 53.97 L 0.46 53.08 C 26.97 52.89 53.50 53.06 80.02 52.99 C 80.21 43.43 79.08 33.33 83.34 24.42 C 87.62 13.86 96.61 5.33 107.40 1.65 C 109.07 1.00 111.10 1.29 112.50 0.00 M 108.13 34.42 C 106.38 40.46 107.14 46.77 107.00 53.00 C 133.67 53.00 160.33 53.00 187.00 53.00 C 186.93 47.64 187.14 42.27 186.92 36.92 C 185.86 33.43 183.58 30.32 180.56 28.27 C 176.68 26.26 172.17 26.70 167.95 26.70 C 151.98 26.79 136.01 26.57 120.05 26.78 C 114.99 26.59 110.24 29.93 108.13 34.42 M 54.00 80.00 C 53.99 156.02 54.01 232.03 53.99 308.05 C 54.00 309.64 54.73 311.09 55.21 312.58 C 57.85 317.97 64.21 320.37 69.95 320.02 C 122.32 319.98 174.69 320.00 227.06 320.01 C 228.94 319.83 230.68 319.00 232.57 318.84 C 236.26 317.37 238.27 313.94 239.94 310.58 C 240.59 288.40 240.01 266.18 240.23 243.98 C 240.15 189.32 240.31 134.67 240.15 80.01 C 178.10 79.99 116.05 80.00 54.00 80.00 Z" />
<path fill="#dd4449" opacity="1.00" d=" M 81.39 106.12 C 89.92 105.91 98.46 106.15 107.00 106.04 C 107.00 168.36 107.00 230.68 107.00 293.00 C 98.02 293.00 89.04 293.01 80.06 292.99 C 80.02 232.31 80.10 171.63 80.02 110.95 C 80.12 109.27 79.47 107.04 81.39 106.12 Z" />
<path fill="#dd4449" opacity="1.00" d=" M 134.01 106.04 C 142.32 106.11 150.62 106.00 158.92 106.05 C 160.37 106.02 161.27 107.67 160.97 108.98 C 160.91 170.32 160.98 231.66 160.94 292.99 C 151.96 293.01 142.98 293.00 134.00 293.00 C 134.00 230.68 133.99 168.36 134.01 106.04 Z" />
<path fill="#dd4449" opacity="1.00" d=" M 187.02 106.04 C 196.01 106.03 205.00 106.08 214.00 106.04 C 214.00 168.36 214.00 230.68 214.00 293.00 C 205.00 293.00 196.00 293.00 187.00 293.00 C 187.01 230.68 186.98 168.36 187.02 106.04 Z" />
</svg>
