<?xml version="1.0" encoding="UTF-8" ?>
<!DOCTYPE svg PUBLIC "-//W3C//DTD SVG 1.1//EN" "http://www.w3.org/Graphics/SVG/1.1/DTD/svg11.dtd">
<svg width="13pt" height="14pt" viewBox="0 0 13 14" version="1.1" xmlns="http://www.w3.org/2000/svg">
<g id="#fffffffc">
<path fill="#ffffff" opacity="1.00" d=" M 2.29 0.00 L 9.77 0.00 C 10.26 0.29 11.24 0.87 11.74 1.16 C 11.99 4.27 12.19 7.46 11.48 10.53 C 8.20 11.04 4.70 11.31 1.48 10.40 C 1.11 7.04 0.15 2.93 2.29 0.00 M 4.36 2.13 C 4.33 4.36 4.32 6.59 4.34 8.82 C 5.72 8.72 7.11 8.70 8.47 8.43 C 9.93 7.78 9.28 6.25 9.06 5.10 C 9.63 1.89 6.53 2.22 4.36 2.13 Z" />
<path fill="#ffffff" opacity="1.00" d=" M 6.16 3.43 C 9.54 3.31 4.81 6.45 6.16 3.43 Z" />
<path fill="#ffffff" opacity="1.00" d=" M 6.09 6.32 C 8.99 4.55 6.44 9.68 6.09 6.32 Z" />
</g>
</svg>
